M48
; DRILL file {KiCad (5.1.9)-1} date 03/23/21 20:03:08
; FORMAT={-:-/ absolute / inch / decimal}
; #@! TF.CreationDate,2021-03-23T20:03:08+09:00
; #@! TF.GenerationSoftware,Kicad,Pcbnew,(5.1.9)-1
FMAT,2
INCH
T1C0.0157
T2C0.0315
T3C0.0354
T4C0.0374
T5C0.0394
T6C0.1260
%
G90
G05
T1
X2.675Y-2.0
X2.675Y-2.15
X2.675Y-2.3
X2.675Y-2.45
X2.675Y-2.6
X2.675Y-2.75
X2.675Y-2.9
X2.675Y-3.05
X2.675Y-3.2
X2.675Y-3.35
X2.675Y-3.5
X2.675Y-3.65
X2.675Y-3.8
X2.675Y-3.95
X2.675Y-4.1
X2.675Y-4.25
X2.825Y-3.95
X2.825Y-4.0
X2.825Y-4.05
X2.825Y-4.1
X2.825Y-4.375
X2.875Y-3.95
X2.875Y-4.0
X2.875Y-4.05
X2.875Y-4.1
X2.925Y-3.95
X2.925Y-4.0
X2.925Y-4.05
X2.925Y-4.1
X2.975Y-4.375
X3.125Y-4.375
X3.275Y-4.375
X3.3Y-2.9
X3.3Y-2.95
X3.3Y-3.0
X3.3Y-3.05
X3.35Y-2.9
X3.35Y-2.95
X3.35Y-3.0
X3.35Y-3.05
X3.4Y-2.9
X3.4Y-2.95
X3.4Y-3.0
X3.4Y-3.05
X3.425Y-4.375
X3.575Y-4.375
X3.725Y-4.375
X3.875Y-4.375
X4.025Y-4.375
X4.175Y-4.375
X4.325Y-4.375
X4.475Y-4.15
X4.475Y-4.2
X4.475Y-4.25
X4.475Y-4.3
X4.475Y-4.375
X4.525Y-4.15
X4.525Y-4.2
X4.525Y-4.25
X4.525Y-4.3
X4.575Y-4.15
X4.575Y-4.2
X4.575Y-4.25
X4.575Y-4.3
X4.625Y-4.375
X4.7Y-2.25
X4.7Y-2.3
X4.7Y-2.575
X4.7Y-2.675
X4.775Y-4.375
X4.925Y-4.375
X5.075Y-2.575
X5.075Y-2.675
X5.075Y-4.375
X5.225Y-4.375
X5.375Y-4.375
X5.525Y-4.375
X5.675Y-4.375
X5.725Y-2.15
X5.725Y-2.2
X5.725Y-2.25
X5.725Y-2.3
X5.775Y-2.15
X5.775Y-2.2
X5.775Y-2.25
X5.775Y-2.3
X5.825Y-2.15
X5.825Y-2.2
X5.825Y-2.25
X5.825Y-2.3
X5.825Y-4.375
X5.875Y-4.1
X5.875Y-4.15
X5.875Y-4.2
X5.875Y-4.25
X5.925Y-4.1
X5.925Y-4.15
X5.925Y-4.2
X5.925Y-4.25
X5.975Y-4.1
X5.975Y-4.15
X5.975Y-4.2
X5.975Y-4.25
X5.975Y-4.375
X6.1Y-1.95
X6.1Y-2.1
X6.1Y-2.25
X6.1Y-2.4
X6.1Y-2.55
X6.1Y-2.7
X6.1Y-2.85
X6.1Y-3.0
X6.1Y-3.15
X6.1Y-3.3
X6.1Y-3.45
X6.1Y-3.6
X6.1Y-3.75
X6.1Y-3.9
X6.1Y-4.05
X6.1Y-4.25
T2
X3.05Y-2.65
X3.45Y-2.65
X4.375Y-3.5281
X4.375Y-3.725
X4.5285Y-3.025
X4.5285Y-3.125
X4.5285Y-3.225
X4.5285Y-3.325
X4.5285Y-3.425
X4.5285Y-3.525
X4.5285Y-3.625
X4.5285Y-3.725
X4.575Y-3.875
X4.7719Y-3.875
X4.8285Y-3.025
X4.8285Y-3.125
X4.8285Y-3.225
X4.8285Y-3.325
X4.8285Y-3.425
X4.8285Y-3.525
X4.8285Y-3.625
X4.8285Y-3.725
X4.95Y-3.0281
X4.95Y-3.225
X4.95Y-3.5281
X4.95Y-3.725
X5.0Y-2.425
X5.0Y-2.825
X5.125Y-3.2781
X5.125Y-3.475
X5.15Y-2.425
X5.15Y-2.825
X5.325Y-2.425
X5.325Y-2.525
X5.325Y-2.625
X5.325Y-2.725
X5.325Y-2.825
X5.325Y-2.925
X5.325Y-3.025
X5.325Y-3.125
X5.325Y-3.225
X5.325Y-3.325
X5.325Y-3.425
X5.325Y-3.525
X5.325Y-3.625
X5.325Y-3.725
X5.625Y-2.425
X5.625Y-2.525
X5.625Y-2.625
X5.625Y-2.725
X5.625Y-2.825
X5.625Y-2.925
X5.625Y-3.025
X5.625Y-3.125
X5.625Y-3.225
X5.625Y-3.325
X5.625Y-3.425
X5.625Y-3.525
X5.625Y-3.625
X5.625Y-3.725
T3
X2.925Y-2.875
X2.925Y-2.975
X5.425Y-3.975
X5.525Y-3.975
T4
X4.9281Y-1.9
X5.0266Y-1.9
X5.125Y-1.9
X5.4531Y-1.9
X5.5516Y-1.9
X5.65Y-1.9
T5
X3.0441Y-3.5978
X3.0441Y-3.775
X3.3Y-3.5978
X3.3Y-3.775
X3.575Y-2.2
X3.575Y-2.3
X3.575Y-2.4
X3.575Y-2.5
X3.575Y-2.6
X3.575Y-2.7
X3.575Y-2.8
X3.575Y-2.9
X3.575Y-3.0
X3.575Y-3.1
X3.575Y-3.2
X3.575Y-3.3
X3.575Y-3.4
X3.575Y-3.5
X3.575Y-3.6
X4.175Y-2.2
X4.175Y-2.3
X4.175Y-2.4
X4.175Y-2.5
X4.175Y-2.6
X4.175Y-2.7
X4.175Y-2.8
X4.175Y-2.9
X4.175Y-3.0
X4.175Y-3.1
X4.175Y-3.2
X4.175Y-3.3
X4.175Y-3.4
X4.175Y-3.5
X4.175Y-3.6
X4.4016Y-1.9
X4.5Y-1.9
X4.975Y-3.85
X4.975Y-3.95
X4.975Y-4.05
X5.075Y-3.85
X5.075Y-3.95
X5.075Y-4.05
T6
X2.6181Y-1.7835
X2.6181Y-4.3819
X6.122Y-1.7835
X6.122Y-4.3819
T5
G00X2.99Y-2.1175
M15
G01X2.99Y-2.1963
M16
G05
G00X3.2144Y-2.0388
M15
G01X3.1356Y-2.0388
M16
G05
G00X3.2183Y-2.275
M15
G01X3.1317Y-2.275
M16
G05
T0
M30
