%TF.GenerationSoftware,KiCad,Pcbnew,(5.1.9)-1*%
%TF.CreationDate,2021-03-23T20:02:45+09:00*%
%TF.ProjectId,IO,494f2e6b-6963-4616-945f-706362585858,rev?*%
%TF.SameCoordinates,Original*%
%TF.FileFunction,Copper,L1,Top*%
%TF.FilePolarity,Positive*%
%FSLAX46Y46*%
G04 Gerber Fmt 4.6, Leading zero omitted, Abs format (unit mm)*
G04 Created by KiCad (PCBNEW (5.1.9)-1) date 2021-03-23 20:02:45*
%MOMM*%
%LPD*%
G01*
G04 APERTURE LIST*
%TA.AperFunction,ComponentPad*%
%ADD10C,1.600000*%
%TD*%
%TA.AperFunction,ComponentPad*%
%ADD11O,1.700000X1.700000*%
%TD*%
%TA.AperFunction,ComponentPad*%
%ADD12R,1.700000X1.700000*%
%TD*%
%TA.AperFunction,ComponentPad*%
%ADD13O,1.600000X1.600000*%
%TD*%
%TA.AperFunction,ComponentPad*%
%ADD14C,1.800000*%
%TD*%
%TA.AperFunction,ComponentPad*%
%ADD15R,1.800000X1.800000*%
%TD*%
%TA.AperFunction,ComponentPad*%
%ADD16R,1.600000X1.600000*%
%TD*%
%TA.AperFunction,ComponentPad*%
%ADD17O,1.700000X1.950000*%
%TD*%
%TA.AperFunction,ComponentPad*%
%ADD18O,1.700000X2.000000*%
%TD*%
%TA.AperFunction,ComponentPad*%
%ADD19R,4.000000X3.500000*%
%TD*%
%TA.AperFunction,ComponentPad*%
%ADD20C,1.700000*%
%TD*%
%TA.AperFunction,ViaPad*%
%ADD21C,0.800000*%
%TD*%
%TA.AperFunction,Conductor*%
%ADD22C,0.250000*%
%TD*%
%TA.AperFunction,Conductor*%
%ADD23C,0.254000*%
%TD*%
%TA.AperFunction,Conductor*%
%ADD24C,0.100000*%
%TD*%
G04 APERTURE END LIST*
D10*
%TO.P,C5,2*%
%TO.N,GND*%
X111125000Y-89615000D03*
%TO.P,C5,1*%
%TO.N,+5V*%
X111125000Y-94615000D03*
%TD*%
D11*
%TO.P,OP_ISP,6*%
%TO.N,GND*%
X126365000Y-97790000D03*
%TO.P,OP_ISP,5*%
%TO.N,Net-(OP_ISP1-Pad5)*%
X128905000Y-97790000D03*
%TO.P,OP_ISP,4*%
%TO.N,Net-(OP_ISP1-Pad4)*%
X126365000Y-100330000D03*
%TO.P,OP_ISP,3*%
%TO.N,Net-(OP_ISP1-Pad3)*%
X128905000Y-100330000D03*
%TO.P,OP_ISP,2*%
%TO.N,+5V*%
X126365000Y-102870000D03*
D12*
%TO.P,OP_ISP,1*%
%TO.N,Net-(OP_ISP1-Pad1)*%
X128905000Y-102870000D03*
%TD*%
D13*
%TO.P,PWR_R1,2*%
%TO.N,Net-(PWR_LED1-Pad2)*%
X77470000Y-67310000D03*
D10*
%TO.P,PWR_R1,1*%
%TO.N,+5V*%
X87630000Y-67310000D03*
%TD*%
D14*
%TO.P,PWR_LED1,2*%
%TO.N,Net-(PWR_LED1-Pad2)*%
X74295000Y-73025000D03*
D15*
%TO.P,PWR_LED1,1*%
%TO.N,GND*%
X74295000Y-75565000D03*
%TD*%
D13*
%TO.P,OP_MEGA328P,28*%
%TO.N,N/C*%
X142875000Y-61595000D03*
%TO.P,OP_MEGA328P,14*%
X135255000Y-94615000D03*
%TO.P,OP_MEGA328P,27*%
X142875000Y-64135000D03*
%TO.P,OP_MEGA328P,13*%
X135255000Y-92075000D03*
%TO.P,OP_MEGA328P,26*%
X142875000Y-66675000D03*
%TO.P,OP_MEGA328P,12*%
X135255000Y-89535000D03*
%TO.P,OP_MEGA328P,25*%
X142875000Y-69215000D03*
%TO.P,OP_MEGA328P,11*%
X135255000Y-86995000D03*
%TO.P,OP_MEGA328P,24*%
X142875000Y-71755000D03*
%TO.P,OP_MEGA328P,10*%
X135255000Y-84455000D03*
%TO.P,OP_MEGA328P,23*%
X142875000Y-74295000D03*
%TO.P,OP_MEGA328P,9*%
X135255000Y-81915000D03*
%TO.P,OP_MEGA328P,22*%
%TO.N,GND*%
X142875000Y-76835000D03*
%TO.P,OP_MEGA328P,8*%
X135255000Y-79375000D03*
%TO.P,OP_MEGA328P,21*%
%TO.N,+5V*%
X142875000Y-79375000D03*
%TO.P,OP_MEGA328P,7*%
X135255000Y-76835000D03*
%TO.P,OP_MEGA328P,20*%
X142875000Y-81915000D03*
%TO.P,OP_MEGA328P,6*%
%TO.N,N/C*%
X135255000Y-74295000D03*
%TO.P,OP_MEGA328P,19*%
%TO.N,Net-(OP_ISP1-Pad3)*%
X142875000Y-84455000D03*
%TO.P,OP_MEGA328P,5*%
%TO.N,N/C*%
X135255000Y-71755000D03*
%TO.P,OP_MEGA328P,18*%
%TO.N,Net-(OP_ISP1-Pad1)*%
X142875000Y-86995000D03*
%TO.P,OP_MEGA328P,4*%
%TO.N,Net-(OP_R2-Pad2)*%
X135255000Y-69215000D03*
%TO.P,OP_MEGA328P,17*%
%TO.N,Net-(OP_ISP1-Pad4)*%
X142875000Y-89535000D03*
%TO.P,OP_MEGA328P,3*%
%TO.N,Net-(OP_U2-Pad3)*%
X135255000Y-66675000D03*
%TO.P,OP_MEGA328P,16*%
%TO.N,N/C*%
X142875000Y-92075000D03*
%TO.P,OP_MEGA328P,2*%
%TO.N,Net-(OP_U2-Pad2)*%
X135255000Y-64135000D03*
%TO.P,OP_MEGA328P,15*%
%TO.N,N/C*%
X142875000Y-94615000D03*
D16*
%TO.P,OP_MEGA328P,1*%
%TO.N,Net-(OP_ISP1-Pad5)*%
X135255000Y-61595000D03*
%TD*%
D13*
%TO.P,OP_R2,2*%
%TO.N,Net-(OP_R2-Pad2)*%
X130810000Y-61595000D03*
D10*
%TO.P,OP_R2,1*%
%TO.N,Net-(OP_LED1-Pad2)*%
X130810000Y-71755000D03*
%TD*%
D13*
%TO.P,OP_R1,2*%
%TO.N,+5V*%
X127000000Y-61595000D03*
D10*
%TO.P,OP_R1,1*%
%TO.N,Net-(OP_ISP1-Pad5)*%
X127000000Y-71755000D03*
%TD*%
D14*
%TO.P,OP_LED1,2*%
%TO.N,Net-(OP_LED1-Pad2)*%
X137795000Y-100965000D03*
D15*
%TO.P,OP_LED1,1*%
%TO.N,GND*%
X140335000Y-100965000D03*
%TD*%
D17*
%TO.P,OP_CN3,3*%
%TO.N,Net-(OP_CN3-Pad3)*%
X138510000Y-48260000D03*
%TO.P,OP_CN3,2*%
%TO.N,Net-(OP_CN3-Pad2)*%
X141010000Y-48260000D03*
%TO.P,OP_CN3,1*%
%TO.N,GND*%
%TA.AperFunction,ComponentPad*%
G36*
G01*
X144360000Y-47535000D02*
X144360000Y-48985000D01*
G75*
G02*
X144110000Y-49235000I-250000J0D01*
G01*
X142910000Y-49235000D01*
G75*
G02*
X142660000Y-48985000I0J250000D01*
G01*
X142660000Y-47535000D01*
G75*
G02*
X142910000Y-47285000I250000J0D01*
G01*
X144110000Y-47285000D01*
G75*
G02*
X144360000Y-47535000I0J-250000D01*
G01*
G37*
%TD.AperFunction*%
%TD*%
D10*
%TO.P,C4,2*%
%TO.N,Net-(C4-Pad2)*%
X125730000Y-89615000D03*
%TO.P,C4,1*%
%TO.N,Net-(C4-Pad1)*%
X125730000Y-94615000D03*
%TD*%
%TO.P,C3,2*%
%TO.N,Net-(C3-Pad2)*%
X130175000Y-83265000D03*
%TO.P,C3,1*%
%TO.N,Net-(C3-Pad1)*%
X130175000Y-88265000D03*
%TD*%
%TO.P,C2,2*%
%TO.N,GND*%
X125730000Y-76915000D03*
%TO.P,C2,1*%
%TO.N,Net-(C2-Pad1)*%
X125730000Y-81915000D03*
%TD*%
%TO.P,C1,2*%
%TO.N,Net-(C1-Pad2)*%
X121205000Y-98425000D03*
%TO.P,C1,1*%
%TO.N,+5V*%
X116205000Y-98425000D03*
%TD*%
D18*
%TO.P,CN3,2*%
%TO.N,GND*%
X111800000Y-48260000D03*
%TO.P,CN3,1*%
%TO.N,Net-(CN3-Pad1)*%
%TA.AperFunction,ComponentPad*%
G36*
G01*
X115150000Y-47510000D02*
X115150000Y-49010000D01*
G75*
G02*
X114900000Y-49260000I-250000J0D01*
G01*
X113700000Y-49260000D01*
G75*
G02*
X113450000Y-49010000I0J250000D01*
G01*
X113450000Y-47510000D01*
G75*
G02*
X113700000Y-47260000I250000J0D01*
G01*
X114900000Y-47260000D01*
G75*
G02*
X115150000Y-47510000I0J-250000D01*
G01*
G37*
%TD.AperFunction*%
%TD*%
D16*
%TO.P,Nano1,1*%
%TO.N,Net-(Nano1-Pad1)*%
X106045000Y-91440000D03*
D13*
%TO.P,Nano1,17*%
%TO.N,N/C*%
X90805000Y-58420000D03*
%TO.P,Nano1,2*%
%TO.N,Net-(Nano1-Pad2)*%
X106045000Y-88900000D03*
%TO.P,Nano1,18*%
%TO.N,N/C*%
X90805000Y-60960000D03*
%TO.P,Nano1,3*%
X106045000Y-86360000D03*
%TO.P,Nano1,19*%
X90805000Y-63500000D03*
%TO.P,Nano1,4*%
%TO.N,GND*%
X106045000Y-83820000D03*
%TO.P,Nano1,20*%
%TO.N,N/C*%
X90805000Y-66040000D03*
%TO.P,Nano1,5*%
X106045000Y-81280000D03*
%TO.P,Nano1,21*%
X90805000Y-68580000D03*
%TO.P,Nano1,6*%
X106045000Y-78740000D03*
%TO.P,Nano1,22*%
X90805000Y-71120000D03*
%TO.P,Nano1,7*%
X106045000Y-76200000D03*
%TO.P,Nano1,23*%
X90805000Y-73660000D03*
%TO.P,Nano1,8*%
X106045000Y-73660000D03*
%TO.P,Nano1,24*%
X90805000Y-76200000D03*
%TO.P,Nano1,9*%
X106045000Y-71120000D03*
%TO.P,Nano1,25*%
X90805000Y-78740000D03*
%TO.P,Nano1,10*%
X106045000Y-68580000D03*
%TO.P,Nano1,26*%
X90805000Y-81280000D03*
%TO.P,Nano1,11*%
X106045000Y-66040000D03*
%TO.P,Nano1,27*%
%TO.N,+5V*%
X90805000Y-83820000D03*
%TO.P,Nano1,12*%
%TO.N,Net-(CN3-Pad1)*%
X106045000Y-63500000D03*
%TO.P,Nano1,28*%
%TO.N,N/C*%
X90805000Y-86360000D03*
%TO.P,Nano1,13*%
X106045000Y-60960000D03*
%TO.P,Nano1,29*%
%TO.N,GND*%
X90805000Y-88900000D03*
%TO.P,Nano1,14*%
%TO.N,N/C*%
X106045000Y-58420000D03*
%TO.P,Nano1,30*%
X90805000Y-91440000D03*
%TO.P,Nano1,15*%
X106045000Y-55880000D03*
%TO.P,Nano1,16*%
X90805000Y-55880000D03*
%TD*%
%TO.P,CN1,3*%
%TO.N,N/C*%
%TA.AperFunction,ComponentPad*%
G36*
G01*
X75070000Y-53035000D02*
X76820000Y-53035000D01*
G75*
G02*
X77695000Y-53910000I0J-875000D01*
G01*
X77695000Y-55660000D01*
G75*
G02*
X76820000Y-56535000I-875000J0D01*
G01*
X75070000Y-56535000D01*
G75*
G02*
X74195000Y-55660000I0J875000D01*
G01*
X74195000Y-53910000D01*
G75*
G02*
X75070000Y-53035000I875000J0D01*
G01*
G37*
%TD.AperFunction*%
%TO.P,CN1,2*%
%TO.N,GND*%
%TA.AperFunction,ComponentPad*%
G36*
G01*
X79645000Y-50285000D02*
X81645000Y-50285000D01*
G75*
G02*
X82395000Y-51035000I0J-750000D01*
G01*
X82395000Y-52535000D01*
G75*
G02*
X81645000Y-53285000I-750000J0D01*
G01*
X79645000Y-53285000D01*
G75*
G02*
X78895000Y-52535000I0J750000D01*
G01*
X78895000Y-51035000D01*
G75*
G02*
X79645000Y-50285000I750000J0D01*
G01*
G37*
%TD.AperFunction*%
D19*
%TO.P,CN1,1*%
%TO.N,+5V*%
X80645000Y-57785000D03*
%TD*%
D17*
%TO.P,CN2,3*%
%TO.N,Net-(CN2-Pad3)*%
X125175000Y-48260000D03*
%TO.P,CN2,2*%
%TO.N,Net-(CN2-Pad2)*%
X127675000Y-48260000D03*
%TO.P,CN2,1*%
%TO.N,GND*%
%TA.AperFunction,ComponentPad*%
G36*
G01*
X131025000Y-47535000D02*
X131025000Y-48985000D01*
G75*
G02*
X130775000Y-49235000I-250000J0D01*
G01*
X129575000Y-49235000D01*
G75*
G02*
X129325000Y-48985000I0J250000D01*
G01*
X129325000Y-47535000D01*
G75*
G02*
X129575000Y-47285000I250000J0D01*
G01*
X130775000Y-47285000D01*
G75*
G02*
X131025000Y-47535000I0J-250000D01*
G01*
G37*
%TD.AperFunction*%
%TD*%
D20*
%TO.P,TEST1,4*%
%TO.N,GND*%
X77320000Y-91385000D03*
%TO.P,TEST1,3*%
%TO.N,Net-(CN3-Pad1)*%
X83820000Y-91385000D03*
%TO.P,TEST1,2*%
%TO.N,GND*%
X77320000Y-95885000D03*
%TO.P,TEST1,1*%
%TO.N,N/C*%
X83820000Y-95885000D03*
%TD*%
D16*
%TO.P,232 Driver,1*%
%TO.N,Net-(C4-Pad1)*%
X122645000Y-94615000D03*
D13*
%TO.P,232 Driver,9*%
%TO.N,Net-(Nano1-Pad2)*%
X115025000Y-76835000D03*
%TO.P,232 Driver,2*%
%TO.N,Net-(C1-Pad2)*%
X122645000Y-92075000D03*
%TO.P,232 Driver,10*%
%TO.N,Net-(Nano1-Pad1)*%
X115025000Y-79375000D03*
%TO.P,232 Driver,3*%
%TO.N,Net-(C4-Pad2)*%
X122645000Y-89535000D03*
%TO.P,232 Driver,11*%
%TO.N,Net-(OP_U2-Pad3)*%
X115025000Y-81915000D03*
%TO.P,232 Driver,4*%
%TO.N,Net-(C3-Pad1)*%
X122645000Y-86995000D03*
%TO.P,232 Driver,12*%
%TO.N,Net-(OP_U2-Pad2)*%
X115025000Y-84455000D03*
%TO.P,232 Driver,5*%
%TO.N,Net-(C3-Pad2)*%
X122645000Y-84455000D03*
%TO.P,232 Driver,13*%
%TO.N,Net-(OP_CN3-Pad2)*%
X115025000Y-86995000D03*
%TO.P,232 Driver,6*%
%TO.N,Net-(C2-Pad1)*%
X122645000Y-81915000D03*
%TO.P,232 Driver,14*%
%TO.N,Net-(OP_CN3-Pad3)*%
X115025000Y-89535000D03*
%TO.P,232 Driver,7*%
%TO.N,Net-(CN2-Pad3)*%
X122645000Y-79375000D03*
%TO.P,232 Driver,15*%
%TO.N,GND*%
X115025000Y-92075000D03*
%TO.P,232 Driver,8*%
%TO.N,Net-(CN2-Pad2)*%
X122645000Y-76835000D03*
%TO.P,232 Driver,16*%
%TO.N,+5V*%
X115025000Y-94615000D03*
%TD*%
D21*
%TO.N,GND*%
X154940000Y-60960000D03*
X154940000Y-68580000D03*
X154940000Y-91440000D03*
X113665000Y-109220000D03*
X113665000Y-106680000D03*
X114935000Y-106680000D03*
X116205000Y-109220000D03*
X113665000Y-105410000D03*
X116205000Y-107950000D03*
X113665000Y-107950000D03*
X114935000Y-109220000D03*
X114935000Y-107950000D03*
X116205000Y-105410000D03*
X114935000Y-105410000D03*
X116205000Y-106680000D03*
X83820000Y-77470000D03*
X83820000Y-74930000D03*
X85090000Y-74930000D03*
X86360000Y-77470000D03*
X83820000Y-73660000D03*
X86360000Y-76200000D03*
X83820000Y-76200000D03*
X85090000Y-77470000D03*
X85090000Y-76200000D03*
X86360000Y-73660000D03*
X85090000Y-73660000D03*
X86360000Y-74930000D03*
X71755000Y-104140000D03*
X71755000Y-101600000D03*
X73025000Y-101600000D03*
X74295000Y-104140000D03*
X71755000Y-100330000D03*
X74295000Y-102870000D03*
X71755000Y-102870000D03*
X73025000Y-104140000D03*
X73025000Y-102870000D03*
X74295000Y-100330000D03*
X73025000Y-100330000D03*
X74295000Y-101600000D03*
X154940000Y-49530000D03*
X154940000Y-53340000D03*
X154940000Y-57150000D03*
X154940000Y-64770000D03*
X154940000Y-72390000D03*
X154940000Y-76200000D03*
X154940000Y-80010000D03*
X154940000Y-83820000D03*
X154940000Y-87630000D03*
X151765000Y-106680000D03*
X149225000Y-107950000D03*
X150495000Y-105410000D03*
X150495000Y-107950000D03*
X149225000Y-104140000D03*
X150495000Y-104140000D03*
X150495000Y-106680000D03*
X151765000Y-107950000D03*
X151765000Y-105410000D03*
X151765000Y-104140000D03*
X149225000Y-105410000D03*
X149225000Y-106680000D03*
X67945000Y-58420000D03*
X67945000Y-62230000D03*
X67945000Y-66040000D03*
X67945000Y-50800000D03*
X67945000Y-54610000D03*
X117475000Y-111125000D03*
X125095000Y-111125000D03*
X121285000Y-111125000D03*
X132715000Y-111125000D03*
X144145000Y-111125000D03*
X140335000Y-111125000D03*
X136525000Y-111125000D03*
X113665000Y-111125000D03*
X128905000Y-111125000D03*
X109855000Y-111125000D03*
X151765000Y-111125000D03*
X147955000Y-111125000D03*
X146685000Y-55880000D03*
X146685000Y-54610000D03*
X145415000Y-54610000D03*
X147955000Y-55880000D03*
X146685000Y-58420000D03*
X147955000Y-58420000D03*
X147955000Y-54610000D03*
X146685000Y-57150000D03*
X147955000Y-57150000D03*
X145415000Y-55880000D03*
X145415000Y-58420000D03*
X145415000Y-57150000D03*
X154940000Y-95250000D03*
X154940000Y-99060000D03*
X154940000Y-102870000D03*
X154940000Y-107950000D03*
X106045000Y-111125000D03*
X102235000Y-111125000D03*
X98425000Y-111125000D03*
X94615000Y-111125000D03*
X90805000Y-111125000D03*
X86995000Y-111125000D03*
X83185000Y-111125000D03*
X79375000Y-111125000D03*
X75565000Y-111125000D03*
X71755000Y-111125000D03*
X67945000Y-107950000D03*
X67945000Y-104140000D03*
X67945000Y-100330000D03*
X67945000Y-96520000D03*
X67945000Y-92710000D03*
X67945000Y-88900000D03*
X67945000Y-85090000D03*
X67945000Y-81280000D03*
X67945000Y-77470000D03*
X67945000Y-73660000D03*
X67945000Y-69850000D03*
%TO.N,Net-(OP_CN3-Pad3)*%
X119380000Y-57150000D03*
%TO.N,Net-(OP_CN3-Pad2)*%
X119380000Y-58420000D03*
%TO.N,Net-(OP_U2-Pad3)*%
X119380000Y-67945000D03*
X128905000Y-67945000D03*
%TO.N,Net-(OP_U2-Pad2)*%
X128905000Y-65405000D03*
X119380000Y-65405000D03*
%TD*%
D22*
%TO.N,Net-(CN2-Pad3)*%
X125175000Y-53975000D02*
X125175000Y-57705000D01*
X120650000Y-78740000D02*
X121285000Y-79375000D01*
X125175000Y-57705000D02*
X124460000Y-58420000D01*
X124460000Y-58420000D02*
X122555000Y-58420000D01*
X122555000Y-58420000D02*
X120650000Y-60325000D01*
X120650000Y-60325000D02*
X120650000Y-78740000D01*
X121285000Y-79375000D02*
X122645000Y-79375000D01*
X125175000Y-53975000D02*
X125175000Y-48260000D01*
%TO.N,Net-(CN2-Pad2)*%
X127675000Y-58380000D02*
X127675000Y-48260000D01*
X122645000Y-59780000D02*
X123190000Y-59235000D01*
X126820000Y-59235000D02*
X127675000Y-58380000D01*
X123190000Y-59235000D02*
X126820000Y-59235000D01*
X122645000Y-76835000D02*
X122645000Y-59780000D01*
%TO.N,Net-(CN3-Pad1)*%
X86305000Y-91385000D02*
X83820000Y-91385000D01*
X86995000Y-95885000D02*
X86995000Y-92075000D01*
X86995000Y-92075000D02*
X86305000Y-91385000D01*
X87630000Y-96520000D02*
X86995000Y-95885000D01*
X97155000Y-96520000D02*
X87630000Y-96520000D01*
X98425000Y-95250000D02*
X97155000Y-96520000D01*
X98425000Y-64135000D02*
X98425000Y-95250000D01*
X99060000Y-63500000D02*
X98425000Y-64135000D01*
X106045000Y-63500000D02*
X99060000Y-63500000D01*
%TO.N,Net-(OP_CN3-Pad3)*%
X115025000Y-89535000D02*
X113665000Y-89535000D01*
X113665000Y-89535000D02*
X111125000Y-86995000D01*
X111125000Y-86995000D02*
X111125000Y-59055000D01*
X111125000Y-59055000D02*
X111125000Y-58420000D01*
X112395000Y-57150000D02*
X119380000Y-57150000D01*
X111125000Y-58420000D02*
X112395000Y-57150000D01*
%TO.N,Net-(OP_CN3-Pad2)*%
X115025000Y-86995000D02*
X113665000Y-86995000D01*
X113665000Y-86995000D02*
X111760000Y-85090000D01*
X111760000Y-85090000D02*
X111760000Y-59690000D01*
X111760000Y-59690000D02*
X112395000Y-59055000D01*
X112395000Y-59055000D02*
X113030000Y-58420000D01*
X113030000Y-58420000D02*
X119380000Y-58420000D01*
%TO.N,Net-(OP_ISP1-Pad5)*%
X127000000Y-67310000D02*
X127000000Y-71755000D01*
X127635000Y-63500000D02*
X127000000Y-64135000D01*
X132080000Y-63500000D02*
X127635000Y-63500000D01*
X132715000Y-62865000D02*
X132080000Y-63500000D01*
X127000000Y-64135000D02*
X127000000Y-67310000D01*
X132715000Y-62230000D02*
X132715000Y-62865000D01*
X133350000Y-61595000D02*
X132715000Y-62230000D01*
X135255000Y-61595000D02*
X133350000Y-61595000D01*
%TO.N,Net-(OP_ISP1-Pad4)*%
X144780000Y-90170000D02*
X144145000Y-89535000D01*
X144780000Y-104140000D02*
X144780000Y-90170000D01*
X144145000Y-104775000D02*
X144780000Y-104140000D01*
X124460000Y-104775000D02*
X144145000Y-104775000D01*
X144145000Y-89535000D02*
X142875000Y-89535000D01*
X123825000Y-104140000D02*
X124460000Y-104775000D01*
X123825000Y-100965000D02*
X123825000Y-104140000D01*
X124460000Y-100330000D02*
X123825000Y-100965000D01*
X126365000Y-100330000D02*
X124460000Y-100330000D01*
%TO.N,Net-(OP_LED1-Pad2)*%
X137795000Y-100965000D02*
X133350000Y-100965000D01*
X133350000Y-100965000D02*
X132715000Y-100330000D01*
X132715000Y-100330000D02*
X132715000Y-74930000D01*
X132715000Y-74930000D02*
X132080000Y-74295000D01*
X132080000Y-74295000D02*
X131445000Y-74295000D01*
X131445000Y-74295000D02*
X130810000Y-73660000D01*
X130810000Y-73660000D02*
X130810000Y-71755000D01*
%TO.N,Net-(OP_U2-Pad3)*%
X115025000Y-81915000D02*
X113665000Y-81915000D01*
X113665000Y-81915000D02*
X113030000Y-81280000D01*
X113030000Y-81280000D02*
X113030000Y-68580000D01*
X113030000Y-68580000D02*
X113665000Y-67945000D01*
X113665000Y-67945000D02*
X119380000Y-67945000D01*
X128905000Y-67945000D02*
X132715000Y-67945000D01*
X133985000Y-66675000D02*
X135255000Y-66675000D01*
X132715000Y-67945000D02*
X133985000Y-66675000D01*
%TO.N,Net-(OP_U2-Pad2)*%
X135255000Y-64135000D02*
X133985000Y-64135000D01*
X133985000Y-64135000D02*
X132715000Y-65405000D01*
X132715000Y-65405000D02*
X128905000Y-65405000D01*
X119380000Y-65405000D02*
X113030000Y-65405000D01*
X113030000Y-65405000D02*
X112395000Y-66040000D01*
X112395000Y-66040000D02*
X112395000Y-83820000D01*
X112395000Y-83820000D02*
X113030000Y-84455000D01*
X113030000Y-84455000D02*
X115025000Y-84455000D01*
%TD*%
D23*
%TO.N,GND*%
X153519369Y-44241331D02*
X153350890Y-44648075D01*
X153265000Y-45079872D01*
X153265000Y-45520128D01*
X153350890Y-45951925D01*
X153519369Y-46358669D01*
X153763962Y-46724729D01*
X154075271Y-47036038D01*
X154441331Y-47280631D01*
X154848075Y-47449110D01*
X155279872Y-47535000D01*
X155720128Y-47535000D01*
X156151925Y-47449110D01*
X156558669Y-47280631D01*
X156718000Y-47174170D01*
X156718000Y-109425830D01*
X156558669Y-109319369D01*
X156151925Y-109150890D01*
X155720128Y-109065000D01*
X155279872Y-109065000D01*
X154848075Y-109150890D01*
X154441331Y-109319369D01*
X154075271Y-109563962D01*
X153763962Y-109875271D01*
X153519369Y-110241331D01*
X153350890Y-110648075D01*
X153265000Y-111079872D01*
X153265000Y-111520128D01*
X153350890Y-111951925D01*
X153519369Y-112358669D01*
X153763962Y-112724729D01*
X153942233Y-112903000D01*
X68057767Y-112903000D01*
X68236038Y-112724729D01*
X68480631Y-112358669D01*
X68649110Y-111951925D01*
X68735000Y-111520128D01*
X68735000Y-111079872D01*
X68649110Y-110648075D01*
X68480631Y-110241331D01*
X68236038Y-109875271D01*
X67924729Y-109563962D01*
X67558669Y-109319369D01*
X67151925Y-109150890D01*
X66720128Y-109065000D01*
X66279872Y-109065000D01*
X65848075Y-109150890D01*
X65441331Y-109319369D01*
X65075271Y-109563962D01*
X64897000Y-109742233D01*
X64897000Y-100965000D01*
X123061324Y-100965000D01*
X123065000Y-101002323D01*
X123065001Y-104102668D01*
X123061324Y-104140000D01*
X123065001Y-104177332D01*
X123065001Y-104177333D01*
X123075998Y-104288986D01*
X123089180Y-104332442D01*
X123119454Y-104432246D01*
X123190026Y-104564276D01*
X123261201Y-104651002D01*
X123285000Y-104680001D01*
X123313998Y-104703799D01*
X123896200Y-105286002D01*
X123919999Y-105315001D01*
X123948997Y-105338799D01*
X124035724Y-105409974D01*
X124167753Y-105480546D01*
X124311014Y-105524003D01*
X124460000Y-105538677D01*
X124497333Y-105535000D01*
X144107678Y-105535000D01*
X144145000Y-105538676D01*
X144182322Y-105535000D01*
X144182333Y-105535000D01*
X144293986Y-105524003D01*
X144437247Y-105480546D01*
X144569276Y-105409974D01*
X144685001Y-105315001D01*
X144708803Y-105285998D01*
X145291004Y-104703798D01*
X145320001Y-104680001D01*
X145414974Y-104564276D01*
X145485546Y-104432247D01*
X145529003Y-104288986D01*
X145540000Y-104177333D01*
X145540000Y-104177332D01*
X145543677Y-104140000D01*
X145540000Y-104102667D01*
X145540000Y-90207333D01*
X145543677Y-90170000D01*
X145529003Y-90021014D01*
X145485546Y-89877753D01*
X145414974Y-89745724D01*
X145343799Y-89658997D01*
X145320001Y-89629999D01*
X145291002Y-89606200D01*
X144708803Y-89024002D01*
X144685001Y-88994999D01*
X144569276Y-88900026D01*
X144437247Y-88829454D01*
X144293986Y-88785997D01*
X144182333Y-88775000D01*
X144182322Y-88775000D01*
X144145000Y-88771324D01*
X144107678Y-88775000D01*
X144093043Y-88775000D01*
X143989637Y-88620241D01*
X143789759Y-88420363D01*
X143557241Y-88265000D01*
X143789759Y-88109637D01*
X143989637Y-87909759D01*
X144146680Y-87674727D01*
X144254853Y-87413574D01*
X144310000Y-87136335D01*
X144310000Y-86853665D01*
X144254853Y-86576426D01*
X144146680Y-86315273D01*
X143989637Y-86080241D01*
X143789759Y-85880363D01*
X143557241Y-85725000D01*
X143789759Y-85569637D01*
X143989637Y-85369759D01*
X144146680Y-85134727D01*
X144254853Y-84873574D01*
X144310000Y-84596335D01*
X144310000Y-84313665D01*
X144254853Y-84036426D01*
X144146680Y-83775273D01*
X143989637Y-83540241D01*
X143789759Y-83340363D01*
X143557241Y-83185000D01*
X143789759Y-83029637D01*
X143989637Y-82829759D01*
X144146680Y-82594727D01*
X144254853Y-82333574D01*
X144310000Y-82056335D01*
X144310000Y-81773665D01*
X144254853Y-81496426D01*
X144146680Y-81235273D01*
X143989637Y-81000241D01*
X143789759Y-80800363D01*
X143557241Y-80645000D01*
X143789759Y-80489637D01*
X143989637Y-80289759D01*
X144146680Y-80054727D01*
X144254853Y-79793574D01*
X144310000Y-79516335D01*
X144310000Y-79233665D01*
X144254853Y-78956426D01*
X144146680Y-78695273D01*
X143989637Y-78460241D01*
X143789759Y-78260363D01*
X143554727Y-78103320D01*
X143544135Y-78098933D01*
X143730131Y-77987385D01*
X143938519Y-77798414D01*
X144106037Y-77572420D01*
X144226246Y-77318087D01*
X144266904Y-77184039D01*
X144144915Y-76962000D01*
X143002000Y-76962000D01*
X143002000Y-76982000D01*
X142748000Y-76982000D01*
X142748000Y-76962000D01*
X141605085Y-76962000D01*
X141483096Y-77184039D01*
X141523754Y-77318087D01*
X141643963Y-77572420D01*
X141811481Y-77798414D01*
X142019869Y-77987385D01*
X142205865Y-78098933D01*
X142195273Y-78103320D01*
X141960241Y-78260363D01*
X141760363Y-78460241D01*
X141603320Y-78695273D01*
X141495147Y-78956426D01*
X141440000Y-79233665D01*
X141440000Y-79516335D01*
X141495147Y-79793574D01*
X141603320Y-80054727D01*
X141760363Y-80289759D01*
X141960241Y-80489637D01*
X142192759Y-80645000D01*
X141960241Y-80800363D01*
X141760363Y-81000241D01*
X141603320Y-81235273D01*
X141495147Y-81496426D01*
X141440000Y-81773665D01*
X141440000Y-82056335D01*
X141495147Y-82333574D01*
X141603320Y-82594727D01*
X141760363Y-82829759D01*
X141960241Y-83029637D01*
X142192759Y-83185000D01*
X141960241Y-83340363D01*
X141760363Y-83540241D01*
X141603320Y-83775273D01*
X141495147Y-84036426D01*
X141440000Y-84313665D01*
X141440000Y-84596335D01*
X141495147Y-84873574D01*
X141603320Y-85134727D01*
X141760363Y-85369759D01*
X141960241Y-85569637D01*
X142192759Y-85725000D01*
X141960241Y-85880363D01*
X141760363Y-86080241D01*
X141603320Y-86315273D01*
X141495147Y-86576426D01*
X141440000Y-86853665D01*
X141440000Y-87136335D01*
X141495147Y-87413574D01*
X141603320Y-87674727D01*
X141760363Y-87909759D01*
X141960241Y-88109637D01*
X142192759Y-88265000D01*
X141960241Y-88420363D01*
X141760363Y-88620241D01*
X141603320Y-88855273D01*
X141495147Y-89116426D01*
X141440000Y-89393665D01*
X141440000Y-89676335D01*
X141495147Y-89953574D01*
X141603320Y-90214727D01*
X141760363Y-90449759D01*
X141960241Y-90649637D01*
X142192759Y-90805000D01*
X141960241Y-90960363D01*
X141760363Y-91160241D01*
X141603320Y-91395273D01*
X141495147Y-91656426D01*
X141440000Y-91933665D01*
X141440000Y-92216335D01*
X141495147Y-92493574D01*
X141603320Y-92754727D01*
X141760363Y-92989759D01*
X141960241Y-93189637D01*
X142192759Y-93345000D01*
X141960241Y-93500363D01*
X141760363Y-93700241D01*
X141603320Y-93935273D01*
X141495147Y-94196426D01*
X141440000Y-94473665D01*
X141440000Y-94756335D01*
X141495147Y-95033574D01*
X141603320Y-95294727D01*
X141760363Y-95529759D01*
X141960241Y-95729637D01*
X142195273Y-95886680D01*
X142456426Y-95994853D01*
X142733665Y-96050000D01*
X143016335Y-96050000D01*
X143293574Y-95994853D01*
X143554727Y-95886680D01*
X143789759Y-95729637D01*
X143989637Y-95529759D01*
X144020001Y-95484317D01*
X144020000Y-103825198D01*
X143830199Y-104015000D01*
X130317338Y-104015000D01*
X130344502Y-103964180D01*
X130380812Y-103844482D01*
X130393072Y-103720000D01*
X130393072Y-102020000D01*
X130380812Y-101895518D01*
X130344502Y-101775820D01*
X130285537Y-101665506D01*
X130206185Y-101568815D01*
X130109494Y-101489463D01*
X129999180Y-101430498D01*
X129926620Y-101408487D01*
X130058475Y-101276632D01*
X130220990Y-101033411D01*
X130332932Y-100763158D01*
X130390000Y-100476260D01*
X130390000Y-100183740D01*
X130332932Y-99896842D01*
X130220990Y-99626589D01*
X130058475Y-99383368D01*
X129851632Y-99176525D01*
X129677240Y-99060000D01*
X129851632Y-98943475D01*
X130058475Y-98736632D01*
X130220990Y-98493411D01*
X130332932Y-98223158D01*
X130390000Y-97936260D01*
X130390000Y-97643740D01*
X130332932Y-97356842D01*
X130220990Y-97086589D01*
X130058475Y-96843368D01*
X129851632Y-96636525D01*
X129608411Y-96474010D01*
X129338158Y-96362068D01*
X129051260Y-96305000D01*
X128758740Y-96305000D01*
X128471842Y-96362068D01*
X128201589Y-96474010D01*
X127958368Y-96636525D01*
X127751525Y-96843368D01*
X127633900Y-97019406D01*
X127462588Y-96789731D01*
X127246355Y-96594822D01*
X126996252Y-96445843D01*
X126721891Y-96348519D01*
X126492000Y-96469186D01*
X126492000Y-97663000D01*
X126512000Y-97663000D01*
X126512000Y-97917000D01*
X126492000Y-97917000D01*
X126492000Y-97937000D01*
X126238000Y-97937000D01*
X126238000Y-97917000D01*
X125044845Y-97917000D01*
X124923524Y-98146890D01*
X124968175Y-98294099D01*
X125093359Y-98556920D01*
X125267412Y-98790269D01*
X125483645Y-98985178D01*
X125600534Y-99054805D01*
X125418368Y-99176525D01*
X125211525Y-99383368D01*
X125086822Y-99570000D01*
X124497333Y-99570000D01*
X124460000Y-99566323D01*
X124422667Y-99570000D01*
X124311014Y-99580997D01*
X124167753Y-99624454D01*
X124035724Y-99695026D01*
X123919999Y-99789999D01*
X123896200Y-99818998D01*
X123314002Y-100401197D01*
X123284999Y-100424999D01*
X123229871Y-100492174D01*
X123190026Y-100540724D01*
X123146451Y-100622246D01*
X123119454Y-100672754D01*
X123075997Y-100816015D01*
X123065000Y-100927668D01*
X123065000Y-100927678D01*
X123061324Y-100965000D01*
X64897000Y-100965000D01*
X64897000Y-98283665D01*
X114770000Y-98283665D01*
X114770000Y-98566335D01*
X114825147Y-98843574D01*
X114933320Y-99104727D01*
X115090363Y-99339759D01*
X115290241Y-99539637D01*
X115525273Y-99696680D01*
X115786426Y-99804853D01*
X116063665Y-99860000D01*
X116346335Y-99860000D01*
X116623574Y-99804853D01*
X116884727Y-99696680D01*
X117119759Y-99539637D01*
X117319637Y-99339759D01*
X117476680Y-99104727D01*
X117584853Y-98843574D01*
X117640000Y-98566335D01*
X117640000Y-98283665D01*
X119770000Y-98283665D01*
X119770000Y-98566335D01*
X119825147Y-98843574D01*
X119933320Y-99104727D01*
X120090363Y-99339759D01*
X120290241Y-99539637D01*
X120525273Y-99696680D01*
X120786426Y-99804853D01*
X121063665Y-99860000D01*
X121346335Y-99860000D01*
X121623574Y-99804853D01*
X121884727Y-99696680D01*
X122119759Y-99539637D01*
X122319637Y-99339759D01*
X122476680Y-99104727D01*
X122584853Y-98843574D01*
X122640000Y-98566335D01*
X122640000Y-98283665D01*
X122584853Y-98006426D01*
X122476680Y-97745273D01*
X122319637Y-97510241D01*
X122242506Y-97433110D01*
X124923524Y-97433110D01*
X125044845Y-97663000D01*
X126238000Y-97663000D01*
X126238000Y-96469186D01*
X126008109Y-96348519D01*
X125733748Y-96445843D01*
X125483645Y-96594822D01*
X125267412Y-96789731D01*
X125093359Y-97023080D01*
X124968175Y-97285901D01*
X124923524Y-97433110D01*
X122242506Y-97433110D01*
X122119759Y-97310363D01*
X121884727Y-97153320D01*
X121623574Y-97045147D01*
X121346335Y-96990000D01*
X121063665Y-96990000D01*
X120786426Y-97045147D01*
X120525273Y-97153320D01*
X120290241Y-97310363D01*
X120090363Y-97510241D01*
X119933320Y-97745273D01*
X119825147Y-98006426D01*
X119770000Y-98283665D01*
X117640000Y-98283665D01*
X117584853Y-98006426D01*
X117476680Y-97745273D01*
X117319637Y-97510241D01*
X117119759Y-97310363D01*
X116884727Y-97153320D01*
X116623574Y-97045147D01*
X116346335Y-96990000D01*
X116063665Y-96990000D01*
X115786426Y-97045147D01*
X115525273Y-97153320D01*
X115290241Y-97310363D01*
X115090363Y-97510241D01*
X114933320Y-97745273D01*
X114825147Y-98006426D01*
X114770000Y-98283665D01*
X64897000Y-98283665D01*
X64897000Y-96913397D01*
X76471208Y-96913397D01*
X76548843Y-97162472D01*
X76812883Y-97288371D01*
X77096411Y-97360339D01*
X77388531Y-97375611D01*
X77678019Y-97333599D01*
X77953747Y-97235919D01*
X78091157Y-97162472D01*
X78168792Y-96913397D01*
X77320000Y-96064605D01*
X76471208Y-96913397D01*
X64897000Y-96913397D01*
X64897000Y-95953531D01*
X75829389Y-95953531D01*
X75871401Y-96243019D01*
X75969081Y-96518747D01*
X76042528Y-96656157D01*
X76291603Y-96733792D01*
X77140395Y-95885000D01*
X77499605Y-95885000D01*
X78348397Y-96733792D01*
X78597472Y-96656157D01*
X78723371Y-96392117D01*
X78795339Y-96108589D01*
X78810611Y-95816469D01*
X78799331Y-95738740D01*
X82335000Y-95738740D01*
X82335000Y-96031260D01*
X82392068Y-96318158D01*
X82504010Y-96588411D01*
X82666525Y-96831632D01*
X82873368Y-97038475D01*
X83116589Y-97200990D01*
X83386842Y-97312932D01*
X83673740Y-97370000D01*
X83966260Y-97370000D01*
X84253158Y-97312932D01*
X84523411Y-97200990D01*
X84766632Y-97038475D01*
X84973475Y-96831632D01*
X85135990Y-96588411D01*
X85247932Y-96318158D01*
X85305000Y-96031260D01*
X85305000Y-95738740D01*
X85247932Y-95451842D01*
X85135990Y-95181589D01*
X84973475Y-94938368D01*
X84766632Y-94731525D01*
X84523411Y-94569010D01*
X84253158Y-94457068D01*
X83966260Y-94400000D01*
X83673740Y-94400000D01*
X83386842Y-94457068D01*
X83116589Y-94569010D01*
X82873368Y-94731525D01*
X82666525Y-94938368D01*
X82504010Y-95181589D01*
X82392068Y-95451842D01*
X82335000Y-95738740D01*
X78799331Y-95738740D01*
X78768599Y-95526981D01*
X78670919Y-95251253D01*
X78597472Y-95113843D01*
X78348397Y-95036208D01*
X77499605Y-95885000D01*
X77140395Y-95885000D01*
X76291603Y-95036208D01*
X76042528Y-95113843D01*
X75916629Y-95377883D01*
X75844661Y-95661411D01*
X75829389Y-95953531D01*
X64897000Y-95953531D01*
X64897000Y-94856603D01*
X76471208Y-94856603D01*
X77320000Y-95705395D01*
X78168792Y-94856603D01*
X78091157Y-94607528D01*
X77827117Y-94481629D01*
X77543589Y-94409661D01*
X77251469Y-94394389D01*
X76961981Y-94436401D01*
X76686253Y-94534081D01*
X76548843Y-94607528D01*
X76471208Y-94856603D01*
X64897000Y-94856603D01*
X64897000Y-92413397D01*
X76471208Y-92413397D01*
X76548843Y-92662472D01*
X76812883Y-92788371D01*
X77096411Y-92860339D01*
X77388531Y-92875611D01*
X77678019Y-92833599D01*
X77953747Y-92735919D01*
X78091157Y-92662472D01*
X78168792Y-92413397D01*
X77320000Y-91564605D01*
X76471208Y-92413397D01*
X64897000Y-92413397D01*
X64897000Y-91453531D01*
X75829389Y-91453531D01*
X75871401Y-91743019D01*
X75969081Y-92018747D01*
X76042528Y-92156157D01*
X76291603Y-92233792D01*
X77140395Y-91385000D01*
X77499605Y-91385000D01*
X78348397Y-92233792D01*
X78597472Y-92156157D01*
X78723371Y-91892117D01*
X78795339Y-91608589D01*
X78810611Y-91316469D01*
X78799331Y-91238740D01*
X82335000Y-91238740D01*
X82335000Y-91531260D01*
X82392068Y-91818158D01*
X82504010Y-92088411D01*
X82666525Y-92331632D01*
X82873368Y-92538475D01*
X83116589Y-92700990D01*
X83386842Y-92812932D01*
X83673740Y-92870000D01*
X83966260Y-92870000D01*
X84253158Y-92812932D01*
X84523411Y-92700990D01*
X84766632Y-92538475D01*
X84973475Y-92331632D01*
X85098178Y-92145000D01*
X85990199Y-92145000D01*
X86235001Y-92389803D01*
X86235000Y-95847677D01*
X86231324Y-95885000D01*
X86235000Y-95922322D01*
X86235000Y-95922332D01*
X86245997Y-96033985D01*
X86289454Y-96177246D01*
X86360026Y-96309276D01*
X86392232Y-96348519D01*
X86454999Y-96425001D01*
X86484002Y-96448803D01*
X87066200Y-97031002D01*
X87089999Y-97060001D01*
X87118997Y-97083799D01*
X87205724Y-97154974D01*
X87337753Y-97225546D01*
X87481014Y-97269003D01*
X87630000Y-97283677D01*
X87667333Y-97280000D01*
X97117678Y-97280000D01*
X97155000Y-97283676D01*
X97192322Y-97280000D01*
X97192333Y-97280000D01*
X97303986Y-97269003D01*
X97447247Y-97225546D01*
X97579276Y-97154974D01*
X97695001Y-97060001D01*
X97718804Y-97030997D01*
X98936003Y-95813799D01*
X98965001Y-95790001D01*
X99059974Y-95674276D01*
X99130546Y-95542247D01*
X99174003Y-95398986D01*
X99185000Y-95287333D01*
X99185000Y-95287324D01*
X99188676Y-95250001D01*
X99185000Y-95212678D01*
X99185000Y-94473665D01*
X109690000Y-94473665D01*
X109690000Y-94756335D01*
X109745147Y-95033574D01*
X109853320Y-95294727D01*
X110010363Y-95529759D01*
X110210241Y-95729637D01*
X110445273Y-95886680D01*
X110706426Y-95994853D01*
X110983665Y-96050000D01*
X111266335Y-96050000D01*
X111543574Y-95994853D01*
X111804727Y-95886680D01*
X112039759Y-95729637D01*
X112239637Y-95529759D01*
X112396680Y-95294727D01*
X112504853Y-95033574D01*
X112560000Y-94756335D01*
X112560000Y-94473665D01*
X113590000Y-94473665D01*
X113590000Y-94756335D01*
X113645147Y-95033574D01*
X113753320Y-95294727D01*
X113910363Y-95529759D01*
X114110241Y-95729637D01*
X114345273Y-95886680D01*
X114606426Y-95994853D01*
X114883665Y-96050000D01*
X115166335Y-96050000D01*
X115443574Y-95994853D01*
X115704727Y-95886680D01*
X115939759Y-95729637D01*
X116139637Y-95529759D01*
X116296680Y-95294727D01*
X116404853Y-95033574D01*
X116460000Y-94756335D01*
X116460000Y-94473665D01*
X116404853Y-94196426D01*
X116296680Y-93935273D01*
X116139637Y-93700241D01*
X115939759Y-93500363D01*
X115704727Y-93343320D01*
X115694135Y-93338933D01*
X115880131Y-93227385D01*
X116088519Y-93038414D01*
X116256037Y-92812420D01*
X116376246Y-92558087D01*
X116416904Y-92424039D01*
X116294915Y-92202000D01*
X115152000Y-92202000D01*
X115152000Y-92222000D01*
X114898000Y-92222000D01*
X114898000Y-92202000D01*
X113755085Y-92202000D01*
X113633096Y-92424039D01*
X113673754Y-92558087D01*
X113793963Y-92812420D01*
X113961481Y-93038414D01*
X114169869Y-93227385D01*
X114355865Y-93338933D01*
X114345273Y-93343320D01*
X114110241Y-93500363D01*
X113910363Y-93700241D01*
X113753320Y-93935273D01*
X113645147Y-94196426D01*
X113590000Y-94473665D01*
X112560000Y-94473665D01*
X112504853Y-94196426D01*
X112396680Y-93935273D01*
X112239637Y-93700241D01*
X112039759Y-93500363D01*
X111804727Y-93343320D01*
X111543574Y-93235147D01*
X111266335Y-93180000D01*
X110983665Y-93180000D01*
X110706426Y-93235147D01*
X110445273Y-93343320D01*
X110210241Y-93500363D01*
X110010363Y-93700241D01*
X109853320Y-93935273D01*
X109745147Y-94196426D01*
X109690000Y-94473665D01*
X99185000Y-94473665D01*
X99185000Y-90640000D01*
X104606928Y-90640000D01*
X104606928Y-92240000D01*
X104619188Y-92364482D01*
X104655498Y-92484180D01*
X104714463Y-92594494D01*
X104793815Y-92691185D01*
X104890506Y-92770537D01*
X105000820Y-92829502D01*
X105120518Y-92865812D01*
X105245000Y-92878072D01*
X106845000Y-92878072D01*
X106969482Y-92865812D01*
X107089180Y-92829502D01*
X107199494Y-92770537D01*
X107296185Y-92691185D01*
X107375537Y-92594494D01*
X107434502Y-92484180D01*
X107470812Y-92364482D01*
X107483072Y-92240000D01*
X107483072Y-90640000D01*
X107479892Y-90607702D01*
X110311903Y-90607702D01*
X110383486Y-90851671D01*
X110638996Y-90972571D01*
X110913184Y-91041300D01*
X111195512Y-91055217D01*
X111475130Y-91013787D01*
X111741292Y-90918603D01*
X111866514Y-90851671D01*
X111938097Y-90607702D01*
X111125000Y-89794605D01*
X110311903Y-90607702D01*
X107479892Y-90607702D01*
X107470812Y-90515518D01*
X107434502Y-90395820D01*
X107375537Y-90285506D01*
X107296185Y-90188815D01*
X107199494Y-90109463D01*
X107089180Y-90050498D01*
X106969482Y-90014188D01*
X106961039Y-90013357D01*
X107159637Y-89814759D01*
X107245996Y-89685512D01*
X109684783Y-89685512D01*
X109726213Y-89965130D01*
X109821397Y-90231292D01*
X109888329Y-90356514D01*
X110132298Y-90428097D01*
X110945395Y-89615000D01*
X110132298Y-88801903D01*
X109888329Y-88873486D01*
X109767429Y-89128996D01*
X109698700Y-89403184D01*
X109684783Y-89685512D01*
X107245996Y-89685512D01*
X107316680Y-89579727D01*
X107424853Y-89318574D01*
X107480000Y-89041335D01*
X107480000Y-88758665D01*
X107452875Y-88622298D01*
X110311903Y-88622298D01*
X111125000Y-89435395D01*
X111139143Y-89421253D01*
X111318748Y-89600858D01*
X111304605Y-89615000D01*
X112117702Y-90428097D01*
X112361671Y-90356514D01*
X112482571Y-90101004D01*
X112551300Y-89826816D01*
X112565217Y-89544488D01*
X112559222Y-89504024D01*
X113101205Y-90046008D01*
X113124999Y-90075001D01*
X113153992Y-90098795D01*
X113153996Y-90098799D01*
X113195265Y-90132667D01*
X113240724Y-90169974D01*
X113372753Y-90240546D01*
X113516014Y-90284003D01*
X113627667Y-90295000D01*
X113627676Y-90295000D01*
X113664999Y-90298676D01*
X113702322Y-90295000D01*
X113806957Y-90295000D01*
X113910363Y-90449759D01*
X114110241Y-90649637D01*
X114345273Y-90806680D01*
X114355865Y-90811067D01*
X114169869Y-90922615D01*
X113961481Y-91111586D01*
X113793963Y-91337580D01*
X113673754Y-91591913D01*
X113633096Y-91725961D01*
X113755085Y-91948000D01*
X114898000Y-91948000D01*
X114898000Y-91928000D01*
X115152000Y-91928000D01*
X115152000Y-91948000D01*
X116294915Y-91948000D01*
X116416904Y-91725961D01*
X116376246Y-91591913D01*
X116256037Y-91337580D01*
X116088519Y-91111586D01*
X115880131Y-90922615D01*
X115694135Y-90811067D01*
X115704727Y-90806680D01*
X115939759Y-90649637D01*
X116139637Y-90449759D01*
X116296680Y-90214727D01*
X116404853Y-89953574D01*
X116460000Y-89676335D01*
X116460000Y-89393665D01*
X116404853Y-89116426D01*
X116296680Y-88855273D01*
X116139637Y-88620241D01*
X115939759Y-88420363D01*
X115707241Y-88265000D01*
X115939759Y-88109637D01*
X116139637Y-87909759D01*
X116296680Y-87674727D01*
X116404853Y-87413574D01*
X116460000Y-87136335D01*
X116460000Y-86853665D01*
X116404853Y-86576426D01*
X116296680Y-86315273D01*
X116139637Y-86080241D01*
X115939759Y-85880363D01*
X115707241Y-85725000D01*
X115939759Y-85569637D01*
X116139637Y-85369759D01*
X116296680Y-85134727D01*
X116404853Y-84873574D01*
X116460000Y-84596335D01*
X116460000Y-84313665D01*
X116404853Y-84036426D01*
X116296680Y-83775273D01*
X116139637Y-83540241D01*
X115939759Y-83340363D01*
X115707241Y-83185000D01*
X115939759Y-83029637D01*
X116139637Y-82829759D01*
X116296680Y-82594727D01*
X116404853Y-82333574D01*
X116460000Y-82056335D01*
X116460000Y-81773665D01*
X116404853Y-81496426D01*
X116296680Y-81235273D01*
X116139637Y-81000241D01*
X115939759Y-80800363D01*
X115707241Y-80645000D01*
X115939759Y-80489637D01*
X116139637Y-80289759D01*
X116296680Y-80054727D01*
X116404853Y-79793574D01*
X116460000Y-79516335D01*
X116460000Y-79233665D01*
X116404853Y-78956426D01*
X116296680Y-78695273D01*
X116139637Y-78460241D01*
X115939759Y-78260363D01*
X115707241Y-78105000D01*
X115939759Y-77949637D01*
X116139637Y-77749759D01*
X116296680Y-77514727D01*
X116404853Y-77253574D01*
X116460000Y-76976335D01*
X116460000Y-76693665D01*
X116404853Y-76416426D01*
X116296680Y-76155273D01*
X116139637Y-75920241D01*
X115939759Y-75720363D01*
X115704727Y-75563320D01*
X115443574Y-75455147D01*
X115166335Y-75400000D01*
X114883665Y-75400000D01*
X114606426Y-75455147D01*
X114345273Y-75563320D01*
X114110241Y-75720363D01*
X113910363Y-75920241D01*
X113790000Y-76100377D01*
X113790000Y-68894801D01*
X113979802Y-68705000D01*
X118676289Y-68705000D01*
X118720226Y-68748937D01*
X118889744Y-68862205D01*
X119078102Y-68940226D01*
X119278061Y-68980000D01*
X119481939Y-68980000D01*
X119681898Y-68940226D01*
X119870256Y-68862205D01*
X119890000Y-68849012D01*
X119890001Y-78702667D01*
X119886324Y-78740000D01*
X119890001Y-78777333D01*
X119900245Y-78881335D01*
X119900998Y-78888985D01*
X119944454Y-79032246D01*
X120015026Y-79164276D01*
X120065694Y-79226014D01*
X120110000Y-79280001D01*
X120138998Y-79303799D01*
X120721200Y-79886002D01*
X120744999Y-79915001D01*
X120773997Y-79938799D01*
X120860724Y-80009974D01*
X120992753Y-80080546D01*
X121136014Y-80124003D01*
X121285000Y-80138677D01*
X121322333Y-80135000D01*
X121426957Y-80135000D01*
X121530363Y-80289759D01*
X121730241Y-80489637D01*
X121962759Y-80645000D01*
X121730241Y-80800363D01*
X121530363Y-81000241D01*
X121373320Y-81235273D01*
X121265147Y-81496426D01*
X121210000Y-81773665D01*
X121210000Y-82056335D01*
X121265147Y-82333574D01*
X121373320Y-82594727D01*
X121530363Y-82829759D01*
X121730241Y-83029637D01*
X121962759Y-83185000D01*
X121730241Y-83340363D01*
X121530363Y-83540241D01*
X121373320Y-83775273D01*
X121265147Y-84036426D01*
X121210000Y-84313665D01*
X121210000Y-84596335D01*
X121265147Y-84873574D01*
X121373320Y-85134727D01*
X121530363Y-85369759D01*
X121730241Y-85569637D01*
X121962759Y-85725000D01*
X121730241Y-85880363D01*
X121530363Y-86080241D01*
X121373320Y-86315273D01*
X121265147Y-86576426D01*
X121210000Y-86853665D01*
X121210000Y-87136335D01*
X121265147Y-87413574D01*
X121373320Y-87674727D01*
X121530363Y-87909759D01*
X121730241Y-88109637D01*
X121962759Y-88265000D01*
X121730241Y-88420363D01*
X121530363Y-88620241D01*
X121373320Y-88855273D01*
X121265147Y-89116426D01*
X121210000Y-89393665D01*
X121210000Y-89676335D01*
X121265147Y-89953574D01*
X121373320Y-90214727D01*
X121530363Y-90449759D01*
X121730241Y-90649637D01*
X121962759Y-90805000D01*
X121730241Y-90960363D01*
X121530363Y-91160241D01*
X121373320Y-91395273D01*
X121265147Y-91656426D01*
X121210000Y-91933665D01*
X121210000Y-92216335D01*
X121265147Y-92493574D01*
X121373320Y-92754727D01*
X121530363Y-92989759D01*
X121728961Y-93188357D01*
X121720518Y-93189188D01*
X121600820Y-93225498D01*
X121490506Y-93284463D01*
X121393815Y-93363815D01*
X121314463Y-93460506D01*
X121255498Y-93570820D01*
X121219188Y-93690518D01*
X121206928Y-93815000D01*
X121206928Y-95415000D01*
X121219188Y-95539482D01*
X121255498Y-95659180D01*
X121314463Y-95769494D01*
X121393815Y-95866185D01*
X121490506Y-95945537D01*
X121600820Y-96004502D01*
X121720518Y-96040812D01*
X121845000Y-96053072D01*
X123445000Y-96053072D01*
X123569482Y-96040812D01*
X123689180Y-96004502D01*
X123799494Y-95945537D01*
X123896185Y-95866185D01*
X123975537Y-95769494D01*
X124034502Y-95659180D01*
X124070812Y-95539482D01*
X124083072Y-95415000D01*
X124083072Y-94473665D01*
X124295000Y-94473665D01*
X124295000Y-94756335D01*
X124350147Y-95033574D01*
X124458320Y-95294727D01*
X124615363Y-95529759D01*
X124815241Y-95729637D01*
X125050273Y-95886680D01*
X125311426Y-95994853D01*
X125588665Y-96050000D01*
X125871335Y-96050000D01*
X126148574Y-95994853D01*
X126409727Y-95886680D01*
X126644759Y-95729637D01*
X126844637Y-95529759D01*
X127001680Y-95294727D01*
X127109853Y-95033574D01*
X127165000Y-94756335D01*
X127165000Y-94473665D01*
X127109853Y-94196426D01*
X127001680Y-93935273D01*
X126844637Y-93700241D01*
X126644759Y-93500363D01*
X126409727Y-93343320D01*
X126148574Y-93235147D01*
X125871335Y-93180000D01*
X125588665Y-93180000D01*
X125311426Y-93235147D01*
X125050273Y-93343320D01*
X124815241Y-93500363D01*
X124615363Y-93700241D01*
X124458320Y-93935273D01*
X124350147Y-94196426D01*
X124295000Y-94473665D01*
X124083072Y-94473665D01*
X124083072Y-93815000D01*
X124070812Y-93690518D01*
X124034502Y-93570820D01*
X123975537Y-93460506D01*
X123896185Y-93363815D01*
X123799494Y-93284463D01*
X123689180Y-93225498D01*
X123569482Y-93189188D01*
X123561039Y-93188357D01*
X123759637Y-92989759D01*
X123916680Y-92754727D01*
X124024853Y-92493574D01*
X124080000Y-92216335D01*
X124080000Y-91933665D01*
X124024853Y-91656426D01*
X123916680Y-91395273D01*
X123759637Y-91160241D01*
X123559759Y-90960363D01*
X123327241Y-90805000D01*
X123559759Y-90649637D01*
X123759637Y-90449759D01*
X123916680Y-90214727D01*
X124024853Y-89953574D01*
X124080000Y-89676335D01*
X124080000Y-89473665D01*
X124295000Y-89473665D01*
X124295000Y-89756335D01*
X124350147Y-90033574D01*
X124458320Y-90294727D01*
X124615363Y-90529759D01*
X124815241Y-90729637D01*
X125050273Y-90886680D01*
X125311426Y-90994853D01*
X125588665Y-91050000D01*
X125871335Y-91050000D01*
X126148574Y-90994853D01*
X126409727Y-90886680D01*
X126644759Y-90729637D01*
X126844637Y-90529759D01*
X127001680Y-90294727D01*
X127109853Y-90033574D01*
X127165000Y-89756335D01*
X127165000Y-89473665D01*
X127109853Y-89196426D01*
X127001680Y-88935273D01*
X126844637Y-88700241D01*
X126644759Y-88500363D01*
X126409727Y-88343320D01*
X126148574Y-88235147D01*
X125871335Y-88180000D01*
X125588665Y-88180000D01*
X125311426Y-88235147D01*
X125050273Y-88343320D01*
X124815241Y-88500363D01*
X124615363Y-88700241D01*
X124458320Y-88935273D01*
X124350147Y-89196426D01*
X124295000Y-89473665D01*
X124080000Y-89473665D01*
X124080000Y-89393665D01*
X124024853Y-89116426D01*
X123916680Y-88855273D01*
X123759637Y-88620241D01*
X123559759Y-88420363D01*
X123327241Y-88265000D01*
X123538764Y-88123665D01*
X128740000Y-88123665D01*
X128740000Y-88406335D01*
X128795147Y-88683574D01*
X128903320Y-88944727D01*
X129060363Y-89179759D01*
X129260241Y-89379637D01*
X129495273Y-89536680D01*
X129756426Y-89644853D01*
X130033665Y-89700000D01*
X130316335Y-89700000D01*
X130593574Y-89644853D01*
X130854727Y-89536680D01*
X131089759Y-89379637D01*
X131289637Y-89179759D01*
X131446680Y-88944727D01*
X131554853Y-88683574D01*
X131610000Y-88406335D01*
X131610000Y-88123665D01*
X131554853Y-87846426D01*
X131446680Y-87585273D01*
X131289637Y-87350241D01*
X131089759Y-87150363D01*
X130854727Y-86993320D01*
X130593574Y-86885147D01*
X130316335Y-86830000D01*
X130033665Y-86830000D01*
X129756426Y-86885147D01*
X129495273Y-86993320D01*
X129260241Y-87150363D01*
X129060363Y-87350241D01*
X128903320Y-87585273D01*
X128795147Y-87846426D01*
X128740000Y-88123665D01*
X123538764Y-88123665D01*
X123559759Y-88109637D01*
X123759637Y-87909759D01*
X123916680Y-87674727D01*
X124024853Y-87413574D01*
X124080000Y-87136335D01*
X124080000Y-86853665D01*
X124024853Y-86576426D01*
X123916680Y-86315273D01*
X123759637Y-86080241D01*
X123559759Y-85880363D01*
X123327241Y-85725000D01*
X123559759Y-85569637D01*
X123759637Y-85369759D01*
X123916680Y-85134727D01*
X124024853Y-84873574D01*
X124080000Y-84596335D01*
X124080000Y-84313665D01*
X124024853Y-84036426D01*
X123916680Y-83775273D01*
X123759637Y-83540241D01*
X123559759Y-83340363D01*
X123327241Y-83185000D01*
X123559759Y-83029637D01*
X123759637Y-82829759D01*
X123916680Y-82594727D01*
X124024853Y-82333574D01*
X124080000Y-82056335D01*
X124080000Y-81773665D01*
X124295000Y-81773665D01*
X124295000Y-82056335D01*
X124350147Y-82333574D01*
X124458320Y-82594727D01*
X124615363Y-82829759D01*
X124815241Y-83029637D01*
X125050273Y-83186680D01*
X125311426Y-83294853D01*
X125588665Y-83350000D01*
X125871335Y-83350000D01*
X126148574Y-83294853D01*
X126409727Y-83186680D01*
X126504035Y-83123665D01*
X128740000Y-83123665D01*
X128740000Y-83406335D01*
X128795147Y-83683574D01*
X128903320Y-83944727D01*
X129060363Y-84179759D01*
X129260241Y-84379637D01*
X129495273Y-84536680D01*
X129756426Y-84644853D01*
X130033665Y-84700000D01*
X130316335Y-84700000D01*
X130593574Y-84644853D01*
X130854727Y-84536680D01*
X131089759Y-84379637D01*
X131289637Y-84179759D01*
X131446680Y-83944727D01*
X131554853Y-83683574D01*
X131610000Y-83406335D01*
X131610000Y-83123665D01*
X131554853Y-82846426D01*
X131446680Y-82585273D01*
X131289637Y-82350241D01*
X131089759Y-82150363D01*
X130854727Y-81993320D01*
X130593574Y-81885147D01*
X130316335Y-81830000D01*
X130033665Y-81830000D01*
X129756426Y-81885147D01*
X129495273Y-81993320D01*
X129260241Y-82150363D01*
X129060363Y-82350241D01*
X128903320Y-82585273D01*
X128795147Y-82846426D01*
X128740000Y-83123665D01*
X126504035Y-83123665D01*
X126644759Y-83029637D01*
X126844637Y-82829759D01*
X127001680Y-82594727D01*
X127109853Y-82333574D01*
X127165000Y-82056335D01*
X127165000Y-81773665D01*
X127109853Y-81496426D01*
X127001680Y-81235273D01*
X126844637Y-81000241D01*
X126644759Y-80800363D01*
X126409727Y-80643320D01*
X126148574Y-80535147D01*
X125871335Y-80480000D01*
X125588665Y-80480000D01*
X125311426Y-80535147D01*
X125050273Y-80643320D01*
X124815241Y-80800363D01*
X124615363Y-81000241D01*
X124458320Y-81235273D01*
X124350147Y-81496426D01*
X124295000Y-81773665D01*
X124080000Y-81773665D01*
X124024853Y-81496426D01*
X123916680Y-81235273D01*
X123759637Y-81000241D01*
X123559759Y-80800363D01*
X123327241Y-80645000D01*
X123559759Y-80489637D01*
X123759637Y-80289759D01*
X123916680Y-80054727D01*
X124024853Y-79793574D01*
X124080000Y-79516335D01*
X124080000Y-79233665D01*
X124024853Y-78956426D01*
X123916680Y-78695273D01*
X123759637Y-78460241D01*
X123559759Y-78260363D01*
X123327241Y-78105000D01*
X123559759Y-77949637D01*
X123601694Y-77907702D01*
X124916903Y-77907702D01*
X124988486Y-78151671D01*
X125243996Y-78272571D01*
X125518184Y-78341300D01*
X125800512Y-78355217D01*
X126080130Y-78313787D01*
X126346292Y-78218603D01*
X126471514Y-78151671D01*
X126543097Y-77907702D01*
X125730000Y-77094605D01*
X124916903Y-77907702D01*
X123601694Y-77907702D01*
X123759637Y-77749759D01*
X123916680Y-77514727D01*
X124024853Y-77253574D01*
X124078174Y-76985512D01*
X124289783Y-76985512D01*
X124331213Y-77265130D01*
X124426397Y-77531292D01*
X124493329Y-77656514D01*
X124737298Y-77728097D01*
X125550395Y-76915000D01*
X125909605Y-76915000D01*
X126722702Y-77728097D01*
X126966671Y-77656514D01*
X127087571Y-77401004D01*
X127156300Y-77126816D01*
X127170217Y-76844488D01*
X127128787Y-76564870D01*
X127033603Y-76298708D01*
X126966671Y-76173486D01*
X126722702Y-76101903D01*
X125909605Y-76915000D01*
X125550395Y-76915000D01*
X124737298Y-76101903D01*
X124493329Y-76173486D01*
X124372429Y-76428996D01*
X124303700Y-76703184D01*
X124289783Y-76985512D01*
X124078174Y-76985512D01*
X124080000Y-76976335D01*
X124080000Y-76693665D01*
X124024853Y-76416426D01*
X123916680Y-76155273D01*
X123761012Y-75922298D01*
X124916903Y-75922298D01*
X125730000Y-76735395D01*
X126543097Y-75922298D01*
X126471514Y-75678329D01*
X126216004Y-75557429D01*
X125941816Y-75488700D01*
X125659488Y-75474783D01*
X125379870Y-75516213D01*
X125113708Y-75611397D01*
X124988486Y-75678329D01*
X124916903Y-75922298D01*
X123761012Y-75922298D01*
X123759637Y-75920241D01*
X123559759Y-75720363D01*
X123405000Y-75616957D01*
X123405000Y-61453665D01*
X125565000Y-61453665D01*
X125565000Y-61736335D01*
X125620147Y-62013574D01*
X125728320Y-62274727D01*
X125885363Y-62509759D01*
X126085241Y-62709637D01*
X126320273Y-62866680D01*
X126581426Y-62974853D01*
X126858665Y-63030000D01*
X127030198Y-63030000D01*
X126489002Y-63571197D01*
X126459999Y-63594999D01*
X126404871Y-63662174D01*
X126365026Y-63710724D01*
X126321451Y-63792246D01*
X126294454Y-63842754D01*
X126250997Y-63986015D01*
X126240000Y-64097668D01*
X126240000Y-64097678D01*
X126236324Y-64135000D01*
X126240000Y-64172323D01*
X126240001Y-67272658D01*
X126240000Y-67272668D01*
X126240001Y-70536956D01*
X126085241Y-70640363D01*
X125885363Y-70840241D01*
X125728320Y-71075273D01*
X125620147Y-71336426D01*
X125565000Y-71613665D01*
X125565000Y-71896335D01*
X125620147Y-72173574D01*
X125728320Y-72434727D01*
X125885363Y-72669759D01*
X126085241Y-72869637D01*
X126320273Y-73026680D01*
X126581426Y-73134853D01*
X126858665Y-73190000D01*
X127141335Y-73190000D01*
X127418574Y-73134853D01*
X127679727Y-73026680D01*
X127914759Y-72869637D01*
X128114637Y-72669759D01*
X128271680Y-72434727D01*
X128379853Y-72173574D01*
X128435000Y-71896335D01*
X128435000Y-71613665D01*
X129375000Y-71613665D01*
X129375000Y-71896335D01*
X129430147Y-72173574D01*
X129538320Y-72434727D01*
X129695363Y-72669759D01*
X129895241Y-72869637D01*
X130050000Y-72973044D01*
X130050000Y-73622677D01*
X130046324Y-73660000D01*
X130050000Y-73697322D01*
X130050000Y-73697332D01*
X130060997Y-73808985D01*
X130081455Y-73876426D01*
X130104454Y-73952246D01*
X130175026Y-74084276D01*
X130214871Y-74132826D01*
X130269999Y-74200001D01*
X130299002Y-74223803D01*
X130881200Y-74806002D01*
X130904999Y-74835001D01*
X130933997Y-74858799D01*
X131020724Y-74929974D01*
X131152753Y-75000546D01*
X131296014Y-75044003D01*
X131445000Y-75058677D01*
X131482333Y-75055000D01*
X131765199Y-75055000D01*
X131955001Y-75244803D01*
X131955000Y-100292678D01*
X131951324Y-100330000D01*
X131955000Y-100367322D01*
X131955000Y-100367332D01*
X131965997Y-100478985D01*
X132009454Y-100622246D01*
X132080026Y-100754276D01*
X132119871Y-100802826D01*
X132174999Y-100870001D01*
X132204002Y-100893803D01*
X132786200Y-101476002D01*
X132809999Y-101505001D01*
X132838997Y-101528799D01*
X132925724Y-101599974D01*
X133057753Y-101670546D01*
X133201014Y-101714003D01*
X133350000Y-101728677D01*
X133387333Y-101725000D01*
X136456687Y-101725000D01*
X136602688Y-101943505D01*
X136816495Y-102157312D01*
X137067905Y-102325299D01*
X137347257Y-102441011D01*
X137643816Y-102500000D01*
X137946184Y-102500000D01*
X138242743Y-102441011D01*
X138522095Y-102325299D01*
X138773505Y-102157312D01*
X138839944Y-102090873D01*
X138845498Y-102109180D01*
X138904463Y-102219494D01*
X138983815Y-102316185D01*
X139080506Y-102395537D01*
X139190820Y-102454502D01*
X139310518Y-102490812D01*
X139435000Y-102503072D01*
X140049250Y-102500000D01*
X140208000Y-102341250D01*
X140208000Y-101092000D01*
X140462000Y-101092000D01*
X140462000Y-102341250D01*
X140620750Y-102500000D01*
X141235000Y-102503072D01*
X141359482Y-102490812D01*
X141479180Y-102454502D01*
X141589494Y-102395537D01*
X141686185Y-102316185D01*
X141765537Y-102219494D01*
X141824502Y-102109180D01*
X141860812Y-101989482D01*
X141873072Y-101865000D01*
X141870000Y-101250750D01*
X141711250Y-101092000D01*
X140462000Y-101092000D01*
X140208000Y-101092000D01*
X140188000Y-101092000D01*
X140188000Y-100838000D01*
X140208000Y-100838000D01*
X140208000Y-99588750D01*
X140462000Y-99588750D01*
X140462000Y-100838000D01*
X141711250Y-100838000D01*
X141870000Y-100679250D01*
X141873072Y-100065000D01*
X141860812Y-99940518D01*
X141824502Y-99820820D01*
X141765537Y-99710506D01*
X141686185Y-99613815D01*
X141589494Y-99534463D01*
X141479180Y-99475498D01*
X141359482Y-99439188D01*
X141235000Y-99426928D01*
X140620750Y-99430000D01*
X140462000Y-99588750D01*
X140208000Y-99588750D01*
X140049250Y-99430000D01*
X139435000Y-99426928D01*
X139310518Y-99439188D01*
X139190820Y-99475498D01*
X139080506Y-99534463D01*
X138983815Y-99613815D01*
X138904463Y-99710506D01*
X138845498Y-99820820D01*
X138839944Y-99839127D01*
X138773505Y-99772688D01*
X138522095Y-99604701D01*
X138242743Y-99488989D01*
X137946184Y-99430000D01*
X137643816Y-99430000D01*
X137347257Y-99488989D01*
X137067905Y-99604701D01*
X136816495Y-99772688D01*
X136602688Y-99986495D01*
X136456687Y-100205000D01*
X133664802Y-100205000D01*
X133475000Y-100015199D01*
X133475000Y-81773665D01*
X133820000Y-81773665D01*
X133820000Y-82056335D01*
X133875147Y-82333574D01*
X133983320Y-82594727D01*
X134140363Y-82829759D01*
X134340241Y-83029637D01*
X134572759Y-83185000D01*
X134340241Y-83340363D01*
X134140363Y-83540241D01*
X133983320Y-83775273D01*
X133875147Y-84036426D01*
X133820000Y-84313665D01*
X133820000Y-84596335D01*
X133875147Y-84873574D01*
X133983320Y-85134727D01*
X134140363Y-85369759D01*
X134340241Y-85569637D01*
X134572759Y-85725000D01*
X134340241Y-85880363D01*
X134140363Y-86080241D01*
X133983320Y-86315273D01*
X133875147Y-86576426D01*
X133820000Y-86853665D01*
X133820000Y-87136335D01*
X133875147Y-87413574D01*
X133983320Y-87674727D01*
X134140363Y-87909759D01*
X134340241Y-88109637D01*
X134572759Y-88265000D01*
X134340241Y-88420363D01*
X134140363Y-88620241D01*
X133983320Y-88855273D01*
X133875147Y-89116426D01*
X133820000Y-89393665D01*
X133820000Y-89676335D01*
X133875147Y-89953574D01*
X133983320Y-90214727D01*
X134140363Y-90449759D01*
X134340241Y-90649637D01*
X134572759Y-90805000D01*
X134340241Y-90960363D01*
X134140363Y-91160241D01*
X133983320Y-91395273D01*
X133875147Y-91656426D01*
X133820000Y-91933665D01*
X133820000Y-92216335D01*
X133875147Y-92493574D01*
X133983320Y-92754727D01*
X134140363Y-92989759D01*
X134340241Y-93189637D01*
X134572759Y-93345000D01*
X134340241Y-93500363D01*
X134140363Y-93700241D01*
X133983320Y-93935273D01*
X133875147Y-94196426D01*
X133820000Y-94473665D01*
X133820000Y-94756335D01*
X133875147Y-95033574D01*
X133983320Y-95294727D01*
X134140363Y-95529759D01*
X134340241Y-95729637D01*
X134575273Y-95886680D01*
X134836426Y-95994853D01*
X135113665Y-96050000D01*
X135396335Y-96050000D01*
X135673574Y-95994853D01*
X135934727Y-95886680D01*
X136169759Y-95729637D01*
X136369637Y-95529759D01*
X136526680Y-95294727D01*
X136634853Y-95033574D01*
X136690000Y-94756335D01*
X136690000Y-94473665D01*
X136634853Y-94196426D01*
X136526680Y-93935273D01*
X136369637Y-93700241D01*
X136169759Y-93500363D01*
X135937241Y-93345000D01*
X136169759Y-93189637D01*
X136369637Y-92989759D01*
X136526680Y-92754727D01*
X136634853Y-92493574D01*
X136690000Y-92216335D01*
X136690000Y-91933665D01*
X136634853Y-91656426D01*
X136526680Y-91395273D01*
X136369637Y-91160241D01*
X136169759Y-90960363D01*
X135937241Y-90805000D01*
X136169759Y-90649637D01*
X136369637Y-90449759D01*
X136526680Y-90214727D01*
X136634853Y-89953574D01*
X136690000Y-89676335D01*
X136690000Y-89393665D01*
X136634853Y-89116426D01*
X136526680Y-88855273D01*
X136369637Y-88620241D01*
X136169759Y-88420363D01*
X135937241Y-88265000D01*
X136169759Y-88109637D01*
X136369637Y-87909759D01*
X136526680Y-87674727D01*
X136634853Y-87413574D01*
X136690000Y-87136335D01*
X136690000Y-86853665D01*
X136634853Y-86576426D01*
X136526680Y-86315273D01*
X136369637Y-86080241D01*
X136169759Y-85880363D01*
X135937241Y-85725000D01*
X136169759Y-85569637D01*
X136369637Y-85369759D01*
X136526680Y-85134727D01*
X136634853Y-84873574D01*
X136690000Y-84596335D01*
X136690000Y-84313665D01*
X136634853Y-84036426D01*
X136526680Y-83775273D01*
X136369637Y-83540241D01*
X136169759Y-83340363D01*
X135937241Y-83185000D01*
X136169759Y-83029637D01*
X136369637Y-82829759D01*
X136526680Y-82594727D01*
X136634853Y-82333574D01*
X136690000Y-82056335D01*
X136690000Y-81773665D01*
X136634853Y-81496426D01*
X136526680Y-81235273D01*
X136369637Y-81000241D01*
X136169759Y-80800363D01*
X135934727Y-80643320D01*
X135924135Y-80638933D01*
X136110131Y-80527385D01*
X136318519Y-80338414D01*
X136486037Y-80112420D01*
X136606246Y-79858087D01*
X136646904Y-79724039D01*
X136524915Y-79502000D01*
X135382000Y-79502000D01*
X135382000Y-79522000D01*
X135128000Y-79522000D01*
X135128000Y-79502000D01*
X133985085Y-79502000D01*
X133863096Y-79724039D01*
X133903754Y-79858087D01*
X134023963Y-80112420D01*
X134191481Y-80338414D01*
X134399869Y-80527385D01*
X134585865Y-80638933D01*
X134575273Y-80643320D01*
X134340241Y-80800363D01*
X134140363Y-81000241D01*
X133983320Y-81235273D01*
X133875147Y-81496426D01*
X133820000Y-81773665D01*
X133475000Y-81773665D01*
X133475000Y-74967333D01*
X133478677Y-74930000D01*
X133464003Y-74781014D01*
X133420546Y-74637753D01*
X133349974Y-74505724D01*
X133278799Y-74418997D01*
X133255001Y-74389999D01*
X133226002Y-74366200D01*
X132643803Y-73784002D01*
X132620001Y-73754999D01*
X132504276Y-73660026D01*
X132372247Y-73589454D01*
X132228986Y-73545997D01*
X132117333Y-73535000D01*
X132117322Y-73535000D01*
X132080000Y-73531324D01*
X132042678Y-73535000D01*
X131759802Y-73535000D01*
X131570000Y-73345199D01*
X131570000Y-72973043D01*
X131724759Y-72869637D01*
X131924637Y-72669759D01*
X132081680Y-72434727D01*
X132189853Y-72173574D01*
X132245000Y-71896335D01*
X132245000Y-71613665D01*
X132189853Y-71336426D01*
X132081680Y-71075273D01*
X131924637Y-70840241D01*
X131724759Y-70640363D01*
X131489727Y-70483320D01*
X131228574Y-70375147D01*
X130951335Y-70320000D01*
X130668665Y-70320000D01*
X130391426Y-70375147D01*
X130130273Y-70483320D01*
X129895241Y-70640363D01*
X129695363Y-70840241D01*
X129538320Y-71075273D01*
X129430147Y-71336426D01*
X129375000Y-71613665D01*
X128435000Y-71613665D01*
X128379853Y-71336426D01*
X128271680Y-71075273D01*
X128114637Y-70840241D01*
X127914759Y-70640363D01*
X127760000Y-70536957D01*
X127760000Y-64449801D01*
X127949802Y-64260000D01*
X132042678Y-64260000D01*
X132080000Y-64263676D01*
X132117322Y-64260000D01*
X132117333Y-64260000D01*
X132228986Y-64249003D01*
X132372247Y-64205546D01*
X132504276Y-64134974D01*
X132620001Y-64040001D01*
X132643803Y-64010998D01*
X133226002Y-63428800D01*
X133255001Y-63405001D01*
X133349974Y-63289276D01*
X133420546Y-63157247D01*
X133464003Y-63013986D01*
X133475000Y-62902333D01*
X133478677Y-62865000D01*
X133475000Y-62827667D01*
X133475000Y-62544801D01*
X133664802Y-62355000D01*
X133816928Y-62355000D01*
X133816928Y-62395000D01*
X133829188Y-62519482D01*
X133865498Y-62639180D01*
X133924463Y-62749494D01*
X134003815Y-62846185D01*
X134100506Y-62925537D01*
X134210820Y-62984502D01*
X134330518Y-63020812D01*
X134338961Y-63021643D01*
X134140363Y-63220241D01*
X134036957Y-63375000D01*
X134022322Y-63375000D01*
X133984999Y-63371324D01*
X133947676Y-63375000D01*
X133947667Y-63375000D01*
X133836014Y-63385997D01*
X133692753Y-63429454D01*
X133560724Y-63500026D01*
X133444999Y-63594999D01*
X133421201Y-63623997D01*
X132400199Y-64645000D01*
X129608711Y-64645000D01*
X129564774Y-64601063D01*
X129395256Y-64487795D01*
X129206898Y-64409774D01*
X129006939Y-64370000D01*
X128803061Y-64370000D01*
X128603102Y-64409774D01*
X128414744Y-64487795D01*
X128245226Y-64601063D01*
X128101063Y-64745226D01*
X127987795Y-64914744D01*
X127909774Y-65103102D01*
X127870000Y-65303061D01*
X127870000Y-65506939D01*
X127909774Y-65706898D01*
X127987795Y-65895256D01*
X128101063Y-66064774D01*
X128245226Y-66208937D01*
X128414744Y-66322205D01*
X128603102Y-66400226D01*
X128803061Y-66440000D01*
X129006939Y-66440000D01*
X129206898Y-66400226D01*
X129395256Y-66322205D01*
X129564774Y-66208937D01*
X129608711Y-66165000D01*
X132677678Y-66165000D01*
X132715000Y-66168676D01*
X132752322Y-66165000D01*
X132752333Y-66165000D01*
X132863986Y-66154003D01*
X133007247Y-66110546D01*
X133139276Y-66039974D01*
X133255001Y-65945001D01*
X133278804Y-65915997D01*
X134142703Y-65052099D01*
X134340241Y-65249637D01*
X134572759Y-65405000D01*
X134340241Y-65560363D01*
X134140363Y-65760241D01*
X134036957Y-65915000D01*
X134022322Y-65915000D01*
X133984999Y-65911324D01*
X133947676Y-65915000D01*
X133947667Y-65915000D01*
X133836014Y-65925997D01*
X133692753Y-65969454D01*
X133560724Y-66040026D01*
X133444999Y-66134999D01*
X133421201Y-66163997D01*
X132400199Y-67185000D01*
X129608711Y-67185000D01*
X129564774Y-67141063D01*
X129395256Y-67027795D01*
X129206898Y-66949774D01*
X129006939Y-66910000D01*
X128803061Y-66910000D01*
X128603102Y-66949774D01*
X128414744Y-67027795D01*
X128245226Y-67141063D01*
X128101063Y-67285226D01*
X127987795Y-67454744D01*
X127909774Y-67643102D01*
X127870000Y-67843061D01*
X127870000Y-68046939D01*
X127909774Y-68246898D01*
X127987795Y-68435256D01*
X128101063Y-68604774D01*
X128245226Y-68748937D01*
X128414744Y-68862205D01*
X128603102Y-68940226D01*
X128803061Y-68980000D01*
X129006939Y-68980000D01*
X129206898Y-68940226D01*
X129395256Y-68862205D01*
X129564774Y-68748937D01*
X129608711Y-68705000D01*
X132677678Y-68705000D01*
X132715000Y-68708676D01*
X132752322Y-68705000D01*
X132752333Y-68705000D01*
X132863986Y-68694003D01*
X133007247Y-68650546D01*
X133139276Y-68579974D01*
X133255001Y-68485001D01*
X133278804Y-68455997D01*
X134142703Y-67592099D01*
X134340241Y-67789637D01*
X134572759Y-67945000D01*
X134340241Y-68100363D01*
X134140363Y-68300241D01*
X133983320Y-68535273D01*
X133875147Y-68796426D01*
X133820000Y-69073665D01*
X133820000Y-69356335D01*
X133875147Y-69633574D01*
X133983320Y-69894727D01*
X134140363Y-70129759D01*
X134340241Y-70329637D01*
X134572759Y-70485000D01*
X134340241Y-70640363D01*
X134140363Y-70840241D01*
X133983320Y-71075273D01*
X133875147Y-71336426D01*
X133820000Y-71613665D01*
X133820000Y-71896335D01*
X133875147Y-72173574D01*
X133983320Y-72434727D01*
X134140363Y-72669759D01*
X134340241Y-72869637D01*
X134572759Y-73025000D01*
X134340241Y-73180363D01*
X134140363Y-73380241D01*
X133983320Y-73615273D01*
X133875147Y-73876426D01*
X133820000Y-74153665D01*
X133820000Y-74436335D01*
X133875147Y-74713574D01*
X133983320Y-74974727D01*
X134140363Y-75209759D01*
X134340241Y-75409637D01*
X134572759Y-75565000D01*
X134340241Y-75720363D01*
X134140363Y-75920241D01*
X133983320Y-76155273D01*
X133875147Y-76416426D01*
X133820000Y-76693665D01*
X133820000Y-76976335D01*
X133875147Y-77253574D01*
X133983320Y-77514727D01*
X134140363Y-77749759D01*
X134340241Y-77949637D01*
X134575273Y-78106680D01*
X134585865Y-78111067D01*
X134399869Y-78222615D01*
X134191481Y-78411586D01*
X134023963Y-78637580D01*
X133903754Y-78891913D01*
X133863096Y-79025961D01*
X133985085Y-79248000D01*
X135128000Y-79248000D01*
X135128000Y-79228000D01*
X135382000Y-79228000D01*
X135382000Y-79248000D01*
X136524915Y-79248000D01*
X136646904Y-79025961D01*
X136606246Y-78891913D01*
X136486037Y-78637580D01*
X136318519Y-78411586D01*
X136110131Y-78222615D01*
X135924135Y-78111067D01*
X135934727Y-78106680D01*
X136169759Y-77949637D01*
X136369637Y-77749759D01*
X136526680Y-77514727D01*
X136634853Y-77253574D01*
X136690000Y-76976335D01*
X136690000Y-76693665D01*
X136634853Y-76416426D01*
X136526680Y-76155273D01*
X136369637Y-75920241D01*
X136169759Y-75720363D01*
X135937241Y-75565000D01*
X136169759Y-75409637D01*
X136369637Y-75209759D01*
X136526680Y-74974727D01*
X136634853Y-74713574D01*
X136690000Y-74436335D01*
X136690000Y-74153665D01*
X136634853Y-73876426D01*
X136526680Y-73615273D01*
X136369637Y-73380241D01*
X136169759Y-73180363D01*
X135937241Y-73025000D01*
X136169759Y-72869637D01*
X136369637Y-72669759D01*
X136526680Y-72434727D01*
X136634853Y-72173574D01*
X136690000Y-71896335D01*
X136690000Y-71613665D01*
X136634853Y-71336426D01*
X136526680Y-71075273D01*
X136369637Y-70840241D01*
X136169759Y-70640363D01*
X135937241Y-70485000D01*
X136169759Y-70329637D01*
X136369637Y-70129759D01*
X136526680Y-69894727D01*
X136634853Y-69633574D01*
X136690000Y-69356335D01*
X136690000Y-69073665D01*
X136634853Y-68796426D01*
X136526680Y-68535273D01*
X136369637Y-68300241D01*
X136169759Y-68100363D01*
X135937241Y-67945000D01*
X136169759Y-67789637D01*
X136369637Y-67589759D01*
X136526680Y-67354727D01*
X136634853Y-67093574D01*
X136690000Y-66816335D01*
X136690000Y-66533665D01*
X136634853Y-66256426D01*
X136526680Y-65995273D01*
X136369637Y-65760241D01*
X136169759Y-65560363D01*
X135937241Y-65405000D01*
X136169759Y-65249637D01*
X136369637Y-65049759D01*
X136526680Y-64814727D01*
X136634853Y-64553574D01*
X136690000Y-64276335D01*
X136690000Y-63993665D01*
X136634853Y-63716426D01*
X136526680Y-63455273D01*
X136369637Y-63220241D01*
X136171039Y-63021643D01*
X136179482Y-63020812D01*
X136299180Y-62984502D01*
X136409494Y-62925537D01*
X136506185Y-62846185D01*
X136585537Y-62749494D01*
X136644502Y-62639180D01*
X136680812Y-62519482D01*
X136693072Y-62395000D01*
X136693072Y-61453665D01*
X141440000Y-61453665D01*
X141440000Y-61736335D01*
X141495147Y-62013574D01*
X141603320Y-62274727D01*
X141760363Y-62509759D01*
X141960241Y-62709637D01*
X142192759Y-62865000D01*
X141960241Y-63020363D01*
X141760363Y-63220241D01*
X141603320Y-63455273D01*
X141495147Y-63716426D01*
X141440000Y-63993665D01*
X141440000Y-64276335D01*
X141495147Y-64553574D01*
X141603320Y-64814727D01*
X141760363Y-65049759D01*
X141960241Y-65249637D01*
X142192759Y-65405000D01*
X141960241Y-65560363D01*
X141760363Y-65760241D01*
X141603320Y-65995273D01*
X141495147Y-66256426D01*
X141440000Y-66533665D01*
X141440000Y-66816335D01*
X141495147Y-67093574D01*
X141603320Y-67354727D01*
X141760363Y-67589759D01*
X141960241Y-67789637D01*
X142192759Y-67945000D01*
X141960241Y-68100363D01*
X141760363Y-68300241D01*
X141603320Y-68535273D01*
X141495147Y-68796426D01*
X141440000Y-69073665D01*
X141440000Y-69356335D01*
X141495147Y-69633574D01*
X141603320Y-69894727D01*
X141760363Y-70129759D01*
X141960241Y-70329637D01*
X142192759Y-70485000D01*
X141960241Y-70640363D01*
X141760363Y-70840241D01*
X141603320Y-71075273D01*
X141495147Y-71336426D01*
X141440000Y-71613665D01*
X141440000Y-71896335D01*
X141495147Y-72173574D01*
X141603320Y-72434727D01*
X141760363Y-72669759D01*
X141960241Y-72869637D01*
X142192759Y-73025000D01*
X141960241Y-73180363D01*
X141760363Y-73380241D01*
X141603320Y-73615273D01*
X141495147Y-73876426D01*
X141440000Y-74153665D01*
X141440000Y-74436335D01*
X141495147Y-74713574D01*
X141603320Y-74974727D01*
X141760363Y-75209759D01*
X141960241Y-75409637D01*
X142195273Y-75566680D01*
X142205865Y-75571067D01*
X142019869Y-75682615D01*
X141811481Y-75871586D01*
X141643963Y-76097580D01*
X141523754Y-76351913D01*
X141483096Y-76485961D01*
X141605085Y-76708000D01*
X142748000Y-76708000D01*
X142748000Y-76688000D01*
X143002000Y-76688000D01*
X143002000Y-76708000D01*
X144144915Y-76708000D01*
X144266904Y-76485961D01*
X144226246Y-76351913D01*
X144106037Y-76097580D01*
X143938519Y-75871586D01*
X143730131Y-75682615D01*
X143544135Y-75571067D01*
X143554727Y-75566680D01*
X143789759Y-75409637D01*
X143989637Y-75209759D01*
X144146680Y-74974727D01*
X144254853Y-74713574D01*
X144310000Y-74436335D01*
X144310000Y-74153665D01*
X144254853Y-73876426D01*
X144146680Y-73615273D01*
X143989637Y-73380241D01*
X143789759Y-73180363D01*
X143557241Y-73025000D01*
X143789759Y-72869637D01*
X143989637Y-72669759D01*
X144146680Y-72434727D01*
X144254853Y-72173574D01*
X144310000Y-71896335D01*
X144310000Y-71613665D01*
X144254853Y-71336426D01*
X144146680Y-71075273D01*
X143989637Y-70840241D01*
X143789759Y-70640363D01*
X143557241Y-70485000D01*
X143789759Y-70329637D01*
X143989637Y-70129759D01*
X144146680Y-69894727D01*
X144254853Y-69633574D01*
X144310000Y-69356335D01*
X144310000Y-69073665D01*
X144254853Y-68796426D01*
X144146680Y-68535273D01*
X143989637Y-68300241D01*
X143789759Y-68100363D01*
X143557241Y-67945000D01*
X143789759Y-67789637D01*
X143989637Y-67589759D01*
X144146680Y-67354727D01*
X144254853Y-67093574D01*
X144310000Y-66816335D01*
X144310000Y-66533665D01*
X144254853Y-66256426D01*
X144146680Y-65995273D01*
X143989637Y-65760241D01*
X143789759Y-65560363D01*
X143557241Y-65405000D01*
X143789759Y-65249637D01*
X143989637Y-65049759D01*
X144146680Y-64814727D01*
X144254853Y-64553574D01*
X144310000Y-64276335D01*
X144310000Y-63993665D01*
X144254853Y-63716426D01*
X144146680Y-63455273D01*
X143989637Y-63220241D01*
X143789759Y-63020363D01*
X143557241Y-62865000D01*
X143789759Y-62709637D01*
X143989637Y-62509759D01*
X144146680Y-62274727D01*
X144254853Y-62013574D01*
X144310000Y-61736335D01*
X144310000Y-61453665D01*
X144254853Y-61176426D01*
X144146680Y-60915273D01*
X143989637Y-60680241D01*
X143789759Y-60480363D01*
X143554727Y-60323320D01*
X143293574Y-60215147D01*
X143016335Y-60160000D01*
X142733665Y-60160000D01*
X142456426Y-60215147D01*
X142195273Y-60323320D01*
X141960241Y-60480363D01*
X141760363Y-60680241D01*
X141603320Y-60915273D01*
X141495147Y-61176426D01*
X141440000Y-61453665D01*
X136693072Y-61453665D01*
X136693072Y-60795000D01*
X136680812Y-60670518D01*
X136644502Y-60550820D01*
X136585537Y-60440506D01*
X136506185Y-60343815D01*
X136409494Y-60264463D01*
X136299180Y-60205498D01*
X136179482Y-60169188D01*
X136055000Y-60156928D01*
X134455000Y-60156928D01*
X134330518Y-60169188D01*
X134210820Y-60205498D01*
X134100506Y-60264463D01*
X134003815Y-60343815D01*
X133924463Y-60440506D01*
X133865498Y-60550820D01*
X133829188Y-60670518D01*
X133816928Y-60795000D01*
X133816928Y-60835000D01*
X133387333Y-60835000D01*
X133350000Y-60831323D01*
X133312667Y-60835000D01*
X133201014Y-60845997D01*
X133057753Y-60889454D01*
X132925724Y-60960026D01*
X132809999Y-61054999D01*
X132786200Y-61083998D01*
X132245000Y-61625199D01*
X132245000Y-61453665D01*
X132189853Y-61176426D01*
X132081680Y-60915273D01*
X131924637Y-60680241D01*
X131724759Y-60480363D01*
X131489727Y-60323320D01*
X131228574Y-60215147D01*
X130951335Y-60160000D01*
X130668665Y-60160000D01*
X130391426Y-60215147D01*
X130130273Y-60323320D01*
X129895241Y-60480363D01*
X129695363Y-60680241D01*
X129538320Y-60915273D01*
X129430147Y-61176426D01*
X129375000Y-61453665D01*
X129375000Y-61736335D01*
X129430147Y-62013574D01*
X129538320Y-62274727D01*
X129695363Y-62509759D01*
X129895241Y-62709637D01*
X129940683Y-62740000D01*
X127869317Y-62740000D01*
X127914759Y-62709637D01*
X128114637Y-62509759D01*
X128271680Y-62274727D01*
X128379853Y-62013574D01*
X128435000Y-61736335D01*
X128435000Y-61453665D01*
X128379853Y-61176426D01*
X128271680Y-60915273D01*
X128114637Y-60680241D01*
X127914759Y-60480363D01*
X127679727Y-60323320D01*
X127418574Y-60215147D01*
X127141335Y-60160000D01*
X126858665Y-60160000D01*
X126581426Y-60215147D01*
X126320273Y-60323320D01*
X126085241Y-60480363D01*
X125885363Y-60680241D01*
X125728320Y-60915273D01*
X125620147Y-61176426D01*
X125565000Y-61453665D01*
X123405000Y-61453665D01*
X123405000Y-60094802D01*
X123504802Y-59995000D01*
X126782678Y-59995000D01*
X126820000Y-59998676D01*
X126857322Y-59995000D01*
X126857333Y-59995000D01*
X126968986Y-59984003D01*
X127112247Y-59940546D01*
X127244276Y-59869974D01*
X127360001Y-59775001D01*
X127383803Y-59745998D01*
X128186004Y-58943798D01*
X128215001Y-58920001D01*
X128309974Y-58804276D01*
X128380546Y-58672247D01*
X128424003Y-58528986D01*
X128435000Y-58417333D01*
X128435000Y-58417332D01*
X128438677Y-58380000D01*
X128435000Y-58342667D01*
X128435000Y-49662594D01*
X128504013Y-49625706D01*
X128724945Y-49444392D01*
X128735498Y-49479180D01*
X128794463Y-49589494D01*
X128873815Y-49686185D01*
X128970506Y-49765537D01*
X129080820Y-49824502D01*
X129200518Y-49860812D01*
X129325000Y-49873072D01*
X129889250Y-49870000D01*
X130048000Y-49711250D01*
X130048000Y-48387000D01*
X130302000Y-48387000D01*
X130302000Y-49711250D01*
X130460750Y-49870000D01*
X131025000Y-49873072D01*
X131149482Y-49860812D01*
X131269180Y-49824502D01*
X131379494Y-49765537D01*
X131476185Y-49686185D01*
X131555537Y-49589494D01*
X131614502Y-49479180D01*
X131650812Y-49359482D01*
X131663072Y-49235000D01*
X131660000Y-48545750D01*
X131501250Y-48387000D01*
X130302000Y-48387000D01*
X130048000Y-48387000D01*
X130028000Y-48387000D01*
X130028000Y-48133000D01*
X130048000Y-48133000D01*
X130048000Y-46808750D01*
X130302000Y-46808750D01*
X130302000Y-48133000D01*
X131501250Y-48133000D01*
X131572200Y-48062050D01*
X137025000Y-48062050D01*
X137025000Y-48457949D01*
X137046487Y-48676110D01*
X137131401Y-48956033D01*
X137269294Y-49214013D01*
X137454866Y-49440134D01*
X137680986Y-49625706D01*
X137938966Y-49763599D01*
X138218889Y-49848513D01*
X138510000Y-49877185D01*
X138801110Y-49848513D01*
X139081033Y-49763599D01*
X139339013Y-49625706D01*
X139565134Y-49440134D01*
X139750706Y-49214014D01*
X139760000Y-49196626D01*
X139769294Y-49214013D01*
X139954866Y-49440134D01*
X140180986Y-49625706D01*
X140438966Y-49763599D01*
X140718889Y-49848513D01*
X141010000Y-49877185D01*
X141301110Y-49848513D01*
X141581033Y-49763599D01*
X141839013Y-49625706D01*
X142059945Y-49444392D01*
X142070498Y-49479180D01*
X142129463Y-49589494D01*
X142208815Y-49686185D01*
X142305506Y-49765537D01*
X142415820Y-49824502D01*
X142535518Y-49860812D01*
X142660000Y-49873072D01*
X143224250Y-49870000D01*
X143383000Y-49711250D01*
X143383000Y-48387000D01*
X143637000Y-48387000D01*
X143637000Y-49711250D01*
X143795750Y-49870000D01*
X144360000Y-49873072D01*
X144484482Y-49860812D01*
X144604180Y-49824502D01*
X144714494Y-49765537D01*
X144811185Y-49686185D01*
X144890537Y-49589494D01*
X144949502Y-49479180D01*
X144985812Y-49359482D01*
X144998072Y-49235000D01*
X144995000Y-48545750D01*
X144836250Y-48387000D01*
X143637000Y-48387000D01*
X143383000Y-48387000D01*
X143363000Y-48387000D01*
X143363000Y-48133000D01*
X143383000Y-48133000D01*
X143383000Y-46808750D01*
X143637000Y-46808750D01*
X143637000Y-48133000D01*
X144836250Y-48133000D01*
X144995000Y-47974250D01*
X144998072Y-47285000D01*
X144985812Y-47160518D01*
X144949502Y-47040820D01*
X144890537Y-46930506D01*
X144811185Y-46833815D01*
X144714494Y-46754463D01*
X144604180Y-46695498D01*
X144484482Y-46659188D01*
X144360000Y-46646928D01*
X143795750Y-46650000D01*
X143637000Y-46808750D01*
X143383000Y-46808750D01*
X143224250Y-46650000D01*
X142660000Y-46646928D01*
X142535518Y-46659188D01*
X142415820Y-46695498D01*
X142305506Y-46754463D01*
X142208815Y-46833815D01*
X142129463Y-46930506D01*
X142070498Y-47040820D01*
X142059945Y-47075608D01*
X141839014Y-46894294D01*
X141581034Y-46756401D01*
X141301111Y-46671487D01*
X141010000Y-46642815D01*
X140718890Y-46671487D01*
X140438967Y-46756401D01*
X140180987Y-46894294D01*
X139954866Y-47079866D01*
X139769294Y-47305986D01*
X139760000Y-47323374D01*
X139750706Y-47305986D01*
X139565134Y-47079866D01*
X139339014Y-46894294D01*
X139081034Y-46756401D01*
X138801111Y-46671487D01*
X138510000Y-46642815D01*
X138218890Y-46671487D01*
X137938967Y-46756401D01*
X137680987Y-46894294D01*
X137454866Y-47079866D01*
X137269294Y-47305986D01*
X137131401Y-47563966D01*
X137046487Y-47843889D01*
X137025000Y-48062050D01*
X131572200Y-48062050D01*
X131660000Y-47974250D01*
X131663072Y-47285000D01*
X131650812Y-47160518D01*
X131614502Y-47040820D01*
X131555537Y-46930506D01*
X131476185Y-46833815D01*
X131379494Y-46754463D01*
X131269180Y-46695498D01*
X131149482Y-46659188D01*
X131025000Y-46646928D01*
X130460750Y-46650000D01*
X130302000Y-46808750D01*
X130048000Y-46808750D01*
X129889250Y-46650000D01*
X129325000Y-46646928D01*
X129200518Y-46659188D01*
X129080820Y-46695498D01*
X128970506Y-46754463D01*
X128873815Y-46833815D01*
X128794463Y-46930506D01*
X128735498Y-47040820D01*
X128724945Y-47075608D01*
X128504014Y-46894294D01*
X128246034Y-46756401D01*
X127966111Y-46671487D01*
X127675000Y-46642815D01*
X127383890Y-46671487D01*
X127103967Y-46756401D01*
X126845987Y-46894294D01*
X126619866Y-47079866D01*
X126434294Y-47305986D01*
X126425000Y-47323374D01*
X126415706Y-47305986D01*
X126230134Y-47079866D01*
X126004014Y-46894294D01*
X125746034Y-46756401D01*
X125466111Y-46671487D01*
X125175000Y-46642815D01*
X124883890Y-46671487D01*
X124603967Y-46756401D01*
X124345987Y-46894294D01*
X124119866Y-47079866D01*
X123934294Y-47305986D01*
X123796401Y-47563966D01*
X123711487Y-47843889D01*
X123690000Y-48062050D01*
X123690000Y-48457949D01*
X123711487Y-48676110D01*
X123796401Y-48956033D01*
X123934294Y-49214013D01*
X124119866Y-49440134D01*
X124345986Y-49625706D01*
X124415001Y-49662595D01*
X124415000Y-53937667D01*
X124415000Y-53937668D01*
X124415001Y-57390197D01*
X124145199Y-57660000D01*
X122592323Y-57660000D01*
X122555000Y-57656324D01*
X122517677Y-57660000D01*
X122517667Y-57660000D01*
X122406014Y-57670997D01*
X122262753Y-57714454D01*
X122130724Y-57785026D01*
X122014999Y-57879999D01*
X121991201Y-57908997D01*
X120139003Y-59761196D01*
X120109999Y-59784999D01*
X120065694Y-59838985D01*
X120015026Y-59900724D01*
X119999920Y-59928985D01*
X119944454Y-60032754D01*
X119900997Y-60176015D01*
X119890000Y-60287668D01*
X119890000Y-60287678D01*
X119886324Y-60325000D01*
X119890000Y-60362322D01*
X119890000Y-64500988D01*
X119870256Y-64487795D01*
X119681898Y-64409774D01*
X119481939Y-64370000D01*
X119278061Y-64370000D01*
X119078102Y-64409774D01*
X118889744Y-64487795D01*
X118720226Y-64601063D01*
X118676289Y-64645000D01*
X113067333Y-64645000D01*
X113030000Y-64641323D01*
X112992667Y-64645000D01*
X112881014Y-64655997D01*
X112737753Y-64699454D01*
X112605724Y-64770026D01*
X112520000Y-64840378D01*
X112520000Y-60004801D01*
X112958799Y-59566003D01*
X112958803Y-59565998D01*
X113344802Y-59180000D01*
X118676289Y-59180000D01*
X118720226Y-59223937D01*
X118889744Y-59337205D01*
X119078102Y-59415226D01*
X119278061Y-59455000D01*
X119481939Y-59455000D01*
X119681898Y-59415226D01*
X119870256Y-59337205D01*
X120039774Y-59223937D01*
X120183937Y-59079774D01*
X120297205Y-58910256D01*
X120375226Y-58721898D01*
X120415000Y-58521939D01*
X120415000Y-58318061D01*
X120375226Y-58118102D01*
X120297205Y-57929744D01*
X120200490Y-57785000D01*
X120297205Y-57640256D01*
X120375226Y-57451898D01*
X120415000Y-57251939D01*
X120415000Y-57048061D01*
X120375226Y-56848102D01*
X120297205Y-56659744D01*
X120183937Y-56490226D01*
X120039774Y-56346063D01*
X119870256Y-56232795D01*
X119681898Y-56154774D01*
X119481939Y-56115000D01*
X119278061Y-56115000D01*
X119078102Y-56154774D01*
X118889744Y-56232795D01*
X118720226Y-56346063D01*
X118676289Y-56390000D01*
X112432322Y-56390000D01*
X112394999Y-56386324D01*
X112357676Y-56390000D01*
X112357667Y-56390000D01*
X112246014Y-56400997D01*
X112102753Y-56444454D01*
X111970724Y-56515026D01*
X111854999Y-56609999D01*
X111831201Y-56638997D01*
X110613998Y-57856201D01*
X110585000Y-57879999D01*
X110561202Y-57908997D01*
X110561201Y-57908998D01*
X110490026Y-57995724D01*
X110444037Y-58081764D01*
X110419454Y-58127753D01*
X110375997Y-58271014D01*
X110365000Y-58382667D01*
X110365000Y-58382678D01*
X110361324Y-58420000D01*
X110365000Y-58457322D01*
X110365000Y-59092332D01*
X110365001Y-59092342D01*
X110365000Y-86957678D01*
X110361324Y-86995000D01*
X110365000Y-87032322D01*
X110365000Y-87032332D01*
X110375997Y-87143985D01*
X110415666Y-87274759D01*
X110419454Y-87287246D01*
X110490026Y-87419276D01*
X110527551Y-87465000D01*
X110584999Y-87535001D01*
X110614003Y-87558804D01*
X111239081Y-88183882D01*
X111054488Y-88174783D01*
X110774870Y-88216213D01*
X110508708Y-88311397D01*
X110383486Y-88378329D01*
X110311903Y-88622298D01*
X107452875Y-88622298D01*
X107424853Y-88481426D01*
X107316680Y-88220273D01*
X107159637Y-87985241D01*
X106959759Y-87785363D01*
X106727241Y-87630000D01*
X106959759Y-87474637D01*
X107159637Y-87274759D01*
X107316680Y-87039727D01*
X107424853Y-86778574D01*
X107480000Y-86501335D01*
X107480000Y-86218665D01*
X107424853Y-85941426D01*
X107316680Y-85680273D01*
X107159637Y-85445241D01*
X106959759Y-85245363D01*
X106724727Y-85088320D01*
X106714135Y-85083933D01*
X106900131Y-84972385D01*
X107108519Y-84783414D01*
X107276037Y-84557420D01*
X107396246Y-84303087D01*
X107436904Y-84169039D01*
X107314915Y-83947000D01*
X106172000Y-83947000D01*
X106172000Y-83967000D01*
X105918000Y-83967000D01*
X105918000Y-83947000D01*
X104775085Y-83947000D01*
X104653096Y-84169039D01*
X104693754Y-84303087D01*
X104813963Y-84557420D01*
X104981481Y-84783414D01*
X105189869Y-84972385D01*
X105375865Y-85083933D01*
X105365273Y-85088320D01*
X105130241Y-85245363D01*
X104930363Y-85445241D01*
X104773320Y-85680273D01*
X104665147Y-85941426D01*
X104610000Y-86218665D01*
X104610000Y-86501335D01*
X104665147Y-86778574D01*
X104773320Y-87039727D01*
X104930363Y-87274759D01*
X105130241Y-87474637D01*
X105362759Y-87630000D01*
X105130241Y-87785363D01*
X104930363Y-87985241D01*
X104773320Y-88220273D01*
X104665147Y-88481426D01*
X104610000Y-88758665D01*
X104610000Y-89041335D01*
X104665147Y-89318574D01*
X104773320Y-89579727D01*
X104930363Y-89814759D01*
X105128961Y-90013357D01*
X105120518Y-90014188D01*
X105000820Y-90050498D01*
X104890506Y-90109463D01*
X104793815Y-90188815D01*
X104714463Y-90285506D01*
X104655498Y-90395820D01*
X104619188Y-90515518D01*
X104606928Y-90640000D01*
X99185000Y-90640000D01*
X99185000Y-64449801D01*
X99374802Y-64260000D01*
X104826957Y-64260000D01*
X104930363Y-64414759D01*
X105130241Y-64614637D01*
X105362759Y-64770000D01*
X105130241Y-64925363D01*
X104930363Y-65125241D01*
X104773320Y-65360273D01*
X104665147Y-65621426D01*
X104610000Y-65898665D01*
X104610000Y-66181335D01*
X104665147Y-66458574D01*
X104773320Y-66719727D01*
X104930363Y-66954759D01*
X105130241Y-67154637D01*
X105362759Y-67310000D01*
X105130241Y-67465363D01*
X104930363Y-67665241D01*
X104773320Y-67900273D01*
X104665147Y-68161426D01*
X104610000Y-68438665D01*
X104610000Y-68721335D01*
X104665147Y-68998574D01*
X104773320Y-69259727D01*
X104930363Y-69494759D01*
X105130241Y-69694637D01*
X105362759Y-69850000D01*
X105130241Y-70005363D01*
X104930363Y-70205241D01*
X104773320Y-70440273D01*
X104665147Y-70701426D01*
X104610000Y-70978665D01*
X104610000Y-71261335D01*
X104665147Y-71538574D01*
X104773320Y-71799727D01*
X104930363Y-72034759D01*
X105130241Y-72234637D01*
X105362759Y-72390000D01*
X105130241Y-72545363D01*
X104930363Y-72745241D01*
X104773320Y-72980273D01*
X104665147Y-73241426D01*
X104610000Y-73518665D01*
X104610000Y-73801335D01*
X104665147Y-74078574D01*
X104773320Y-74339727D01*
X104930363Y-74574759D01*
X105130241Y-74774637D01*
X105362759Y-74930000D01*
X105130241Y-75085363D01*
X104930363Y-75285241D01*
X104773320Y-75520273D01*
X104665147Y-75781426D01*
X104610000Y-76058665D01*
X104610000Y-76341335D01*
X104665147Y-76618574D01*
X104773320Y-76879727D01*
X104930363Y-77114759D01*
X105130241Y-77314637D01*
X105362759Y-77470000D01*
X105130241Y-77625363D01*
X104930363Y-77825241D01*
X104773320Y-78060273D01*
X104665147Y-78321426D01*
X104610000Y-78598665D01*
X104610000Y-78881335D01*
X104665147Y-79158574D01*
X104773320Y-79419727D01*
X104930363Y-79654759D01*
X105130241Y-79854637D01*
X105362759Y-80010000D01*
X105130241Y-80165363D01*
X104930363Y-80365241D01*
X104773320Y-80600273D01*
X104665147Y-80861426D01*
X104610000Y-81138665D01*
X104610000Y-81421335D01*
X104665147Y-81698574D01*
X104773320Y-81959727D01*
X104930363Y-82194759D01*
X105130241Y-82394637D01*
X105365273Y-82551680D01*
X105375865Y-82556067D01*
X105189869Y-82667615D01*
X104981481Y-82856586D01*
X104813963Y-83082580D01*
X104693754Y-83336913D01*
X104653096Y-83470961D01*
X104775085Y-83693000D01*
X105918000Y-83693000D01*
X105918000Y-83673000D01*
X106172000Y-83673000D01*
X106172000Y-83693000D01*
X107314915Y-83693000D01*
X107436904Y-83470961D01*
X107396246Y-83336913D01*
X107276037Y-83082580D01*
X107108519Y-82856586D01*
X106900131Y-82667615D01*
X106714135Y-82556067D01*
X106724727Y-82551680D01*
X106959759Y-82394637D01*
X107159637Y-82194759D01*
X107316680Y-81959727D01*
X107424853Y-81698574D01*
X107480000Y-81421335D01*
X107480000Y-81138665D01*
X107424853Y-80861426D01*
X107316680Y-80600273D01*
X107159637Y-80365241D01*
X106959759Y-80165363D01*
X106727241Y-80010000D01*
X106959759Y-79854637D01*
X107159637Y-79654759D01*
X107316680Y-79419727D01*
X107424853Y-79158574D01*
X107480000Y-78881335D01*
X107480000Y-78598665D01*
X107424853Y-78321426D01*
X107316680Y-78060273D01*
X107159637Y-77825241D01*
X106959759Y-77625363D01*
X106727241Y-77470000D01*
X106959759Y-77314637D01*
X107159637Y-77114759D01*
X107316680Y-76879727D01*
X107424853Y-76618574D01*
X107480000Y-76341335D01*
X107480000Y-76058665D01*
X107424853Y-75781426D01*
X107316680Y-75520273D01*
X107159637Y-75285241D01*
X106959759Y-75085363D01*
X106727241Y-74930000D01*
X106959759Y-74774637D01*
X107159637Y-74574759D01*
X107316680Y-74339727D01*
X107424853Y-74078574D01*
X107480000Y-73801335D01*
X107480000Y-73518665D01*
X107424853Y-73241426D01*
X107316680Y-72980273D01*
X107159637Y-72745241D01*
X106959759Y-72545363D01*
X106727241Y-72390000D01*
X106959759Y-72234637D01*
X107159637Y-72034759D01*
X107316680Y-71799727D01*
X107424853Y-71538574D01*
X107480000Y-71261335D01*
X107480000Y-70978665D01*
X107424853Y-70701426D01*
X107316680Y-70440273D01*
X107159637Y-70205241D01*
X106959759Y-70005363D01*
X106727241Y-69850000D01*
X106959759Y-69694637D01*
X107159637Y-69494759D01*
X107316680Y-69259727D01*
X107424853Y-68998574D01*
X107480000Y-68721335D01*
X107480000Y-68438665D01*
X107424853Y-68161426D01*
X107316680Y-67900273D01*
X107159637Y-67665241D01*
X106959759Y-67465363D01*
X106727241Y-67310000D01*
X106959759Y-67154637D01*
X107159637Y-66954759D01*
X107316680Y-66719727D01*
X107424853Y-66458574D01*
X107480000Y-66181335D01*
X107480000Y-65898665D01*
X107424853Y-65621426D01*
X107316680Y-65360273D01*
X107159637Y-65125241D01*
X106959759Y-64925363D01*
X106727241Y-64770000D01*
X106959759Y-64614637D01*
X107159637Y-64414759D01*
X107316680Y-64179727D01*
X107424853Y-63918574D01*
X107480000Y-63641335D01*
X107480000Y-63358665D01*
X107424853Y-63081426D01*
X107316680Y-62820273D01*
X107159637Y-62585241D01*
X106959759Y-62385363D01*
X106727241Y-62230000D01*
X106959759Y-62074637D01*
X107159637Y-61874759D01*
X107316680Y-61639727D01*
X107424853Y-61378574D01*
X107480000Y-61101335D01*
X107480000Y-60818665D01*
X107424853Y-60541426D01*
X107316680Y-60280273D01*
X107159637Y-60045241D01*
X106959759Y-59845363D01*
X106727241Y-59690000D01*
X106959759Y-59534637D01*
X107159637Y-59334759D01*
X107316680Y-59099727D01*
X107424853Y-58838574D01*
X107480000Y-58561335D01*
X107480000Y-58278665D01*
X107424853Y-58001426D01*
X107316680Y-57740273D01*
X107159637Y-57505241D01*
X106959759Y-57305363D01*
X106727241Y-57150000D01*
X106959759Y-56994637D01*
X107159637Y-56794759D01*
X107316680Y-56559727D01*
X107424853Y-56298574D01*
X107480000Y-56021335D01*
X107480000Y-55738665D01*
X107424853Y-55461426D01*
X107316680Y-55200273D01*
X107159637Y-54965241D01*
X106959759Y-54765363D01*
X106724727Y-54608320D01*
X106463574Y-54500147D01*
X106186335Y-54445000D01*
X105903665Y-54445000D01*
X105626426Y-54500147D01*
X105365273Y-54608320D01*
X105130241Y-54765363D01*
X104930363Y-54965241D01*
X104773320Y-55200273D01*
X104665147Y-55461426D01*
X104610000Y-55738665D01*
X104610000Y-56021335D01*
X104665147Y-56298574D01*
X104773320Y-56559727D01*
X104930363Y-56794759D01*
X105130241Y-56994637D01*
X105362759Y-57150000D01*
X105130241Y-57305363D01*
X104930363Y-57505241D01*
X104773320Y-57740273D01*
X104665147Y-58001426D01*
X104610000Y-58278665D01*
X104610000Y-58561335D01*
X104665147Y-58838574D01*
X104773320Y-59099727D01*
X104930363Y-59334759D01*
X105130241Y-59534637D01*
X105362759Y-59690000D01*
X105130241Y-59845363D01*
X104930363Y-60045241D01*
X104773320Y-60280273D01*
X104665147Y-60541426D01*
X104610000Y-60818665D01*
X104610000Y-61101335D01*
X104665147Y-61378574D01*
X104773320Y-61639727D01*
X104930363Y-61874759D01*
X105130241Y-62074637D01*
X105362759Y-62230000D01*
X105130241Y-62385363D01*
X104930363Y-62585241D01*
X104826957Y-62740000D01*
X99097333Y-62740000D01*
X99060000Y-62736323D01*
X99022667Y-62740000D01*
X98911014Y-62750997D01*
X98767753Y-62794454D01*
X98635724Y-62865026D01*
X98519999Y-62959999D01*
X98496200Y-62988998D01*
X97914002Y-63571197D01*
X97884999Y-63594999D01*
X97829871Y-63662174D01*
X97790026Y-63710724D01*
X97746451Y-63792246D01*
X97719454Y-63842754D01*
X97675997Y-63986015D01*
X97665000Y-64097668D01*
X97665000Y-64097678D01*
X97661324Y-64135000D01*
X97665000Y-64172322D01*
X97665001Y-94935197D01*
X96840199Y-95760000D01*
X87944802Y-95760000D01*
X87755000Y-95570199D01*
X87755000Y-92112322D01*
X87758676Y-92074999D01*
X87755000Y-92037676D01*
X87755000Y-92037667D01*
X87744003Y-91926014D01*
X87700546Y-91782753D01*
X87629974Y-91650724D01*
X87535001Y-91534999D01*
X87506002Y-91511201D01*
X87293466Y-91298665D01*
X89370000Y-91298665D01*
X89370000Y-91581335D01*
X89425147Y-91858574D01*
X89533320Y-92119727D01*
X89690363Y-92354759D01*
X89890241Y-92554637D01*
X90125273Y-92711680D01*
X90386426Y-92819853D01*
X90663665Y-92875000D01*
X90946335Y-92875000D01*
X91223574Y-92819853D01*
X91484727Y-92711680D01*
X91719759Y-92554637D01*
X91919637Y-92354759D01*
X92076680Y-92119727D01*
X92184853Y-91858574D01*
X92240000Y-91581335D01*
X92240000Y-91298665D01*
X92184853Y-91021426D01*
X92076680Y-90760273D01*
X91919637Y-90525241D01*
X91719759Y-90325363D01*
X91484727Y-90168320D01*
X91474135Y-90163933D01*
X91660131Y-90052385D01*
X91868519Y-89863414D01*
X92036037Y-89637420D01*
X92156246Y-89383087D01*
X92196904Y-89249039D01*
X92074915Y-89027000D01*
X90932000Y-89027000D01*
X90932000Y-89047000D01*
X90678000Y-89047000D01*
X90678000Y-89027000D01*
X89535085Y-89027000D01*
X89413096Y-89249039D01*
X89453754Y-89383087D01*
X89573963Y-89637420D01*
X89741481Y-89863414D01*
X89949869Y-90052385D01*
X90135865Y-90163933D01*
X90125273Y-90168320D01*
X89890241Y-90325363D01*
X89690363Y-90525241D01*
X89533320Y-90760273D01*
X89425147Y-91021426D01*
X89370000Y-91298665D01*
X87293466Y-91298665D01*
X86868803Y-90874002D01*
X86845001Y-90844999D01*
X86729276Y-90750026D01*
X86597247Y-90679454D01*
X86453986Y-90635997D01*
X86342333Y-90625000D01*
X86342322Y-90625000D01*
X86305000Y-90621324D01*
X86267678Y-90625000D01*
X85098178Y-90625000D01*
X84973475Y-90438368D01*
X84766632Y-90231525D01*
X84523411Y-90069010D01*
X84253158Y-89957068D01*
X83966260Y-89900000D01*
X83673740Y-89900000D01*
X83386842Y-89957068D01*
X83116589Y-90069010D01*
X82873368Y-90231525D01*
X82666525Y-90438368D01*
X82504010Y-90681589D01*
X82392068Y-90951842D01*
X82335000Y-91238740D01*
X78799331Y-91238740D01*
X78768599Y-91026981D01*
X78670919Y-90751253D01*
X78597472Y-90613843D01*
X78348397Y-90536208D01*
X77499605Y-91385000D01*
X77140395Y-91385000D01*
X76291603Y-90536208D01*
X76042528Y-90613843D01*
X75916629Y-90877883D01*
X75844661Y-91161411D01*
X75829389Y-91453531D01*
X64897000Y-91453531D01*
X64897000Y-90356603D01*
X76471208Y-90356603D01*
X77320000Y-91205395D01*
X78168792Y-90356603D01*
X78091157Y-90107528D01*
X77827117Y-89981629D01*
X77543589Y-89909661D01*
X77251469Y-89894389D01*
X76961981Y-89936401D01*
X76686253Y-90034081D01*
X76548843Y-90107528D01*
X76471208Y-90356603D01*
X64897000Y-90356603D01*
X64897000Y-76465000D01*
X72756928Y-76465000D01*
X72769188Y-76589482D01*
X72805498Y-76709180D01*
X72864463Y-76819494D01*
X72943815Y-76916185D01*
X73040506Y-76995537D01*
X73150820Y-77054502D01*
X73270518Y-77090812D01*
X73395000Y-77103072D01*
X74009250Y-77100000D01*
X74168000Y-76941250D01*
X74168000Y-75692000D01*
X74422000Y-75692000D01*
X74422000Y-76941250D01*
X74580750Y-77100000D01*
X75195000Y-77103072D01*
X75319482Y-77090812D01*
X75439180Y-77054502D01*
X75549494Y-76995537D01*
X75646185Y-76916185D01*
X75725537Y-76819494D01*
X75784502Y-76709180D01*
X75820812Y-76589482D01*
X75833072Y-76465000D01*
X75830000Y-75850750D01*
X75671250Y-75692000D01*
X74422000Y-75692000D01*
X74168000Y-75692000D01*
X72918750Y-75692000D01*
X72760000Y-75850750D01*
X72756928Y-76465000D01*
X64897000Y-76465000D01*
X64897000Y-74665000D01*
X72756928Y-74665000D01*
X72760000Y-75279250D01*
X72918750Y-75438000D01*
X74168000Y-75438000D01*
X74168000Y-75418000D01*
X74422000Y-75418000D01*
X74422000Y-75438000D01*
X75671250Y-75438000D01*
X75830000Y-75279250D01*
X75833072Y-74665000D01*
X75820812Y-74540518D01*
X75784502Y-74420820D01*
X75725537Y-74310506D01*
X75646185Y-74213815D01*
X75549494Y-74134463D01*
X75439180Y-74075498D01*
X75420873Y-74069944D01*
X75487312Y-74003505D01*
X75655299Y-73752095D01*
X75771011Y-73472743D01*
X75830000Y-73176184D01*
X75830000Y-72873816D01*
X75771011Y-72577257D01*
X75655299Y-72297905D01*
X75487312Y-72046495D01*
X75273505Y-71832688D01*
X75022095Y-71664701D01*
X74742743Y-71548989D01*
X74446184Y-71490000D01*
X74143816Y-71490000D01*
X73847257Y-71548989D01*
X73567905Y-71664701D01*
X73316495Y-71832688D01*
X73102688Y-72046495D01*
X72934701Y-72297905D01*
X72818989Y-72577257D01*
X72760000Y-72873816D01*
X72760000Y-73176184D01*
X72818989Y-73472743D01*
X72934701Y-73752095D01*
X73102688Y-74003505D01*
X73169127Y-74069944D01*
X73150820Y-74075498D01*
X73040506Y-74134463D01*
X72943815Y-74213815D01*
X72864463Y-74310506D01*
X72805498Y-74420820D01*
X72769188Y-74540518D01*
X72756928Y-74665000D01*
X64897000Y-74665000D01*
X64897000Y-67168665D01*
X76035000Y-67168665D01*
X76035000Y-67451335D01*
X76090147Y-67728574D01*
X76198320Y-67989727D01*
X76355363Y-68224759D01*
X76555241Y-68424637D01*
X76790273Y-68581680D01*
X77051426Y-68689853D01*
X77328665Y-68745000D01*
X77611335Y-68745000D01*
X77888574Y-68689853D01*
X78149727Y-68581680D01*
X78384759Y-68424637D01*
X78584637Y-68224759D01*
X78741680Y-67989727D01*
X78849853Y-67728574D01*
X78905000Y-67451335D01*
X78905000Y-67168665D01*
X86195000Y-67168665D01*
X86195000Y-67451335D01*
X86250147Y-67728574D01*
X86358320Y-67989727D01*
X86515363Y-68224759D01*
X86715241Y-68424637D01*
X86950273Y-68581680D01*
X87211426Y-68689853D01*
X87488665Y-68745000D01*
X87771335Y-68745000D01*
X88048574Y-68689853D01*
X88309727Y-68581680D01*
X88544759Y-68424637D01*
X88744637Y-68224759D01*
X88901680Y-67989727D01*
X89009853Y-67728574D01*
X89065000Y-67451335D01*
X89065000Y-67168665D01*
X89009853Y-66891426D01*
X88901680Y-66630273D01*
X88744637Y-66395241D01*
X88544759Y-66195363D01*
X88309727Y-66038320D01*
X88048574Y-65930147D01*
X87771335Y-65875000D01*
X87488665Y-65875000D01*
X87211426Y-65930147D01*
X86950273Y-66038320D01*
X86715241Y-66195363D01*
X86515363Y-66395241D01*
X86358320Y-66630273D01*
X86250147Y-66891426D01*
X86195000Y-67168665D01*
X78905000Y-67168665D01*
X78849853Y-66891426D01*
X78741680Y-66630273D01*
X78584637Y-66395241D01*
X78384759Y-66195363D01*
X78149727Y-66038320D01*
X77888574Y-65930147D01*
X77611335Y-65875000D01*
X77328665Y-65875000D01*
X77051426Y-65930147D01*
X76790273Y-66038320D01*
X76555241Y-66195363D01*
X76355363Y-66395241D01*
X76198320Y-66630273D01*
X76090147Y-66891426D01*
X76035000Y-67168665D01*
X64897000Y-67168665D01*
X64897000Y-53910000D01*
X73556928Y-53910000D01*
X73556928Y-55660000D01*
X73586001Y-55955186D01*
X73672104Y-56239028D01*
X73811927Y-56500618D01*
X74000097Y-56729903D01*
X74229382Y-56918073D01*
X74490972Y-57057896D01*
X74774814Y-57143999D01*
X75070000Y-57173072D01*
X76820000Y-57173072D01*
X77115186Y-57143999D01*
X77399028Y-57057896D01*
X77660618Y-56918073D01*
X77889903Y-56729903D01*
X78006928Y-56587308D01*
X78006928Y-59535000D01*
X78019188Y-59659482D01*
X78055498Y-59779180D01*
X78114463Y-59889494D01*
X78193815Y-59986185D01*
X78290506Y-60065537D01*
X78400820Y-60124502D01*
X78520518Y-60160812D01*
X78645000Y-60173072D01*
X82645000Y-60173072D01*
X82769482Y-60160812D01*
X82889180Y-60124502D01*
X82999494Y-60065537D01*
X83096185Y-59986185D01*
X83175537Y-59889494D01*
X83234502Y-59779180D01*
X83270812Y-59659482D01*
X83283072Y-59535000D01*
X83283072Y-56035000D01*
X83270812Y-55910518D01*
X83234502Y-55790820D01*
X83206625Y-55738665D01*
X89370000Y-55738665D01*
X89370000Y-56021335D01*
X89425147Y-56298574D01*
X89533320Y-56559727D01*
X89690363Y-56794759D01*
X89890241Y-56994637D01*
X90122759Y-57150000D01*
X89890241Y-57305363D01*
X89690363Y-57505241D01*
X89533320Y-57740273D01*
X89425147Y-58001426D01*
X89370000Y-58278665D01*
X89370000Y-58561335D01*
X89425147Y-58838574D01*
X89533320Y-59099727D01*
X89690363Y-59334759D01*
X89890241Y-59534637D01*
X90122759Y-59690000D01*
X89890241Y-59845363D01*
X89690363Y-60045241D01*
X89533320Y-60280273D01*
X89425147Y-60541426D01*
X89370000Y-60818665D01*
X89370000Y-61101335D01*
X89425147Y-61378574D01*
X89533320Y-61639727D01*
X89690363Y-61874759D01*
X89890241Y-62074637D01*
X90122759Y-62230000D01*
X89890241Y-62385363D01*
X89690363Y-62585241D01*
X89533320Y-62820273D01*
X89425147Y-63081426D01*
X89370000Y-63358665D01*
X89370000Y-63641335D01*
X89425147Y-63918574D01*
X89533320Y-64179727D01*
X89690363Y-64414759D01*
X89890241Y-64614637D01*
X90122759Y-64770000D01*
X89890241Y-64925363D01*
X89690363Y-65125241D01*
X89533320Y-65360273D01*
X89425147Y-65621426D01*
X89370000Y-65898665D01*
X89370000Y-66181335D01*
X89425147Y-66458574D01*
X89533320Y-66719727D01*
X89690363Y-66954759D01*
X89890241Y-67154637D01*
X90122759Y-67310000D01*
X89890241Y-67465363D01*
X89690363Y-67665241D01*
X89533320Y-67900273D01*
X89425147Y-68161426D01*
X89370000Y-68438665D01*
X89370000Y-68721335D01*
X89425147Y-68998574D01*
X89533320Y-69259727D01*
X89690363Y-69494759D01*
X89890241Y-69694637D01*
X90122759Y-69850000D01*
X89890241Y-70005363D01*
X89690363Y-70205241D01*
X89533320Y-70440273D01*
X89425147Y-70701426D01*
X89370000Y-70978665D01*
X89370000Y-71261335D01*
X89425147Y-71538574D01*
X89533320Y-71799727D01*
X89690363Y-72034759D01*
X89890241Y-72234637D01*
X90122759Y-72390000D01*
X89890241Y-72545363D01*
X89690363Y-72745241D01*
X89533320Y-72980273D01*
X89425147Y-73241426D01*
X89370000Y-73518665D01*
X89370000Y-73801335D01*
X89425147Y-74078574D01*
X89533320Y-74339727D01*
X89690363Y-74574759D01*
X89890241Y-74774637D01*
X90122759Y-74930000D01*
X89890241Y-75085363D01*
X89690363Y-75285241D01*
X89533320Y-75520273D01*
X89425147Y-75781426D01*
X89370000Y-76058665D01*
X89370000Y-76341335D01*
X89425147Y-76618574D01*
X89533320Y-76879727D01*
X89690363Y-77114759D01*
X89890241Y-77314637D01*
X90122759Y-77470000D01*
X89890241Y-77625363D01*
X89690363Y-77825241D01*
X89533320Y-78060273D01*
X89425147Y-78321426D01*
X89370000Y-78598665D01*
X89370000Y-78881335D01*
X89425147Y-79158574D01*
X89533320Y-79419727D01*
X89690363Y-79654759D01*
X89890241Y-79854637D01*
X90122759Y-80010000D01*
X89890241Y-80165363D01*
X89690363Y-80365241D01*
X89533320Y-80600273D01*
X89425147Y-80861426D01*
X89370000Y-81138665D01*
X89370000Y-81421335D01*
X89425147Y-81698574D01*
X89533320Y-81959727D01*
X89690363Y-82194759D01*
X89890241Y-82394637D01*
X90122759Y-82550000D01*
X89890241Y-82705363D01*
X89690363Y-82905241D01*
X89533320Y-83140273D01*
X89425147Y-83401426D01*
X89370000Y-83678665D01*
X89370000Y-83961335D01*
X89425147Y-84238574D01*
X89533320Y-84499727D01*
X89690363Y-84734759D01*
X89890241Y-84934637D01*
X90122759Y-85090000D01*
X89890241Y-85245363D01*
X89690363Y-85445241D01*
X89533320Y-85680273D01*
X89425147Y-85941426D01*
X89370000Y-86218665D01*
X89370000Y-86501335D01*
X89425147Y-86778574D01*
X89533320Y-87039727D01*
X89690363Y-87274759D01*
X89890241Y-87474637D01*
X90125273Y-87631680D01*
X90135865Y-87636067D01*
X89949869Y-87747615D01*
X89741481Y-87936586D01*
X89573963Y-88162580D01*
X89453754Y-88416913D01*
X89413096Y-88550961D01*
X89535085Y-88773000D01*
X90678000Y-88773000D01*
X90678000Y-88753000D01*
X90932000Y-88753000D01*
X90932000Y-88773000D01*
X92074915Y-88773000D01*
X92196904Y-88550961D01*
X92156246Y-88416913D01*
X92036037Y-88162580D01*
X91868519Y-87936586D01*
X91660131Y-87747615D01*
X91474135Y-87636067D01*
X91484727Y-87631680D01*
X91719759Y-87474637D01*
X91919637Y-87274759D01*
X92076680Y-87039727D01*
X92184853Y-86778574D01*
X92240000Y-86501335D01*
X92240000Y-86218665D01*
X92184853Y-85941426D01*
X92076680Y-85680273D01*
X91919637Y-85445241D01*
X91719759Y-85245363D01*
X91487241Y-85090000D01*
X91719759Y-84934637D01*
X91919637Y-84734759D01*
X92076680Y-84499727D01*
X92184853Y-84238574D01*
X92240000Y-83961335D01*
X92240000Y-83678665D01*
X92184853Y-83401426D01*
X92076680Y-83140273D01*
X91919637Y-82905241D01*
X91719759Y-82705363D01*
X91487241Y-82550000D01*
X91719759Y-82394637D01*
X91919637Y-82194759D01*
X92076680Y-81959727D01*
X92184853Y-81698574D01*
X92240000Y-81421335D01*
X92240000Y-81138665D01*
X92184853Y-80861426D01*
X92076680Y-80600273D01*
X91919637Y-80365241D01*
X91719759Y-80165363D01*
X91487241Y-80010000D01*
X91719759Y-79854637D01*
X91919637Y-79654759D01*
X92076680Y-79419727D01*
X92184853Y-79158574D01*
X92240000Y-78881335D01*
X92240000Y-78598665D01*
X92184853Y-78321426D01*
X92076680Y-78060273D01*
X91919637Y-77825241D01*
X91719759Y-77625363D01*
X91487241Y-77470000D01*
X91719759Y-77314637D01*
X91919637Y-77114759D01*
X92076680Y-76879727D01*
X92184853Y-76618574D01*
X92240000Y-76341335D01*
X92240000Y-76058665D01*
X92184853Y-75781426D01*
X92076680Y-75520273D01*
X91919637Y-75285241D01*
X91719759Y-75085363D01*
X91487241Y-74930000D01*
X91719759Y-74774637D01*
X91919637Y-74574759D01*
X92076680Y-74339727D01*
X92184853Y-74078574D01*
X92240000Y-73801335D01*
X92240000Y-73518665D01*
X92184853Y-73241426D01*
X92076680Y-72980273D01*
X91919637Y-72745241D01*
X91719759Y-72545363D01*
X91487241Y-72390000D01*
X91719759Y-72234637D01*
X91919637Y-72034759D01*
X92076680Y-71799727D01*
X92184853Y-71538574D01*
X92240000Y-71261335D01*
X92240000Y-70978665D01*
X92184853Y-70701426D01*
X92076680Y-70440273D01*
X91919637Y-70205241D01*
X91719759Y-70005363D01*
X91487241Y-69850000D01*
X91719759Y-69694637D01*
X91919637Y-69494759D01*
X92076680Y-69259727D01*
X92184853Y-68998574D01*
X92240000Y-68721335D01*
X92240000Y-68438665D01*
X92184853Y-68161426D01*
X92076680Y-67900273D01*
X91919637Y-67665241D01*
X91719759Y-67465363D01*
X91487241Y-67310000D01*
X91719759Y-67154637D01*
X91919637Y-66954759D01*
X92076680Y-66719727D01*
X92184853Y-66458574D01*
X92240000Y-66181335D01*
X92240000Y-65898665D01*
X92184853Y-65621426D01*
X92076680Y-65360273D01*
X91919637Y-65125241D01*
X91719759Y-64925363D01*
X91487241Y-64770000D01*
X91719759Y-64614637D01*
X91919637Y-64414759D01*
X92076680Y-64179727D01*
X92184853Y-63918574D01*
X92240000Y-63641335D01*
X92240000Y-63358665D01*
X92184853Y-63081426D01*
X92076680Y-62820273D01*
X91919637Y-62585241D01*
X91719759Y-62385363D01*
X91487241Y-62230000D01*
X91719759Y-62074637D01*
X91919637Y-61874759D01*
X92076680Y-61639727D01*
X92184853Y-61378574D01*
X92240000Y-61101335D01*
X92240000Y-60818665D01*
X92184853Y-60541426D01*
X92076680Y-60280273D01*
X91919637Y-60045241D01*
X91719759Y-59845363D01*
X91487241Y-59690000D01*
X91719759Y-59534637D01*
X91919637Y-59334759D01*
X92076680Y-59099727D01*
X92184853Y-58838574D01*
X92240000Y-58561335D01*
X92240000Y-58278665D01*
X92184853Y-58001426D01*
X92076680Y-57740273D01*
X91919637Y-57505241D01*
X91719759Y-57305363D01*
X91487241Y-57150000D01*
X91719759Y-56994637D01*
X91919637Y-56794759D01*
X92076680Y-56559727D01*
X92184853Y-56298574D01*
X92240000Y-56021335D01*
X92240000Y-55738665D01*
X92184853Y-55461426D01*
X92076680Y-55200273D01*
X91919637Y-54965241D01*
X91719759Y-54765363D01*
X91484727Y-54608320D01*
X91223574Y-54500147D01*
X90946335Y-54445000D01*
X90663665Y-54445000D01*
X90386426Y-54500147D01*
X90125273Y-54608320D01*
X89890241Y-54765363D01*
X89690363Y-54965241D01*
X89533320Y-55200273D01*
X89425147Y-55461426D01*
X89370000Y-55738665D01*
X83206625Y-55738665D01*
X83175537Y-55680506D01*
X83096185Y-55583815D01*
X82999494Y-55504463D01*
X82889180Y-55445498D01*
X82769482Y-55409188D01*
X82645000Y-55396928D01*
X78645000Y-55396928D01*
X78520518Y-55409188D01*
X78400820Y-55445498D01*
X78333072Y-55481711D01*
X78333072Y-53910000D01*
X78303999Y-53614814D01*
X78217896Y-53330972D01*
X78193324Y-53285000D01*
X78256928Y-53285000D01*
X78269188Y-53409482D01*
X78305498Y-53529180D01*
X78364463Y-53639494D01*
X78443815Y-53736185D01*
X78540506Y-53815537D01*
X78650820Y-53874502D01*
X78770518Y-53910812D01*
X78895000Y-53923072D01*
X80359250Y-53920000D01*
X80518000Y-53761250D01*
X80518000Y-51912000D01*
X80772000Y-51912000D01*
X80772000Y-53761250D01*
X80930750Y-53920000D01*
X82395000Y-53923072D01*
X82519482Y-53910812D01*
X82639180Y-53874502D01*
X82749494Y-53815537D01*
X82846185Y-53736185D01*
X82925537Y-53639494D01*
X82984502Y-53529180D01*
X83020812Y-53409482D01*
X83033072Y-53285000D01*
X83030000Y-52070750D01*
X82871250Y-51912000D01*
X80772000Y-51912000D01*
X80518000Y-51912000D01*
X78418750Y-51912000D01*
X78260000Y-52070750D01*
X78256928Y-53285000D01*
X78193324Y-53285000D01*
X78078073Y-53069382D01*
X77889903Y-52840097D01*
X77660618Y-52651927D01*
X77399028Y-52512104D01*
X77115186Y-52426001D01*
X76820000Y-52396928D01*
X75070000Y-52396928D01*
X74774814Y-52426001D01*
X74490972Y-52512104D01*
X74229382Y-52651927D01*
X74000097Y-52840097D01*
X73811927Y-53069382D01*
X73672104Y-53330972D01*
X73586001Y-53614814D01*
X73556928Y-53910000D01*
X64897000Y-53910000D01*
X64897000Y-50285000D01*
X78256928Y-50285000D01*
X78260000Y-51499250D01*
X78418750Y-51658000D01*
X80518000Y-51658000D01*
X80518000Y-49808750D01*
X80772000Y-49808750D01*
X80772000Y-51658000D01*
X82871250Y-51658000D01*
X83030000Y-51499250D01*
X83033072Y-50285000D01*
X83020812Y-50160518D01*
X82984502Y-50040820D01*
X82925537Y-49930506D01*
X82846185Y-49833815D01*
X82749494Y-49754463D01*
X82639180Y-49695498D01*
X82519482Y-49659188D01*
X82395000Y-49646928D01*
X80930750Y-49650000D01*
X80772000Y-49808750D01*
X80518000Y-49808750D01*
X80359250Y-49650000D01*
X78895000Y-49646928D01*
X78770518Y-49659188D01*
X78650820Y-49695498D01*
X78540506Y-49754463D01*
X78443815Y-49833815D01*
X78364463Y-49930506D01*
X78305498Y-50040820D01*
X78269188Y-50160518D01*
X78256928Y-50285000D01*
X64897000Y-50285000D01*
X64897000Y-48619742D01*
X110328715Y-48619742D01*
X110397904Y-48902745D01*
X110520975Y-49166812D01*
X110693198Y-49401795D01*
X110907954Y-49598664D01*
X111156991Y-49749854D01*
X111430739Y-49849554D01*
X111443110Y-49851476D01*
X111673000Y-49730155D01*
X111673000Y-48387000D01*
X110472768Y-48387000D01*
X110328715Y-48619742D01*
X64897000Y-48619742D01*
X64897000Y-47900258D01*
X110328715Y-47900258D01*
X110472768Y-48133000D01*
X111673000Y-48133000D01*
X111673000Y-46789845D01*
X111927000Y-46789845D01*
X111927000Y-48133000D01*
X111947000Y-48133000D01*
X111947000Y-48387000D01*
X111927000Y-48387000D01*
X111927000Y-49730155D01*
X112156890Y-49851476D01*
X112169261Y-49849554D01*
X112443009Y-49749854D01*
X112692046Y-49598664D01*
X112906802Y-49401795D01*
X112907086Y-49401407D01*
X112961595Y-49503386D01*
X113072038Y-49637962D01*
X113206614Y-49748405D01*
X113360150Y-49830472D01*
X113526746Y-49881008D01*
X113700000Y-49898072D01*
X114900000Y-49898072D01*
X115073254Y-49881008D01*
X115239850Y-49830472D01*
X115393386Y-49748405D01*
X115527962Y-49637962D01*
X115638405Y-49503386D01*
X115720472Y-49349850D01*
X115771008Y-49183254D01*
X115788072Y-49010000D01*
X115788072Y-47510000D01*
X115771008Y-47336746D01*
X115720472Y-47170150D01*
X115638405Y-47016614D01*
X115527962Y-46882038D01*
X115393386Y-46771595D01*
X115239850Y-46689528D01*
X115073254Y-46638992D01*
X114900000Y-46621928D01*
X113700000Y-46621928D01*
X113526746Y-46638992D01*
X113360150Y-46689528D01*
X113206614Y-46771595D01*
X113072038Y-46882038D01*
X112961595Y-47016614D01*
X112907086Y-47118593D01*
X112906802Y-47118205D01*
X112692046Y-46921336D01*
X112443009Y-46770146D01*
X112169261Y-46670446D01*
X112156890Y-46668524D01*
X111927000Y-46789845D01*
X111673000Y-46789845D01*
X111443110Y-46668524D01*
X111430739Y-46670446D01*
X111156991Y-46770146D01*
X110907954Y-46921336D01*
X110693198Y-47118205D01*
X110520975Y-47353188D01*
X110397904Y-47617255D01*
X110328715Y-47900258D01*
X64897000Y-47900258D01*
X64897000Y-46857767D01*
X65075271Y-47036038D01*
X65441331Y-47280631D01*
X65848075Y-47449110D01*
X66279872Y-47535000D01*
X66720128Y-47535000D01*
X67151925Y-47449110D01*
X67558669Y-47280631D01*
X67924729Y-47036038D01*
X68236038Y-46724729D01*
X68480631Y-46358669D01*
X68649110Y-45951925D01*
X68735000Y-45520128D01*
X68735000Y-45079872D01*
X68649110Y-44648075D01*
X68480631Y-44241331D01*
X68280625Y-43942000D01*
X153719375Y-43942000D01*
X153519369Y-44241331D01*
%TA.AperFunction,Conductor*%
D24*
G36*
X153519369Y-44241331D02*
G01*
X153350890Y-44648075D01*
X153265000Y-45079872D01*
X153265000Y-45520128D01*
X153350890Y-45951925D01*
X153519369Y-46358669D01*
X153763962Y-46724729D01*
X154075271Y-47036038D01*
X154441331Y-47280631D01*
X154848075Y-47449110D01*
X155279872Y-47535000D01*
X155720128Y-47535000D01*
X156151925Y-47449110D01*
X156558669Y-47280631D01*
X156718000Y-47174170D01*
X156718000Y-109425830D01*
X156558669Y-109319369D01*
X156151925Y-109150890D01*
X155720128Y-109065000D01*
X155279872Y-109065000D01*
X154848075Y-109150890D01*
X154441331Y-109319369D01*
X154075271Y-109563962D01*
X153763962Y-109875271D01*
X153519369Y-110241331D01*
X153350890Y-110648075D01*
X153265000Y-111079872D01*
X153265000Y-111520128D01*
X153350890Y-111951925D01*
X153519369Y-112358669D01*
X153763962Y-112724729D01*
X153942233Y-112903000D01*
X68057767Y-112903000D01*
X68236038Y-112724729D01*
X68480631Y-112358669D01*
X68649110Y-111951925D01*
X68735000Y-111520128D01*
X68735000Y-111079872D01*
X68649110Y-110648075D01*
X68480631Y-110241331D01*
X68236038Y-109875271D01*
X67924729Y-109563962D01*
X67558669Y-109319369D01*
X67151925Y-109150890D01*
X66720128Y-109065000D01*
X66279872Y-109065000D01*
X65848075Y-109150890D01*
X65441331Y-109319369D01*
X65075271Y-109563962D01*
X64897000Y-109742233D01*
X64897000Y-100965000D01*
X123061324Y-100965000D01*
X123065000Y-101002323D01*
X123065001Y-104102668D01*
X123061324Y-104140000D01*
X123065001Y-104177332D01*
X123065001Y-104177333D01*
X123075998Y-104288986D01*
X123089180Y-104332442D01*
X123119454Y-104432246D01*
X123190026Y-104564276D01*
X123261201Y-104651002D01*
X123285000Y-104680001D01*
X123313998Y-104703799D01*
X123896200Y-105286002D01*
X123919999Y-105315001D01*
X123948997Y-105338799D01*
X124035724Y-105409974D01*
X124167753Y-105480546D01*
X124311014Y-105524003D01*
X124460000Y-105538677D01*
X124497333Y-105535000D01*
X144107678Y-105535000D01*
X144145000Y-105538676D01*
X144182322Y-105535000D01*
X144182333Y-105535000D01*
X144293986Y-105524003D01*
X144437247Y-105480546D01*
X144569276Y-105409974D01*
X144685001Y-105315001D01*
X144708803Y-105285998D01*
X145291004Y-104703798D01*
X145320001Y-104680001D01*
X145414974Y-104564276D01*
X145485546Y-104432247D01*
X145529003Y-104288986D01*
X145540000Y-104177333D01*
X145540000Y-104177332D01*
X145543677Y-104140000D01*
X145540000Y-104102667D01*
X145540000Y-90207333D01*
X145543677Y-90170000D01*
X145529003Y-90021014D01*
X145485546Y-89877753D01*
X145414974Y-89745724D01*
X145343799Y-89658997D01*
X145320001Y-89629999D01*
X145291002Y-89606200D01*
X144708803Y-89024002D01*
X144685001Y-88994999D01*
X144569276Y-88900026D01*
X144437247Y-88829454D01*
X144293986Y-88785997D01*
X144182333Y-88775000D01*
X144182322Y-88775000D01*
X144145000Y-88771324D01*
X144107678Y-88775000D01*
X144093043Y-88775000D01*
X143989637Y-88620241D01*
X143789759Y-88420363D01*
X143557241Y-88265000D01*
X143789759Y-88109637D01*
X143989637Y-87909759D01*
X144146680Y-87674727D01*
X144254853Y-87413574D01*
X144310000Y-87136335D01*
X144310000Y-86853665D01*
X144254853Y-86576426D01*
X144146680Y-86315273D01*
X143989637Y-86080241D01*
X143789759Y-85880363D01*
X143557241Y-85725000D01*
X143789759Y-85569637D01*
X143989637Y-85369759D01*
X144146680Y-85134727D01*
X144254853Y-84873574D01*
X144310000Y-84596335D01*
X144310000Y-84313665D01*
X144254853Y-84036426D01*
X144146680Y-83775273D01*
X143989637Y-83540241D01*
X143789759Y-83340363D01*
X143557241Y-83185000D01*
X143789759Y-83029637D01*
X143989637Y-82829759D01*
X144146680Y-82594727D01*
X144254853Y-82333574D01*
X144310000Y-82056335D01*
X144310000Y-81773665D01*
X144254853Y-81496426D01*
X144146680Y-81235273D01*
X143989637Y-81000241D01*
X143789759Y-80800363D01*
X143557241Y-80645000D01*
X143789759Y-80489637D01*
X143989637Y-80289759D01*
X144146680Y-80054727D01*
X144254853Y-79793574D01*
X144310000Y-79516335D01*
X144310000Y-79233665D01*
X144254853Y-78956426D01*
X144146680Y-78695273D01*
X143989637Y-78460241D01*
X143789759Y-78260363D01*
X143554727Y-78103320D01*
X143544135Y-78098933D01*
X143730131Y-77987385D01*
X143938519Y-77798414D01*
X144106037Y-77572420D01*
X144226246Y-77318087D01*
X144266904Y-77184039D01*
X144144915Y-76962000D01*
X143002000Y-76962000D01*
X143002000Y-76982000D01*
X142748000Y-76982000D01*
X142748000Y-76962000D01*
X141605085Y-76962000D01*
X141483096Y-77184039D01*
X141523754Y-77318087D01*
X141643963Y-77572420D01*
X141811481Y-77798414D01*
X142019869Y-77987385D01*
X142205865Y-78098933D01*
X142195273Y-78103320D01*
X141960241Y-78260363D01*
X141760363Y-78460241D01*
X141603320Y-78695273D01*
X141495147Y-78956426D01*
X141440000Y-79233665D01*
X141440000Y-79516335D01*
X141495147Y-79793574D01*
X141603320Y-80054727D01*
X141760363Y-80289759D01*
X141960241Y-80489637D01*
X142192759Y-80645000D01*
X141960241Y-80800363D01*
X141760363Y-81000241D01*
X141603320Y-81235273D01*
X141495147Y-81496426D01*
X141440000Y-81773665D01*
X141440000Y-82056335D01*
X141495147Y-82333574D01*
X141603320Y-82594727D01*
X141760363Y-82829759D01*
X141960241Y-83029637D01*
X142192759Y-83185000D01*
X141960241Y-83340363D01*
X141760363Y-83540241D01*
X141603320Y-83775273D01*
X141495147Y-84036426D01*
X141440000Y-84313665D01*
X141440000Y-84596335D01*
X141495147Y-84873574D01*
X141603320Y-85134727D01*
X141760363Y-85369759D01*
X141960241Y-85569637D01*
X142192759Y-85725000D01*
X141960241Y-85880363D01*
X141760363Y-86080241D01*
X141603320Y-86315273D01*
X141495147Y-86576426D01*
X141440000Y-86853665D01*
X141440000Y-87136335D01*
X141495147Y-87413574D01*
X141603320Y-87674727D01*
X141760363Y-87909759D01*
X141960241Y-88109637D01*
X142192759Y-88265000D01*
X141960241Y-88420363D01*
X141760363Y-88620241D01*
X141603320Y-88855273D01*
X141495147Y-89116426D01*
X141440000Y-89393665D01*
X141440000Y-89676335D01*
X141495147Y-89953574D01*
X141603320Y-90214727D01*
X141760363Y-90449759D01*
X141960241Y-90649637D01*
X142192759Y-90805000D01*
X141960241Y-90960363D01*
X141760363Y-91160241D01*
X141603320Y-91395273D01*
X141495147Y-91656426D01*
X141440000Y-91933665D01*
X141440000Y-92216335D01*
X141495147Y-92493574D01*
X141603320Y-92754727D01*
X141760363Y-92989759D01*
X141960241Y-93189637D01*
X142192759Y-93345000D01*
X141960241Y-93500363D01*
X141760363Y-93700241D01*
X141603320Y-93935273D01*
X141495147Y-94196426D01*
X141440000Y-94473665D01*
X141440000Y-94756335D01*
X141495147Y-95033574D01*
X141603320Y-95294727D01*
X141760363Y-95529759D01*
X141960241Y-95729637D01*
X142195273Y-95886680D01*
X142456426Y-95994853D01*
X142733665Y-96050000D01*
X143016335Y-96050000D01*
X143293574Y-95994853D01*
X143554727Y-95886680D01*
X143789759Y-95729637D01*
X143989637Y-95529759D01*
X144020001Y-95484317D01*
X144020000Y-103825198D01*
X143830199Y-104015000D01*
X130317338Y-104015000D01*
X130344502Y-103964180D01*
X130380812Y-103844482D01*
X130393072Y-103720000D01*
X130393072Y-102020000D01*
X130380812Y-101895518D01*
X130344502Y-101775820D01*
X130285537Y-101665506D01*
X130206185Y-101568815D01*
X130109494Y-101489463D01*
X129999180Y-101430498D01*
X129926620Y-101408487D01*
X130058475Y-101276632D01*
X130220990Y-101033411D01*
X130332932Y-100763158D01*
X130390000Y-100476260D01*
X130390000Y-100183740D01*
X130332932Y-99896842D01*
X130220990Y-99626589D01*
X130058475Y-99383368D01*
X129851632Y-99176525D01*
X129677240Y-99060000D01*
X129851632Y-98943475D01*
X130058475Y-98736632D01*
X130220990Y-98493411D01*
X130332932Y-98223158D01*
X130390000Y-97936260D01*
X130390000Y-97643740D01*
X130332932Y-97356842D01*
X130220990Y-97086589D01*
X130058475Y-96843368D01*
X129851632Y-96636525D01*
X129608411Y-96474010D01*
X129338158Y-96362068D01*
X129051260Y-96305000D01*
X128758740Y-96305000D01*
X128471842Y-96362068D01*
X128201589Y-96474010D01*
X127958368Y-96636525D01*
X127751525Y-96843368D01*
X127633900Y-97019406D01*
X127462588Y-96789731D01*
X127246355Y-96594822D01*
X126996252Y-96445843D01*
X126721891Y-96348519D01*
X126492000Y-96469186D01*
X126492000Y-97663000D01*
X126512000Y-97663000D01*
X126512000Y-97917000D01*
X126492000Y-97917000D01*
X126492000Y-97937000D01*
X126238000Y-97937000D01*
X126238000Y-97917000D01*
X125044845Y-97917000D01*
X124923524Y-98146890D01*
X124968175Y-98294099D01*
X125093359Y-98556920D01*
X125267412Y-98790269D01*
X125483645Y-98985178D01*
X125600534Y-99054805D01*
X125418368Y-99176525D01*
X125211525Y-99383368D01*
X125086822Y-99570000D01*
X124497333Y-99570000D01*
X124460000Y-99566323D01*
X124422667Y-99570000D01*
X124311014Y-99580997D01*
X124167753Y-99624454D01*
X124035724Y-99695026D01*
X123919999Y-99789999D01*
X123896200Y-99818998D01*
X123314002Y-100401197D01*
X123284999Y-100424999D01*
X123229871Y-100492174D01*
X123190026Y-100540724D01*
X123146451Y-100622246D01*
X123119454Y-100672754D01*
X123075997Y-100816015D01*
X123065000Y-100927668D01*
X123065000Y-100927678D01*
X123061324Y-100965000D01*
X64897000Y-100965000D01*
X64897000Y-98283665D01*
X114770000Y-98283665D01*
X114770000Y-98566335D01*
X114825147Y-98843574D01*
X114933320Y-99104727D01*
X115090363Y-99339759D01*
X115290241Y-99539637D01*
X115525273Y-99696680D01*
X115786426Y-99804853D01*
X116063665Y-99860000D01*
X116346335Y-99860000D01*
X116623574Y-99804853D01*
X116884727Y-99696680D01*
X117119759Y-99539637D01*
X117319637Y-99339759D01*
X117476680Y-99104727D01*
X117584853Y-98843574D01*
X117640000Y-98566335D01*
X117640000Y-98283665D01*
X119770000Y-98283665D01*
X119770000Y-98566335D01*
X119825147Y-98843574D01*
X119933320Y-99104727D01*
X120090363Y-99339759D01*
X120290241Y-99539637D01*
X120525273Y-99696680D01*
X120786426Y-99804853D01*
X121063665Y-99860000D01*
X121346335Y-99860000D01*
X121623574Y-99804853D01*
X121884727Y-99696680D01*
X122119759Y-99539637D01*
X122319637Y-99339759D01*
X122476680Y-99104727D01*
X122584853Y-98843574D01*
X122640000Y-98566335D01*
X122640000Y-98283665D01*
X122584853Y-98006426D01*
X122476680Y-97745273D01*
X122319637Y-97510241D01*
X122242506Y-97433110D01*
X124923524Y-97433110D01*
X125044845Y-97663000D01*
X126238000Y-97663000D01*
X126238000Y-96469186D01*
X126008109Y-96348519D01*
X125733748Y-96445843D01*
X125483645Y-96594822D01*
X125267412Y-96789731D01*
X125093359Y-97023080D01*
X124968175Y-97285901D01*
X124923524Y-97433110D01*
X122242506Y-97433110D01*
X122119759Y-97310363D01*
X121884727Y-97153320D01*
X121623574Y-97045147D01*
X121346335Y-96990000D01*
X121063665Y-96990000D01*
X120786426Y-97045147D01*
X120525273Y-97153320D01*
X120290241Y-97310363D01*
X120090363Y-97510241D01*
X119933320Y-97745273D01*
X119825147Y-98006426D01*
X119770000Y-98283665D01*
X117640000Y-98283665D01*
X117584853Y-98006426D01*
X117476680Y-97745273D01*
X117319637Y-97510241D01*
X117119759Y-97310363D01*
X116884727Y-97153320D01*
X116623574Y-97045147D01*
X116346335Y-96990000D01*
X116063665Y-96990000D01*
X115786426Y-97045147D01*
X115525273Y-97153320D01*
X115290241Y-97310363D01*
X115090363Y-97510241D01*
X114933320Y-97745273D01*
X114825147Y-98006426D01*
X114770000Y-98283665D01*
X64897000Y-98283665D01*
X64897000Y-96913397D01*
X76471208Y-96913397D01*
X76548843Y-97162472D01*
X76812883Y-97288371D01*
X77096411Y-97360339D01*
X77388531Y-97375611D01*
X77678019Y-97333599D01*
X77953747Y-97235919D01*
X78091157Y-97162472D01*
X78168792Y-96913397D01*
X77320000Y-96064605D01*
X76471208Y-96913397D01*
X64897000Y-96913397D01*
X64897000Y-95953531D01*
X75829389Y-95953531D01*
X75871401Y-96243019D01*
X75969081Y-96518747D01*
X76042528Y-96656157D01*
X76291603Y-96733792D01*
X77140395Y-95885000D01*
X77499605Y-95885000D01*
X78348397Y-96733792D01*
X78597472Y-96656157D01*
X78723371Y-96392117D01*
X78795339Y-96108589D01*
X78810611Y-95816469D01*
X78799331Y-95738740D01*
X82335000Y-95738740D01*
X82335000Y-96031260D01*
X82392068Y-96318158D01*
X82504010Y-96588411D01*
X82666525Y-96831632D01*
X82873368Y-97038475D01*
X83116589Y-97200990D01*
X83386842Y-97312932D01*
X83673740Y-97370000D01*
X83966260Y-97370000D01*
X84253158Y-97312932D01*
X84523411Y-97200990D01*
X84766632Y-97038475D01*
X84973475Y-96831632D01*
X85135990Y-96588411D01*
X85247932Y-96318158D01*
X85305000Y-96031260D01*
X85305000Y-95738740D01*
X85247932Y-95451842D01*
X85135990Y-95181589D01*
X84973475Y-94938368D01*
X84766632Y-94731525D01*
X84523411Y-94569010D01*
X84253158Y-94457068D01*
X83966260Y-94400000D01*
X83673740Y-94400000D01*
X83386842Y-94457068D01*
X83116589Y-94569010D01*
X82873368Y-94731525D01*
X82666525Y-94938368D01*
X82504010Y-95181589D01*
X82392068Y-95451842D01*
X82335000Y-95738740D01*
X78799331Y-95738740D01*
X78768599Y-95526981D01*
X78670919Y-95251253D01*
X78597472Y-95113843D01*
X78348397Y-95036208D01*
X77499605Y-95885000D01*
X77140395Y-95885000D01*
X76291603Y-95036208D01*
X76042528Y-95113843D01*
X75916629Y-95377883D01*
X75844661Y-95661411D01*
X75829389Y-95953531D01*
X64897000Y-95953531D01*
X64897000Y-94856603D01*
X76471208Y-94856603D01*
X77320000Y-95705395D01*
X78168792Y-94856603D01*
X78091157Y-94607528D01*
X77827117Y-94481629D01*
X77543589Y-94409661D01*
X77251469Y-94394389D01*
X76961981Y-94436401D01*
X76686253Y-94534081D01*
X76548843Y-94607528D01*
X76471208Y-94856603D01*
X64897000Y-94856603D01*
X64897000Y-92413397D01*
X76471208Y-92413397D01*
X76548843Y-92662472D01*
X76812883Y-92788371D01*
X77096411Y-92860339D01*
X77388531Y-92875611D01*
X77678019Y-92833599D01*
X77953747Y-92735919D01*
X78091157Y-92662472D01*
X78168792Y-92413397D01*
X77320000Y-91564605D01*
X76471208Y-92413397D01*
X64897000Y-92413397D01*
X64897000Y-91453531D01*
X75829389Y-91453531D01*
X75871401Y-91743019D01*
X75969081Y-92018747D01*
X76042528Y-92156157D01*
X76291603Y-92233792D01*
X77140395Y-91385000D01*
X77499605Y-91385000D01*
X78348397Y-92233792D01*
X78597472Y-92156157D01*
X78723371Y-91892117D01*
X78795339Y-91608589D01*
X78810611Y-91316469D01*
X78799331Y-91238740D01*
X82335000Y-91238740D01*
X82335000Y-91531260D01*
X82392068Y-91818158D01*
X82504010Y-92088411D01*
X82666525Y-92331632D01*
X82873368Y-92538475D01*
X83116589Y-92700990D01*
X83386842Y-92812932D01*
X83673740Y-92870000D01*
X83966260Y-92870000D01*
X84253158Y-92812932D01*
X84523411Y-92700990D01*
X84766632Y-92538475D01*
X84973475Y-92331632D01*
X85098178Y-92145000D01*
X85990199Y-92145000D01*
X86235001Y-92389803D01*
X86235000Y-95847677D01*
X86231324Y-95885000D01*
X86235000Y-95922322D01*
X86235000Y-95922332D01*
X86245997Y-96033985D01*
X86289454Y-96177246D01*
X86360026Y-96309276D01*
X86392232Y-96348519D01*
X86454999Y-96425001D01*
X86484002Y-96448803D01*
X87066200Y-97031002D01*
X87089999Y-97060001D01*
X87118997Y-97083799D01*
X87205724Y-97154974D01*
X87337753Y-97225546D01*
X87481014Y-97269003D01*
X87630000Y-97283677D01*
X87667333Y-97280000D01*
X97117678Y-97280000D01*
X97155000Y-97283676D01*
X97192322Y-97280000D01*
X97192333Y-97280000D01*
X97303986Y-97269003D01*
X97447247Y-97225546D01*
X97579276Y-97154974D01*
X97695001Y-97060001D01*
X97718804Y-97030997D01*
X98936003Y-95813799D01*
X98965001Y-95790001D01*
X99059974Y-95674276D01*
X99130546Y-95542247D01*
X99174003Y-95398986D01*
X99185000Y-95287333D01*
X99185000Y-95287324D01*
X99188676Y-95250001D01*
X99185000Y-95212678D01*
X99185000Y-94473665D01*
X109690000Y-94473665D01*
X109690000Y-94756335D01*
X109745147Y-95033574D01*
X109853320Y-95294727D01*
X110010363Y-95529759D01*
X110210241Y-95729637D01*
X110445273Y-95886680D01*
X110706426Y-95994853D01*
X110983665Y-96050000D01*
X111266335Y-96050000D01*
X111543574Y-95994853D01*
X111804727Y-95886680D01*
X112039759Y-95729637D01*
X112239637Y-95529759D01*
X112396680Y-95294727D01*
X112504853Y-95033574D01*
X112560000Y-94756335D01*
X112560000Y-94473665D01*
X113590000Y-94473665D01*
X113590000Y-94756335D01*
X113645147Y-95033574D01*
X113753320Y-95294727D01*
X113910363Y-95529759D01*
X114110241Y-95729637D01*
X114345273Y-95886680D01*
X114606426Y-95994853D01*
X114883665Y-96050000D01*
X115166335Y-96050000D01*
X115443574Y-95994853D01*
X115704727Y-95886680D01*
X115939759Y-95729637D01*
X116139637Y-95529759D01*
X116296680Y-95294727D01*
X116404853Y-95033574D01*
X116460000Y-94756335D01*
X116460000Y-94473665D01*
X116404853Y-94196426D01*
X116296680Y-93935273D01*
X116139637Y-93700241D01*
X115939759Y-93500363D01*
X115704727Y-93343320D01*
X115694135Y-93338933D01*
X115880131Y-93227385D01*
X116088519Y-93038414D01*
X116256037Y-92812420D01*
X116376246Y-92558087D01*
X116416904Y-92424039D01*
X116294915Y-92202000D01*
X115152000Y-92202000D01*
X115152000Y-92222000D01*
X114898000Y-92222000D01*
X114898000Y-92202000D01*
X113755085Y-92202000D01*
X113633096Y-92424039D01*
X113673754Y-92558087D01*
X113793963Y-92812420D01*
X113961481Y-93038414D01*
X114169869Y-93227385D01*
X114355865Y-93338933D01*
X114345273Y-93343320D01*
X114110241Y-93500363D01*
X113910363Y-93700241D01*
X113753320Y-93935273D01*
X113645147Y-94196426D01*
X113590000Y-94473665D01*
X112560000Y-94473665D01*
X112504853Y-94196426D01*
X112396680Y-93935273D01*
X112239637Y-93700241D01*
X112039759Y-93500363D01*
X111804727Y-93343320D01*
X111543574Y-93235147D01*
X111266335Y-93180000D01*
X110983665Y-93180000D01*
X110706426Y-93235147D01*
X110445273Y-93343320D01*
X110210241Y-93500363D01*
X110010363Y-93700241D01*
X109853320Y-93935273D01*
X109745147Y-94196426D01*
X109690000Y-94473665D01*
X99185000Y-94473665D01*
X99185000Y-90640000D01*
X104606928Y-90640000D01*
X104606928Y-92240000D01*
X104619188Y-92364482D01*
X104655498Y-92484180D01*
X104714463Y-92594494D01*
X104793815Y-92691185D01*
X104890506Y-92770537D01*
X105000820Y-92829502D01*
X105120518Y-92865812D01*
X105245000Y-92878072D01*
X106845000Y-92878072D01*
X106969482Y-92865812D01*
X107089180Y-92829502D01*
X107199494Y-92770537D01*
X107296185Y-92691185D01*
X107375537Y-92594494D01*
X107434502Y-92484180D01*
X107470812Y-92364482D01*
X107483072Y-92240000D01*
X107483072Y-90640000D01*
X107479892Y-90607702D01*
X110311903Y-90607702D01*
X110383486Y-90851671D01*
X110638996Y-90972571D01*
X110913184Y-91041300D01*
X111195512Y-91055217D01*
X111475130Y-91013787D01*
X111741292Y-90918603D01*
X111866514Y-90851671D01*
X111938097Y-90607702D01*
X111125000Y-89794605D01*
X110311903Y-90607702D01*
X107479892Y-90607702D01*
X107470812Y-90515518D01*
X107434502Y-90395820D01*
X107375537Y-90285506D01*
X107296185Y-90188815D01*
X107199494Y-90109463D01*
X107089180Y-90050498D01*
X106969482Y-90014188D01*
X106961039Y-90013357D01*
X107159637Y-89814759D01*
X107245996Y-89685512D01*
X109684783Y-89685512D01*
X109726213Y-89965130D01*
X109821397Y-90231292D01*
X109888329Y-90356514D01*
X110132298Y-90428097D01*
X110945395Y-89615000D01*
X110132298Y-88801903D01*
X109888329Y-88873486D01*
X109767429Y-89128996D01*
X109698700Y-89403184D01*
X109684783Y-89685512D01*
X107245996Y-89685512D01*
X107316680Y-89579727D01*
X107424853Y-89318574D01*
X107480000Y-89041335D01*
X107480000Y-88758665D01*
X107452875Y-88622298D01*
X110311903Y-88622298D01*
X111125000Y-89435395D01*
X111139143Y-89421253D01*
X111318748Y-89600858D01*
X111304605Y-89615000D01*
X112117702Y-90428097D01*
X112361671Y-90356514D01*
X112482571Y-90101004D01*
X112551300Y-89826816D01*
X112565217Y-89544488D01*
X112559222Y-89504024D01*
X113101205Y-90046008D01*
X113124999Y-90075001D01*
X113153992Y-90098795D01*
X113153996Y-90098799D01*
X113195265Y-90132667D01*
X113240724Y-90169974D01*
X113372753Y-90240546D01*
X113516014Y-90284003D01*
X113627667Y-90295000D01*
X113627676Y-90295000D01*
X113664999Y-90298676D01*
X113702322Y-90295000D01*
X113806957Y-90295000D01*
X113910363Y-90449759D01*
X114110241Y-90649637D01*
X114345273Y-90806680D01*
X114355865Y-90811067D01*
X114169869Y-90922615D01*
X113961481Y-91111586D01*
X113793963Y-91337580D01*
X113673754Y-91591913D01*
X113633096Y-91725961D01*
X113755085Y-91948000D01*
X114898000Y-91948000D01*
X114898000Y-91928000D01*
X115152000Y-91928000D01*
X115152000Y-91948000D01*
X116294915Y-91948000D01*
X116416904Y-91725961D01*
X116376246Y-91591913D01*
X116256037Y-91337580D01*
X116088519Y-91111586D01*
X115880131Y-90922615D01*
X115694135Y-90811067D01*
X115704727Y-90806680D01*
X115939759Y-90649637D01*
X116139637Y-90449759D01*
X116296680Y-90214727D01*
X116404853Y-89953574D01*
X116460000Y-89676335D01*
X116460000Y-89393665D01*
X116404853Y-89116426D01*
X116296680Y-88855273D01*
X116139637Y-88620241D01*
X115939759Y-88420363D01*
X115707241Y-88265000D01*
X115939759Y-88109637D01*
X116139637Y-87909759D01*
X116296680Y-87674727D01*
X116404853Y-87413574D01*
X116460000Y-87136335D01*
X116460000Y-86853665D01*
X116404853Y-86576426D01*
X116296680Y-86315273D01*
X116139637Y-86080241D01*
X115939759Y-85880363D01*
X115707241Y-85725000D01*
X115939759Y-85569637D01*
X116139637Y-85369759D01*
X116296680Y-85134727D01*
X116404853Y-84873574D01*
X116460000Y-84596335D01*
X116460000Y-84313665D01*
X116404853Y-84036426D01*
X116296680Y-83775273D01*
X116139637Y-83540241D01*
X115939759Y-83340363D01*
X115707241Y-83185000D01*
X115939759Y-83029637D01*
X116139637Y-82829759D01*
X116296680Y-82594727D01*
X116404853Y-82333574D01*
X116460000Y-82056335D01*
X116460000Y-81773665D01*
X116404853Y-81496426D01*
X116296680Y-81235273D01*
X116139637Y-81000241D01*
X115939759Y-80800363D01*
X115707241Y-80645000D01*
X115939759Y-80489637D01*
X116139637Y-80289759D01*
X116296680Y-80054727D01*
X116404853Y-79793574D01*
X116460000Y-79516335D01*
X116460000Y-79233665D01*
X116404853Y-78956426D01*
X116296680Y-78695273D01*
X116139637Y-78460241D01*
X115939759Y-78260363D01*
X115707241Y-78105000D01*
X115939759Y-77949637D01*
X116139637Y-77749759D01*
X116296680Y-77514727D01*
X116404853Y-77253574D01*
X116460000Y-76976335D01*
X116460000Y-76693665D01*
X116404853Y-76416426D01*
X116296680Y-76155273D01*
X116139637Y-75920241D01*
X115939759Y-75720363D01*
X115704727Y-75563320D01*
X115443574Y-75455147D01*
X115166335Y-75400000D01*
X114883665Y-75400000D01*
X114606426Y-75455147D01*
X114345273Y-75563320D01*
X114110241Y-75720363D01*
X113910363Y-75920241D01*
X113790000Y-76100377D01*
X113790000Y-68894801D01*
X113979802Y-68705000D01*
X118676289Y-68705000D01*
X118720226Y-68748937D01*
X118889744Y-68862205D01*
X119078102Y-68940226D01*
X119278061Y-68980000D01*
X119481939Y-68980000D01*
X119681898Y-68940226D01*
X119870256Y-68862205D01*
X119890000Y-68849012D01*
X119890001Y-78702667D01*
X119886324Y-78740000D01*
X119890001Y-78777333D01*
X119900245Y-78881335D01*
X119900998Y-78888985D01*
X119944454Y-79032246D01*
X120015026Y-79164276D01*
X120065694Y-79226014D01*
X120110000Y-79280001D01*
X120138998Y-79303799D01*
X120721200Y-79886002D01*
X120744999Y-79915001D01*
X120773997Y-79938799D01*
X120860724Y-80009974D01*
X120992753Y-80080546D01*
X121136014Y-80124003D01*
X121285000Y-80138677D01*
X121322333Y-80135000D01*
X121426957Y-80135000D01*
X121530363Y-80289759D01*
X121730241Y-80489637D01*
X121962759Y-80645000D01*
X121730241Y-80800363D01*
X121530363Y-81000241D01*
X121373320Y-81235273D01*
X121265147Y-81496426D01*
X121210000Y-81773665D01*
X121210000Y-82056335D01*
X121265147Y-82333574D01*
X121373320Y-82594727D01*
X121530363Y-82829759D01*
X121730241Y-83029637D01*
X121962759Y-83185000D01*
X121730241Y-83340363D01*
X121530363Y-83540241D01*
X121373320Y-83775273D01*
X121265147Y-84036426D01*
X121210000Y-84313665D01*
X121210000Y-84596335D01*
X121265147Y-84873574D01*
X121373320Y-85134727D01*
X121530363Y-85369759D01*
X121730241Y-85569637D01*
X121962759Y-85725000D01*
X121730241Y-85880363D01*
X121530363Y-86080241D01*
X121373320Y-86315273D01*
X121265147Y-86576426D01*
X121210000Y-86853665D01*
X121210000Y-87136335D01*
X121265147Y-87413574D01*
X121373320Y-87674727D01*
X121530363Y-87909759D01*
X121730241Y-88109637D01*
X121962759Y-88265000D01*
X121730241Y-88420363D01*
X121530363Y-88620241D01*
X121373320Y-88855273D01*
X121265147Y-89116426D01*
X121210000Y-89393665D01*
X121210000Y-89676335D01*
X121265147Y-89953574D01*
X121373320Y-90214727D01*
X121530363Y-90449759D01*
X121730241Y-90649637D01*
X121962759Y-90805000D01*
X121730241Y-90960363D01*
X121530363Y-91160241D01*
X121373320Y-91395273D01*
X121265147Y-91656426D01*
X121210000Y-91933665D01*
X121210000Y-92216335D01*
X121265147Y-92493574D01*
X121373320Y-92754727D01*
X121530363Y-92989759D01*
X121728961Y-93188357D01*
X121720518Y-93189188D01*
X121600820Y-93225498D01*
X121490506Y-93284463D01*
X121393815Y-93363815D01*
X121314463Y-93460506D01*
X121255498Y-93570820D01*
X121219188Y-93690518D01*
X121206928Y-93815000D01*
X121206928Y-95415000D01*
X121219188Y-95539482D01*
X121255498Y-95659180D01*
X121314463Y-95769494D01*
X121393815Y-95866185D01*
X121490506Y-95945537D01*
X121600820Y-96004502D01*
X121720518Y-96040812D01*
X121845000Y-96053072D01*
X123445000Y-96053072D01*
X123569482Y-96040812D01*
X123689180Y-96004502D01*
X123799494Y-95945537D01*
X123896185Y-95866185D01*
X123975537Y-95769494D01*
X124034502Y-95659180D01*
X124070812Y-95539482D01*
X124083072Y-95415000D01*
X124083072Y-94473665D01*
X124295000Y-94473665D01*
X124295000Y-94756335D01*
X124350147Y-95033574D01*
X124458320Y-95294727D01*
X124615363Y-95529759D01*
X124815241Y-95729637D01*
X125050273Y-95886680D01*
X125311426Y-95994853D01*
X125588665Y-96050000D01*
X125871335Y-96050000D01*
X126148574Y-95994853D01*
X126409727Y-95886680D01*
X126644759Y-95729637D01*
X126844637Y-95529759D01*
X127001680Y-95294727D01*
X127109853Y-95033574D01*
X127165000Y-94756335D01*
X127165000Y-94473665D01*
X127109853Y-94196426D01*
X127001680Y-93935273D01*
X126844637Y-93700241D01*
X126644759Y-93500363D01*
X126409727Y-93343320D01*
X126148574Y-93235147D01*
X125871335Y-93180000D01*
X125588665Y-93180000D01*
X125311426Y-93235147D01*
X125050273Y-93343320D01*
X124815241Y-93500363D01*
X124615363Y-93700241D01*
X124458320Y-93935273D01*
X124350147Y-94196426D01*
X124295000Y-94473665D01*
X124083072Y-94473665D01*
X124083072Y-93815000D01*
X124070812Y-93690518D01*
X124034502Y-93570820D01*
X123975537Y-93460506D01*
X123896185Y-93363815D01*
X123799494Y-93284463D01*
X123689180Y-93225498D01*
X123569482Y-93189188D01*
X123561039Y-93188357D01*
X123759637Y-92989759D01*
X123916680Y-92754727D01*
X124024853Y-92493574D01*
X124080000Y-92216335D01*
X124080000Y-91933665D01*
X124024853Y-91656426D01*
X123916680Y-91395273D01*
X123759637Y-91160241D01*
X123559759Y-90960363D01*
X123327241Y-90805000D01*
X123559759Y-90649637D01*
X123759637Y-90449759D01*
X123916680Y-90214727D01*
X124024853Y-89953574D01*
X124080000Y-89676335D01*
X124080000Y-89473665D01*
X124295000Y-89473665D01*
X124295000Y-89756335D01*
X124350147Y-90033574D01*
X124458320Y-90294727D01*
X124615363Y-90529759D01*
X124815241Y-90729637D01*
X125050273Y-90886680D01*
X125311426Y-90994853D01*
X125588665Y-91050000D01*
X125871335Y-91050000D01*
X126148574Y-90994853D01*
X126409727Y-90886680D01*
X126644759Y-90729637D01*
X126844637Y-90529759D01*
X127001680Y-90294727D01*
X127109853Y-90033574D01*
X127165000Y-89756335D01*
X127165000Y-89473665D01*
X127109853Y-89196426D01*
X127001680Y-88935273D01*
X126844637Y-88700241D01*
X126644759Y-88500363D01*
X126409727Y-88343320D01*
X126148574Y-88235147D01*
X125871335Y-88180000D01*
X125588665Y-88180000D01*
X125311426Y-88235147D01*
X125050273Y-88343320D01*
X124815241Y-88500363D01*
X124615363Y-88700241D01*
X124458320Y-88935273D01*
X124350147Y-89196426D01*
X124295000Y-89473665D01*
X124080000Y-89473665D01*
X124080000Y-89393665D01*
X124024853Y-89116426D01*
X123916680Y-88855273D01*
X123759637Y-88620241D01*
X123559759Y-88420363D01*
X123327241Y-88265000D01*
X123538764Y-88123665D01*
X128740000Y-88123665D01*
X128740000Y-88406335D01*
X128795147Y-88683574D01*
X128903320Y-88944727D01*
X129060363Y-89179759D01*
X129260241Y-89379637D01*
X129495273Y-89536680D01*
X129756426Y-89644853D01*
X130033665Y-89700000D01*
X130316335Y-89700000D01*
X130593574Y-89644853D01*
X130854727Y-89536680D01*
X131089759Y-89379637D01*
X131289637Y-89179759D01*
X131446680Y-88944727D01*
X131554853Y-88683574D01*
X131610000Y-88406335D01*
X131610000Y-88123665D01*
X131554853Y-87846426D01*
X131446680Y-87585273D01*
X131289637Y-87350241D01*
X131089759Y-87150363D01*
X130854727Y-86993320D01*
X130593574Y-86885147D01*
X130316335Y-86830000D01*
X130033665Y-86830000D01*
X129756426Y-86885147D01*
X129495273Y-86993320D01*
X129260241Y-87150363D01*
X129060363Y-87350241D01*
X128903320Y-87585273D01*
X128795147Y-87846426D01*
X128740000Y-88123665D01*
X123538764Y-88123665D01*
X123559759Y-88109637D01*
X123759637Y-87909759D01*
X123916680Y-87674727D01*
X124024853Y-87413574D01*
X124080000Y-87136335D01*
X124080000Y-86853665D01*
X124024853Y-86576426D01*
X123916680Y-86315273D01*
X123759637Y-86080241D01*
X123559759Y-85880363D01*
X123327241Y-85725000D01*
X123559759Y-85569637D01*
X123759637Y-85369759D01*
X123916680Y-85134727D01*
X124024853Y-84873574D01*
X124080000Y-84596335D01*
X124080000Y-84313665D01*
X124024853Y-84036426D01*
X123916680Y-83775273D01*
X123759637Y-83540241D01*
X123559759Y-83340363D01*
X123327241Y-83185000D01*
X123559759Y-83029637D01*
X123759637Y-82829759D01*
X123916680Y-82594727D01*
X124024853Y-82333574D01*
X124080000Y-82056335D01*
X124080000Y-81773665D01*
X124295000Y-81773665D01*
X124295000Y-82056335D01*
X124350147Y-82333574D01*
X124458320Y-82594727D01*
X124615363Y-82829759D01*
X124815241Y-83029637D01*
X125050273Y-83186680D01*
X125311426Y-83294853D01*
X125588665Y-83350000D01*
X125871335Y-83350000D01*
X126148574Y-83294853D01*
X126409727Y-83186680D01*
X126504035Y-83123665D01*
X128740000Y-83123665D01*
X128740000Y-83406335D01*
X128795147Y-83683574D01*
X128903320Y-83944727D01*
X129060363Y-84179759D01*
X129260241Y-84379637D01*
X129495273Y-84536680D01*
X129756426Y-84644853D01*
X130033665Y-84700000D01*
X130316335Y-84700000D01*
X130593574Y-84644853D01*
X130854727Y-84536680D01*
X131089759Y-84379637D01*
X131289637Y-84179759D01*
X131446680Y-83944727D01*
X131554853Y-83683574D01*
X131610000Y-83406335D01*
X131610000Y-83123665D01*
X131554853Y-82846426D01*
X131446680Y-82585273D01*
X131289637Y-82350241D01*
X131089759Y-82150363D01*
X130854727Y-81993320D01*
X130593574Y-81885147D01*
X130316335Y-81830000D01*
X130033665Y-81830000D01*
X129756426Y-81885147D01*
X129495273Y-81993320D01*
X129260241Y-82150363D01*
X129060363Y-82350241D01*
X128903320Y-82585273D01*
X128795147Y-82846426D01*
X128740000Y-83123665D01*
X126504035Y-83123665D01*
X126644759Y-83029637D01*
X126844637Y-82829759D01*
X127001680Y-82594727D01*
X127109853Y-82333574D01*
X127165000Y-82056335D01*
X127165000Y-81773665D01*
X127109853Y-81496426D01*
X127001680Y-81235273D01*
X126844637Y-81000241D01*
X126644759Y-80800363D01*
X126409727Y-80643320D01*
X126148574Y-80535147D01*
X125871335Y-80480000D01*
X125588665Y-80480000D01*
X125311426Y-80535147D01*
X125050273Y-80643320D01*
X124815241Y-80800363D01*
X124615363Y-81000241D01*
X124458320Y-81235273D01*
X124350147Y-81496426D01*
X124295000Y-81773665D01*
X124080000Y-81773665D01*
X124024853Y-81496426D01*
X123916680Y-81235273D01*
X123759637Y-81000241D01*
X123559759Y-80800363D01*
X123327241Y-80645000D01*
X123559759Y-80489637D01*
X123759637Y-80289759D01*
X123916680Y-80054727D01*
X124024853Y-79793574D01*
X124080000Y-79516335D01*
X124080000Y-79233665D01*
X124024853Y-78956426D01*
X123916680Y-78695273D01*
X123759637Y-78460241D01*
X123559759Y-78260363D01*
X123327241Y-78105000D01*
X123559759Y-77949637D01*
X123601694Y-77907702D01*
X124916903Y-77907702D01*
X124988486Y-78151671D01*
X125243996Y-78272571D01*
X125518184Y-78341300D01*
X125800512Y-78355217D01*
X126080130Y-78313787D01*
X126346292Y-78218603D01*
X126471514Y-78151671D01*
X126543097Y-77907702D01*
X125730000Y-77094605D01*
X124916903Y-77907702D01*
X123601694Y-77907702D01*
X123759637Y-77749759D01*
X123916680Y-77514727D01*
X124024853Y-77253574D01*
X124078174Y-76985512D01*
X124289783Y-76985512D01*
X124331213Y-77265130D01*
X124426397Y-77531292D01*
X124493329Y-77656514D01*
X124737298Y-77728097D01*
X125550395Y-76915000D01*
X125909605Y-76915000D01*
X126722702Y-77728097D01*
X126966671Y-77656514D01*
X127087571Y-77401004D01*
X127156300Y-77126816D01*
X127170217Y-76844488D01*
X127128787Y-76564870D01*
X127033603Y-76298708D01*
X126966671Y-76173486D01*
X126722702Y-76101903D01*
X125909605Y-76915000D01*
X125550395Y-76915000D01*
X124737298Y-76101903D01*
X124493329Y-76173486D01*
X124372429Y-76428996D01*
X124303700Y-76703184D01*
X124289783Y-76985512D01*
X124078174Y-76985512D01*
X124080000Y-76976335D01*
X124080000Y-76693665D01*
X124024853Y-76416426D01*
X123916680Y-76155273D01*
X123761012Y-75922298D01*
X124916903Y-75922298D01*
X125730000Y-76735395D01*
X126543097Y-75922298D01*
X126471514Y-75678329D01*
X126216004Y-75557429D01*
X125941816Y-75488700D01*
X125659488Y-75474783D01*
X125379870Y-75516213D01*
X125113708Y-75611397D01*
X124988486Y-75678329D01*
X124916903Y-75922298D01*
X123761012Y-75922298D01*
X123759637Y-75920241D01*
X123559759Y-75720363D01*
X123405000Y-75616957D01*
X123405000Y-61453665D01*
X125565000Y-61453665D01*
X125565000Y-61736335D01*
X125620147Y-62013574D01*
X125728320Y-62274727D01*
X125885363Y-62509759D01*
X126085241Y-62709637D01*
X126320273Y-62866680D01*
X126581426Y-62974853D01*
X126858665Y-63030000D01*
X127030198Y-63030000D01*
X126489002Y-63571197D01*
X126459999Y-63594999D01*
X126404871Y-63662174D01*
X126365026Y-63710724D01*
X126321451Y-63792246D01*
X126294454Y-63842754D01*
X126250997Y-63986015D01*
X126240000Y-64097668D01*
X126240000Y-64097678D01*
X126236324Y-64135000D01*
X126240000Y-64172323D01*
X126240001Y-67272658D01*
X126240000Y-67272668D01*
X126240001Y-70536956D01*
X126085241Y-70640363D01*
X125885363Y-70840241D01*
X125728320Y-71075273D01*
X125620147Y-71336426D01*
X125565000Y-71613665D01*
X125565000Y-71896335D01*
X125620147Y-72173574D01*
X125728320Y-72434727D01*
X125885363Y-72669759D01*
X126085241Y-72869637D01*
X126320273Y-73026680D01*
X126581426Y-73134853D01*
X126858665Y-73190000D01*
X127141335Y-73190000D01*
X127418574Y-73134853D01*
X127679727Y-73026680D01*
X127914759Y-72869637D01*
X128114637Y-72669759D01*
X128271680Y-72434727D01*
X128379853Y-72173574D01*
X128435000Y-71896335D01*
X128435000Y-71613665D01*
X129375000Y-71613665D01*
X129375000Y-71896335D01*
X129430147Y-72173574D01*
X129538320Y-72434727D01*
X129695363Y-72669759D01*
X129895241Y-72869637D01*
X130050000Y-72973044D01*
X130050000Y-73622677D01*
X130046324Y-73660000D01*
X130050000Y-73697322D01*
X130050000Y-73697332D01*
X130060997Y-73808985D01*
X130081455Y-73876426D01*
X130104454Y-73952246D01*
X130175026Y-74084276D01*
X130214871Y-74132826D01*
X130269999Y-74200001D01*
X130299002Y-74223803D01*
X130881200Y-74806002D01*
X130904999Y-74835001D01*
X130933997Y-74858799D01*
X131020724Y-74929974D01*
X131152753Y-75000546D01*
X131296014Y-75044003D01*
X131445000Y-75058677D01*
X131482333Y-75055000D01*
X131765199Y-75055000D01*
X131955001Y-75244803D01*
X131955000Y-100292678D01*
X131951324Y-100330000D01*
X131955000Y-100367322D01*
X131955000Y-100367332D01*
X131965997Y-100478985D01*
X132009454Y-100622246D01*
X132080026Y-100754276D01*
X132119871Y-100802826D01*
X132174999Y-100870001D01*
X132204002Y-100893803D01*
X132786200Y-101476002D01*
X132809999Y-101505001D01*
X132838997Y-101528799D01*
X132925724Y-101599974D01*
X133057753Y-101670546D01*
X133201014Y-101714003D01*
X133350000Y-101728677D01*
X133387333Y-101725000D01*
X136456687Y-101725000D01*
X136602688Y-101943505D01*
X136816495Y-102157312D01*
X137067905Y-102325299D01*
X137347257Y-102441011D01*
X137643816Y-102500000D01*
X137946184Y-102500000D01*
X138242743Y-102441011D01*
X138522095Y-102325299D01*
X138773505Y-102157312D01*
X138839944Y-102090873D01*
X138845498Y-102109180D01*
X138904463Y-102219494D01*
X138983815Y-102316185D01*
X139080506Y-102395537D01*
X139190820Y-102454502D01*
X139310518Y-102490812D01*
X139435000Y-102503072D01*
X140049250Y-102500000D01*
X140208000Y-102341250D01*
X140208000Y-101092000D01*
X140462000Y-101092000D01*
X140462000Y-102341250D01*
X140620750Y-102500000D01*
X141235000Y-102503072D01*
X141359482Y-102490812D01*
X141479180Y-102454502D01*
X141589494Y-102395537D01*
X141686185Y-102316185D01*
X141765537Y-102219494D01*
X141824502Y-102109180D01*
X141860812Y-101989482D01*
X141873072Y-101865000D01*
X141870000Y-101250750D01*
X141711250Y-101092000D01*
X140462000Y-101092000D01*
X140208000Y-101092000D01*
X140188000Y-101092000D01*
X140188000Y-100838000D01*
X140208000Y-100838000D01*
X140208000Y-99588750D01*
X140462000Y-99588750D01*
X140462000Y-100838000D01*
X141711250Y-100838000D01*
X141870000Y-100679250D01*
X141873072Y-100065000D01*
X141860812Y-99940518D01*
X141824502Y-99820820D01*
X141765537Y-99710506D01*
X141686185Y-99613815D01*
X141589494Y-99534463D01*
X141479180Y-99475498D01*
X141359482Y-99439188D01*
X141235000Y-99426928D01*
X140620750Y-99430000D01*
X140462000Y-99588750D01*
X140208000Y-99588750D01*
X140049250Y-99430000D01*
X139435000Y-99426928D01*
X139310518Y-99439188D01*
X139190820Y-99475498D01*
X139080506Y-99534463D01*
X138983815Y-99613815D01*
X138904463Y-99710506D01*
X138845498Y-99820820D01*
X138839944Y-99839127D01*
X138773505Y-99772688D01*
X138522095Y-99604701D01*
X138242743Y-99488989D01*
X137946184Y-99430000D01*
X137643816Y-99430000D01*
X137347257Y-99488989D01*
X137067905Y-99604701D01*
X136816495Y-99772688D01*
X136602688Y-99986495D01*
X136456687Y-100205000D01*
X133664802Y-100205000D01*
X133475000Y-100015199D01*
X133475000Y-81773665D01*
X133820000Y-81773665D01*
X133820000Y-82056335D01*
X133875147Y-82333574D01*
X133983320Y-82594727D01*
X134140363Y-82829759D01*
X134340241Y-83029637D01*
X134572759Y-83185000D01*
X134340241Y-83340363D01*
X134140363Y-83540241D01*
X133983320Y-83775273D01*
X133875147Y-84036426D01*
X133820000Y-84313665D01*
X133820000Y-84596335D01*
X133875147Y-84873574D01*
X133983320Y-85134727D01*
X134140363Y-85369759D01*
X134340241Y-85569637D01*
X134572759Y-85725000D01*
X134340241Y-85880363D01*
X134140363Y-86080241D01*
X133983320Y-86315273D01*
X133875147Y-86576426D01*
X133820000Y-86853665D01*
X133820000Y-87136335D01*
X133875147Y-87413574D01*
X133983320Y-87674727D01*
X134140363Y-87909759D01*
X134340241Y-88109637D01*
X134572759Y-88265000D01*
X134340241Y-88420363D01*
X134140363Y-88620241D01*
X133983320Y-88855273D01*
X133875147Y-89116426D01*
X133820000Y-89393665D01*
X133820000Y-89676335D01*
X133875147Y-89953574D01*
X133983320Y-90214727D01*
X134140363Y-90449759D01*
X134340241Y-90649637D01*
X134572759Y-90805000D01*
X134340241Y-90960363D01*
X134140363Y-91160241D01*
X133983320Y-91395273D01*
X133875147Y-91656426D01*
X133820000Y-91933665D01*
X133820000Y-92216335D01*
X133875147Y-92493574D01*
X133983320Y-92754727D01*
X134140363Y-92989759D01*
X134340241Y-93189637D01*
X134572759Y-93345000D01*
X134340241Y-93500363D01*
X134140363Y-93700241D01*
X133983320Y-93935273D01*
X133875147Y-94196426D01*
X133820000Y-94473665D01*
X133820000Y-94756335D01*
X133875147Y-95033574D01*
X133983320Y-95294727D01*
X134140363Y-95529759D01*
X134340241Y-95729637D01*
X134575273Y-95886680D01*
X134836426Y-95994853D01*
X135113665Y-96050000D01*
X135396335Y-96050000D01*
X135673574Y-95994853D01*
X135934727Y-95886680D01*
X136169759Y-95729637D01*
X136369637Y-95529759D01*
X136526680Y-95294727D01*
X136634853Y-95033574D01*
X136690000Y-94756335D01*
X136690000Y-94473665D01*
X136634853Y-94196426D01*
X136526680Y-93935273D01*
X136369637Y-93700241D01*
X136169759Y-93500363D01*
X135937241Y-93345000D01*
X136169759Y-93189637D01*
X136369637Y-92989759D01*
X136526680Y-92754727D01*
X136634853Y-92493574D01*
X136690000Y-92216335D01*
X136690000Y-91933665D01*
X136634853Y-91656426D01*
X136526680Y-91395273D01*
X136369637Y-91160241D01*
X136169759Y-90960363D01*
X135937241Y-90805000D01*
X136169759Y-90649637D01*
X136369637Y-90449759D01*
X136526680Y-90214727D01*
X136634853Y-89953574D01*
X136690000Y-89676335D01*
X136690000Y-89393665D01*
X136634853Y-89116426D01*
X136526680Y-88855273D01*
X136369637Y-88620241D01*
X136169759Y-88420363D01*
X135937241Y-88265000D01*
X136169759Y-88109637D01*
X136369637Y-87909759D01*
X136526680Y-87674727D01*
X136634853Y-87413574D01*
X136690000Y-87136335D01*
X136690000Y-86853665D01*
X136634853Y-86576426D01*
X136526680Y-86315273D01*
X136369637Y-86080241D01*
X136169759Y-85880363D01*
X135937241Y-85725000D01*
X136169759Y-85569637D01*
X136369637Y-85369759D01*
X136526680Y-85134727D01*
X136634853Y-84873574D01*
X136690000Y-84596335D01*
X136690000Y-84313665D01*
X136634853Y-84036426D01*
X136526680Y-83775273D01*
X136369637Y-83540241D01*
X136169759Y-83340363D01*
X135937241Y-83185000D01*
X136169759Y-83029637D01*
X136369637Y-82829759D01*
X136526680Y-82594727D01*
X136634853Y-82333574D01*
X136690000Y-82056335D01*
X136690000Y-81773665D01*
X136634853Y-81496426D01*
X136526680Y-81235273D01*
X136369637Y-81000241D01*
X136169759Y-80800363D01*
X135934727Y-80643320D01*
X135924135Y-80638933D01*
X136110131Y-80527385D01*
X136318519Y-80338414D01*
X136486037Y-80112420D01*
X136606246Y-79858087D01*
X136646904Y-79724039D01*
X136524915Y-79502000D01*
X135382000Y-79502000D01*
X135382000Y-79522000D01*
X135128000Y-79522000D01*
X135128000Y-79502000D01*
X133985085Y-79502000D01*
X133863096Y-79724039D01*
X133903754Y-79858087D01*
X134023963Y-80112420D01*
X134191481Y-80338414D01*
X134399869Y-80527385D01*
X134585865Y-80638933D01*
X134575273Y-80643320D01*
X134340241Y-80800363D01*
X134140363Y-81000241D01*
X133983320Y-81235273D01*
X133875147Y-81496426D01*
X133820000Y-81773665D01*
X133475000Y-81773665D01*
X133475000Y-74967333D01*
X133478677Y-74930000D01*
X133464003Y-74781014D01*
X133420546Y-74637753D01*
X133349974Y-74505724D01*
X133278799Y-74418997D01*
X133255001Y-74389999D01*
X133226002Y-74366200D01*
X132643803Y-73784002D01*
X132620001Y-73754999D01*
X132504276Y-73660026D01*
X132372247Y-73589454D01*
X132228986Y-73545997D01*
X132117333Y-73535000D01*
X132117322Y-73535000D01*
X132080000Y-73531324D01*
X132042678Y-73535000D01*
X131759802Y-73535000D01*
X131570000Y-73345199D01*
X131570000Y-72973043D01*
X131724759Y-72869637D01*
X131924637Y-72669759D01*
X132081680Y-72434727D01*
X132189853Y-72173574D01*
X132245000Y-71896335D01*
X132245000Y-71613665D01*
X132189853Y-71336426D01*
X132081680Y-71075273D01*
X131924637Y-70840241D01*
X131724759Y-70640363D01*
X131489727Y-70483320D01*
X131228574Y-70375147D01*
X130951335Y-70320000D01*
X130668665Y-70320000D01*
X130391426Y-70375147D01*
X130130273Y-70483320D01*
X129895241Y-70640363D01*
X129695363Y-70840241D01*
X129538320Y-71075273D01*
X129430147Y-71336426D01*
X129375000Y-71613665D01*
X128435000Y-71613665D01*
X128379853Y-71336426D01*
X128271680Y-71075273D01*
X128114637Y-70840241D01*
X127914759Y-70640363D01*
X127760000Y-70536957D01*
X127760000Y-64449801D01*
X127949802Y-64260000D01*
X132042678Y-64260000D01*
X132080000Y-64263676D01*
X132117322Y-64260000D01*
X132117333Y-64260000D01*
X132228986Y-64249003D01*
X132372247Y-64205546D01*
X132504276Y-64134974D01*
X132620001Y-64040001D01*
X132643803Y-64010998D01*
X133226002Y-63428800D01*
X133255001Y-63405001D01*
X133349974Y-63289276D01*
X133420546Y-63157247D01*
X133464003Y-63013986D01*
X133475000Y-62902333D01*
X133478677Y-62865000D01*
X133475000Y-62827667D01*
X133475000Y-62544801D01*
X133664802Y-62355000D01*
X133816928Y-62355000D01*
X133816928Y-62395000D01*
X133829188Y-62519482D01*
X133865498Y-62639180D01*
X133924463Y-62749494D01*
X134003815Y-62846185D01*
X134100506Y-62925537D01*
X134210820Y-62984502D01*
X134330518Y-63020812D01*
X134338961Y-63021643D01*
X134140363Y-63220241D01*
X134036957Y-63375000D01*
X134022322Y-63375000D01*
X133984999Y-63371324D01*
X133947676Y-63375000D01*
X133947667Y-63375000D01*
X133836014Y-63385997D01*
X133692753Y-63429454D01*
X133560724Y-63500026D01*
X133444999Y-63594999D01*
X133421201Y-63623997D01*
X132400199Y-64645000D01*
X129608711Y-64645000D01*
X129564774Y-64601063D01*
X129395256Y-64487795D01*
X129206898Y-64409774D01*
X129006939Y-64370000D01*
X128803061Y-64370000D01*
X128603102Y-64409774D01*
X128414744Y-64487795D01*
X128245226Y-64601063D01*
X128101063Y-64745226D01*
X127987795Y-64914744D01*
X127909774Y-65103102D01*
X127870000Y-65303061D01*
X127870000Y-65506939D01*
X127909774Y-65706898D01*
X127987795Y-65895256D01*
X128101063Y-66064774D01*
X128245226Y-66208937D01*
X128414744Y-66322205D01*
X128603102Y-66400226D01*
X128803061Y-66440000D01*
X129006939Y-66440000D01*
X129206898Y-66400226D01*
X129395256Y-66322205D01*
X129564774Y-66208937D01*
X129608711Y-66165000D01*
X132677678Y-66165000D01*
X132715000Y-66168676D01*
X132752322Y-66165000D01*
X132752333Y-66165000D01*
X132863986Y-66154003D01*
X133007247Y-66110546D01*
X133139276Y-66039974D01*
X133255001Y-65945001D01*
X133278804Y-65915997D01*
X134142703Y-65052099D01*
X134340241Y-65249637D01*
X134572759Y-65405000D01*
X134340241Y-65560363D01*
X134140363Y-65760241D01*
X134036957Y-65915000D01*
X134022322Y-65915000D01*
X133984999Y-65911324D01*
X133947676Y-65915000D01*
X133947667Y-65915000D01*
X133836014Y-65925997D01*
X133692753Y-65969454D01*
X133560724Y-66040026D01*
X133444999Y-66134999D01*
X133421201Y-66163997D01*
X132400199Y-67185000D01*
X129608711Y-67185000D01*
X129564774Y-67141063D01*
X129395256Y-67027795D01*
X129206898Y-66949774D01*
X129006939Y-66910000D01*
X128803061Y-66910000D01*
X128603102Y-66949774D01*
X128414744Y-67027795D01*
X128245226Y-67141063D01*
X128101063Y-67285226D01*
X127987795Y-67454744D01*
X127909774Y-67643102D01*
X127870000Y-67843061D01*
X127870000Y-68046939D01*
X127909774Y-68246898D01*
X127987795Y-68435256D01*
X128101063Y-68604774D01*
X128245226Y-68748937D01*
X128414744Y-68862205D01*
X128603102Y-68940226D01*
X128803061Y-68980000D01*
X129006939Y-68980000D01*
X129206898Y-68940226D01*
X129395256Y-68862205D01*
X129564774Y-68748937D01*
X129608711Y-68705000D01*
X132677678Y-68705000D01*
X132715000Y-68708676D01*
X132752322Y-68705000D01*
X132752333Y-68705000D01*
X132863986Y-68694003D01*
X133007247Y-68650546D01*
X133139276Y-68579974D01*
X133255001Y-68485001D01*
X133278804Y-68455997D01*
X134142703Y-67592099D01*
X134340241Y-67789637D01*
X134572759Y-67945000D01*
X134340241Y-68100363D01*
X134140363Y-68300241D01*
X133983320Y-68535273D01*
X133875147Y-68796426D01*
X133820000Y-69073665D01*
X133820000Y-69356335D01*
X133875147Y-69633574D01*
X133983320Y-69894727D01*
X134140363Y-70129759D01*
X134340241Y-70329637D01*
X134572759Y-70485000D01*
X134340241Y-70640363D01*
X134140363Y-70840241D01*
X133983320Y-71075273D01*
X133875147Y-71336426D01*
X133820000Y-71613665D01*
X133820000Y-71896335D01*
X133875147Y-72173574D01*
X133983320Y-72434727D01*
X134140363Y-72669759D01*
X134340241Y-72869637D01*
X134572759Y-73025000D01*
X134340241Y-73180363D01*
X134140363Y-73380241D01*
X133983320Y-73615273D01*
X133875147Y-73876426D01*
X133820000Y-74153665D01*
X133820000Y-74436335D01*
X133875147Y-74713574D01*
X133983320Y-74974727D01*
X134140363Y-75209759D01*
X134340241Y-75409637D01*
X134572759Y-75565000D01*
X134340241Y-75720363D01*
X134140363Y-75920241D01*
X133983320Y-76155273D01*
X133875147Y-76416426D01*
X133820000Y-76693665D01*
X133820000Y-76976335D01*
X133875147Y-77253574D01*
X133983320Y-77514727D01*
X134140363Y-77749759D01*
X134340241Y-77949637D01*
X134575273Y-78106680D01*
X134585865Y-78111067D01*
X134399869Y-78222615D01*
X134191481Y-78411586D01*
X134023963Y-78637580D01*
X133903754Y-78891913D01*
X133863096Y-79025961D01*
X133985085Y-79248000D01*
X135128000Y-79248000D01*
X135128000Y-79228000D01*
X135382000Y-79228000D01*
X135382000Y-79248000D01*
X136524915Y-79248000D01*
X136646904Y-79025961D01*
X136606246Y-78891913D01*
X136486037Y-78637580D01*
X136318519Y-78411586D01*
X136110131Y-78222615D01*
X135924135Y-78111067D01*
X135934727Y-78106680D01*
X136169759Y-77949637D01*
X136369637Y-77749759D01*
X136526680Y-77514727D01*
X136634853Y-77253574D01*
X136690000Y-76976335D01*
X136690000Y-76693665D01*
X136634853Y-76416426D01*
X136526680Y-76155273D01*
X136369637Y-75920241D01*
X136169759Y-75720363D01*
X135937241Y-75565000D01*
X136169759Y-75409637D01*
X136369637Y-75209759D01*
X136526680Y-74974727D01*
X136634853Y-74713574D01*
X136690000Y-74436335D01*
X136690000Y-74153665D01*
X136634853Y-73876426D01*
X136526680Y-73615273D01*
X136369637Y-73380241D01*
X136169759Y-73180363D01*
X135937241Y-73025000D01*
X136169759Y-72869637D01*
X136369637Y-72669759D01*
X136526680Y-72434727D01*
X136634853Y-72173574D01*
X136690000Y-71896335D01*
X136690000Y-71613665D01*
X136634853Y-71336426D01*
X136526680Y-71075273D01*
X136369637Y-70840241D01*
X136169759Y-70640363D01*
X135937241Y-70485000D01*
X136169759Y-70329637D01*
X136369637Y-70129759D01*
X136526680Y-69894727D01*
X136634853Y-69633574D01*
X136690000Y-69356335D01*
X136690000Y-69073665D01*
X136634853Y-68796426D01*
X136526680Y-68535273D01*
X136369637Y-68300241D01*
X136169759Y-68100363D01*
X135937241Y-67945000D01*
X136169759Y-67789637D01*
X136369637Y-67589759D01*
X136526680Y-67354727D01*
X136634853Y-67093574D01*
X136690000Y-66816335D01*
X136690000Y-66533665D01*
X136634853Y-66256426D01*
X136526680Y-65995273D01*
X136369637Y-65760241D01*
X136169759Y-65560363D01*
X135937241Y-65405000D01*
X136169759Y-65249637D01*
X136369637Y-65049759D01*
X136526680Y-64814727D01*
X136634853Y-64553574D01*
X136690000Y-64276335D01*
X136690000Y-63993665D01*
X136634853Y-63716426D01*
X136526680Y-63455273D01*
X136369637Y-63220241D01*
X136171039Y-63021643D01*
X136179482Y-63020812D01*
X136299180Y-62984502D01*
X136409494Y-62925537D01*
X136506185Y-62846185D01*
X136585537Y-62749494D01*
X136644502Y-62639180D01*
X136680812Y-62519482D01*
X136693072Y-62395000D01*
X136693072Y-61453665D01*
X141440000Y-61453665D01*
X141440000Y-61736335D01*
X141495147Y-62013574D01*
X141603320Y-62274727D01*
X141760363Y-62509759D01*
X141960241Y-62709637D01*
X142192759Y-62865000D01*
X141960241Y-63020363D01*
X141760363Y-63220241D01*
X141603320Y-63455273D01*
X141495147Y-63716426D01*
X141440000Y-63993665D01*
X141440000Y-64276335D01*
X141495147Y-64553574D01*
X141603320Y-64814727D01*
X141760363Y-65049759D01*
X141960241Y-65249637D01*
X142192759Y-65405000D01*
X141960241Y-65560363D01*
X141760363Y-65760241D01*
X141603320Y-65995273D01*
X141495147Y-66256426D01*
X141440000Y-66533665D01*
X141440000Y-66816335D01*
X141495147Y-67093574D01*
X141603320Y-67354727D01*
X141760363Y-67589759D01*
X141960241Y-67789637D01*
X142192759Y-67945000D01*
X141960241Y-68100363D01*
X141760363Y-68300241D01*
X141603320Y-68535273D01*
X141495147Y-68796426D01*
X141440000Y-69073665D01*
X141440000Y-69356335D01*
X141495147Y-69633574D01*
X141603320Y-69894727D01*
X141760363Y-70129759D01*
X141960241Y-70329637D01*
X142192759Y-70485000D01*
X141960241Y-70640363D01*
X141760363Y-70840241D01*
X141603320Y-71075273D01*
X141495147Y-71336426D01*
X141440000Y-71613665D01*
X141440000Y-71896335D01*
X141495147Y-72173574D01*
X141603320Y-72434727D01*
X141760363Y-72669759D01*
X141960241Y-72869637D01*
X142192759Y-73025000D01*
X141960241Y-73180363D01*
X141760363Y-73380241D01*
X141603320Y-73615273D01*
X141495147Y-73876426D01*
X141440000Y-74153665D01*
X141440000Y-74436335D01*
X141495147Y-74713574D01*
X141603320Y-74974727D01*
X141760363Y-75209759D01*
X141960241Y-75409637D01*
X142195273Y-75566680D01*
X142205865Y-75571067D01*
X142019869Y-75682615D01*
X141811481Y-75871586D01*
X141643963Y-76097580D01*
X141523754Y-76351913D01*
X141483096Y-76485961D01*
X141605085Y-76708000D01*
X142748000Y-76708000D01*
X142748000Y-76688000D01*
X143002000Y-76688000D01*
X143002000Y-76708000D01*
X144144915Y-76708000D01*
X144266904Y-76485961D01*
X144226246Y-76351913D01*
X144106037Y-76097580D01*
X143938519Y-75871586D01*
X143730131Y-75682615D01*
X143544135Y-75571067D01*
X143554727Y-75566680D01*
X143789759Y-75409637D01*
X143989637Y-75209759D01*
X144146680Y-74974727D01*
X144254853Y-74713574D01*
X144310000Y-74436335D01*
X144310000Y-74153665D01*
X144254853Y-73876426D01*
X144146680Y-73615273D01*
X143989637Y-73380241D01*
X143789759Y-73180363D01*
X143557241Y-73025000D01*
X143789759Y-72869637D01*
X143989637Y-72669759D01*
X144146680Y-72434727D01*
X144254853Y-72173574D01*
X144310000Y-71896335D01*
X144310000Y-71613665D01*
X144254853Y-71336426D01*
X144146680Y-71075273D01*
X143989637Y-70840241D01*
X143789759Y-70640363D01*
X143557241Y-70485000D01*
X143789759Y-70329637D01*
X143989637Y-70129759D01*
X144146680Y-69894727D01*
X144254853Y-69633574D01*
X144310000Y-69356335D01*
X144310000Y-69073665D01*
X144254853Y-68796426D01*
X144146680Y-68535273D01*
X143989637Y-68300241D01*
X143789759Y-68100363D01*
X143557241Y-67945000D01*
X143789759Y-67789637D01*
X143989637Y-67589759D01*
X144146680Y-67354727D01*
X144254853Y-67093574D01*
X144310000Y-66816335D01*
X144310000Y-66533665D01*
X144254853Y-66256426D01*
X144146680Y-65995273D01*
X143989637Y-65760241D01*
X143789759Y-65560363D01*
X143557241Y-65405000D01*
X143789759Y-65249637D01*
X143989637Y-65049759D01*
X144146680Y-64814727D01*
X144254853Y-64553574D01*
X144310000Y-64276335D01*
X144310000Y-63993665D01*
X144254853Y-63716426D01*
X144146680Y-63455273D01*
X143989637Y-63220241D01*
X143789759Y-63020363D01*
X143557241Y-62865000D01*
X143789759Y-62709637D01*
X143989637Y-62509759D01*
X144146680Y-62274727D01*
X144254853Y-62013574D01*
X144310000Y-61736335D01*
X144310000Y-61453665D01*
X144254853Y-61176426D01*
X144146680Y-60915273D01*
X143989637Y-60680241D01*
X143789759Y-60480363D01*
X143554727Y-60323320D01*
X143293574Y-60215147D01*
X143016335Y-60160000D01*
X142733665Y-60160000D01*
X142456426Y-60215147D01*
X142195273Y-60323320D01*
X141960241Y-60480363D01*
X141760363Y-60680241D01*
X141603320Y-60915273D01*
X141495147Y-61176426D01*
X141440000Y-61453665D01*
X136693072Y-61453665D01*
X136693072Y-60795000D01*
X136680812Y-60670518D01*
X136644502Y-60550820D01*
X136585537Y-60440506D01*
X136506185Y-60343815D01*
X136409494Y-60264463D01*
X136299180Y-60205498D01*
X136179482Y-60169188D01*
X136055000Y-60156928D01*
X134455000Y-60156928D01*
X134330518Y-60169188D01*
X134210820Y-60205498D01*
X134100506Y-60264463D01*
X134003815Y-60343815D01*
X133924463Y-60440506D01*
X133865498Y-60550820D01*
X133829188Y-60670518D01*
X133816928Y-60795000D01*
X133816928Y-60835000D01*
X133387333Y-60835000D01*
X133350000Y-60831323D01*
X133312667Y-60835000D01*
X133201014Y-60845997D01*
X133057753Y-60889454D01*
X132925724Y-60960026D01*
X132809999Y-61054999D01*
X132786200Y-61083998D01*
X132245000Y-61625199D01*
X132245000Y-61453665D01*
X132189853Y-61176426D01*
X132081680Y-60915273D01*
X131924637Y-60680241D01*
X131724759Y-60480363D01*
X131489727Y-60323320D01*
X131228574Y-60215147D01*
X130951335Y-60160000D01*
X130668665Y-60160000D01*
X130391426Y-60215147D01*
X130130273Y-60323320D01*
X129895241Y-60480363D01*
X129695363Y-60680241D01*
X129538320Y-60915273D01*
X129430147Y-61176426D01*
X129375000Y-61453665D01*
X129375000Y-61736335D01*
X129430147Y-62013574D01*
X129538320Y-62274727D01*
X129695363Y-62509759D01*
X129895241Y-62709637D01*
X129940683Y-62740000D01*
X127869317Y-62740000D01*
X127914759Y-62709637D01*
X128114637Y-62509759D01*
X128271680Y-62274727D01*
X128379853Y-62013574D01*
X128435000Y-61736335D01*
X128435000Y-61453665D01*
X128379853Y-61176426D01*
X128271680Y-60915273D01*
X128114637Y-60680241D01*
X127914759Y-60480363D01*
X127679727Y-60323320D01*
X127418574Y-60215147D01*
X127141335Y-60160000D01*
X126858665Y-60160000D01*
X126581426Y-60215147D01*
X126320273Y-60323320D01*
X126085241Y-60480363D01*
X125885363Y-60680241D01*
X125728320Y-60915273D01*
X125620147Y-61176426D01*
X125565000Y-61453665D01*
X123405000Y-61453665D01*
X123405000Y-60094802D01*
X123504802Y-59995000D01*
X126782678Y-59995000D01*
X126820000Y-59998676D01*
X126857322Y-59995000D01*
X126857333Y-59995000D01*
X126968986Y-59984003D01*
X127112247Y-59940546D01*
X127244276Y-59869974D01*
X127360001Y-59775001D01*
X127383803Y-59745998D01*
X128186004Y-58943798D01*
X128215001Y-58920001D01*
X128309974Y-58804276D01*
X128380546Y-58672247D01*
X128424003Y-58528986D01*
X128435000Y-58417333D01*
X128435000Y-58417332D01*
X128438677Y-58380000D01*
X128435000Y-58342667D01*
X128435000Y-49662594D01*
X128504013Y-49625706D01*
X128724945Y-49444392D01*
X128735498Y-49479180D01*
X128794463Y-49589494D01*
X128873815Y-49686185D01*
X128970506Y-49765537D01*
X129080820Y-49824502D01*
X129200518Y-49860812D01*
X129325000Y-49873072D01*
X129889250Y-49870000D01*
X130048000Y-49711250D01*
X130048000Y-48387000D01*
X130302000Y-48387000D01*
X130302000Y-49711250D01*
X130460750Y-49870000D01*
X131025000Y-49873072D01*
X131149482Y-49860812D01*
X131269180Y-49824502D01*
X131379494Y-49765537D01*
X131476185Y-49686185D01*
X131555537Y-49589494D01*
X131614502Y-49479180D01*
X131650812Y-49359482D01*
X131663072Y-49235000D01*
X131660000Y-48545750D01*
X131501250Y-48387000D01*
X130302000Y-48387000D01*
X130048000Y-48387000D01*
X130028000Y-48387000D01*
X130028000Y-48133000D01*
X130048000Y-48133000D01*
X130048000Y-46808750D01*
X130302000Y-46808750D01*
X130302000Y-48133000D01*
X131501250Y-48133000D01*
X131572200Y-48062050D01*
X137025000Y-48062050D01*
X137025000Y-48457949D01*
X137046487Y-48676110D01*
X137131401Y-48956033D01*
X137269294Y-49214013D01*
X137454866Y-49440134D01*
X137680986Y-49625706D01*
X137938966Y-49763599D01*
X138218889Y-49848513D01*
X138510000Y-49877185D01*
X138801110Y-49848513D01*
X139081033Y-49763599D01*
X139339013Y-49625706D01*
X139565134Y-49440134D01*
X139750706Y-49214014D01*
X139760000Y-49196626D01*
X139769294Y-49214013D01*
X139954866Y-49440134D01*
X140180986Y-49625706D01*
X140438966Y-49763599D01*
X140718889Y-49848513D01*
X141010000Y-49877185D01*
X141301110Y-49848513D01*
X141581033Y-49763599D01*
X141839013Y-49625706D01*
X142059945Y-49444392D01*
X142070498Y-49479180D01*
X142129463Y-49589494D01*
X142208815Y-49686185D01*
X142305506Y-49765537D01*
X142415820Y-49824502D01*
X142535518Y-49860812D01*
X142660000Y-49873072D01*
X143224250Y-49870000D01*
X143383000Y-49711250D01*
X143383000Y-48387000D01*
X143637000Y-48387000D01*
X143637000Y-49711250D01*
X143795750Y-49870000D01*
X144360000Y-49873072D01*
X144484482Y-49860812D01*
X144604180Y-49824502D01*
X144714494Y-49765537D01*
X144811185Y-49686185D01*
X144890537Y-49589494D01*
X144949502Y-49479180D01*
X144985812Y-49359482D01*
X144998072Y-49235000D01*
X144995000Y-48545750D01*
X144836250Y-48387000D01*
X143637000Y-48387000D01*
X143383000Y-48387000D01*
X143363000Y-48387000D01*
X143363000Y-48133000D01*
X143383000Y-48133000D01*
X143383000Y-46808750D01*
X143637000Y-46808750D01*
X143637000Y-48133000D01*
X144836250Y-48133000D01*
X144995000Y-47974250D01*
X144998072Y-47285000D01*
X144985812Y-47160518D01*
X144949502Y-47040820D01*
X144890537Y-46930506D01*
X144811185Y-46833815D01*
X144714494Y-46754463D01*
X144604180Y-46695498D01*
X144484482Y-46659188D01*
X144360000Y-46646928D01*
X143795750Y-46650000D01*
X143637000Y-46808750D01*
X143383000Y-46808750D01*
X143224250Y-46650000D01*
X142660000Y-46646928D01*
X142535518Y-46659188D01*
X142415820Y-46695498D01*
X142305506Y-46754463D01*
X142208815Y-46833815D01*
X142129463Y-46930506D01*
X142070498Y-47040820D01*
X142059945Y-47075608D01*
X141839014Y-46894294D01*
X141581034Y-46756401D01*
X141301111Y-46671487D01*
X141010000Y-46642815D01*
X140718890Y-46671487D01*
X140438967Y-46756401D01*
X140180987Y-46894294D01*
X139954866Y-47079866D01*
X139769294Y-47305986D01*
X139760000Y-47323374D01*
X139750706Y-47305986D01*
X139565134Y-47079866D01*
X139339014Y-46894294D01*
X139081034Y-46756401D01*
X138801111Y-46671487D01*
X138510000Y-46642815D01*
X138218890Y-46671487D01*
X137938967Y-46756401D01*
X137680987Y-46894294D01*
X137454866Y-47079866D01*
X137269294Y-47305986D01*
X137131401Y-47563966D01*
X137046487Y-47843889D01*
X137025000Y-48062050D01*
X131572200Y-48062050D01*
X131660000Y-47974250D01*
X131663072Y-47285000D01*
X131650812Y-47160518D01*
X131614502Y-47040820D01*
X131555537Y-46930506D01*
X131476185Y-46833815D01*
X131379494Y-46754463D01*
X131269180Y-46695498D01*
X131149482Y-46659188D01*
X131025000Y-46646928D01*
X130460750Y-46650000D01*
X130302000Y-46808750D01*
X130048000Y-46808750D01*
X129889250Y-46650000D01*
X129325000Y-46646928D01*
X129200518Y-46659188D01*
X129080820Y-46695498D01*
X128970506Y-46754463D01*
X128873815Y-46833815D01*
X128794463Y-46930506D01*
X128735498Y-47040820D01*
X128724945Y-47075608D01*
X128504014Y-46894294D01*
X128246034Y-46756401D01*
X127966111Y-46671487D01*
X127675000Y-46642815D01*
X127383890Y-46671487D01*
X127103967Y-46756401D01*
X126845987Y-46894294D01*
X126619866Y-47079866D01*
X126434294Y-47305986D01*
X126425000Y-47323374D01*
X126415706Y-47305986D01*
X126230134Y-47079866D01*
X126004014Y-46894294D01*
X125746034Y-46756401D01*
X125466111Y-46671487D01*
X125175000Y-46642815D01*
X124883890Y-46671487D01*
X124603967Y-46756401D01*
X124345987Y-46894294D01*
X124119866Y-47079866D01*
X123934294Y-47305986D01*
X123796401Y-47563966D01*
X123711487Y-47843889D01*
X123690000Y-48062050D01*
X123690000Y-48457949D01*
X123711487Y-48676110D01*
X123796401Y-48956033D01*
X123934294Y-49214013D01*
X124119866Y-49440134D01*
X124345986Y-49625706D01*
X124415001Y-49662595D01*
X124415000Y-53937667D01*
X124415000Y-53937668D01*
X124415001Y-57390197D01*
X124145199Y-57660000D01*
X122592323Y-57660000D01*
X122555000Y-57656324D01*
X122517677Y-57660000D01*
X122517667Y-57660000D01*
X122406014Y-57670997D01*
X122262753Y-57714454D01*
X122130724Y-57785026D01*
X122014999Y-57879999D01*
X121991201Y-57908997D01*
X120139003Y-59761196D01*
X120109999Y-59784999D01*
X120065694Y-59838985D01*
X120015026Y-59900724D01*
X119999920Y-59928985D01*
X119944454Y-60032754D01*
X119900997Y-60176015D01*
X119890000Y-60287668D01*
X119890000Y-60287678D01*
X119886324Y-60325000D01*
X119890000Y-60362322D01*
X119890000Y-64500988D01*
X119870256Y-64487795D01*
X119681898Y-64409774D01*
X119481939Y-64370000D01*
X119278061Y-64370000D01*
X119078102Y-64409774D01*
X118889744Y-64487795D01*
X118720226Y-64601063D01*
X118676289Y-64645000D01*
X113067333Y-64645000D01*
X113030000Y-64641323D01*
X112992667Y-64645000D01*
X112881014Y-64655997D01*
X112737753Y-64699454D01*
X112605724Y-64770026D01*
X112520000Y-64840378D01*
X112520000Y-60004801D01*
X112958799Y-59566003D01*
X112958803Y-59565998D01*
X113344802Y-59180000D01*
X118676289Y-59180000D01*
X118720226Y-59223937D01*
X118889744Y-59337205D01*
X119078102Y-59415226D01*
X119278061Y-59455000D01*
X119481939Y-59455000D01*
X119681898Y-59415226D01*
X119870256Y-59337205D01*
X120039774Y-59223937D01*
X120183937Y-59079774D01*
X120297205Y-58910256D01*
X120375226Y-58721898D01*
X120415000Y-58521939D01*
X120415000Y-58318061D01*
X120375226Y-58118102D01*
X120297205Y-57929744D01*
X120200490Y-57785000D01*
X120297205Y-57640256D01*
X120375226Y-57451898D01*
X120415000Y-57251939D01*
X120415000Y-57048061D01*
X120375226Y-56848102D01*
X120297205Y-56659744D01*
X120183937Y-56490226D01*
X120039774Y-56346063D01*
X119870256Y-56232795D01*
X119681898Y-56154774D01*
X119481939Y-56115000D01*
X119278061Y-56115000D01*
X119078102Y-56154774D01*
X118889744Y-56232795D01*
X118720226Y-56346063D01*
X118676289Y-56390000D01*
X112432322Y-56390000D01*
X112394999Y-56386324D01*
X112357676Y-56390000D01*
X112357667Y-56390000D01*
X112246014Y-56400997D01*
X112102753Y-56444454D01*
X111970724Y-56515026D01*
X111854999Y-56609999D01*
X111831201Y-56638997D01*
X110613998Y-57856201D01*
X110585000Y-57879999D01*
X110561202Y-57908997D01*
X110561201Y-57908998D01*
X110490026Y-57995724D01*
X110444037Y-58081764D01*
X110419454Y-58127753D01*
X110375997Y-58271014D01*
X110365000Y-58382667D01*
X110365000Y-58382678D01*
X110361324Y-58420000D01*
X110365000Y-58457322D01*
X110365000Y-59092332D01*
X110365001Y-59092342D01*
X110365000Y-86957678D01*
X110361324Y-86995000D01*
X110365000Y-87032322D01*
X110365000Y-87032332D01*
X110375997Y-87143985D01*
X110415666Y-87274759D01*
X110419454Y-87287246D01*
X110490026Y-87419276D01*
X110527551Y-87465000D01*
X110584999Y-87535001D01*
X110614003Y-87558804D01*
X111239081Y-88183882D01*
X111054488Y-88174783D01*
X110774870Y-88216213D01*
X110508708Y-88311397D01*
X110383486Y-88378329D01*
X110311903Y-88622298D01*
X107452875Y-88622298D01*
X107424853Y-88481426D01*
X107316680Y-88220273D01*
X107159637Y-87985241D01*
X106959759Y-87785363D01*
X106727241Y-87630000D01*
X106959759Y-87474637D01*
X107159637Y-87274759D01*
X107316680Y-87039727D01*
X107424853Y-86778574D01*
X107480000Y-86501335D01*
X107480000Y-86218665D01*
X107424853Y-85941426D01*
X107316680Y-85680273D01*
X107159637Y-85445241D01*
X106959759Y-85245363D01*
X106724727Y-85088320D01*
X106714135Y-85083933D01*
X106900131Y-84972385D01*
X107108519Y-84783414D01*
X107276037Y-84557420D01*
X107396246Y-84303087D01*
X107436904Y-84169039D01*
X107314915Y-83947000D01*
X106172000Y-83947000D01*
X106172000Y-83967000D01*
X105918000Y-83967000D01*
X105918000Y-83947000D01*
X104775085Y-83947000D01*
X104653096Y-84169039D01*
X104693754Y-84303087D01*
X104813963Y-84557420D01*
X104981481Y-84783414D01*
X105189869Y-84972385D01*
X105375865Y-85083933D01*
X105365273Y-85088320D01*
X105130241Y-85245363D01*
X104930363Y-85445241D01*
X104773320Y-85680273D01*
X104665147Y-85941426D01*
X104610000Y-86218665D01*
X104610000Y-86501335D01*
X104665147Y-86778574D01*
X104773320Y-87039727D01*
X104930363Y-87274759D01*
X105130241Y-87474637D01*
X105362759Y-87630000D01*
X105130241Y-87785363D01*
X104930363Y-87985241D01*
X104773320Y-88220273D01*
X104665147Y-88481426D01*
X104610000Y-88758665D01*
X104610000Y-89041335D01*
X104665147Y-89318574D01*
X104773320Y-89579727D01*
X104930363Y-89814759D01*
X105128961Y-90013357D01*
X105120518Y-90014188D01*
X105000820Y-90050498D01*
X104890506Y-90109463D01*
X104793815Y-90188815D01*
X104714463Y-90285506D01*
X104655498Y-90395820D01*
X104619188Y-90515518D01*
X104606928Y-90640000D01*
X99185000Y-90640000D01*
X99185000Y-64449801D01*
X99374802Y-64260000D01*
X104826957Y-64260000D01*
X104930363Y-64414759D01*
X105130241Y-64614637D01*
X105362759Y-64770000D01*
X105130241Y-64925363D01*
X104930363Y-65125241D01*
X104773320Y-65360273D01*
X104665147Y-65621426D01*
X104610000Y-65898665D01*
X104610000Y-66181335D01*
X104665147Y-66458574D01*
X104773320Y-66719727D01*
X104930363Y-66954759D01*
X105130241Y-67154637D01*
X105362759Y-67310000D01*
X105130241Y-67465363D01*
X104930363Y-67665241D01*
X104773320Y-67900273D01*
X104665147Y-68161426D01*
X104610000Y-68438665D01*
X104610000Y-68721335D01*
X104665147Y-68998574D01*
X104773320Y-69259727D01*
X104930363Y-69494759D01*
X105130241Y-69694637D01*
X105362759Y-69850000D01*
X105130241Y-70005363D01*
X104930363Y-70205241D01*
X104773320Y-70440273D01*
X104665147Y-70701426D01*
X104610000Y-70978665D01*
X104610000Y-71261335D01*
X104665147Y-71538574D01*
X104773320Y-71799727D01*
X104930363Y-72034759D01*
X105130241Y-72234637D01*
X105362759Y-72390000D01*
X105130241Y-72545363D01*
X104930363Y-72745241D01*
X104773320Y-72980273D01*
X104665147Y-73241426D01*
X104610000Y-73518665D01*
X104610000Y-73801335D01*
X104665147Y-74078574D01*
X104773320Y-74339727D01*
X104930363Y-74574759D01*
X105130241Y-74774637D01*
X105362759Y-74930000D01*
X105130241Y-75085363D01*
X104930363Y-75285241D01*
X104773320Y-75520273D01*
X104665147Y-75781426D01*
X104610000Y-76058665D01*
X104610000Y-76341335D01*
X104665147Y-76618574D01*
X104773320Y-76879727D01*
X104930363Y-77114759D01*
X105130241Y-77314637D01*
X105362759Y-77470000D01*
X105130241Y-77625363D01*
X104930363Y-77825241D01*
X104773320Y-78060273D01*
X104665147Y-78321426D01*
X104610000Y-78598665D01*
X104610000Y-78881335D01*
X104665147Y-79158574D01*
X104773320Y-79419727D01*
X104930363Y-79654759D01*
X105130241Y-79854637D01*
X105362759Y-80010000D01*
X105130241Y-80165363D01*
X104930363Y-80365241D01*
X104773320Y-80600273D01*
X104665147Y-80861426D01*
X104610000Y-81138665D01*
X104610000Y-81421335D01*
X104665147Y-81698574D01*
X104773320Y-81959727D01*
X104930363Y-82194759D01*
X105130241Y-82394637D01*
X105365273Y-82551680D01*
X105375865Y-82556067D01*
X105189869Y-82667615D01*
X104981481Y-82856586D01*
X104813963Y-83082580D01*
X104693754Y-83336913D01*
X104653096Y-83470961D01*
X104775085Y-83693000D01*
X105918000Y-83693000D01*
X105918000Y-83673000D01*
X106172000Y-83673000D01*
X106172000Y-83693000D01*
X107314915Y-83693000D01*
X107436904Y-83470961D01*
X107396246Y-83336913D01*
X107276037Y-83082580D01*
X107108519Y-82856586D01*
X106900131Y-82667615D01*
X106714135Y-82556067D01*
X106724727Y-82551680D01*
X106959759Y-82394637D01*
X107159637Y-82194759D01*
X107316680Y-81959727D01*
X107424853Y-81698574D01*
X107480000Y-81421335D01*
X107480000Y-81138665D01*
X107424853Y-80861426D01*
X107316680Y-80600273D01*
X107159637Y-80365241D01*
X106959759Y-80165363D01*
X106727241Y-80010000D01*
X106959759Y-79854637D01*
X107159637Y-79654759D01*
X107316680Y-79419727D01*
X107424853Y-79158574D01*
X107480000Y-78881335D01*
X107480000Y-78598665D01*
X107424853Y-78321426D01*
X107316680Y-78060273D01*
X107159637Y-77825241D01*
X106959759Y-77625363D01*
X106727241Y-77470000D01*
X106959759Y-77314637D01*
X107159637Y-77114759D01*
X107316680Y-76879727D01*
X107424853Y-76618574D01*
X107480000Y-76341335D01*
X107480000Y-76058665D01*
X107424853Y-75781426D01*
X107316680Y-75520273D01*
X107159637Y-75285241D01*
X106959759Y-75085363D01*
X106727241Y-74930000D01*
X106959759Y-74774637D01*
X107159637Y-74574759D01*
X107316680Y-74339727D01*
X107424853Y-74078574D01*
X107480000Y-73801335D01*
X107480000Y-73518665D01*
X107424853Y-73241426D01*
X107316680Y-72980273D01*
X107159637Y-72745241D01*
X106959759Y-72545363D01*
X106727241Y-72390000D01*
X106959759Y-72234637D01*
X107159637Y-72034759D01*
X107316680Y-71799727D01*
X107424853Y-71538574D01*
X107480000Y-71261335D01*
X107480000Y-70978665D01*
X107424853Y-70701426D01*
X107316680Y-70440273D01*
X107159637Y-70205241D01*
X106959759Y-70005363D01*
X106727241Y-69850000D01*
X106959759Y-69694637D01*
X107159637Y-69494759D01*
X107316680Y-69259727D01*
X107424853Y-68998574D01*
X107480000Y-68721335D01*
X107480000Y-68438665D01*
X107424853Y-68161426D01*
X107316680Y-67900273D01*
X107159637Y-67665241D01*
X106959759Y-67465363D01*
X106727241Y-67310000D01*
X106959759Y-67154637D01*
X107159637Y-66954759D01*
X107316680Y-66719727D01*
X107424853Y-66458574D01*
X107480000Y-66181335D01*
X107480000Y-65898665D01*
X107424853Y-65621426D01*
X107316680Y-65360273D01*
X107159637Y-65125241D01*
X106959759Y-64925363D01*
X106727241Y-64770000D01*
X106959759Y-64614637D01*
X107159637Y-64414759D01*
X107316680Y-64179727D01*
X107424853Y-63918574D01*
X107480000Y-63641335D01*
X107480000Y-63358665D01*
X107424853Y-63081426D01*
X107316680Y-62820273D01*
X107159637Y-62585241D01*
X106959759Y-62385363D01*
X106727241Y-62230000D01*
X106959759Y-62074637D01*
X107159637Y-61874759D01*
X107316680Y-61639727D01*
X107424853Y-61378574D01*
X107480000Y-61101335D01*
X107480000Y-60818665D01*
X107424853Y-60541426D01*
X107316680Y-60280273D01*
X107159637Y-60045241D01*
X106959759Y-59845363D01*
X106727241Y-59690000D01*
X106959759Y-59534637D01*
X107159637Y-59334759D01*
X107316680Y-59099727D01*
X107424853Y-58838574D01*
X107480000Y-58561335D01*
X107480000Y-58278665D01*
X107424853Y-58001426D01*
X107316680Y-57740273D01*
X107159637Y-57505241D01*
X106959759Y-57305363D01*
X106727241Y-57150000D01*
X106959759Y-56994637D01*
X107159637Y-56794759D01*
X107316680Y-56559727D01*
X107424853Y-56298574D01*
X107480000Y-56021335D01*
X107480000Y-55738665D01*
X107424853Y-55461426D01*
X107316680Y-55200273D01*
X107159637Y-54965241D01*
X106959759Y-54765363D01*
X106724727Y-54608320D01*
X106463574Y-54500147D01*
X106186335Y-54445000D01*
X105903665Y-54445000D01*
X105626426Y-54500147D01*
X105365273Y-54608320D01*
X105130241Y-54765363D01*
X104930363Y-54965241D01*
X104773320Y-55200273D01*
X104665147Y-55461426D01*
X104610000Y-55738665D01*
X104610000Y-56021335D01*
X104665147Y-56298574D01*
X104773320Y-56559727D01*
X104930363Y-56794759D01*
X105130241Y-56994637D01*
X105362759Y-57150000D01*
X105130241Y-57305363D01*
X104930363Y-57505241D01*
X104773320Y-57740273D01*
X104665147Y-58001426D01*
X104610000Y-58278665D01*
X104610000Y-58561335D01*
X104665147Y-58838574D01*
X104773320Y-59099727D01*
X104930363Y-59334759D01*
X105130241Y-59534637D01*
X105362759Y-59690000D01*
X105130241Y-59845363D01*
X104930363Y-60045241D01*
X104773320Y-60280273D01*
X104665147Y-60541426D01*
X104610000Y-60818665D01*
X104610000Y-61101335D01*
X104665147Y-61378574D01*
X104773320Y-61639727D01*
X104930363Y-61874759D01*
X105130241Y-62074637D01*
X105362759Y-62230000D01*
X105130241Y-62385363D01*
X104930363Y-62585241D01*
X104826957Y-62740000D01*
X99097333Y-62740000D01*
X99060000Y-62736323D01*
X99022667Y-62740000D01*
X98911014Y-62750997D01*
X98767753Y-62794454D01*
X98635724Y-62865026D01*
X98519999Y-62959999D01*
X98496200Y-62988998D01*
X97914002Y-63571197D01*
X97884999Y-63594999D01*
X97829871Y-63662174D01*
X97790026Y-63710724D01*
X97746451Y-63792246D01*
X97719454Y-63842754D01*
X97675997Y-63986015D01*
X97665000Y-64097668D01*
X97665000Y-64097678D01*
X97661324Y-64135000D01*
X97665000Y-64172322D01*
X97665001Y-94935197D01*
X96840199Y-95760000D01*
X87944802Y-95760000D01*
X87755000Y-95570199D01*
X87755000Y-92112322D01*
X87758676Y-92074999D01*
X87755000Y-92037676D01*
X87755000Y-92037667D01*
X87744003Y-91926014D01*
X87700546Y-91782753D01*
X87629974Y-91650724D01*
X87535001Y-91534999D01*
X87506002Y-91511201D01*
X87293466Y-91298665D01*
X89370000Y-91298665D01*
X89370000Y-91581335D01*
X89425147Y-91858574D01*
X89533320Y-92119727D01*
X89690363Y-92354759D01*
X89890241Y-92554637D01*
X90125273Y-92711680D01*
X90386426Y-92819853D01*
X90663665Y-92875000D01*
X90946335Y-92875000D01*
X91223574Y-92819853D01*
X91484727Y-92711680D01*
X91719759Y-92554637D01*
X91919637Y-92354759D01*
X92076680Y-92119727D01*
X92184853Y-91858574D01*
X92240000Y-91581335D01*
X92240000Y-91298665D01*
X92184853Y-91021426D01*
X92076680Y-90760273D01*
X91919637Y-90525241D01*
X91719759Y-90325363D01*
X91484727Y-90168320D01*
X91474135Y-90163933D01*
X91660131Y-90052385D01*
X91868519Y-89863414D01*
X92036037Y-89637420D01*
X92156246Y-89383087D01*
X92196904Y-89249039D01*
X92074915Y-89027000D01*
X90932000Y-89027000D01*
X90932000Y-89047000D01*
X90678000Y-89047000D01*
X90678000Y-89027000D01*
X89535085Y-89027000D01*
X89413096Y-89249039D01*
X89453754Y-89383087D01*
X89573963Y-89637420D01*
X89741481Y-89863414D01*
X89949869Y-90052385D01*
X90135865Y-90163933D01*
X90125273Y-90168320D01*
X89890241Y-90325363D01*
X89690363Y-90525241D01*
X89533320Y-90760273D01*
X89425147Y-91021426D01*
X89370000Y-91298665D01*
X87293466Y-91298665D01*
X86868803Y-90874002D01*
X86845001Y-90844999D01*
X86729276Y-90750026D01*
X86597247Y-90679454D01*
X86453986Y-90635997D01*
X86342333Y-90625000D01*
X86342322Y-90625000D01*
X86305000Y-90621324D01*
X86267678Y-90625000D01*
X85098178Y-90625000D01*
X84973475Y-90438368D01*
X84766632Y-90231525D01*
X84523411Y-90069010D01*
X84253158Y-89957068D01*
X83966260Y-89900000D01*
X83673740Y-89900000D01*
X83386842Y-89957068D01*
X83116589Y-90069010D01*
X82873368Y-90231525D01*
X82666525Y-90438368D01*
X82504010Y-90681589D01*
X82392068Y-90951842D01*
X82335000Y-91238740D01*
X78799331Y-91238740D01*
X78768599Y-91026981D01*
X78670919Y-90751253D01*
X78597472Y-90613843D01*
X78348397Y-90536208D01*
X77499605Y-91385000D01*
X77140395Y-91385000D01*
X76291603Y-90536208D01*
X76042528Y-90613843D01*
X75916629Y-90877883D01*
X75844661Y-91161411D01*
X75829389Y-91453531D01*
X64897000Y-91453531D01*
X64897000Y-90356603D01*
X76471208Y-90356603D01*
X77320000Y-91205395D01*
X78168792Y-90356603D01*
X78091157Y-90107528D01*
X77827117Y-89981629D01*
X77543589Y-89909661D01*
X77251469Y-89894389D01*
X76961981Y-89936401D01*
X76686253Y-90034081D01*
X76548843Y-90107528D01*
X76471208Y-90356603D01*
X64897000Y-90356603D01*
X64897000Y-76465000D01*
X72756928Y-76465000D01*
X72769188Y-76589482D01*
X72805498Y-76709180D01*
X72864463Y-76819494D01*
X72943815Y-76916185D01*
X73040506Y-76995537D01*
X73150820Y-77054502D01*
X73270518Y-77090812D01*
X73395000Y-77103072D01*
X74009250Y-77100000D01*
X74168000Y-76941250D01*
X74168000Y-75692000D01*
X74422000Y-75692000D01*
X74422000Y-76941250D01*
X74580750Y-77100000D01*
X75195000Y-77103072D01*
X75319482Y-77090812D01*
X75439180Y-77054502D01*
X75549494Y-76995537D01*
X75646185Y-76916185D01*
X75725537Y-76819494D01*
X75784502Y-76709180D01*
X75820812Y-76589482D01*
X75833072Y-76465000D01*
X75830000Y-75850750D01*
X75671250Y-75692000D01*
X74422000Y-75692000D01*
X74168000Y-75692000D01*
X72918750Y-75692000D01*
X72760000Y-75850750D01*
X72756928Y-76465000D01*
X64897000Y-76465000D01*
X64897000Y-74665000D01*
X72756928Y-74665000D01*
X72760000Y-75279250D01*
X72918750Y-75438000D01*
X74168000Y-75438000D01*
X74168000Y-75418000D01*
X74422000Y-75418000D01*
X74422000Y-75438000D01*
X75671250Y-75438000D01*
X75830000Y-75279250D01*
X75833072Y-74665000D01*
X75820812Y-74540518D01*
X75784502Y-74420820D01*
X75725537Y-74310506D01*
X75646185Y-74213815D01*
X75549494Y-74134463D01*
X75439180Y-74075498D01*
X75420873Y-74069944D01*
X75487312Y-74003505D01*
X75655299Y-73752095D01*
X75771011Y-73472743D01*
X75830000Y-73176184D01*
X75830000Y-72873816D01*
X75771011Y-72577257D01*
X75655299Y-72297905D01*
X75487312Y-72046495D01*
X75273505Y-71832688D01*
X75022095Y-71664701D01*
X74742743Y-71548989D01*
X74446184Y-71490000D01*
X74143816Y-71490000D01*
X73847257Y-71548989D01*
X73567905Y-71664701D01*
X73316495Y-71832688D01*
X73102688Y-72046495D01*
X72934701Y-72297905D01*
X72818989Y-72577257D01*
X72760000Y-72873816D01*
X72760000Y-73176184D01*
X72818989Y-73472743D01*
X72934701Y-73752095D01*
X73102688Y-74003505D01*
X73169127Y-74069944D01*
X73150820Y-74075498D01*
X73040506Y-74134463D01*
X72943815Y-74213815D01*
X72864463Y-74310506D01*
X72805498Y-74420820D01*
X72769188Y-74540518D01*
X72756928Y-74665000D01*
X64897000Y-74665000D01*
X64897000Y-67168665D01*
X76035000Y-67168665D01*
X76035000Y-67451335D01*
X76090147Y-67728574D01*
X76198320Y-67989727D01*
X76355363Y-68224759D01*
X76555241Y-68424637D01*
X76790273Y-68581680D01*
X77051426Y-68689853D01*
X77328665Y-68745000D01*
X77611335Y-68745000D01*
X77888574Y-68689853D01*
X78149727Y-68581680D01*
X78384759Y-68424637D01*
X78584637Y-68224759D01*
X78741680Y-67989727D01*
X78849853Y-67728574D01*
X78905000Y-67451335D01*
X78905000Y-67168665D01*
X86195000Y-67168665D01*
X86195000Y-67451335D01*
X86250147Y-67728574D01*
X86358320Y-67989727D01*
X86515363Y-68224759D01*
X86715241Y-68424637D01*
X86950273Y-68581680D01*
X87211426Y-68689853D01*
X87488665Y-68745000D01*
X87771335Y-68745000D01*
X88048574Y-68689853D01*
X88309727Y-68581680D01*
X88544759Y-68424637D01*
X88744637Y-68224759D01*
X88901680Y-67989727D01*
X89009853Y-67728574D01*
X89065000Y-67451335D01*
X89065000Y-67168665D01*
X89009853Y-66891426D01*
X88901680Y-66630273D01*
X88744637Y-66395241D01*
X88544759Y-66195363D01*
X88309727Y-66038320D01*
X88048574Y-65930147D01*
X87771335Y-65875000D01*
X87488665Y-65875000D01*
X87211426Y-65930147D01*
X86950273Y-66038320D01*
X86715241Y-66195363D01*
X86515363Y-66395241D01*
X86358320Y-66630273D01*
X86250147Y-66891426D01*
X86195000Y-67168665D01*
X78905000Y-67168665D01*
X78849853Y-66891426D01*
X78741680Y-66630273D01*
X78584637Y-66395241D01*
X78384759Y-66195363D01*
X78149727Y-66038320D01*
X77888574Y-65930147D01*
X77611335Y-65875000D01*
X77328665Y-65875000D01*
X77051426Y-65930147D01*
X76790273Y-66038320D01*
X76555241Y-66195363D01*
X76355363Y-66395241D01*
X76198320Y-66630273D01*
X76090147Y-66891426D01*
X76035000Y-67168665D01*
X64897000Y-67168665D01*
X64897000Y-53910000D01*
X73556928Y-53910000D01*
X73556928Y-55660000D01*
X73586001Y-55955186D01*
X73672104Y-56239028D01*
X73811927Y-56500618D01*
X74000097Y-56729903D01*
X74229382Y-56918073D01*
X74490972Y-57057896D01*
X74774814Y-57143999D01*
X75070000Y-57173072D01*
X76820000Y-57173072D01*
X77115186Y-57143999D01*
X77399028Y-57057896D01*
X77660618Y-56918073D01*
X77889903Y-56729903D01*
X78006928Y-56587308D01*
X78006928Y-59535000D01*
X78019188Y-59659482D01*
X78055498Y-59779180D01*
X78114463Y-59889494D01*
X78193815Y-59986185D01*
X78290506Y-60065537D01*
X78400820Y-60124502D01*
X78520518Y-60160812D01*
X78645000Y-60173072D01*
X82645000Y-60173072D01*
X82769482Y-60160812D01*
X82889180Y-60124502D01*
X82999494Y-60065537D01*
X83096185Y-59986185D01*
X83175537Y-59889494D01*
X83234502Y-59779180D01*
X83270812Y-59659482D01*
X83283072Y-59535000D01*
X83283072Y-56035000D01*
X83270812Y-55910518D01*
X83234502Y-55790820D01*
X83206625Y-55738665D01*
X89370000Y-55738665D01*
X89370000Y-56021335D01*
X89425147Y-56298574D01*
X89533320Y-56559727D01*
X89690363Y-56794759D01*
X89890241Y-56994637D01*
X90122759Y-57150000D01*
X89890241Y-57305363D01*
X89690363Y-57505241D01*
X89533320Y-57740273D01*
X89425147Y-58001426D01*
X89370000Y-58278665D01*
X89370000Y-58561335D01*
X89425147Y-58838574D01*
X89533320Y-59099727D01*
X89690363Y-59334759D01*
X89890241Y-59534637D01*
X90122759Y-59690000D01*
X89890241Y-59845363D01*
X89690363Y-60045241D01*
X89533320Y-60280273D01*
X89425147Y-60541426D01*
X89370000Y-60818665D01*
X89370000Y-61101335D01*
X89425147Y-61378574D01*
X89533320Y-61639727D01*
X89690363Y-61874759D01*
X89890241Y-62074637D01*
X90122759Y-62230000D01*
X89890241Y-62385363D01*
X89690363Y-62585241D01*
X89533320Y-62820273D01*
X89425147Y-63081426D01*
X89370000Y-63358665D01*
X89370000Y-63641335D01*
X89425147Y-63918574D01*
X89533320Y-64179727D01*
X89690363Y-64414759D01*
X89890241Y-64614637D01*
X90122759Y-64770000D01*
X89890241Y-64925363D01*
X89690363Y-65125241D01*
X89533320Y-65360273D01*
X89425147Y-65621426D01*
X89370000Y-65898665D01*
X89370000Y-66181335D01*
X89425147Y-66458574D01*
X89533320Y-66719727D01*
X89690363Y-66954759D01*
X89890241Y-67154637D01*
X90122759Y-67310000D01*
X89890241Y-67465363D01*
X89690363Y-67665241D01*
X89533320Y-67900273D01*
X89425147Y-68161426D01*
X89370000Y-68438665D01*
X89370000Y-68721335D01*
X89425147Y-68998574D01*
X89533320Y-69259727D01*
X89690363Y-69494759D01*
X89890241Y-69694637D01*
X90122759Y-69850000D01*
X89890241Y-70005363D01*
X89690363Y-70205241D01*
X89533320Y-70440273D01*
X89425147Y-70701426D01*
X89370000Y-70978665D01*
X89370000Y-71261335D01*
X89425147Y-71538574D01*
X89533320Y-71799727D01*
X89690363Y-72034759D01*
X89890241Y-72234637D01*
X90122759Y-72390000D01*
X89890241Y-72545363D01*
X89690363Y-72745241D01*
X89533320Y-72980273D01*
X89425147Y-73241426D01*
X89370000Y-73518665D01*
X89370000Y-73801335D01*
X89425147Y-74078574D01*
X89533320Y-74339727D01*
X89690363Y-74574759D01*
X89890241Y-74774637D01*
X90122759Y-74930000D01*
X89890241Y-75085363D01*
X89690363Y-75285241D01*
X89533320Y-75520273D01*
X89425147Y-75781426D01*
X89370000Y-76058665D01*
X89370000Y-76341335D01*
X89425147Y-76618574D01*
X89533320Y-76879727D01*
X89690363Y-77114759D01*
X89890241Y-77314637D01*
X90122759Y-77470000D01*
X89890241Y-77625363D01*
X89690363Y-77825241D01*
X89533320Y-78060273D01*
X89425147Y-78321426D01*
X89370000Y-78598665D01*
X89370000Y-78881335D01*
X89425147Y-79158574D01*
X89533320Y-79419727D01*
X89690363Y-79654759D01*
X89890241Y-79854637D01*
X90122759Y-80010000D01*
X89890241Y-80165363D01*
X89690363Y-80365241D01*
X89533320Y-80600273D01*
X89425147Y-80861426D01*
X89370000Y-81138665D01*
X89370000Y-81421335D01*
X89425147Y-81698574D01*
X89533320Y-81959727D01*
X89690363Y-82194759D01*
X89890241Y-82394637D01*
X90122759Y-82550000D01*
X89890241Y-82705363D01*
X89690363Y-82905241D01*
X89533320Y-83140273D01*
X89425147Y-83401426D01*
X89370000Y-83678665D01*
X89370000Y-83961335D01*
X89425147Y-84238574D01*
X89533320Y-84499727D01*
X89690363Y-84734759D01*
X89890241Y-84934637D01*
X90122759Y-85090000D01*
X89890241Y-85245363D01*
X89690363Y-85445241D01*
X89533320Y-85680273D01*
X89425147Y-85941426D01*
X89370000Y-86218665D01*
X89370000Y-86501335D01*
X89425147Y-86778574D01*
X89533320Y-87039727D01*
X89690363Y-87274759D01*
X89890241Y-87474637D01*
X90125273Y-87631680D01*
X90135865Y-87636067D01*
X89949869Y-87747615D01*
X89741481Y-87936586D01*
X89573963Y-88162580D01*
X89453754Y-88416913D01*
X89413096Y-88550961D01*
X89535085Y-88773000D01*
X90678000Y-88773000D01*
X90678000Y-88753000D01*
X90932000Y-88753000D01*
X90932000Y-88773000D01*
X92074915Y-88773000D01*
X92196904Y-88550961D01*
X92156246Y-88416913D01*
X92036037Y-88162580D01*
X91868519Y-87936586D01*
X91660131Y-87747615D01*
X91474135Y-87636067D01*
X91484727Y-87631680D01*
X91719759Y-87474637D01*
X91919637Y-87274759D01*
X92076680Y-87039727D01*
X92184853Y-86778574D01*
X92240000Y-86501335D01*
X92240000Y-86218665D01*
X92184853Y-85941426D01*
X92076680Y-85680273D01*
X91919637Y-85445241D01*
X91719759Y-85245363D01*
X91487241Y-85090000D01*
X91719759Y-84934637D01*
X91919637Y-84734759D01*
X92076680Y-84499727D01*
X92184853Y-84238574D01*
X92240000Y-83961335D01*
X92240000Y-83678665D01*
X92184853Y-83401426D01*
X92076680Y-83140273D01*
X91919637Y-82905241D01*
X91719759Y-82705363D01*
X91487241Y-82550000D01*
X91719759Y-82394637D01*
X91919637Y-82194759D01*
X92076680Y-81959727D01*
X92184853Y-81698574D01*
X92240000Y-81421335D01*
X92240000Y-81138665D01*
X92184853Y-80861426D01*
X92076680Y-80600273D01*
X91919637Y-80365241D01*
X91719759Y-80165363D01*
X91487241Y-80010000D01*
X91719759Y-79854637D01*
X91919637Y-79654759D01*
X92076680Y-79419727D01*
X92184853Y-79158574D01*
X92240000Y-78881335D01*
X92240000Y-78598665D01*
X92184853Y-78321426D01*
X92076680Y-78060273D01*
X91919637Y-77825241D01*
X91719759Y-77625363D01*
X91487241Y-77470000D01*
X91719759Y-77314637D01*
X91919637Y-77114759D01*
X92076680Y-76879727D01*
X92184853Y-76618574D01*
X92240000Y-76341335D01*
X92240000Y-76058665D01*
X92184853Y-75781426D01*
X92076680Y-75520273D01*
X91919637Y-75285241D01*
X91719759Y-75085363D01*
X91487241Y-74930000D01*
X91719759Y-74774637D01*
X91919637Y-74574759D01*
X92076680Y-74339727D01*
X92184853Y-74078574D01*
X92240000Y-73801335D01*
X92240000Y-73518665D01*
X92184853Y-73241426D01*
X92076680Y-72980273D01*
X91919637Y-72745241D01*
X91719759Y-72545363D01*
X91487241Y-72390000D01*
X91719759Y-72234637D01*
X91919637Y-72034759D01*
X92076680Y-71799727D01*
X92184853Y-71538574D01*
X92240000Y-71261335D01*
X92240000Y-70978665D01*
X92184853Y-70701426D01*
X92076680Y-70440273D01*
X91919637Y-70205241D01*
X91719759Y-70005363D01*
X91487241Y-69850000D01*
X91719759Y-69694637D01*
X91919637Y-69494759D01*
X92076680Y-69259727D01*
X92184853Y-68998574D01*
X92240000Y-68721335D01*
X92240000Y-68438665D01*
X92184853Y-68161426D01*
X92076680Y-67900273D01*
X91919637Y-67665241D01*
X91719759Y-67465363D01*
X91487241Y-67310000D01*
X91719759Y-67154637D01*
X91919637Y-66954759D01*
X92076680Y-66719727D01*
X92184853Y-66458574D01*
X92240000Y-66181335D01*
X92240000Y-65898665D01*
X92184853Y-65621426D01*
X92076680Y-65360273D01*
X91919637Y-65125241D01*
X91719759Y-64925363D01*
X91487241Y-64770000D01*
X91719759Y-64614637D01*
X91919637Y-64414759D01*
X92076680Y-64179727D01*
X92184853Y-63918574D01*
X92240000Y-63641335D01*
X92240000Y-63358665D01*
X92184853Y-63081426D01*
X92076680Y-62820273D01*
X91919637Y-62585241D01*
X91719759Y-62385363D01*
X91487241Y-62230000D01*
X91719759Y-62074637D01*
X91919637Y-61874759D01*
X92076680Y-61639727D01*
X92184853Y-61378574D01*
X92240000Y-61101335D01*
X92240000Y-60818665D01*
X92184853Y-60541426D01*
X92076680Y-60280273D01*
X91919637Y-60045241D01*
X91719759Y-59845363D01*
X91487241Y-59690000D01*
X91719759Y-59534637D01*
X91919637Y-59334759D01*
X92076680Y-59099727D01*
X92184853Y-58838574D01*
X92240000Y-58561335D01*
X92240000Y-58278665D01*
X92184853Y-58001426D01*
X92076680Y-57740273D01*
X91919637Y-57505241D01*
X91719759Y-57305363D01*
X91487241Y-57150000D01*
X91719759Y-56994637D01*
X91919637Y-56794759D01*
X92076680Y-56559727D01*
X92184853Y-56298574D01*
X92240000Y-56021335D01*
X92240000Y-55738665D01*
X92184853Y-55461426D01*
X92076680Y-55200273D01*
X91919637Y-54965241D01*
X91719759Y-54765363D01*
X91484727Y-54608320D01*
X91223574Y-54500147D01*
X90946335Y-54445000D01*
X90663665Y-54445000D01*
X90386426Y-54500147D01*
X90125273Y-54608320D01*
X89890241Y-54765363D01*
X89690363Y-54965241D01*
X89533320Y-55200273D01*
X89425147Y-55461426D01*
X89370000Y-55738665D01*
X83206625Y-55738665D01*
X83175537Y-55680506D01*
X83096185Y-55583815D01*
X82999494Y-55504463D01*
X82889180Y-55445498D01*
X82769482Y-55409188D01*
X82645000Y-55396928D01*
X78645000Y-55396928D01*
X78520518Y-55409188D01*
X78400820Y-55445498D01*
X78333072Y-55481711D01*
X78333072Y-53910000D01*
X78303999Y-53614814D01*
X78217896Y-53330972D01*
X78193324Y-53285000D01*
X78256928Y-53285000D01*
X78269188Y-53409482D01*
X78305498Y-53529180D01*
X78364463Y-53639494D01*
X78443815Y-53736185D01*
X78540506Y-53815537D01*
X78650820Y-53874502D01*
X78770518Y-53910812D01*
X78895000Y-53923072D01*
X80359250Y-53920000D01*
X80518000Y-53761250D01*
X80518000Y-51912000D01*
X80772000Y-51912000D01*
X80772000Y-53761250D01*
X80930750Y-53920000D01*
X82395000Y-53923072D01*
X82519482Y-53910812D01*
X82639180Y-53874502D01*
X82749494Y-53815537D01*
X82846185Y-53736185D01*
X82925537Y-53639494D01*
X82984502Y-53529180D01*
X83020812Y-53409482D01*
X83033072Y-53285000D01*
X83030000Y-52070750D01*
X82871250Y-51912000D01*
X80772000Y-51912000D01*
X80518000Y-51912000D01*
X78418750Y-51912000D01*
X78260000Y-52070750D01*
X78256928Y-53285000D01*
X78193324Y-53285000D01*
X78078073Y-53069382D01*
X77889903Y-52840097D01*
X77660618Y-52651927D01*
X77399028Y-52512104D01*
X77115186Y-52426001D01*
X76820000Y-52396928D01*
X75070000Y-52396928D01*
X74774814Y-52426001D01*
X74490972Y-52512104D01*
X74229382Y-52651927D01*
X74000097Y-52840097D01*
X73811927Y-53069382D01*
X73672104Y-53330972D01*
X73586001Y-53614814D01*
X73556928Y-53910000D01*
X64897000Y-53910000D01*
X64897000Y-50285000D01*
X78256928Y-50285000D01*
X78260000Y-51499250D01*
X78418750Y-51658000D01*
X80518000Y-51658000D01*
X80518000Y-49808750D01*
X80772000Y-49808750D01*
X80772000Y-51658000D01*
X82871250Y-51658000D01*
X83030000Y-51499250D01*
X83033072Y-50285000D01*
X83020812Y-50160518D01*
X82984502Y-50040820D01*
X82925537Y-49930506D01*
X82846185Y-49833815D01*
X82749494Y-49754463D01*
X82639180Y-49695498D01*
X82519482Y-49659188D01*
X82395000Y-49646928D01*
X80930750Y-49650000D01*
X80772000Y-49808750D01*
X80518000Y-49808750D01*
X80359250Y-49650000D01*
X78895000Y-49646928D01*
X78770518Y-49659188D01*
X78650820Y-49695498D01*
X78540506Y-49754463D01*
X78443815Y-49833815D01*
X78364463Y-49930506D01*
X78305498Y-50040820D01*
X78269188Y-50160518D01*
X78256928Y-50285000D01*
X64897000Y-50285000D01*
X64897000Y-48619742D01*
X110328715Y-48619742D01*
X110397904Y-48902745D01*
X110520975Y-49166812D01*
X110693198Y-49401795D01*
X110907954Y-49598664D01*
X111156991Y-49749854D01*
X111430739Y-49849554D01*
X111443110Y-49851476D01*
X111673000Y-49730155D01*
X111673000Y-48387000D01*
X110472768Y-48387000D01*
X110328715Y-48619742D01*
X64897000Y-48619742D01*
X64897000Y-47900258D01*
X110328715Y-47900258D01*
X110472768Y-48133000D01*
X111673000Y-48133000D01*
X111673000Y-46789845D01*
X111927000Y-46789845D01*
X111927000Y-48133000D01*
X111947000Y-48133000D01*
X111947000Y-48387000D01*
X111927000Y-48387000D01*
X111927000Y-49730155D01*
X112156890Y-49851476D01*
X112169261Y-49849554D01*
X112443009Y-49749854D01*
X112692046Y-49598664D01*
X112906802Y-49401795D01*
X112907086Y-49401407D01*
X112961595Y-49503386D01*
X113072038Y-49637962D01*
X113206614Y-49748405D01*
X113360150Y-49830472D01*
X113526746Y-49881008D01*
X113700000Y-49898072D01*
X114900000Y-49898072D01*
X115073254Y-49881008D01*
X115239850Y-49830472D01*
X115393386Y-49748405D01*
X115527962Y-49637962D01*
X115638405Y-49503386D01*
X115720472Y-49349850D01*
X115771008Y-49183254D01*
X115788072Y-49010000D01*
X115788072Y-47510000D01*
X115771008Y-47336746D01*
X115720472Y-47170150D01*
X115638405Y-47016614D01*
X115527962Y-46882038D01*
X115393386Y-46771595D01*
X115239850Y-46689528D01*
X115073254Y-46638992D01*
X114900000Y-46621928D01*
X113700000Y-46621928D01*
X113526746Y-46638992D01*
X113360150Y-46689528D01*
X113206614Y-46771595D01*
X113072038Y-46882038D01*
X112961595Y-47016614D01*
X112907086Y-47118593D01*
X112906802Y-47118205D01*
X112692046Y-46921336D01*
X112443009Y-46770146D01*
X112169261Y-46670446D01*
X112156890Y-46668524D01*
X111927000Y-46789845D01*
X111673000Y-46789845D01*
X111443110Y-46668524D01*
X111430739Y-46670446D01*
X111156991Y-46770146D01*
X110907954Y-46921336D01*
X110693198Y-47118205D01*
X110520975Y-47353188D01*
X110397904Y-47617255D01*
X110328715Y-47900258D01*
X64897000Y-47900258D01*
X64897000Y-46857767D01*
X65075271Y-47036038D01*
X65441331Y-47280631D01*
X65848075Y-47449110D01*
X66279872Y-47535000D01*
X66720128Y-47535000D01*
X67151925Y-47449110D01*
X67558669Y-47280631D01*
X67924729Y-47036038D01*
X68236038Y-46724729D01*
X68480631Y-46358669D01*
X68649110Y-45951925D01*
X68735000Y-45520128D01*
X68735000Y-45079872D01*
X68649110Y-44648075D01*
X68480631Y-44241331D01*
X68280625Y-43942000D01*
X153719375Y-43942000D01*
X153519369Y-44241331D01*
G37*
%TD.AperFunction*%
%TD*%
M02*
