%TF.GenerationSoftware,KiCad,Pcbnew,(5.1.9)-1*%
%TF.CreationDate,2021-03-23T20:02:45+09:00*%
%TF.ProjectId,IO,494f2e6b-6963-4616-945f-706362585858,rev?*%
%TF.SameCoordinates,Original*%
%TF.FileFunction,Legend,Top*%
%TF.FilePolarity,Positive*%
%FSLAX46Y46*%
G04 Gerber Fmt 4.6, Leading zero omitted, Abs format (unit mm)*
G04 Created by KiCad (PCBNEW (5.1.9)-1) date 2021-03-23 20:02:45*
%MOMM*%
%LPD*%
G01*
G04 APERTURE LIST*
%ADD10C,0.120000*%
%ADD11C,0.300000*%
%ADD12C,0.200000*%
%ADD13C,0.010000*%
%ADD14C,0.150000*%
G04 APERTURE END LIST*
D10*
X94615000Y-49530000D02*
X94615000Y-50165000D01*
X102235000Y-49530000D02*
X94615000Y-49530000D01*
X102235000Y-59690000D02*
X102235000Y-49530000D01*
X94615000Y-59690000D02*
X102235000Y-59690000D01*
X94615000Y-50165000D02*
X94615000Y-59690000D01*
D11*
X123239761Y-56768809D02*
X123239761Y-55625952D01*
X125239761Y-56197380D02*
X123239761Y-56197380D01*
X123239761Y-55149761D02*
X125239761Y-53816428D01*
X123239761Y-53816428D02*
X125239761Y-55149761D01*
X128539761Y-55578333D02*
X127587380Y-56245000D01*
X128539761Y-56721190D02*
X126539761Y-56721190D01*
X126539761Y-55959285D01*
X126635000Y-55768809D01*
X126730238Y-55673571D01*
X126920714Y-55578333D01*
X127206428Y-55578333D01*
X127396904Y-55673571D01*
X127492142Y-55768809D01*
X127587380Y-55959285D01*
X127587380Y-56721190D01*
X126539761Y-54911666D02*
X128539761Y-53578333D01*
X126539761Y-53578333D02*
X128539761Y-54911666D01*
X129935000Y-56768809D02*
X129839761Y-56959285D01*
X129839761Y-57245000D01*
X129935000Y-57530714D01*
X130125476Y-57721190D01*
X130315952Y-57816428D01*
X130696904Y-57911666D01*
X130982619Y-57911666D01*
X131363571Y-57816428D01*
X131554047Y-57721190D01*
X131744523Y-57530714D01*
X131839761Y-57245000D01*
X131839761Y-57054523D01*
X131744523Y-56768809D01*
X131649285Y-56673571D01*
X130982619Y-56673571D01*
X130982619Y-57054523D01*
X131839761Y-55816428D02*
X129839761Y-55816428D01*
X131839761Y-54673571D01*
X129839761Y-54673571D01*
X131839761Y-53721190D02*
X129839761Y-53721190D01*
X129839761Y-53245000D01*
X129935000Y-52959285D01*
X130125476Y-52768809D01*
X130315952Y-52673571D01*
X130696904Y-52578333D01*
X130982619Y-52578333D01*
X131363571Y-52673571D01*
X131554047Y-52768809D01*
X131744523Y-52959285D01*
X131839761Y-53245000D01*
X131839761Y-53721190D01*
D12*
X82283095Y-108822380D02*
X82283095Y-107822380D01*
X82854523Y-108822380D01*
X82854523Y-107822380D01*
X83187857Y-107822380D02*
X83759285Y-107822380D01*
X83473571Y-108822380D02*
X83473571Y-107822380D01*
X84045000Y-108774761D02*
X84187857Y-108822380D01*
X84425952Y-108822380D01*
X84521190Y-108774761D01*
X84568809Y-108727142D01*
X84616428Y-108631904D01*
X84616428Y-108536666D01*
X84568809Y-108441428D01*
X84521190Y-108393809D01*
X84425952Y-108346190D01*
X84235476Y-108298571D01*
X84140238Y-108250952D01*
X84092619Y-108203333D01*
X84045000Y-108108095D01*
X84045000Y-108012857D01*
X84092619Y-107917619D01*
X84140238Y-107870000D01*
X84235476Y-107822380D01*
X84473571Y-107822380D01*
X84616428Y-107870000D01*
X85045000Y-108822380D02*
X85045000Y-107822380D01*
X85616428Y-108822380D02*
X85187857Y-108250952D01*
X85616428Y-107822380D02*
X85045000Y-108393809D01*
X86045000Y-108441428D02*
X86806904Y-108441428D01*
X87759285Y-108822380D02*
X87283095Y-108822380D01*
X87283095Y-107822380D01*
X88045000Y-108536666D02*
X88521190Y-108536666D01*
X87949761Y-108822380D02*
X88283095Y-107822380D01*
X88616428Y-108822380D01*
X89283095Y-108298571D02*
X89425952Y-108346190D01*
X89473571Y-108393809D01*
X89521190Y-108489047D01*
X89521190Y-108631904D01*
X89473571Y-108727142D01*
X89425952Y-108774761D01*
X89330714Y-108822380D01*
X88949761Y-108822380D01*
X88949761Y-107822380D01*
X89283095Y-107822380D01*
X89378333Y-107870000D01*
X89425952Y-107917619D01*
X89473571Y-108012857D01*
X89473571Y-108108095D01*
X89425952Y-108203333D01*
X89378333Y-108250952D01*
X89283095Y-108298571D01*
X88949761Y-108298571D01*
X90664047Y-107917619D02*
X90711666Y-107870000D01*
X90806904Y-107822380D01*
X91045000Y-107822380D01*
X91140238Y-107870000D01*
X91187857Y-107917619D01*
X91235476Y-108012857D01*
X91235476Y-108108095D01*
X91187857Y-108250952D01*
X90616428Y-108822380D01*
X91235476Y-108822380D01*
X91854523Y-107822380D02*
X91949761Y-107822380D01*
X92045000Y-107870000D01*
X92092619Y-107917619D01*
X92140238Y-108012857D01*
X92187857Y-108203333D01*
X92187857Y-108441428D01*
X92140238Y-108631904D01*
X92092619Y-108727142D01*
X92045000Y-108774761D01*
X91949761Y-108822380D01*
X91854523Y-108822380D01*
X91759285Y-108774761D01*
X91711666Y-108727142D01*
X91664047Y-108631904D01*
X91616428Y-108441428D01*
X91616428Y-108203333D01*
X91664047Y-108012857D01*
X91711666Y-107917619D01*
X91759285Y-107870000D01*
X91854523Y-107822380D01*
X92568809Y-107917619D02*
X92616428Y-107870000D01*
X92711666Y-107822380D01*
X92949761Y-107822380D01*
X93045000Y-107870000D01*
X93092619Y-107917619D01*
X93140238Y-108012857D01*
X93140238Y-108108095D01*
X93092619Y-108250952D01*
X92521190Y-108822380D01*
X93140238Y-108822380D01*
X94092619Y-108822380D02*
X93521190Y-108822380D01*
X93806904Y-108822380D02*
X93806904Y-107822380D01*
X93711666Y-107965238D01*
X93616428Y-108060476D01*
X93521190Y-108108095D01*
X82283095Y-110522380D02*
X82283095Y-109522380D01*
X82283095Y-109903333D02*
X82378333Y-109855714D01*
X82568809Y-109855714D01*
X82664047Y-109903333D01*
X82711666Y-109950952D01*
X82759285Y-110046190D01*
X82759285Y-110331904D01*
X82711666Y-110427142D01*
X82664047Y-110474761D01*
X82568809Y-110522380D01*
X82378333Y-110522380D01*
X82283095Y-110474761D01*
X83330714Y-110522380D02*
X83235476Y-110474761D01*
X83187857Y-110379523D01*
X83187857Y-109522380D01*
X83854523Y-110522380D02*
X83759285Y-110474761D01*
X83711666Y-110427142D01*
X83664047Y-110331904D01*
X83664047Y-110046190D01*
X83711666Y-109950952D01*
X83759285Y-109903333D01*
X83854523Y-109855714D01*
X83997380Y-109855714D01*
X84092619Y-109903333D01*
X84140238Y-109950952D01*
X84187857Y-110046190D01*
X84187857Y-110331904D01*
X84140238Y-110427142D01*
X84092619Y-110474761D01*
X83997380Y-110522380D01*
X83854523Y-110522380D01*
X85045000Y-109855714D02*
X85045000Y-110665238D01*
X84997380Y-110760476D01*
X84949761Y-110808095D01*
X84854523Y-110855714D01*
X84711666Y-110855714D01*
X84616428Y-110808095D01*
X85045000Y-110474761D02*
X84949761Y-110522380D01*
X84759285Y-110522380D01*
X84664047Y-110474761D01*
X84616428Y-110427142D01*
X84568809Y-110331904D01*
X84568809Y-110046190D01*
X84616428Y-109950952D01*
X84664047Y-109903333D01*
X84759285Y-109855714D01*
X84949761Y-109855714D01*
X85045000Y-109903333D01*
X85521190Y-110427142D02*
X85568809Y-110474761D01*
X85521190Y-110522380D01*
X85473571Y-110474761D01*
X85521190Y-110427142D01*
X85521190Y-110522380D01*
X85997380Y-110522380D02*
X85997380Y-109855714D01*
X85997380Y-109522380D02*
X85949761Y-109570000D01*
X85997380Y-109617619D01*
X86045000Y-109570000D01*
X85997380Y-109522380D01*
X85997380Y-109617619D01*
X86473571Y-109855714D02*
X86473571Y-110522380D01*
X86473571Y-109950952D02*
X86521190Y-109903333D01*
X86616428Y-109855714D01*
X86759285Y-109855714D01*
X86854523Y-109903333D01*
X86902142Y-109998571D01*
X86902142Y-110522380D01*
X87378333Y-110141428D02*
X88140238Y-110141428D01*
X89045000Y-110522380D02*
X89045000Y-109522380D01*
X89045000Y-110474761D02*
X88949761Y-110522380D01*
X88759285Y-110522380D01*
X88664047Y-110474761D01*
X88616428Y-110427142D01*
X88568809Y-110331904D01*
X88568809Y-110046190D01*
X88616428Y-109950952D01*
X88664047Y-109903333D01*
X88759285Y-109855714D01*
X88949761Y-109855714D01*
X89045000Y-109903333D01*
X89902142Y-110474761D02*
X89806904Y-110522380D01*
X89616428Y-110522380D01*
X89521190Y-110474761D01*
X89473571Y-110379523D01*
X89473571Y-109998571D01*
X89521190Y-109903333D01*
X89616428Y-109855714D01*
X89806904Y-109855714D01*
X89902142Y-109903333D01*
X89949761Y-109998571D01*
X89949761Y-110093809D01*
X89473571Y-110189047D01*
X90759285Y-110474761D02*
X90664047Y-110522380D01*
X90473571Y-110522380D01*
X90378333Y-110474761D01*
X90330714Y-110379523D01*
X90330714Y-109998571D01*
X90378333Y-109903333D01*
X90473571Y-109855714D01*
X90664047Y-109855714D01*
X90759285Y-109903333D01*
X90806904Y-109998571D01*
X90806904Y-110093809D01*
X90330714Y-110189047D01*
X91235476Y-109855714D02*
X91235476Y-110855714D01*
X91235476Y-109903333D02*
X91330714Y-109855714D01*
X91521190Y-109855714D01*
X91616428Y-109903333D01*
X91664047Y-109950952D01*
X91711666Y-110046190D01*
X91711666Y-110331904D01*
X91664047Y-110427142D01*
X91616428Y-110474761D01*
X91521190Y-110522380D01*
X91330714Y-110522380D01*
X91235476Y-110474761D01*
X92140238Y-110427142D02*
X92187857Y-110474761D01*
X92140238Y-110522380D01*
X92092619Y-110474761D01*
X92140238Y-110427142D01*
X92140238Y-110522380D01*
X92616428Y-110522380D02*
X92616428Y-109522380D01*
X92616428Y-109903333D02*
X92711666Y-109855714D01*
X92902142Y-109855714D01*
X92997380Y-109903333D01*
X93045000Y-109950952D01*
X93092619Y-110046190D01*
X93092619Y-110331904D01*
X93045000Y-110427142D01*
X92997380Y-110474761D01*
X92902142Y-110522380D01*
X92711666Y-110522380D01*
X92616428Y-110474761D01*
X93664047Y-110522380D02*
X93568809Y-110474761D01*
X93521190Y-110379523D01*
X93521190Y-109522380D01*
X94473571Y-109855714D02*
X94473571Y-110522380D01*
X94045000Y-109855714D02*
X94045000Y-110379523D01*
X94092619Y-110474761D01*
X94187857Y-110522380D01*
X94330714Y-110522380D01*
X94425952Y-110474761D01*
X94473571Y-110427142D01*
X95330714Y-110474761D02*
X95235476Y-110522380D01*
X95045000Y-110522380D01*
X94949761Y-110474761D01*
X94902142Y-110379523D01*
X94902142Y-109998571D01*
X94949761Y-109903333D01*
X95045000Y-109855714D01*
X95235476Y-109855714D01*
X95330714Y-109903333D01*
X95378333Y-109998571D01*
X95378333Y-110093809D01*
X94902142Y-110189047D01*
D13*
%TO.C,G\u002A\u002A\u002A*%
G36*
X76383498Y-108466550D02*
G01*
X76554256Y-108497087D01*
X76619544Y-108556942D01*
X76623333Y-108585000D01*
X76642320Y-108689895D01*
X76722490Y-108692115D01*
X76898655Y-108590930D01*
X76917173Y-108578848D01*
X77141999Y-108487785D01*
X77326863Y-108473015D01*
X77472420Y-108517023D01*
X77483489Y-108626794D01*
X77462064Y-108690833D01*
X77392393Y-108807807D01*
X77264431Y-108864582D01*
X77027212Y-108881095D01*
X76975095Y-108881333D01*
X76710634Y-108902008D01*
X76518591Y-108954868D01*
X76470713Y-108988195D01*
X76373809Y-109152921D01*
X76265772Y-109405552D01*
X76164874Y-109691917D01*
X76089387Y-109957847D01*
X76057580Y-110149174D01*
X76062791Y-110197592D01*
X76058029Y-110267447D01*
X75955724Y-110305469D01*
X75725698Y-110319766D01*
X75604676Y-110320667D01*
X75295638Y-110307503D01*
X75134646Y-110265172D01*
X75099333Y-110209872D01*
X75127002Y-110084286D01*
X75200902Y-109843607D01*
X75307374Y-109531130D01*
X75357293Y-109392251D01*
X75468305Y-109063143D01*
X75544688Y-108787256D01*
X75575158Y-108607782D01*
X75571617Y-108571713D01*
X75585860Y-108508123D01*
X75707342Y-108472461D01*
X75962614Y-108458737D01*
X76075657Y-108458000D01*
X76383498Y-108466550D01*
G37*
X76383498Y-108466550D02*
X76554256Y-108497087D01*
X76619544Y-108556942D01*
X76623333Y-108585000D01*
X76642320Y-108689895D01*
X76722490Y-108692115D01*
X76898655Y-108590930D01*
X76917173Y-108578848D01*
X77141999Y-108487785D01*
X77326863Y-108473015D01*
X77472420Y-108517023D01*
X77483489Y-108626794D01*
X77462064Y-108690833D01*
X77392393Y-108807807D01*
X77264431Y-108864582D01*
X77027212Y-108881095D01*
X76975095Y-108881333D01*
X76710634Y-108902008D01*
X76518591Y-108954868D01*
X76470713Y-108988195D01*
X76373809Y-109152921D01*
X76265772Y-109405552D01*
X76164874Y-109691917D01*
X76089387Y-109957847D01*
X76057580Y-110149174D01*
X76062791Y-110197592D01*
X76058029Y-110267447D01*
X75955724Y-110305469D01*
X75725698Y-110319766D01*
X75604676Y-110320667D01*
X75295638Y-110307503D01*
X75134646Y-110265172D01*
X75099333Y-110209872D01*
X75127002Y-110084286D01*
X75200902Y-109843607D01*
X75307374Y-109531130D01*
X75357293Y-109392251D01*
X75468305Y-109063143D01*
X75544688Y-108787256D01*
X75575158Y-108607782D01*
X75571617Y-108571713D01*
X75585860Y-108508123D01*
X75707342Y-108472461D01*
X75962614Y-108458737D01*
X76075657Y-108458000D01*
X76383498Y-108466550D01*
G36*
X79269167Y-107104581D02*
G01*
X79809109Y-107113148D01*
X80201376Y-107142149D01*
X80467107Y-107198774D01*
X80627443Y-107290213D01*
X80703522Y-107423656D01*
X80716955Y-107597028D01*
X80644802Y-107881949D01*
X80447411Y-108189646D01*
X80114539Y-108532240D01*
X79635943Y-108921851D01*
X79532374Y-108998758D01*
X78827048Y-109516333D01*
X79468496Y-109541199D01*
X79793373Y-109558016D01*
X79979495Y-109583034D01*
X80057441Y-109625137D01*
X80057788Y-109693208D01*
X80051312Y-109710532D01*
X79978484Y-109898567D01*
X79908391Y-110087833D01*
X79824101Y-110320667D01*
X78520051Y-110320667D01*
X78057851Y-110315885D01*
X77671962Y-110302600D01*
X77389036Y-110282400D01*
X77235728Y-110256874D01*
X77216000Y-110242931D01*
X77278395Y-110167375D01*
X77452205Y-110002898D01*
X77717367Y-109767289D01*
X78053819Y-109478338D01*
X78441499Y-109153836D01*
X78481122Y-109121097D01*
X78873492Y-108792241D01*
X79216838Y-108494854D01*
X79490933Y-108247252D01*
X79675548Y-108067751D01*
X79750453Y-107974667D01*
X79751122Y-107971167D01*
X79698823Y-107914997D01*
X79522958Y-107881031D01*
X79204511Y-107866411D01*
X79046917Y-107865333D01*
X78337833Y-107865333D01*
X78284917Y-107600750D01*
X78245619Y-107396272D01*
X78240867Y-107257212D01*
X78295544Y-107171026D01*
X78434539Y-107125167D01*
X78682736Y-107107090D01*
X79065023Y-107104251D01*
X79269167Y-107104581D01*
G37*
X79269167Y-107104581D02*
X79809109Y-107113148D01*
X80201376Y-107142149D01*
X80467107Y-107198774D01*
X80627443Y-107290213D01*
X80703522Y-107423656D01*
X80716955Y-107597028D01*
X80644802Y-107881949D01*
X80447411Y-108189646D01*
X80114539Y-108532240D01*
X79635943Y-108921851D01*
X79532374Y-108998758D01*
X78827048Y-109516333D01*
X79468496Y-109541199D01*
X79793373Y-109558016D01*
X79979495Y-109583034D01*
X80057441Y-109625137D01*
X80057788Y-109693208D01*
X80051312Y-109710532D01*
X79978484Y-109898567D01*
X79908391Y-110087833D01*
X79824101Y-110320667D01*
X78520051Y-110320667D01*
X78057851Y-110315885D01*
X77671962Y-110302600D01*
X77389036Y-110282400D01*
X77235728Y-110256874D01*
X77216000Y-110242931D01*
X77278395Y-110167375D01*
X77452205Y-110002898D01*
X77717367Y-109767289D01*
X78053819Y-109478338D01*
X78441499Y-109153836D01*
X78481122Y-109121097D01*
X78873492Y-108792241D01*
X79216838Y-108494854D01*
X79490933Y-108247252D01*
X79675548Y-108067751D01*
X79750453Y-107974667D01*
X79751122Y-107971167D01*
X79698823Y-107914997D01*
X79522958Y-107881031D01*
X79204511Y-107866411D01*
X79046917Y-107865333D01*
X78337833Y-107865333D01*
X78284917Y-107600750D01*
X78245619Y-107396272D01*
X78240867Y-107257212D01*
X78295544Y-107171026D01*
X78434539Y-107125167D01*
X78682736Y-107107090D01*
X79065023Y-107104251D01*
X79269167Y-107104581D01*
G36*
X78134093Y-100246581D02*
G01*
X78811395Y-100249044D01*
X79338113Y-100258474D01*
X79732979Y-100279487D01*
X80014728Y-100316699D01*
X80202091Y-100374723D01*
X80313801Y-100458175D01*
X80368592Y-100571670D01*
X80385197Y-100719823D01*
X80385165Y-100801142D01*
X80345413Y-101065800D01*
X80249150Y-101393352D01*
X80159773Y-101616379D01*
X79950675Y-101979771D01*
X79694344Y-102216889D01*
X79347082Y-102359030D01*
X79042473Y-102416619D01*
X78664696Y-102468400D01*
X79083348Y-103302661D01*
X79252845Y-103647850D01*
X79389409Y-103940098D01*
X79477296Y-104144795D01*
X79502000Y-104223128D01*
X79422456Y-104267139D01*
X79203711Y-104297151D01*
X78875597Y-104309255D01*
X78843969Y-104309333D01*
X78185938Y-104309333D01*
X77741788Y-103416272D01*
X77562955Y-103072616D01*
X77405071Y-102798513D01*
X77285322Y-102621884D01*
X77221146Y-102570486D01*
X77154792Y-102674019D01*
X77060521Y-102895563D01*
X76953434Y-103189352D01*
X76848632Y-103509618D01*
X76761213Y-103810595D01*
X76706279Y-104046516D01*
X76696320Y-104161167D01*
X76689828Y-104231516D01*
X76624291Y-104275453D01*
X76469294Y-104299005D01*
X76194422Y-104308199D01*
X75948665Y-104309333D01*
X75531861Y-104299904D01*
X75269596Y-104270415D01*
X75148058Y-104219061D01*
X75138378Y-104203500D01*
X75154264Y-104096156D01*
X75221129Y-103854269D01*
X75331247Y-103502127D01*
X75476892Y-103064018D01*
X75650341Y-102564231D01*
X75737565Y-102319667D01*
X75921737Y-101796583D01*
X75975721Y-101636066D01*
X77572917Y-101636066D01*
X77581191Y-101801000D01*
X77697557Y-101898918D01*
X77901813Y-101937649D01*
X78120533Y-101909498D01*
X78213434Y-101867266D01*
X78301673Y-101754300D01*
X78414558Y-101535869D01*
X78493297Y-101347295D01*
X78586354Y-101076881D01*
X78610127Y-100919749D01*
X78569181Y-100836799D01*
X78554196Y-100826029D01*
X78321541Y-100757802D01*
X78063760Y-100788095D01*
X77874534Y-100901500D01*
X77739541Y-101113258D01*
X77631611Y-101380774D01*
X77572917Y-101636066D01*
X75975721Y-101636066D01*
X76081692Y-101320976D01*
X76209624Y-100917862D01*
X76297723Y-100612254D01*
X76338183Y-100429166D01*
X76338790Y-100393500D01*
X76336578Y-100344800D01*
X76372035Y-100308107D01*
X76465481Y-100281757D01*
X76637237Y-100264087D01*
X76907625Y-100253435D01*
X77296966Y-100248137D01*
X77825580Y-100246530D01*
X78134093Y-100246581D01*
G37*
X78134093Y-100246581D02*
X78811395Y-100249044D01*
X79338113Y-100258474D01*
X79732979Y-100279487D01*
X80014728Y-100316699D01*
X80202091Y-100374723D01*
X80313801Y-100458175D01*
X80368592Y-100571670D01*
X80385197Y-100719823D01*
X80385165Y-100801142D01*
X80345413Y-101065800D01*
X80249150Y-101393352D01*
X80159773Y-101616379D01*
X79950675Y-101979771D01*
X79694344Y-102216889D01*
X79347082Y-102359030D01*
X79042473Y-102416619D01*
X78664696Y-102468400D01*
X79083348Y-103302661D01*
X79252845Y-103647850D01*
X79389409Y-103940098D01*
X79477296Y-104144795D01*
X79502000Y-104223128D01*
X79422456Y-104267139D01*
X79203711Y-104297151D01*
X78875597Y-104309255D01*
X78843969Y-104309333D01*
X78185938Y-104309333D01*
X77741788Y-103416272D01*
X77562955Y-103072616D01*
X77405071Y-102798513D01*
X77285322Y-102621884D01*
X77221146Y-102570486D01*
X77154792Y-102674019D01*
X77060521Y-102895563D01*
X76953434Y-103189352D01*
X76848632Y-103509618D01*
X76761213Y-103810595D01*
X76706279Y-104046516D01*
X76696320Y-104161167D01*
X76689828Y-104231516D01*
X76624291Y-104275453D01*
X76469294Y-104299005D01*
X76194422Y-104308199D01*
X75948665Y-104309333D01*
X75531861Y-104299904D01*
X75269596Y-104270415D01*
X75148058Y-104219061D01*
X75138378Y-104203500D01*
X75154264Y-104096156D01*
X75221129Y-103854269D01*
X75331247Y-103502127D01*
X75476892Y-103064018D01*
X75650341Y-102564231D01*
X75737565Y-102319667D01*
X75921737Y-101796583D01*
X75975721Y-101636066D01*
X77572917Y-101636066D01*
X77581191Y-101801000D01*
X77697557Y-101898918D01*
X77901813Y-101937649D01*
X78120533Y-101909498D01*
X78213434Y-101867266D01*
X78301673Y-101754300D01*
X78414558Y-101535869D01*
X78493297Y-101347295D01*
X78586354Y-101076881D01*
X78610127Y-100919749D01*
X78569181Y-100836799D01*
X78554196Y-100826029D01*
X78321541Y-100757802D01*
X78063760Y-100788095D01*
X77874534Y-100901500D01*
X77739541Y-101113258D01*
X77631611Y-101380774D01*
X77572917Y-101636066D01*
X75975721Y-101636066D01*
X76081692Y-101320976D01*
X76209624Y-100917862D01*
X76297723Y-100612254D01*
X76338183Y-100429166D01*
X76338790Y-100393500D01*
X76336578Y-100344800D01*
X76372035Y-100308107D01*
X76465481Y-100281757D01*
X76637237Y-100264087D01*
X76907625Y-100253435D01*
X77296966Y-100248137D01*
X77825580Y-100246530D01*
X78134093Y-100246581D01*
G36*
X90440366Y-100249170D02*
G01*
X90748543Y-100259587D01*
X90951626Y-100274949D01*
X91016667Y-100291728D01*
X90960558Y-100374789D01*
X90824299Y-100513602D01*
X90812377Y-100524561D01*
X90724525Y-100658715D01*
X90596794Y-100923680D01*
X90440472Y-101288850D01*
X90266845Y-101723617D01*
X90087199Y-102197375D01*
X89912821Y-102679517D01*
X89754998Y-103139435D01*
X89625016Y-103546523D01*
X89534161Y-103870174D01*
X89493721Y-104079781D01*
X89492667Y-104103367D01*
X89485979Y-104200742D01*
X89444238Y-104261265D01*
X89334922Y-104293697D01*
X89125511Y-104306797D01*
X88783484Y-104309324D01*
X88728009Y-104309333D01*
X88313818Y-104299909D01*
X88053951Y-104270406D01*
X87934384Y-104218973D01*
X87925128Y-104203500D01*
X87938087Y-104087493D01*
X88001022Y-103846952D01*
X88104019Y-103515729D01*
X88237161Y-103127679D01*
X88253694Y-103081667D01*
X88390008Y-102697749D01*
X88499941Y-102375927D01*
X88573287Y-102147014D01*
X88599837Y-102041824D01*
X88599218Y-102038698D01*
X88520314Y-102067332D01*
X88328997Y-102179008D01*
X88049579Y-102356868D01*
X87706369Y-102584049D01*
X87323679Y-102843693D01*
X86925819Y-103118938D01*
X86537100Y-103392925D01*
X86181832Y-103648794D01*
X85884326Y-103869683D01*
X85668892Y-104038733D01*
X85559841Y-104139083D01*
X85551796Y-104152194D01*
X85510984Y-104224754D01*
X85422609Y-104271013D01*
X85254335Y-104296694D01*
X84973826Y-104307520D01*
X84663940Y-104309333D01*
X84274052Y-104305827D01*
X84019372Y-104291293D01*
X83865846Y-104259706D01*
X83779422Y-104205042D01*
X83738312Y-104145566D01*
X83707019Y-104003138D01*
X83681147Y-103719969D01*
X83662293Y-103324607D01*
X83652056Y-102845602D01*
X83650667Y-102579233D01*
X83650667Y-101176667D01*
X82227251Y-101176667D01*
X81967611Y-101938667D01*
X82597472Y-101938667D01*
X82899617Y-101948621D01*
X83122614Y-101974937D01*
X83224929Y-102012295D01*
X83227333Y-102019349D01*
X83194867Y-102150778D01*
X83130600Y-102312338D01*
X83067246Y-102421428D01*
X82972711Y-102487532D01*
X82805766Y-102523874D01*
X82525186Y-102543673D01*
X82392152Y-102549156D01*
X81750437Y-102573667D01*
X81598739Y-102982950D01*
X81447040Y-103392234D01*
X82451623Y-103363950D01*
X83456205Y-103335667D01*
X83127121Y-104309333D01*
X81446557Y-104309333D01*
X80886846Y-104305358D01*
X80412601Y-104294096D01*
X80045064Y-104276544D01*
X79805476Y-104253700D01*
X79715789Y-104228101D01*
X79728373Y-104128219D01*
X79791127Y-103892617D01*
X79896747Y-103544856D01*
X80037926Y-103108494D01*
X80207361Y-102607094D01*
X80309165Y-102314364D01*
X80491504Y-101784780D01*
X80649825Y-101304838D01*
X80776714Y-100898705D01*
X80864762Y-100590551D01*
X80906556Y-100404544D01*
X80907363Y-100363597D01*
X80916010Y-100326463D01*
X80985691Y-100297757D01*
X81134023Y-100276472D01*
X81378627Y-100261598D01*
X81737121Y-100252127D01*
X82227125Y-100247050D01*
X82866259Y-100245357D01*
X82973012Y-100245333D01*
X83626007Y-100245971D01*
X84130037Y-100248896D01*
X84505464Y-100255626D01*
X84772655Y-100267676D01*
X84951973Y-100286565D01*
X85063784Y-100313808D01*
X85128453Y-100350922D01*
X85166344Y-100399426D01*
X85171688Y-100409100D01*
X85203151Y-100551590D01*
X85229186Y-100833649D01*
X85248087Y-101225553D01*
X85258145Y-101697581D01*
X85259333Y-101935048D01*
X85259333Y-103297229D01*
X87185500Y-102004114D01*
X87760389Y-101616822D01*
X88209059Y-101310325D01*
X88546827Y-101072468D01*
X88789015Y-100891092D01*
X88950940Y-100754041D01*
X89047923Y-100649157D01*
X89095282Y-100564282D01*
X89108337Y-100487260D01*
X89108329Y-100478167D01*
X89104991Y-100245333D01*
X90060829Y-100245333D01*
X90440366Y-100249170D01*
G37*
X90440366Y-100249170D02*
X90748543Y-100259587D01*
X90951626Y-100274949D01*
X91016667Y-100291728D01*
X90960558Y-100374789D01*
X90824299Y-100513602D01*
X90812377Y-100524561D01*
X90724525Y-100658715D01*
X90596794Y-100923680D01*
X90440472Y-101288850D01*
X90266845Y-101723617D01*
X90087199Y-102197375D01*
X89912821Y-102679517D01*
X89754998Y-103139435D01*
X89625016Y-103546523D01*
X89534161Y-103870174D01*
X89493721Y-104079781D01*
X89492667Y-104103367D01*
X89485979Y-104200742D01*
X89444238Y-104261265D01*
X89334922Y-104293697D01*
X89125511Y-104306797D01*
X88783484Y-104309324D01*
X88728009Y-104309333D01*
X88313818Y-104299909D01*
X88053951Y-104270406D01*
X87934384Y-104218973D01*
X87925128Y-104203500D01*
X87938087Y-104087493D01*
X88001022Y-103846952D01*
X88104019Y-103515729D01*
X88237161Y-103127679D01*
X88253694Y-103081667D01*
X88390008Y-102697749D01*
X88499941Y-102375927D01*
X88573287Y-102147014D01*
X88599837Y-102041824D01*
X88599218Y-102038698D01*
X88520314Y-102067332D01*
X88328997Y-102179008D01*
X88049579Y-102356868D01*
X87706369Y-102584049D01*
X87323679Y-102843693D01*
X86925819Y-103118938D01*
X86537100Y-103392925D01*
X86181832Y-103648794D01*
X85884326Y-103869683D01*
X85668892Y-104038733D01*
X85559841Y-104139083D01*
X85551796Y-104152194D01*
X85510984Y-104224754D01*
X85422609Y-104271013D01*
X85254335Y-104296694D01*
X84973826Y-104307520D01*
X84663940Y-104309333D01*
X84274052Y-104305827D01*
X84019372Y-104291293D01*
X83865846Y-104259706D01*
X83779422Y-104205042D01*
X83738312Y-104145566D01*
X83707019Y-104003138D01*
X83681147Y-103719969D01*
X83662293Y-103324607D01*
X83652056Y-102845602D01*
X83650667Y-102579233D01*
X83650667Y-101176667D01*
X82227251Y-101176667D01*
X81967611Y-101938667D01*
X82597472Y-101938667D01*
X82899617Y-101948621D01*
X83122614Y-101974937D01*
X83224929Y-102012295D01*
X83227333Y-102019349D01*
X83194867Y-102150778D01*
X83130600Y-102312338D01*
X83067246Y-102421428D01*
X82972711Y-102487532D01*
X82805766Y-102523874D01*
X82525186Y-102543673D01*
X82392152Y-102549156D01*
X81750437Y-102573667D01*
X81598739Y-102982950D01*
X81447040Y-103392234D01*
X82451623Y-103363950D01*
X83456205Y-103335667D01*
X83127121Y-104309333D01*
X81446557Y-104309333D01*
X80886846Y-104305358D01*
X80412601Y-104294096D01*
X80045064Y-104276544D01*
X79805476Y-104253700D01*
X79715789Y-104228101D01*
X79728373Y-104128219D01*
X79791127Y-103892617D01*
X79896747Y-103544856D01*
X80037926Y-103108494D01*
X80207361Y-102607094D01*
X80309165Y-102314364D01*
X80491504Y-101784780D01*
X80649825Y-101304838D01*
X80776714Y-100898705D01*
X80864762Y-100590551D01*
X80906556Y-100404544D01*
X80907363Y-100363597D01*
X80916010Y-100326463D01*
X80985691Y-100297757D01*
X81134023Y-100276472D01*
X81378627Y-100261598D01*
X81737121Y-100252127D01*
X82227125Y-100247050D01*
X82866259Y-100245357D01*
X82973012Y-100245333D01*
X83626007Y-100245971D01*
X84130037Y-100248896D01*
X84505464Y-100255626D01*
X84772655Y-100267676D01*
X84951973Y-100286565D01*
X85063784Y-100313808D01*
X85128453Y-100350922D01*
X85166344Y-100399426D01*
X85171688Y-100409100D01*
X85203151Y-100551590D01*
X85229186Y-100833649D01*
X85248087Y-101225553D01*
X85258145Y-101697581D01*
X85259333Y-101935048D01*
X85259333Y-103297229D01*
X87185500Y-102004114D01*
X87760389Y-101616822D01*
X88209059Y-101310325D01*
X88546827Y-101072468D01*
X88789015Y-100891092D01*
X88950940Y-100754041D01*
X89047923Y-100649157D01*
X89095282Y-100564282D01*
X89108337Y-100487260D01*
X89108329Y-100478167D01*
X89104991Y-100245333D01*
X90060829Y-100245333D01*
X90440366Y-100249170D01*
G36*
X93937986Y-100288147D02*
G01*
X94357509Y-100291468D01*
X94656733Y-100300447D01*
X94860177Y-100317904D01*
X94992358Y-100346658D01*
X95077793Y-100389526D01*
X95141000Y-100449329D01*
X95179035Y-100495230D01*
X95254199Y-100603895D01*
X95296194Y-100723102D01*
X95300555Y-100877068D01*
X95262819Y-101090008D01*
X95178520Y-101386141D01*
X95043194Y-101789682D01*
X94852377Y-102324849D01*
X94830680Y-102384855D01*
X94634135Y-102918731D01*
X94475836Y-103317137D01*
X94340607Y-103605292D01*
X94213272Y-103808410D01*
X94078656Y-103951710D01*
X93921583Y-104060408D01*
X93776922Y-104135842D01*
X93629507Y-104199618D01*
X93471650Y-104245473D01*
X93273541Y-104276133D01*
X93005370Y-104294324D01*
X92637328Y-104302772D01*
X92139604Y-104304203D01*
X91942435Y-104303603D01*
X91381202Y-104296008D01*
X90908649Y-104278785D01*
X90548242Y-104253320D01*
X90323446Y-104220997D01*
X90273993Y-104205177D01*
X90133128Y-104111146D01*
X90051143Y-103977776D01*
X90029393Y-103782576D01*
X90069234Y-103503056D01*
X90167662Y-103133104D01*
X91989419Y-103133104D01*
X92019071Y-103232487D01*
X92032656Y-103250987D01*
X92218579Y-103368053D01*
X92461508Y-103330869D01*
X92544292Y-103291393D01*
X92716565Y-103145713D01*
X92800573Y-103028297D01*
X92905835Y-102797744D01*
X93022740Y-102489796D01*
X93137881Y-102147649D01*
X93237850Y-101814500D01*
X93309240Y-101533546D01*
X93338644Y-101347984D01*
X93334710Y-101307381D01*
X93215710Y-101199898D01*
X93017528Y-101183749D01*
X92800066Y-101253677D01*
X92653272Y-101367167D01*
X92550772Y-101529144D01*
X92417697Y-101805496D01*
X92275578Y-102149478D01*
X92204802Y-102340820D01*
X92076278Y-102719033D01*
X92006486Y-102972540D01*
X91989419Y-103133104D01*
X90167662Y-103133104D01*
X90172021Y-103116724D01*
X90339109Y-102601091D01*
X90377428Y-102489000D01*
X90582052Y-101903825D01*
X90748765Y-101456862D01*
X90889777Y-101124574D01*
X91017298Y-100883427D01*
X91143538Y-100709886D01*
X91280706Y-100580417D01*
X91416201Y-100486699D01*
X91534453Y-100417826D01*
X91653621Y-100366985D01*
X91800553Y-100331446D01*
X92002096Y-100308479D01*
X92285098Y-100295353D01*
X92676406Y-100289340D01*
X93202866Y-100287710D01*
X93373647Y-100287667D01*
X93937986Y-100288147D01*
G37*
X93937986Y-100288147D02*
X94357509Y-100291468D01*
X94656733Y-100300447D01*
X94860177Y-100317904D01*
X94992358Y-100346658D01*
X95077793Y-100389526D01*
X95141000Y-100449329D01*
X95179035Y-100495230D01*
X95254199Y-100603895D01*
X95296194Y-100723102D01*
X95300555Y-100877068D01*
X95262819Y-101090008D01*
X95178520Y-101386141D01*
X95043194Y-101789682D01*
X94852377Y-102324849D01*
X94830680Y-102384855D01*
X94634135Y-102918731D01*
X94475836Y-103317137D01*
X94340607Y-103605292D01*
X94213272Y-103808410D01*
X94078656Y-103951710D01*
X93921583Y-104060408D01*
X93776922Y-104135842D01*
X93629507Y-104199618D01*
X93471650Y-104245473D01*
X93273541Y-104276133D01*
X93005370Y-104294324D01*
X92637328Y-104302772D01*
X92139604Y-104304203D01*
X91942435Y-104303603D01*
X91381202Y-104296008D01*
X90908649Y-104278785D01*
X90548242Y-104253320D01*
X90323446Y-104220997D01*
X90273993Y-104205177D01*
X90133128Y-104111146D01*
X90051143Y-103977776D01*
X90029393Y-103782576D01*
X90069234Y-103503056D01*
X90167662Y-103133104D01*
X91989419Y-103133104D01*
X92019071Y-103232487D01*
X92032656Y-103250987D01*
X92218579Y-103368053D01*
X92461508Y-103330869D01*
X92544292Y-103291393D01*
X92716565Y-103145713D01*
X92800573Y-103028297D01*
X92905835Y-102797744D01*
X93022740Y-102489796D01*
X93137881Y-102147649D01*
X93237850Y-101814500D01*
X93309240Y-101533546D01*
X93338644Y-101347984D01*
X93334710Y-101307381D01*
X93215710Y-101199898D01*
X93017528Y-101183749D01*
X92800066Y-101253677D01*
X92653272Y-101367167D01*
X92550772Y-101529144D01*
X92417697Y-101805496D01*
X92275578Y-102149478D01*
X92204802Y-102340820D01*
X92076278Y-102719033D01*
X92006486Y-102972540D01*
X91989419Y-103133104D01*
X90167662Y-103133104D01*
X90172021Y-103116724D01*
X90339109Y-102601091D01*
X90377428Y-102489000D01*
X90582052Y-101903825D01*
X90748765Y-101456862D01*
X90889777Y-101124574D01*
X91017298Y-100883427D01*
X91143538Y-100709886D01*
X91280706Y-100580417D01*
X91416201Y-100486699D01*
X91534453Y-100417826D01*
X91653621Y-100366985D01*
X91800553Y-100331446D01*
X92002096Y-100308479D01*
X92285098Y-100295353D01*
X92676406Y-100289340D01*
X93202866Y-100287710D01*
X93373647Y-100287667D01*
X93937986Y-100288147D01*
D10*
%TO.C,C5*%
X112180000Y-89495000D02*
X112495000Y-89495000D01*
X109755000Y-89495000D02*
X110070000Y-89495000D01*
X112180000Y-94735000D02*
X112495000Y-94735000D01*
X109755000Y-94735000D02*
X110070000Y-94735000D01*
X112495000Y-94735000D02*
X112495000Y-89495000D01*
X109755000Y-94735000D02*
X109755000Y-89495000D01*
%TO.C,OP_ISP*%
X130235000Y-104200000D02*
X128905000Y-104200000D01*
X130235000Y-102870000D02*
X130235000Y-104200000D01*
X127635000Y-104200000D02*
X125035000Y-104200000D01*
X127635000Y-101600000D02*
X127635000Y-104200000D01*
X130235000Y-101600000D02*
X127635000Y-101600000D01*
X125035000Y-104200000D02*
X125035000Y-96460000D01*
X130235000Y-101600000D02*
X130235000Y-96460000D01*
X130235000Y-96460000D02*
X125035000Y-96460000D01*
%TO.C,PWR_R1*%
X78510000Y-67310000D02*
X79280000Y-67310000D01*
X86590000Y-67310000D02*
X85820000Y-67310000D01*
X79280000Y-68680000D02*
X85820000Y-68680000D01*
X79280000Y-65940000D02*
X79280000Y-68680000D01*
X85820000Y-65940000D02*
X79280000Y-65940000D01*
X85820000Y-68680000D02*
X85820000Y-65940000D01*
%TO.C,PWR_LED1*%
X75375000Y-75855000D02*
X75531000Y-75855000D01*
X73059000Y-75855000D02*
X73215000Y-75855000D01*
X75374837Y-73253870D02*
G75*
G02*
X75375000Y-75335961I-1079837J-1041130D01*
G01*
X73215163Y-73253870D02*
G75*
G03*
X73215000Y-75335961I1079837J-1041130D01*
G01*
X75373608Y-72622665D02*
G75*
G02*
X75530516Y-75855000I-1078608J-1672335D01*
G01*
X73216392Y-72622665D02*
G75*
G03*
X73059484Y-75855000I1078608J-1672335D01*
G01*
%TO.C,OP_MEGA328P*%
X141715000Y-60265000D02*
X140065000Y-60265000D01*
X141715000Y-95945000D02*
X141715000Y-60265000D01*
X136415000Y-95945000D02*
X141715000Y-95945000D01*
X136415000Y-60265000D02*
X136415000Y-95945000D01*
X138065000Y-60265000D02*
X136415000Y-60265000D01*
X140065000Y-60265000D02*
G75*
G02*
X138065000Y-60265000I-1000000J0D01*
G01*
%TO.C,OP_R2*%
X130810000Y-62635000D02*
X130810000Y-63405000D01*
X130810000Y-70715000D02*
X130810000Y-69945000D01*
X129440000Y-63405000D02*
X129440000Y-69945000D01*
X132180000Y-63405000D02*
X129440000Y-63405000D01*
X132180000Y-69945000D02*
X132180000Y-63405000D01*
X129440000Y-69945000D02*
X132180000Y-69945000D01*
%TO.C,OP_R1*%
X127000000Y-62635000D02*
X127000000Y-63405000D01*
X127000000Y-70715000D02*
X127000000Y-69945000D01*
X125630000Y-63405000D02*
X125630000Y-69945000D01*
X128370000Y-63405000D02*
X125630000Y-63405000D01*
X128370000Y-69945000D02*
X128370000Y-63405000D01*
X125630000Y-69945000D02*
X128370000Y-69945000D01*
%TO.C,OP_LED1*%
X140625000Y-99885000D02*
X140625000Y-99729000D01*
X140625000Y-102201000D02*
X140625000Y-102045000D01*
X138023870Y-99885163D02*
G75*
G02*
X140105961Y-99885000I1041130J-1079837D01*
G01*
X138023870Y-102044837D02*
G75*
G03*
X140105961Y-102045000I1041130J1079837D01*
G01*
X137392665Y-99886392D02*
G75*
G02*
X140625000Y-99729484I1672335J-1078608D01*
G01*
X137392665Y-102043608D02*
G75*
G03*
X140625000Y-102200516I1672335J1078608D01*
G01*
%TO.C,OP_CN3*%
X146360000Y-51010000D02*
X146360000Y-49760000D01*
X145110000Y-51010000D02*
X146360000Y-51010000D01*
X136710000Y-45510000D02*
X141010000Y-45510000D01*
X136710000Y-48460000D02*
X136710000Y-45510000D01*
X135960000Y-48460000D02*
X136710000Y-48460000D01*
X145310000Y-45510000D02*
X141010000Y-45510000D01*
X145310000Y-48460000D02*
X145310000Y-45510000D01*
X146060000Y-48460000D02*
X145310000Y-48460000D01*
X135960000Y-50710000D02*
X137760000Y-50710000D01*
X135960000Y-49960000D02*
X135960000Y-50710000D01*
X137760000Y-49960000D02*
X135960000Y-49960000D01*
X137760000Y-50710000D02*
X137760000Y-49960000D01*
X144260000Y-50710000D02*
X146060000Y-50710000D01*
X144260000Y-49960000D02*
X144260000Y-50710000D01*
X146060000Y-49960000D02*
X144260000Y-49960000D01*
X146060000Y-50710000D02*
X146060000Y-49960000D01*
X139260000Y-50710000D02*
X142760000Y-50710000D01*
X139260000Y-49960000D02*
X139260000Y-50710000D01*
X142760000Y-49960000D02*
X139260000Y-49960000D01*
X142760000Y-50710000D02*
X142760000Y-49960000D01*
X135950000Y-50720000D02*
X146070000Y-50720000D01*
X135950000Y-44750000D02*
X135950000Y-50720000D01*
X146070000Y-44750000D02*
X135950000Y-44750000D01*
X146070000Y-50720000D02*
X146070000Y-44750000D01*
%TO.C,C4*%
X126785000Y-89495000D02*
X127100000Y-89495000D01*
X124360000Y-89495000D02*
X124675000Y-89495000D01*
X126785000Y-94735000D02*
X127100000Y-94735000D01*
X124360000Y-94735000D02*
X124675000Y-94735000D01*
X127100000Y-94735000D02*
X127100000Y-89495000D01*
X124360000Y-94735000D02*
X124360000Y-89495000D01*
%TO.C,C3*%
X131230000Y-83145000D02*
X131545000Y-83145000D01*
X128805000Y-83145000D02*
X129120000Y-83145000D01*
X131230000Y-88385000D02*
X131545000Y-88385000D01*
X128805000Y-88385000D02*
X129120000Y-88385000D01*
X131545000Y-88385000D02*
X131545000Y-83145000D01*
X128805000Y-88385000D02*
X128805000Y-83145000D01*
%TO.C,C2*%
X126785000Y-76795000D02*
X127100000Y-76795000D01*
X124360000Y-76795000D02*
X124675000Y-76795000D01*
X126785000Y-82035000D02*
X127100000Y-82035000D01*
X124360000Y-82035000D02*
X124675000Y-82035000D01*
X127100000Y-82035000D02*
X127100000Y-76795000D01*
X124360000Y-82035000D02*
X124360000Y-76795000D01*
%TO.C,C1*%
X121325000Y-99480000D02*
X121325000Y-99795000D01*
X121325000Y-97055000D02*
X121325000Y-97370000D01*
X116085000Y-99480000D02*
X116085000Y-99795000D01*
X116085000Y-97055000D02*
X116085000Y-97370000D01*
X116085000Y-99795000D02*
X121325000Y-99795000D01*
X116085000Y-97055000D02*
X121325000Y-97055000D01*
%TO.C,CN3*%
X117150000Y-51010000D02*
X117150000Y-49760000D01*
X115900000Y-51010000D02*
X117150000Y-51010000D01*
X110000000Y-45510000D02*
X113050000Y-45510000D01*
X110000000Y-48460000D02*
X110000000Y-45510000D01*
X109250000Y-48460000D02*
X110000000Y-48460000D01*
X116100000Y-45510000D02*
X113050000Y-45510000D01*
X116100000Y-48460000D02*
X116100000Y-45510000D01*
X116850000Y-48460000D02*
X116100000Y-48460000D01*
X109250000Y-50710000D02*
X111050000Y-50710000D01*
X109250000Y-49960000D02*
X109250000Y-50710000D01*
X111050000Y-49960000D02*
X109250000Y-49960000D01*
X111050000Y-50710000D02*
X111050000Y-49960000D01*
X115050000Y-50710000D02*
X116850000Y-50710000D01*
X115050000Y-49960000D02*
X115050000Y-50710000D01*
X116850000Y-49960000D02*
X115050000Y-49960000D01*
X116850000Y-50710000D02*
X116850000Y-49960000D01*
X112550000Y-50710000D02*
X113550000Y-50710000D01*
X112550000Y-49960000D02*
X112550000Y-50710000D01*
X113550000Y-49960000D02*
X112550000Y-49960000D01*
X113550000Y-50710000D02*
X113550000Y-49960000D01*
X109240000Y-50720000D02*
X116860000Y-50720000D01*
X109240000Y-44750000D02*
X109240000Y-50720000D01*
X116860000Y-44750000D02*
X109240000Y-44750000D01*
X116860000Y-50720000D02*
X116860000Y-44750000D01*
%TO.C,Nano1*%
X104775000Y-90170000D02*
X104775000Y-92710000D01*
X104775000Y-92710000D02*
X107445000Y-92710000D01*
X107445000Y-90170000D02*
X107445000Y-51940000D01*
X107445000Y-95380000D02*
X107445000Y-92710000D01*
X92075000Y-92710000D02*
X89405000Y-92710000D01*
X92075000Y-92710000D02*
X92075000Y-54610000D01*
X92075000Y-54610000D02*
X89405000Y-54610000D01*
X104775000Y-90170000D02*
X107445000Y-90170000D01*
X104775000Y-90170000D02*
X104775000Y-54610000D01*
X104775000Y-54610000D02*
X107445000Y-54610000D01*
X107445000Y-51940000D02*
X89405000Y-51940000D01*
X89405000Y-51940000D02*
X89405000Y-95380000D01*
X89405000Y-95380000D02*
X107445000Y-95380000D01*
%TO.C,CN1*%
X84395000Y-58885000D02*
X85445000Y-58885000D01*
X85445000Y-57835000D02*
X85445000Y-58885000D01*
X76045000Y-52785000D02*
X76045000Y-43985000D01*
X76045000Y-43985000D02*
X85245000Y-43985000D01*
X78745000Y-58685000D02*
X76045000Y-58685000D01*
X76045000Y-58685000D02*
X76045000Y-56785000D01*
X85245000Y-43985000D02*
X85245000Y-58685000D01*
X85245000Y-58685000D02*
X82645000Y-58685000D01*
%TO.C,CN2*%
X132735000Y-50720000D02*
X132735000Y-44750000D01*
X132735000Y-44750000D02*
X122615000Y-44750000D01*
X122615000Y-44750000D02*
X122615000Y-50720000D01*
X122615000Y-50720000D02*
X132735000Y-50720000D01*
X129425000Y-50710000D02*
X129425000Y-49960000D01*
X129425000Y-49960000D02*
X125925000Y-49960000D01*
X125925000Y-49960000D02*
X125925000Y-50710000D01*
X125925000Y-50710000D02*
X129425000Y-50710000D01*
X132725000Y-50710000D02*
X132725000Y-49960000D01*
X132725000Y-49960000D02*
X130925000Y-49960000D01*
X130925000Y-49960000D02*
X130925000Y-50710000D01*
X130925000Y-50710000D02*
X132725000Y-50710000D01*
X124425000Y-50710000D02*
X124425000Y-49960000D01*
X124425000Y-49960000D02*
X122625000Y-49960000D01*
X122625000Y-49960000D02*
X122625000Y-50710000D01*
X122625000Y-50710000D02*
X124425000Y-50710000D01*
X132725000Y-48460000D02*
X131975000Y-48460000D01*
X131975000Y-48460000D02*
X131975000Y-45510000D01*
X131975000Y-45510000D02*
X127675000Y-45510000D01*
X122625000Y-48460000D02*
X123375000Y-48460000D01*
X123375000Y-48460000D02*
X123375000Y-45510000D01*
X123375000Y-45510000D02*
X127675000Y-45510000D01*
X131775000Y-51010000D02*
X133025000Y-51010000D01*
X133025000Y-51010000D02*
X133025000Y-49760000D01*
%TO.C,TEST1*%
X81984214Y-93635000D02*
G75*
G03*
X81984214Y-93635000I-1414214J0D01*
G01*
X83540000Y-90515000D02*
X77600000Y-90515000D01*
X83540000Y-96755000D02*
X77600000Y-96755000D01*
X83690000Y-92295000D02*
X83690000Y-94975000D01*
X77450000Y-94975000D02*
X77450000Y-92295000D01*
%TO.C,232 Driver*%
X119835000Y-95945000D02*
X121485000Y-95945000D01*
X121485000Y-95945000D02*
X121485000Y-75505000D01*
X121485000Y-75505000D02*
X116185000Y-75505000D01*
X116185000Y-75505000D02*
X116185000Y-95945000D01*
X116185000Y-95945000D02*
X117835000Y-95945000D01*
X117835000Y-95945000D02*
G75*
G02*
X119835000Y-95945000I1000000J0D01*
G01*
%TO.C,C5*%
D14*
X108982142Y-92281666D02*
X109029761Y-92329285D01*
X109077380Y-92472142D01*
X109077380Y-92567380D01*
X109029761Y-92710238D01*
X108934523Y-92805476D01*
X108839285Y-92853095D01*
X108648809Y-92900714D01*
X108505952Y-92900714D01*
X108315476Y-92853095D01*
X108220238Y-92805476D01*
X108125000Y-92710238D01*
X108077380Y-92567380D01*
X108077380Y-92472142D01*
X108125000Y-92329285D01*
X108172619Y-92281666D01*
X108077380Y-91376904D02*
X108077380Y-91853095D01*
X108553571Y-91900714D01*
X108505952Y-91853095D01*
X108458333Y-91757857D01*
X108458333Y-91519761D01*
X108505952Y-91424523D01*
X108553571Y-91376904D01*
X108648809Y-91329285D01*
X108886904Y-91329285D01*
X108982142Y-91376904D01*
X109029761Y-91424523D01*
X109077380Y-91519761D01*
X109077380Y-91757857D01*
X109029761Y-91853095D01*
X108982142Y-91900714D01*
%TO.C,OP_ISP*%
X125444523Y-104862380D02*
X125635000Y-104862380D01*
X125730238Y-104910000D01*
X125825476Y-105005238D01*
X125873095Y-105195714D01*
X125873095Y-105529047D01*
X125825476Y-105719523D01*
X125730238Y-105814761D01*
X125635000Y-105862380D01*
X125444523Y-105862380D01*
X125349285Y-105814761D01*
X125254047Y-105719523D01*
X125206428Y-105529047D01*
X125206428Y-105195714D01*
X125254047Y-105005238D01*
X125349285Y-104910000D01*
X125444523Y-104862380D01*
X126301666Y-105862380D02*
X126301666Y-104862380D01*
X126682619Y-104862380D01*
X126777857Y-104910000D01*
X126825476Y-104957619D01*
X126873095Y-105052857D01*
X126873095Y-105195714D01*
X126825476Y-105290952D01*
X126777857Y-105338571D01*
X126682619Y-105386190D01*
X126301666Y-105386190D01*
X127063571Y-105957619D02*
X127825476Y-105957619D01*
X128063571Y-105862380D02*
X128063571Y-104862380D01*
X128492142Y-105814761D02*
X128635000Y-105862380D01*
X128873095Y-105862380D01*
X128968333Y-105814761D01*
X129015952Y-105767142D01*
X129063571Y-105671904D01*
X129063571Y-105576666D01*
X129015952Y-105481428D01*
X128968333Y-105433809D01*
X128873095Y-105386190D01*
X128682619Y-105338571D01*
X128587380Y-105290952D01*
X128539761Y-105243333D01*
X128492142Y-105148095D01*
X128492142Y-105052857D01*
X128539761Y-104957619D01*
X128587380Y-104910000D01*
X128682619Y-104862380D01*
X128920714Y-104862380D01*
X129063571Y-104910000D01*
X129492142Y-105862380D02*
X129492142Y-104862380D01*
X129873095Y-104862380D01*
X129968333Y-104910000D01*
X130015952Y-104957619D01*
X130063571Y-105052857D01*
X130063571Y-105195714D01*
X130015952Y-105290952D01*
X129968333Y-105338571D01*
X129873095Y-105386190D01*
X129492142Y-105386190D01*
%TO.C,PWR_R1*%
X79859523Y-70132380D02*
X79859523Y-69132380D01*
X80240476Y-69132380D01*
X80335714Y-69180000D01*
X80383333Y-69227619D01*
X80430952Y-69322857D01*
X80430952Y-69465714D01*
X80383333Y-69560952D01*
X80335714Y-69608571D01*
X80240476Y-69656190D01*
X79859523Y-69656190D01*
X80764285Y-69132380D02*
X81002380Y-70132380D01*
X81192857Y-69418095D01*
X81383333Y-70132380D01*
X81621428Y-69132380D01*
X82573809Y-70132380D02*
X82240476Y-69656190D01*
X82002380Y-70132380D02*
X82002380Y-69132380D01*
X82383333Y-69132380D01*
X82478571Y-69180000D01*
X82526190Y-69227619D01*
X82573809Y-69322857D01*
X82573809Y-69465714D01*
X82526190Y-69560952D01*
X82478571Y-69608571D01*
X82383333Y-69656190D01*
X82002380Y-69656190D01*
X82764285Y-70227619D02*
X83526190Y-70227619D01*
X84335714Y-70132380D02*
X84002380Y-69656190D01*
X83764285Y-70132380D02*
X83764285Y-69132380D01*
X84145238Y-69132380D01*
X84240476Y-69180000D01*
X84288095Y-69227619D01*
X84335714Y-69322857D01*
X84335714Y-69465714D01*
X84288095Y-69560952D01*
X84240476Y-69608571D01*
X84145238Y-69656190D01*
X83764285Y-69656190D01*
X85288095Y-70132380D02*
X84716666Y-70132380D01*
X85002380Y-70132380D02*
X85002380Y-69132380D01*
X84907142Y-69275238D01*
X84811904Y-69370476D01*
X84716666Y-69418095D01*
X82430952Y-65392380D02*
X81859523Y-65392380D01*
X82145238Y-65392380D02*
X82145238Y-64392380D01*
X82050000Y-64535238D01*
X81954761Y-64630476D01*
X81859523Y-64678095D01*
X82859523Y-65392380D02*
X82859523Y-64392380D01*
X82954761Y-65011428D02*
X83240476Y-65392380D01*
X83240476Y-64725714D02*
X82859523Y-65106666D01*
%TO.C,PWR_LED1*%
X71787380Y-77842619D02*
X70787380Y-77842619D01*
X70787380Y-77461666D01*
X70835000Y-77366428D01*
X70882619Y-77318809D01*
X70977857Y-77271190D01*
X71120714Y-77271190D01*
X71215952Y-77318809D01*
X71263571Y-77366428D01*
X71311190Y-77461666D01*
X71311190Y-77842619D01*
X70787380Y-76937857D02*
X71787380Y-76699761D01*
X71073095Y-76509285D01*
X71787380Y-76318809D01*
X70787380Y-76080714D01*
X71787380Y-75128333D02*
X71311190Y-75461666D01*
X71787380Y-75699761D02*
X70787380Y-75699761D01*
X70787380Y-75318809D01*
X70835000Y-75223571D01*
X70882619Y-75175952D01*
X70977857Y-75128333D01*
X71120714Y-75128333D01*
X71215952Y-75175952D01*
X71263571Y-75223571D01*
X71311190Y-75318809D01*
X71311190Y-75699761D01*
X71882619Y-74937857D02*
X71882619Y-74175952D01*
X71787380Y-73461666D02*
X71787380Y-73937857D01*
X70787380Y-73937857D01*
X71263571Y-73128333D02*
X71263571Y-72795000D01*
X71787380Y-72652142D02*
X71787380Y-73128333D01*
X70787380Y-73128333D01*
X70787380Y-72652142D01*
X71787380Y-72223571D02*
X70787380Y-72223571D01*
X70787380Y-71985476D01*
X70835000Y-71842619D01*
X70930238Y-71747380D01*
X71025476Y-71699761D01*
X71215952Y-71652142D01*
X71358809Y-71652142D01*
X71549285Y-71699761D01*
X71644523Y-71747380D01*
X71739761Y-71842619D01*
X71787380Y-71985476D01*
X71787380Y-72223571D01*
X71787380Y-70699761D02*
X71787380Y-71271190D01*
X71787380Y-70985476D02*
X70787380Y-70985476D01*
X70930238Y-71080714D01*
X71025476Y-71175952D01*
X71073095Y-71271190D01*
%TO.C,OP_MEGA328P*%
X134207857Y-58717380D02*
X134398333Y-58717380D01*
X134493571Y-58765000D01*
X134588809Y-58860238D01*
X134636428Y-59050714D01*
X134636428Y-59384047D01*
X134588809Y-59574523D01*
X134493571Y-59669761D01*
X134398333Y-59717380D01*
X134207857Y-59717380D01*
X134112619Y-59669761D01*
X134017380Y-59574523D01*
X133969761Y-59384047D01*
X133969761Y-59050714D01*
X134017380Y-58860238D01*
X134112619Y-58765000D01*
X134207857Y-58717380D01*
X135065000Y-59717380D02*
X135065000Y-58717380D01*
X135445952Y-58717380D01*
X135541190Y-58765000D01*
X135588809Y-58812619D01*
X135636428Y-58907857D01*
X135636428Y-59050714D01*
X135588809Y-59145952D01*
X135541190Y-59193571D01*
X135445952Y-59241190D01*
X135065000Y-59241190D01*
X135826904Y-59812619D02*
X136588809Y-59812619D01*
X136826904Y-59717380D02*
X136826904Y-58717380D01*
X137160238Y-59431666D01*
X137493571Y-58717380D01*
X137493571Y-59717380D01*
X137969761Y-59193571D02*
X138303095Y-59193571D01*
X138445952Y-59717380D02*
X137969761Y-59717380D01*
X137969761Y-58717380D01*
X138445952Y-58717380D01*
X139398333Y-58765000D02*
X139303095Y-58717380D01*
X139160238Y-58717380D01*
X139017380Y-58765000D01*
X138922142Y-58860238D01*
X138874523Y-58955476D01*
X138826904Y-59145952D01*
X138826904Y-59288809D01*
X138874523Y-59479285D01*
X138922142Y-59574523D01*
X139017380Y-59669761D01*
X139160238Y-59717380D01*
X139255476Y-59717380D01*
X139398333Y-59669761D01*
X139445952Y-59622142D01*
X139445952Y-59288809D01*
X139255476Y-59288809D01*
X139826904Y-59431666D02*
X140303095Y-59431666D01*
X139731666Y-59717380D02*
X140065000Y-58717380D01*
X140398333Y-59717380D01*
X140636428Y-58717380D02*
X141255476Y-58717380D01*
X140922142Y-59098333D01*
X141065000Y-59098333D01*
X141160238Y-59145952D01*
X141207857Y-59193571D01*
X141255476Y-59288809D01*
X141255476Y-59526904D01*
X141207857Y-59622142D01*
X141160238Y-59669761D01*
X141065000Y-59717380D01*
X140779285Y-59717380D01*
X140684047Y-59669761D01*
X140636428Y-59622142D01*
X141636428Y-58812619D02*
X141684047Y-58765000D01*
X141779285Y-58717380D01*
X142017380Y-58717380D01*
X142112619Y-58765000D01*
X142160238Y-58812619D01*
X142207857Y-58907857D01*
X142207857Y-59003095D01*
X142160238Y-59145952D01*
X141588809Y-59717380D01*
X142207857Y-59717380D01*
X142779285Y-59145952D02*
X142684047Y-59098333D01*
X142636428Y-59050714D01*
X142588809Y-58955476D01*
X142588809Y-58907857D01*
X142636428Y-58812619D01*
X142684047Y-58765000D01*
X142779285Y-58717380D01*
X142969761Y-58717380D01*
X143065000Y-58765000D01*
X143112619Y-58812619D01*
X143160238Y-58907857D01*
X143160238Y-58955476D01*
X143112619Y-59050714D01*
X143065000Y-59098333D01*
X142969761Y-59145952D01*
X142779285Y-59145952D01*
X142684047Y-59193571D01*
X142636428Y-59241190D01*
X142588809Y-59336428D01*
X142588809Y-59526904D01*
X142636428Y-59622142D01*
X142684047Y-59669761D01*
X142779285Y-59717380D01*
X142969761Y-59717380D01*
X143065000Y-59669761D01*
X143112619Y-59622142D01*
X143160238Y-59526904D01*
X143160238Y-59336428D01*
X143112619Y-59241190D01*
X143065000Y-59193571D01*
X142969761Y-59145952D01*
X143588809Y-59717380D02*
X143588809Y-58717380D01*
X143969761Y-58717380D01*
X144065000Y-58765000D01*
X144112619Y-58812619D01*
X144160238Y-58907857D01*
X144160238Y-59050714D01*
X144112619Y-59145952D01*
X144065000Y-59193571D01*
X143969761Y-59241190D01*
X143588809Y-59241190D01*
%TO.C,OP_R2*%
X132167380Y-63547380D02*
X132167380Y-63356904D01*
X132215000Y-63261666D01*
X132310238Y-63166428D01*
X132500714Y-63118809D01*
X132834047Y-63118809D01*
X133024523Y-63166428D01*
X133119761Y-63261666D01*
X133167380Y-63356904D01*
X133167380Y-63547380D01*
X133119761Y-63642619D01*
X133024523Y-63737857D01*
X132834047Y-63785476D01*
X132500714Y-63785476D01*
X132310238Y-63737857D01*
X132215000Y-63642619D01*
X132167380Y-63547380D01*
X133167380Y-62690238D02*
X132167380Y-62690238D01*
X132167380Y-62309285D01*
X132215000Y-62214047D01*
X132262619Y-62166428D01*
X132357857Y-62118809D01*
X132500714Y-62118809D01*
X132595952Y-62166428D01*
X132643571Y-62214047D01*
X132691190Y-62309285D01*
X132691190Y-62690238D01*
X133262619Y-61928333D02*
X133262619Y-61166428D01*
X133167380Y-60356904D02*
X132691190Y-60690238D01*
X133167380Y-60928333D02*
X132167380Y-60928333D01*
X132167380Y-60547380D01*
X132215000Y-60452142D01*
X132262619Y-60404523D01*
X132357857Y-60356904D01*
X132500714Y-60356904D01*
X132595952Y-60404523D01*
X132643571Y-60452142D01*
X132691190Y-60547380D01*
X132691190Y-60928333D01*
X132262619Y-59975952D02*
X132215000Y-59928333D01*
X132167380Y-59833095D01*
X132167380Y-59595000D01*
X132215000Y-59499761D01*
X132262619Y-59452142D01*
X132357857Y-59404523D01*
X132453095Y-59404523D01*
X132595952Y-59452142D01*
X133167380Y-60023571D01*
X133167380Y-59404523D01*
X133632380Y-66794047D02*
X133632380Y-67365476D01*
X133632380Y-67079761D02*
X132632380Y-67079761D01*
X132775238Y-67175000D01*
X132870476Y-67270238D01*
X132918095Y-67365476D01*
X133632380Y-66365476D02*
X132632380Y-66365476D01*
X133251428Y-66270238D02*
X133632380Y-65984523D01*
X132965714Y-65984523D02*
X133346666Y-66365476D01*
%TO.C,OP_R1*%
X124547380Y-62912380D02*
X124547380Y-62721904D01*
X124595000Y-62626666D01*
X124690238Y-62531428D01*
X124880714Y-62483809D01*
X125214047Y-62483809D01*
X125404523Y-62531428D01*
X125499761Y-62626666D01*
X125547380Y-62721904D01*
X125547380Y-62912380D01*
X125499761Y-63007619D01*
X125404523Y-63102857D01*
X125214047Y-63150476D01*
X124880714Y-63150476D01*
X124690238Y-63102857D01*
X124595000Y-63007619D01*
X124547380Y-62912380D01*
X125547380Y-62055238D02*
X124547380Y-62055238D01*
X124547380Y-61674285D01*
X124595000Y-61579047D01*
X124642619Y-61531428D01*
X124737857Y-61483809D01*
X124880714Y-61483809D01*
X124975952Y-61531428D01*
X125023571Y-61579047D01*
X125071190Y-61674285D01*
X125071190Y-62055238D01*
X125642619Y-61293333D02*
X125642619Y-60531428D01*
X125547380Y-59721904D02*
X125071190Y-60055238D01*
X125547380Y-60293333D02*
X124547380Y-60293333D01*
X124547380Y-59912380D01*
X124595000Y-59817142D01*
X124642619Y-59769523D01*
X124737857Y-59721904D01*
X124880714Y-59721904D01*
X124975952Y-59769523D01*
X125023571Y-59817142D01*
X125071190Y-59912380D01*
X125071190Y-60293333D01*
X125547380Y-58769523D02*
X125547380Y-59340952D01*
X125547380Y-59055238D02*
X124547380Y-59055238D01*
X124690238Y-59150476D01*
X124785476Y-59245714D01*
X124833095Y-59340952D01*
X124912380Y-67270238D02*
X124912380Y-67841666D01*
X124912380Y-67555952D02*
X123912380Y-67555952D01*
X124055238Y-67651190D01*
X124150476Y-67746428D01*
X124198095Y-67841666D01*
X123912380Y-66651190D02*
X123912380Y-66555952D01*
X123960000Y-66460714D01*
X124007619Y-66413095D01*
X124102857Y-66365476D01*
X124293333Y-66317857D01*
X124531428Y-66317857D01*
X124721904Y-66365476D01*
X124817142Y-66413095D01*
X124864761Y-66460714D01*
X124912380Y-66555952D01*
X124912380Y-66651190D01*
X124864761Y-66746428D01*
X124817142Y-66794047D01*
X124721904Y-66841666D01*
X124531428Y-66889285D01*
X124293333Y-66889285D01*
X124102857Y-66841666D01*
X124007619Y-66794047D01*
X123960000Y-66746428D01*
X123912380Y-66651190D01*
X124912380Y-65889285D02*
X123912380Y-65889285D01*
X124531428Y-65794047D02*
X124912380Y-65508333D01*
X124245714Y-65508333D02*
X124626666Y-65889285D01*
%TO.C,OP_LED1*%
X136255476Y-103377380D02*
X136445952Y-103377380D01*
X136541190Y-103425000D01*
X136636428Y-103520238D01*
X136684047Y-103710714D01*
X136684047Y-104044047D01*
X136636428Y-104234523D01*
X136541190Y-104329761D01*
X136445952Y-104377380D01*
X136255476Y-104377380D01*
X136160238Y-104329761D01*
X136065000Y-104234523D01*
X136017380Y-104044047D01*
X136017380Y-103710714D01*
X136065000Y-103520238D01*
X136160238Y-103425000D01*
X136255476Y-103377380D01*
X137112619Y-104377380D02*
X137112619Y-103377380D01*
X137493571Y-103377380D01*
X137588809Y-103425000D01*
X137636428Y-103472619D01*
X137684047Y-103567857D01*
X137684047Y-103710714D01*
X137636428Y-103805952D01*
X137588809Y-103853571D01*
X137493571Y-103901190D01*
X137112619Y-103901190D01*
X137874523Y-104472619D02*
X138636428Y-104472619D01*
X139350714Y-104377380D02*
X138874523Y-104377380D01*
X138874523Y-103377380D01*
X139684047Y-103853571D02*
X140017380Y-103853571D01*
X140160238Y-104377380D02*
X139684047Y-104377380D01*
X139684047Y-103377380D01*
X140160238Y-103377380D01*
X140588809Y-104377380D02*
X140588809Y-103377380D01*
X140826904Y-103377380D01*
X140969761Y-103425000D01*
X141065000Y-103520238D01*
X141112619Y-103615476D01*
X141160238Y-103805952D01*
X141160238Y-103948809D01*
X141112619Y-104139285D01*
X141065000Y-104234523D01*
X140969761Y-104329761D01*
X140826904Y-104377380D01*
X140588809Y-104377380D01*
X142112619Y-104377380D02*
X141541190Y-104377380D01*
X141826904Y-104377380D02*
X141826904Y-103377380D01*
X141731666Y-103520238D01*
X141636428Y-103615476D01*
X141541190Y-103663095D01*
X133398333Y-97457380D02*
X133636428Y-98457380D01*
X133826904Y-97743095D01*
X134017380Y-98457380D01*
X134255476Y-97457380D01*
X134779285Y-98457380D02*
X134684047Y-98409761D01*
X134636428Y-98362142D01*
X134588809Y-98266904D01*
X134588809Y-97981190D01*
X134636428Y-97885952D01*
X134684047Y-97838333D01*
X134779285Y-97790714D01*
X134922142Y-97790714D01*
X135017380Y-97838333D01*
X135065000Y-97885952D01*
X135112619Y-97981190D01*
X135112619Y-98266904D01*
X135065000Y-98362142D01*
X135017380Y-98409761D01*
X134922142Y-98457380D01*
X134779285Y-98457380D01*
X135541190Y-98457380D02*
X135541190Y-97790714D01*
X135541190Y-97981190D02*
X135588809Y-97885952D01*
X135636428Y-97838333D01*
X135731666Y-97790714D01*
X135826904Y-97790714D01*
X136160238Y-98457380D02*
X136160238Y-97457380D01*
X136255476Y-98076428D02*
X136541190Y-98457380D01*
X136541190Y-97790714D02*
X136160238Y-98171666D01*
X137445952Y-98457380D02*
X136969761Y-98457380D01*
X136969761Y-97457380D01*
X137779285Y-97933571D02*
X138112619Y-97933571D01*
X138255476Y-98457380D02*
X137779285Y-98457380D01*
X137779285Y-97457380D01*
X138255476Y-97457380D01*
X138684047Y-98457380D02*
X138684047Y-97457380D01*
X138922142Y-97457380D01*
X139065000Y-97505000D01*
X139160238Y-97600238D01*
X139207857Y-97695476D01*
X139255476Y-97885952D01*
X139255476Y-98028809D01*
X139207857Y-98219285D01*
X139160238Y-98314523D01*
X139065000Y-98409761D01*
X138922142Y-98457380D01*
X138684047Y-98457380D01*
X140255476Y-98362142D02*
X140207857Y-98409761D01*
X140065000Y-98457380D01*
X139969761Y-98457380D01*
X139826904Y-98409761D01*
X139731666Y-98314523D01*
X139684047Y-98219285D01*
X139636428Y-98028809D01*
X139636428Y-97885952D01*
X139684047Y-97695476D01*
X139731666Y-97600238D01*
X139826904Y-97505000D01*
X139969761Y-97457380D01*
X140065000Y-97457380D01*
X140207857Y-97505000D01*
X140255476Y-97552619D01*
X140826904Y-98457380D02*
X140731666Y-98409761D01*
X140684047Y-98362142D01*
X140636428Y-98266904D01*
X140636428Y-97981190D01*
X140684047Y-97885952D01*
X140731666Y-97838333D01*
X140826904Y-97790714D01*
X140969761Y-97790714D01*
X141065000Y-97838333D01*
X141112619Y-97885952D01*
X141160238Y-97981190D01*
X141160238Y-98266904D01*
X141112619Y-98362142D01*
X141065000Y-98409761D01*
X140969761Y-98457380D01*
X140826904Y-98457380D01*
X141588809Y-97790714D02*
X141588809Y-98457380D01*
X141588809Y-97885952D02*
X141636428Y-97838333D01*
X141731666Y-97790714D01*
X141874523Y-97790714D01*
X141969761Y-97838333D01*
X142017380Y-97933571D01*
X142017380Y-98457380D01*
X142350714Y-97790714D02*
X142731666Y-97790714D01*
X142493571Y-97457380D02*
X142493571Y-98314523D01*
X142541190Y-98409761D01*
X142636428Y-98457380D01*
X142731666Y-98457380D01*
X143065000Y-98457380D02*
X143065000Y-97790714D01*
X143065000Y-97981190D02*
X143112619Y-97885952D01*
X143160238Y-97838333D01*
X143255476Y-97790714D01*
X143350714Y-97790714D01*
X143826904Y-98457380D02*
X143731666Y-98409761D01*
X143684047Y-98362142D01*
X143636428Y-98266904D01*
X143636428Y-97981190D01*
X143684047Y-97885952D01*
X143731666Y-97838333D01*
X143826904Y-97790714D01*
X143969761Y-97790714D01*
X144065000Y-97838333D01*
X144112619Y-97885952D01*
X144160238Y-97981190D01*
X144160238Y-98266904D01*
X144112619Y-98362142D01*
X144065000Y-98409761D01*
X143969761Y-98457380D01*
X143826904Y-98457380D01*
X144731666Y-98457380D02*
X144636428Y-98409761D01*
X144588809Y-98314523D01*
X144588809Y-97457380D01*
%TO.C,OP_CN3*%
X138533809Y-51522380D02*
X138724285Y-51522380D01*
X138819523Y-51570000D01*
X138914761Y-51665238D01*
X138962380Y-51855714D01*
X138962380Y-52189047D01*
X138914761Y-52379523D01*
X138819523Y-52474761D01*
X138724285Y-52522380D01*
X138533809Y-52522380D01*
X138438571Y-52474761D01*
X138343333Y-52379523D01*
X138295714Y-52189047D01*
X138295714Y-51855714D01*
X138343333Y-51665238D01*
X138438571Y-51570000D01*
X138533809Y-51522380D01*
X139390952Y-52522380D02*
X139390952Y-51522380D01*
X139771904Y-51522380D01*
X139867142Y-51570000D01*
X139914761Y-51617619D01*
X139962380Y-51712857D01*
X139962380Y-51855714D01*
X139914761Y-51950952D01*
X139867142Y-51998571D01*
X139771904Y-52046190D01*
X139390952Y-52046190D01*
X140152857Y-52617619D02*
X140914761Y-52617619D01*
X141724285Y-52427142D02*
X141676666Y-52474761D01*
X141533809Y-52522380D01*
X141438571Y-52522380D01*
X141295714Y-52474761D01*
X141200476Y-52379523D01*
X141152857Y-52284285D01*
X141105238Y-52093809D01*
X141105238Y-51950952D01*
X141152857Y-51760476D01*
X141200476Y-51665238D01*
X141295714Y-51570000D01*
X141438571Y-51522380D01*
X141533809Y-51522380D01*
X141676666Y-51570000D01*
X141724285Y-51617619D01*
X142152857Y-52522380D02*
X142152857Y-51522380D01*
X142724285Y-52522380D01*
X142724285Y-51522380D01*
X143105238Y-51522380D02*
X143724285Y-51522380D01*
X143390952Y-51903333D01*
X143533809Y-51903333D01*
X143629047Y-51950952D01*
X143676666Y-51998571D01*
X143724285Y-52093809D01*
X143724285Y-52331904D01*
X143676666Y-52427142D01*
X143629047Y-52474761D01*
X143533809Y-52522380D01*
X143248095Y-52522380D01*
X143152857Y-52474761D01*
X143105238Y-52427142D01*
X133771666Y-52792380D02*
X134438333Y-53792380D01*
X134438333Y-52792380D02*
X133771666Y-53792380D01*
X134819285Y-53792380D02*
X134819285Y-52792380D01*
X134819285Y-53268571D02*
X135390714Y-53268571D01*
X135390714Y-53792380D02*
X135390714Y-52792380D01*
X136628809Y-53792380D02*
X136628809Y-52792380D01*
X137200238Y-53792380D01*
X137200238Y-52792380D01*
X138105000Y-53125714D02*
X138105000Y-53792380D01*
X137676428Y-53125714D02*
X137676428Y-53649523D01*
X137724047Y-53744761D01*
X137819285Y-53792380D01*
X137962142Y-53792380D01*
X138057380Y-53744761D01*
X138105000Y-53697142D01*
X139105000Y-53792380D02*
X138533571Y-53792380D01*
X138819285Y-53792380D02*
X138819285Y-52792380D01*
X138724047Y-52935238D01*
X138628809Y-53030476D01*
X138533571Y-53078095D01*
X139533571Y-53697142D02*
X139581190Y-53744761D01*
X139533571Y-53792380D01*
X139485952Y-53744761D01*
X139533571Y-53697142D01*
X139533571Y-53792380D01*
X140533571Y-53792380D02*
X139962142Y-53792380D01*
X140247857Y-53792380D02*
X140247857Y-52792380D01*
X140152619Y-52935238D01*
X140057380Y-53030476D01*
X139962142Y-53078095D01*
X140724047Y-53887619D02*
X141485952Y-53887619D01*
X141724047Y-52792380D02*
X141724047Y-53601904D01*
X141771666Y-53697142D01*
X141819285Y-53744761D01*
X141914523Y-53792380D01*
X142105000Y-53792380D01*
X142200238Y-53744761D01*
X142247857Y-53697142D01*
X142295476Y-53601904D01*
X142295476Y-52792380D01*
X142724047Y-53506666D02*
X143200238Y-53506666D01*
X142628809Y-53792380D02*
X142962142Y-52792380D01*
X143295476Y-53792380D01*
X144200238Y-53792380D02*
X143866904Y-53316190D01*
X143628809Y-53792380D02*
X143628809Y-52792380D01*
X144009761Y-52792380D01*
X144105000Y-52840000D01*
X144152619Y-52887619D01*
X144200238Y-52982857D01*
X144200238Y-53125714D01*
X144152619Y-53220952D01*
X144105000Y-53268571D01*
X144009761Y-53316190D01*
X143628809Y-53316190D01*
X144485952Y-52792380D02*
X145057380Y-52792380D01*
X144771666Y-53792380D02*
X144771666Y-52792380D01*
X145914523Y-53792380D02*
X145343095Y-53792380D01*
X145628809Y-53792380D02*
X145628809Y-52792380D01*
X145533571Y-52935238D01*
X145438333Y-53030476D01*
X145343095Y-53078095D01*
X146105000Y-53887619D02*
X146866904Y-53887619D01*
X147581190Y-53792380D02*
X147105000Y-53792380D01*
X147105000Y-52792380D01*
X147914523Y-53268571D02*
X148247857Y-53268571D01*
X148390714Y-53792380D02*
X147914523Y-53792380D01*
X147914523Y-52792380D01*
X148390714Y-52792380D01*
X148819285Y-53792380D02*
X148819285Y-52792380D01*
X149057380Y-52792380D01*
X149200238Y-52840000D01*
X149295476Y-52935238D01*
X149343095Y-53030476D01*
X149390714Y-53220952D01*
X149390714Y-53363809D01*
X149343095Y-53554285D01*
X149295476Y-53649523D01*
X149200238Y-53744761D01*
X149057380Y-53792380D01*
X148819285Y-53792380D01*
%TO.C,C4*%
X128627142Y-92241666D02*
X128674761Y-92289285D01*
X128722380Y-92432142D01*
X128722380Y-92527380D01*
X128674761Y-92670238D01*
X128579523Y-92765476D01*
X128484285Y-92813095D01*
X128293809Y-92860714D01*
X128150952Y-92860714D01*
X127960476Y-92813095D01*
X127865238Y-92765476D01*
X127770000Y-92670238D01*
X127722380Y-92527380D01*
X127722380Y-92432142D01*
X127770000Y-92289285D01*
X127817619Y-92241666D01*
X128055714Y-91384523D02*
X128722380Y-91384523D01*
X127674761Y-91622619D02*
X128389047Y-91860714D01*
X128389047Y-91241666D01*
%TO.C,C3*%
X128032142Y-85931666D02*
X128079761Y-85979285D01*
X128127380Y-86122142D01*
X128127380Y-86217380D01*
X128079761Y-86360238D01*
X127984523Y-86455476D01*
X127889285Y-86503095D01*
X127698809Y-86550714D01*
X127555952Y-86550714D01*
X127365476Y-86503095D01*
X127270238Y-86455476D01*
X127175000Y-86360238D01*
X127127380Y-86217380D01*
X127127380Y-86122142D01*
X127175000Y-85979285D01*
X127222619Y-85931666D01*
X127127380Y-85598333D02*
X127127380Y-84979285D01*
X127508333Y-85312619D01*
X127508333Y-85169761D01*
X127555952Y-85074523D01*
X127603571Y-85026904D01*
X127698809Y-84979285D01*
X127936904Y-84979285D01*
X128032142Y-85026904D01*
X128079761Y-85074523D01*
X128127380Y-85169761D01*
X128127380Y-85455476D01*
X128079761Y-85550714D01*
X128032142Y-85598333D01*
%TO.C,C2*%
X128627142Y-79581666D02*
X128674761Y-79629285D01*
X128722380Y-79772142D01*
X128722380Y-79867380D01*
X128674761Y-80010238D01*
X128579523Y-80105476D01*
X128484285Y-80153095D01*
X128293809Y-80200714D01*
X128150952Y-80200714D01*
X127960476Y-80153095D01*
X127865238Y-80105476D01*
X127770000Y-80010238D01*
X127722380Y-79867380D01*
X127722380Y-79772142D01*
X127770000Y-79629285D01*
X127817619Y-79581666D01*
X127817619Y-79200714D02*
X127770000Y-79153095D01*
X127722380Y-79057857D01*
X127722380Y-78819761D01*
X127770000Y-78724523D01*
X127817619Y-78676904D01*
X127912857Y-78629285D01*
X128008095Y-78629285D01*
X128150952Y-78676904D01*
X128722380Y-79248333D01*
X128722380Y-78629285D01*
%TO.C,C1*%
X118538333Y-101322142D02*
X118490714Y-101369761D01*
X118347857Y-101417380D01*
X118252619Y-101417380D01*
X118109761Y-101369761D01*
X118014523Y-101274523D01*
X117966904Y-101179285D01*
X117919285Y-100988809D01*
X117919285Y-100845952D01*
X117966904Y-100655476D01*
X118014523Y-100560238D01*
X118109761Y-100465000D01*
X118252619Y-100417380D01*
X118347857Y-100417380D01*
X118490714Y-100465000D01*
X118538333Y-100512619D01*
X119490714Y-101417380D02*
X118919285Y-101417380D01*
X119205000Y-101417380D02*
X119205000Y-100417380D01*
X119109761Y-100560238D01*
X119014523Y-100655476D01*
X118919285Y-100703095D01*
%TO.C,CN3*%
X112359523Y-52167142D02*
X112311904Y-52214761D01*
X112169047Y-52262380D01*
X112073809Y-52262380D01*
X111930952Y-52214761D01*
X111835714Y-52119523D01*
X111788095Y-52024285D01*
X111740476Y-51833809D01*
X111740476Y-51690952D01*
X111788095Y-51500476D01*
X111835714Y-51405238D01*
X111930952Y-51310000D01*
X112073809Y-51262380D01*
X112169047Y-51262380D01*
X112311904Y-51310000D01*
X112359523Y-51357619D01*
X112788095Y-52262380D02*
X112788095Y-51262380D01*
X113359523Y-52262380D01*
X113359523Y-51262380D01*
X113740476Y-51262380D02*
X114359523Y-51262380D01*
X114026190Y-51643333D01*
X114169047Y-51643333D01*
X114264285Y-51690952D01*
X114311904Y-51738571D01*
X114359523Y-51833809D01*
X114359523Y-52071904D01*
X114311904Y-52167142D01*
X114264285Y-52214761D01*
X114169047Y-52262380D01*
X113883333Y-52262380D01*
X113788095Y-52214761D01*
X113740476Y-52167142D01*
X108764285Y-43826666D02*
X109240476Y-43826666D01*
X108669047Y-44112380D02*
X109002380Y-43112380D01*
X109335714Y-44112380D01*
X109811904Y-44112380D02*
X109716666Y-44064761D01*
X109669047Y-43969523D01*
X109669047Y-43112380D01*
X110050000Y-43445714D02*
X110430952Y-43445714D01*
X110192857Y-43112380D02*
X110192857Y-43969523D01*
X110240476Y-44064761D01*
X110335714Y-44112380D01*
X110430952Y-44112380D01*
X111383333Y-43112380D02*
X111954761Y-43112380D01*
X111669047Y-44112380D02*
X111669047Y-43112380D01*
X112288095Y-43588571D02*
X112621428Y-43588571D01*
X112764285Y-44112380D02*
X112288095Y-44112380D01*
X112288095Y-43112380D01*
X112764285Y-43112380D01*
X113145238Y-44064761D02*
X113288095Y-44112380D01*
X113526190Y-44112380D01*
X113621428Y-44064761D01*
X113669047Y-44017142D01*
X113716666Y-43921904D01*
X113716666Y-43826666D01*
X113669047Y-43731428D01*
X113621428Y-43683809D01*
X113526190Y-43636190D01*
X113335714Y-43588571D01*
X113240476Y-43540952D01*
X113192857Y-43493333D01*
X113145238Y-43398095D01*
X113145238Y-43302857D01*
X113192857Y-43207619D01*
X113240476Y-43160000D01*
X113335714Y-43112380D01*
X113573809Y-43112380D01*
X113716666Y-43160000D01*
X114002380Y-43112380D02*
X114573809Y-43112380D01*
X114288095Y-44112380D02*
X114288095Y-43112380D01*
X115621428Y-44064761D02*
X115764285Y-44112380D01*
X116002380Y-44112380D01*
X116097619Y-44064761D01*
X116145238Y-44017142D01*
X116192857Y-43921904D01*
X116192857Y-43826666D01*
X116145238Y-43731428D01*
X116097619Y-43683809D01*
X116002380Y-43636190D01*
X115811904Y-43588571D01*
X115716666Y-43540952D01*
X115669047Y-43493333D01*
X115621428Y-43398095D01*
X115621428Y-43302857D01*
X115669047Y-43207619D01*
X115716666Y-43160000D01*
X115811904Y-43112380D01*
X116050000Y-43112380D01*
X116192857Y-43160000D01*
X116526190Y-43112380D02*
X116764285Y-44112380D01*
X116954761Y-43398095D01*
X117145238Y-44112380D01*
X117383333Y-43112380D01*
%TO.C,Nano1*%
X96305952Y-99512380D02*
X96305952Y-98512380D01*
X96877380Y-99512380D01*
X96877380Y-98512380D01*
X97782142Y-99512380D02*
X97782142Y-98988571D01*
X97734523Y-98893333D01*
X97639285Y-98845714D01*
X97448809Y-98845714D01*
X97353571Y-98893333D01*
X97782142Y-99464761D02*
X97686904Y-99512380D01*
X97448809Y-99512380D01*
X97353571Y-99464761D01*
X97305952Y-99369523D01*
X97305952Y-99274285D01*
X97353571Y-99179047D01*
X97448809Y-99131428D01*
X97686904Y-99131428D01*
X97782142Y-99083809D01*
X98258333Y-98845714D02*
X98258333Y-99512380D01*
X98258333Y-98940952D02*
X98305952Y-98893333D01*
X98401190Y-98845714D01*
X98544047Y-98845714D01*
X98639285Y-98893333D01*
X98686904Y-98988571D01*
X98686904Y-99512380D01*
X99305952Y-99512380D02*
X99210714Y-99464761D01*
X99163095Y-99417142D01*
X99115476Y-99321904D01*
X99115476Y-99036190D01*
X99163095Y-98940952D01*
X99210714Y-98893333D01*
X99305952Y-98845714D01*
X99448809Y-98845714D01*
X99544047Y-98893333D01*
X99591666Y-98940952D01*
X99639285Y-99036190D01*
X99639285Y-99321904D01*
X99591666Y-99417142D01*
X99544047Y-99464761D01*
X99448809Y-99512380D01*
X99305952Y-99512380D01*
X100591666Y-99512380D02*
X100020238Y-99512380D01*
X100305952Y-99512380D02*
X100305952Y-98512380D01*
X100210714Y-98655238D01*
X100115476Y-98750476D01*
X100020238Y-98798095D01*
%TO.C,CN1*%
X75252142Y-50025476D02*
X75299761Y-50073095D01*
X75347380Y-50215952D01*
X75347380Y-50311190D01*
X75299761Y-50454047D01*
X75204523Y-50549285D01*
X75109285Y-50596904D01*
X74918809Y-50644523D01*
X74775952Y-50644523D01*
X74585476Y-50596904D01*
X74490238Y-50549285D01*
X74395000Y-50454047D01*
X74347380Y-50311190D01*
X74347380Y-50215952D01*
X74395000Y-50073095D01*
X74442619Y-50025476D01*
X75347380Y-49596904D02*
X74347380Y-49596904D01*
X75347380Y-49025476D01*
X74347380Y-49025476D01*
X75347380Y-48025476D02*
X75347380Y-48596904D01*
X75347380Y-48311190D02*
X74347380Y-48311190D01*
X74490238Y-48406428D01*
X74585476Y-48501666D01*
X74633095Y-48596904D01*
X86597380Y-53251666D02*
X85597380Y-53251666D01*
X85597380Y-53013571D01*
X85645000Y-52870714D01*
X85740238Y-52775476D01*
X85835476Y-52727857D01*
X86025952Y-52680238D01*
X86168809Y-52680238D01*
X86359285Y-52727857D01*
X86454523Y-52775476D01*
X86549761Y-52870714D01*
X86597380Y-53013571D01*
X86597380Y-53251666D01*
X86502142Y-51680238D02*
X86549761Y-51727857D01*
X86597380Y-51870714D01*
X86597380Y-51965952D01*
X86549761Y-52108809D01*
X86454523Y-52204047D01*
X86359285Y-52251666D01*
X86168809Y-52299285D01*
X86025952Y-52299285D01*
X85835476Y-52251666D01*
X85740238Y-52204047D01*
X85645000Y-52108809D01*
X85597380Y-51965952D01*
X85597380Y-51870714D01*
X85645000Y-51727857D01*
X85692619Y-51680238D01*
X85597380Y-50775476D02*
X85597380Y-51251666D01*
X86073571Y-51299285D01*
X86025952Y-51251666D01*
X85978333Y-51156428D01*
X85978333Y-50918333D01*
X86025952Y-50823095D01*
X86073571Y-50775476D01*
X86168809Y-50727857D01*
X86406904Y-50727857D01*
X86502142Y-50775476D01*
X86549761Y-50823095D01*
X86597380Y-50918333D01*
X86597380Y-51156428D01*
X86549761Y-51251666D01*
X86502142Y-51299285D01*
X85597380Y-50442142D02*
X86597380Y-50108809D01*
X85597380Y-49775476D01*
%TO.C,CN2*%
X126944523Y-52427142D02*
X126896904Y-52474761D01*
X126754047Y-52522380D01*
X126658809Y-52522380D01*
X126515952Y-52474761D01*
X126420714Y-52379523D01*
X126373095Y-52284285D01*
X126325476Y-52093809D01*
X126325476Y-51950952D01*
X126373095Y-51760476D01*
X126420714Y-51665238D01*
X126515952Y-51570000D01*
X126658809Y-51522380D01*
X126754047Y-51522380D01*
X126896904Y-51570000D01*
X126944523Y-51617619D01*
X127373095Y-52522380D02*
X127373095Y-51522380D01*
X127944523Y-52522380D01*
X127944523Y-51522380D01*
X128373095Y-51617619D02*
X128420714Y-51570000D01*
X128515952Y-51522380D01*
X128754047Y-51522380D01*
X128849285Y-51570000D01*
X128896904Y-51617619D01*
X128944523Y-51712857D01*
X128944523Y-51808095D01*
X128896904Y-51950952D01*
X128325476Y-52522380D01*
X128944523Y-52522380D01*
X119714523Y-43267380D02*
X120381190Y-44267380D01*
X120381190Y-43267380D02*
X119714523Y-44267380D01*
X120762142Y-44267380D02*
X120762142Y-43267380D01*
X120762142Y-43743571D02*
X121333571Y-43743571D01*
X121333571Y-44267380D02*
X121333571Y-43267380D01*
X122571666Y-44267380D02*
X122571666Y-43267380D01*
X123143095Y-44267380D01*
X123143095Y-43267380D01*
X124047857Y-43600714D02*
X124047857Y-44267380D01*
X123619285Y-43600714D02*
X123619285Y-44124523D01*
X123666904Y-44219761D01*
X123762142Y-44267380D01*
X123904999Y-44267380D01*
X124000238Y-44219761D01*
X124047857Y-44172142D01*
X125047857Y-44267380D02*
X124476428Y-44267380D01*
X124762142Y-44267380D02*
X124762142Y-43267380D01*
X124666904Y-43410238D01*
X124571666Y-43505476D01*
X124476428Y-43553095D01*
X125476428Y-44172142D02*
X125524047Y-44219761D01*
X125476428Y-44267380D01*
X125428809Y-44219761D01*
X125476428Y-44172142D01*
X125476428Y-44267380D01*
X126476428Y-44267380D02*
X125904999Y-44267380D01*
X126190714Y-44267380D02*
X126190714Y-43267380D01*
X126095476Y-43410238D01*
X126000238Y-43505476D01*
X125904999Y-43553095D01*
X126666904Y-44362619D02*
X127428809Y-44362619D01*
X127666904Y-43267380D02*
X127666904Y-44076904D01*
X127714523Y-44172142D01*
X127762142Y-44219761D01*
X127857380Y-44267380D01*
X128047857Y-44267380D01*
X128143095Y-44219761D01*
X128190714Y-44172142D01*
X128238333Y-44076904D01*
X128238333Y-43267380D01*
X128666904Y-43981666D02*
X129143095Y-43981666D01*
X128571666Y-44267380D02*
X128904999Y-43267380D01*
X129238333Y-44267380D01*
X130143095Y-44267380D02*
X129809761Y-43791190D01*
X129571666Y-44267380D02*
X129571666Y-43267380D01*
X129952619Y-43267380D01*
X130047857Y-43315000D01*
X130095476Y-43362619D01*
X130143095Y-43457857D01*
X130143095Y-43600714D01*
X130095476Y-43695952D01*
X130047857Y-43743571D01*
X129952619Y-43791190D01*
X129571666Y-43791190D01*
X130428809Y-43267380D02*
X131000238Y-43267380D01*
X130714523Y-44267380D02*
X130714523Y-43267380D01*
X131285952Y-43362619D02*
X131333571Y-43315000D01*
X131428809Y-43267380D01*
X131666904Y-43267380D01*
X131762142Y-43315000D01*
X131809761Y-43362619D01*
X131857380Y-43457857D01*
X131857380Y-43553095D01*
X131809761Y-43695952D01*
X131238333Y-44267380D01*
X131857380Y-44267380D01*
X132047857Y-44362619D02*
X132809761Y-44362619D01*
X133619285Y-44172142D02*
X133571666Y-44219761D01*
X133428809Y-44267380D01*
X133333571Y-44267380D01*
X133190714Y-44219761D01*
X133095476Y-44124523D01*
X133047857Y-44029285D01*
X133000238Y-43838809D01*
X133000238Y-43695952D01*
X133047857Y-43505476D01*
X133095476Y-43410238D01*
X133190714Y-43315000D01*
X133333571Y-43267380D01*
X133428809Y-43267380D01*
X133571666Y-43315000D01*
X133619285Y-43362619D01*
X134190714Y-44267380D02*
X134095476Y-44219761D01*
X134047857Y-44172142D01*
X134000238Y-44076904D01*
X134000238Y-43791190D01*
X134047857Y-43695952D01*
X134095476Y-43648333D01*
X134190714Y-43600714D01*
X134333571Y-43600714D01*
X134428809Y-43648333D01*
X134476428Y-43695952D01*
X134524047Y-43791190D01*
X134524047Y-44076904D01*
X134476428Y-44172142D01*
X134428809Y-44219761D01*
X134333571Y-44267380D01*
X134190714Y-44267380D01*
X134952619Y-43600714D02*
X134952619Y-44267380D01*
X134952619Y-43695952D02*
X135000238Y-43648333D01*
X135095476Y-43600714D01*
X135238333Y-43600714D01*
X135333571Y-43648333D01*
X135381190Y-43743571D01*
X135381190Y-44267380D01*
X135714523Y-43600714D02*
X136095476Y-43600714D01*
X135857380Y-43267380D02*
X135857380Y-44124523D01*
X135905000Y-44219761D01*
X136000238Y-44267380D01*
X136095476Y-44267380D01*
X136428809Y-44267380D02*
X136428809Y-43600714D01*
X136428809Y-43791190D02*
X136476428Y-43695952D01*
X136524047Y-43648333D01*
X136619285Y-43600714D01*
X136714523Y-43600714D01*
X137190714Y-44267380D02*
X137095476Y-44219761D01*
X137047857Y-44172142D01*
X137000238Y-44076904D01*
X137000238Y-43791190D01*
X137047857Y-43695952D01*
X137095476Y-43648333D01*
X137190714Y-43600714D01*
X137333571Y-43600714D01*
X137428809Y-43648333D01*
X137476428Y-43695952D01*
X137524047Y-43791190D01*
X137524047Y-44076904D01*
X137476428Y-44172142D01*
X137428809Y-44219761D01*
X137333571Y-44267380D01*
X137190714Y-44267380D01*
X138095476Y-44267380D02*
X138000238Y-44219761D01*
X137952619Y-44124523D01*
X137952619Y-43267380D01*
%TO.C,TEST1*%
X78498571Y-97387380D02*
X79070000Y-97387380D01*
X78784285Y-98387380D02*
X78784285Y-97387380D01*
X79403333Y-97863571D02*
X79736666Y-97863571D01*
X79879523Y-98387380D02*
X79403333Y-98387380D01*
X79403333Y-97387380D01*
X79879523Y-97387380D01*
X80260476Y-98339761D02*
X80403333Y-98387380D01*
X80641428Y-98387380D01*
X80736666Y-98339761D01*
X80784285Y-98292142D01*
X80831904Y-98196904D01*
X80831904Y-98101666D01*
X80784285Y-98006428D01*
X80736666Y-97958809D01*
X80641428Y-97911190D01*
X80450952Y-97863571D01*
X80355714Y-97815952D01*
X80308095Y-97768333D01*
X80260476Y-97673095D01*
X80260476Y-97577857D01*
X80308095Y-97482619D01*
X80355714Y-97435000D01*
X80450952Y-97387380D01*
X80689047Y-97387380D01*
X80831904Y-97435000D01*
X81117619Y-97387380D02*
X81689047Y-97387380D01*
X81403333Y-98387380D02*
X81403333Y-97387380D01*
X82546190Y-98387380D02*
X81974761Y-98387380D01*
X82260476Y-98387380D02*
X82260476Y-97387380D01*
X82165238Y-97530238D01*
X82070000Y-97625476D01*
X81974761Y-97673095D01*
%TO.C,232 Driver*%
X114959285Y-73502619D02*
X115006904Y-73455000D01*
X115102142Y-73407380D01*
X115340238Y-73407380D01*
X115435476Y-73455000D01*
X115483095Y-73502619D01*
X115530714Y-73597857D01*
X115530714Y-73693095D01*
X115483095Y-73835952D01*
X114911666Y-74407380D01*
X115530714Y-74407380D01*
X115864047Y-73407380D02*
X116483095Y-73407380D01*
X116149761Y-73788333D01*
X116292619Y-73788333D01*
X116387857Y-73835952D01*
X116435476Y-73883571D01*
X116483095Y-73978809D01*
X116483095Y-74216904D01*
X116435476Y-74312142D01*
X116387857Y-74359761D01*
X116292619Y-74407380D01*
X116006904Y-74407380D01*
X115911666Y-74359761D01*
X115864047Y-74312142D01*
X116864047Y-73502619D02*
X116911666Y-73455000D01*
X117006904Y-73407380D01*
X117245000Y-73407380D01*
X117340238Y-73455000D01*
X117387857Y-73502619D01*
X117435476Y-73597857D01*
X117435476Y-73693095D01*
X117387857Y-73835952D01*
X116816428Y-74407380D01*
X117435476Y-74407380D01*
X118625952Y-74407380D02*
X118625952Y-73407380D01*
X118864047Y-73407380D01*
X119006904Y-73455000D01*
X119102142Y-73550238D01*
X119149761Y-73645476D01*
X119197380Y-73835952D01*
X119197380Y-73978809D01*
X119149761Y-74169285D01*
X119102142Y-74264523D01*
X119006904Y-74359761D01*
X118864047Y-74407380D01*
X118625952Y-74407380D01*
X119625952Y-74407380D02*
X119625952Y-73740714D01*
X119625952Y-73931190D02*
X119673571Y-73835952D01*
X119721190Y-73788333D01*
X119816428Y-73740714D01*
X119911666Y-73740714D01*
X120245000Y-74407380D02*
X120245000Y-73740714D01*
X120245000Y-73407380D02*
X120197380Y-73455000D01*
X120245000Y-73502619D01*
X120292619Y-73455000D01*
X120245000Y-73407380D01*
X120245000Y-73502619D01*
X120625952Y-73740714D02*
X120864047Y-74407380D01*
X121102142Y-73740714D01*
X121864047Y-74359761D02*
X121768809Y-74407380D01*
X121578333Y-74407380D01*
X121483095Y-74359761D01*
X121435476Y-74264523D01*
X121435476Y-73883571D01*
X121483095Y-73788333D01*
X121578333Y-73740714D01*
X121768809Y-73740714D01*
X121864047Y-73788333D01*
X121911666Y-73883571D01*
X121911666Y-73978809D01*
X121435476Y-74074047D01*
X122340238Y-74407380D02*
X122340238Y-73740714D01*
X122340238Y-73931190D02*
X122387857Y-73835952D01*
X122435476Y-73788333D01*
X122530714Y-73740714D01*
X122625952Y-73740714D01*
%TD*%
M02*
