%TF.GenerationSoftware,KiCad,Pcbnew,(5.1.9)-1*%
%TF.CreationDate,2021-03-23T20:02:45+09:00*%
%TF.ProjectId,IO,494f2e6b-6963-4616-945f-706362585858,rev?*%
%TF.SameCoordinates,Original*%
%TF.FileFunction,Copper,L2,Bot*%
%TF.FilePolarity,Positive*%
%FSLAX46Y46*%
G04 Gerber Fmt 4.6, Leading zero omitted, Abs format (unit mm)*
G04 Created by KiCad (PCBNEW (5.1.9)-1) date 2021-03-23 20:02:45*
%MOMM*%
%LPD*%
G01*
G04 APERTURE LIST*
%TA.AperFunction,ComponentPad*%
%ADD10C,1.600000*%
%TD*%
%TA.AperFunction,ComponentPad*%
%ADD11O,1.700000X1.700000*%
%TD*%
%TA.AperFunction,ComponentPad*%
%ADD12R,1.700000X1.700000*%
%TD*%
%TA.AperFunction,ComponentPad*%
%ADD13O,1.600000X1.600000*%
%TD*%
%TA.AperFunction,ComponentPad*%
%ADD14C,1.800000*%
%TD*%
%TA.AperFunction,ComponentPad*%
%ADD15R,1.800000X1.800000*%
%TD*%
%TA.AperFunction,ComponentPad*%
%ADD16R,1.600000X1.600000*%
%TD*%
%TA.AperFunction,ComponentPad*%
%ADD17O,1.700000X1.950000*%
%TD*%
%TA.AperFunction,ComponentPad*%
%ADD18O,1.700000X2.000000*%
%TD*%
%TA.AperFunction,ComponentPad*%
%ADD19R,4.000000X3.500000*%
%TD*%
%TA.AperFunction,ComponentPad*%
%ADD20C,1.700000*%
%TD*%
%TA.AperFunction,ViaPad*%
%ADD21C,0.800000*%
%TD*%
%TA.AperFunction,Conductor*%
%ADD22C,0.500000*%
%TD*%
%TA.AperFunction,Conductor*%
%ADD23C,0.250000*%
%TD*%
%TA.AperFunction,Conductor*%
%ADD24C,0.254000*%
%TD*%
%TA.AperFunction,Conductor*%
%ADD25C,0.100000*%
%TD*%
G04 APERTURE END LIST*
D10*
%TO.P,C5,2*%
%TO.N,GND*%
X111125000Y-89615000D03*
%TO.P,C5,1*%
%TO.N,+5V*%
X111125000Y-94615000D03*
%TD*%
D11*
%TO.P,OP_ISP,6*%
%TO.N,GND*%
X126365000Y-97790000D03*
%TO.P,OP_ISP,5*%
%TO.N,Net-(OP_ISP1-Pad5)*%
X128905000Y-97790000D03*
%TO.P,OP_ISP,4*%
%TO.N,Net-(OP_ISP1-Pad4)*%
X126365000Y-100330000D03*
%TO.P,OP_ISP,3*%
%TO.N,Net-(OP_ISP1-Pad3)*%
X128905000Y-100330000D03*
%TO.P,OP_ISP,2*%
%TO.N,+5V*%
X126365000Y-102870000D03*
D12*
%TO.P,OP_ISP,1*%
%TO.N,Net-(OP_ISP1-Pad1)*%
X128905000Y-102870000D03*
%TD*%
D13*
%TO.P,PWR_R1,2*%
%TO.N,Net-(PWR_LED1-Pad2)*%
X77470000Y-67310000D03*
D10*
%TO.P,PWR_R1,1*%
%TO.N,+5V*%
X87630000Y-67310000D03*
%TD*%
D14*
%TO.P,PWR_LED1,2*%
%TO.N,Net-(PWR_LED1-Pad2)*%
X74295000Y-73025000D03*
D15*
%TO.P,PWR_LED1,1*%
%TO.N,GND*%
X74295000Y-75565000D03*
%TD*%
D13*
%TO.P,OP_MEGA328P,28*%
%TO.N,N/C*%
X142875000Y-61595000D03*
%TO.P,OP_MEGA328P,14*%
X135255000Y-94615000D03*
%TO.P,OP_MEGA328P,27*%
X142875000Y-64135000D03*
%TO.P,OP_MEGA328P,13*%
X135255000Y-92075000D03*
%TO.P,OP_MEGA328P,26*%
X142875000Y-66675000D03*
%TO.P,OP_MEGA328P,12*%
X135255000Y-89535000D03*
%TO.P,OP_MEGA328P,25*%
X142875000Y-69215000D03*
%TO.P,OP_MEGA328P,11*%
X135255000Y-86995000D03*
%TO.P,OP_MEGA328P,24*%
X142875000Y-71755000D03*
%TO.P,OP_MEGA328P,10*%
X135255000Y-84455000D03*
%TO.P,OP_MEGA328P,23*%
X142875000Y-74295000D03*
%TO.P,OP_MEGA328P,9*%
X135255000Y-81915000D03*
%TO.P,OP_MEGA328P,22*%
%TO.N,GND*%
X142875000Y-76835000D03*
%TO.P,OP_MEGA328P,8*%
X135255000Y-79375000D03*
%TO.P,OP_MEGA328P,21*%
%TO.N,+5V*%
X142875000Y-79375000D03*
%TO.P,OP_MEGA328P,7*%
X135255000Y-76835000D03*
%TO.P,OP_MEGA328P,20*%
X142875000Y-81915000D03*
%TO.P,OP_MEGA328P,6*%
%TO.N,N/C*%
X135255000Y-74295000D03*
%TO.P,OP_MEGA328P,19*%
%TO.N,Net-(OP_ISP1-Pad3)*%
X142875000Y-84455000D03*
%TO.P,OP_MEGA328P,5*%
%TO.N,N/C*%
X135255000Y-71755000D03*
%TO.P,OP_MEGA328P,18*%
%TO.N,Net-(OP_ISP1-Pad1)*%
X142875000Y-86995000D03*
%TO.P,OP_MEGA328P,4*%
%TO.N,Net-(OP_R2-Pad2)*%
X135255000Y-69215000D03*
%TO.P,OP_MEGA328P,17*%
%TO.N,Net-(OP_ISP1-Pad4)*%
X142875000Y-89535000D03*
%TO.P,OP_MEGA328P,3*%
%TO.N,Net-(OP_U2-Pad3)*%
X135255000Y-66675000D03*
%TO.P,OP_MEGA328P,16*%
%TO.N,N/C*%
X142875000Y-92075000D03*
%TO.P,OP_MEGA328P,2*%
%TO.N,Net-(OP_U2-Pad2)*%
X135255000Y-64135000D03*
%TO.P,OP_MEGA328P,15*%
%TO.N,N/C*%
X142875000Y-94615000D03*
D16*
%TO.P,OP_MEGA328P,1*%
%TO.N,Net-(OP_ISP1-Pad5)*%
X135255000Y-61595000D03*
%TD*%
D13*
%TO.P,OP_R2,2*%
%TO.N,Net-(OP_R2-Pad2)*%
X130810000Y-61595000D03*
D10*
%TO.P,OP_R2,1*%
%TO.N,Net-(OP_LED1-Pad2)*%
X130810000Y-71755000D03*
%TD*%
D13*
%TO.P,OP_R1,2*%
%TO.N,+5V*%
X127000000Y-61595000D03*
D10*
%TO.P,OP_R1,1*%
%TO.N,Net-(OP_ISP1-Pad5)*%
X127000000Y-71755000D03*
%TD*%
D14*
%TO.P,OP_LED1,2*%
%TO.N,Net-(OP_LED1-Pad2)*%
X137795000Y-100965000D03*
D15*
%TO.P,OP_LED1,1*%
%TO.N,GND*%
X140335000Y-100965000D03*
%TD*%
D17*
%TO.P,OP_CN3,3*%
%TO.N,Net-(OP_CN3-Pad3)*%
X138510000Y-48260000D03*
%TO.P,OP_CN3,2*%
%TO.N,Net-(OP_CN3-Pad2)*%
X141010000Y-48260000D03*
%TO.P,OP_CN3,1*%
%TO.N,GND*%
%TA.AperFunction,ComponentPad*%
G36*
G01*
X144360000Y-47535000D02*
X144360000Y-48985000D01*
G75*
G02*
X144110000Y-49235000I-250000J0D01*
G01*
X142910000Y-49235000D01*
G75*
G02*
X142660000Y-48985000I0J250000D01*
G01*
X142660000Y-47535000D01*
G75*
G02*
X142910000Y-47285000I250000J0D01*
G01*
X144110000Y-47285000D01*
G75*
G02*
X144360000Y-47535000I0J-250000D01*
G01*
G37*
%TD.AperFunction*%
%TD*%
D10*
%TO.P,C4,2*%
%TO.N,Net-(C4-Pad2)*%
X125730000Y-89615000D03*
%TO.P,C4,1*%
%TO.N,Net-(C4-Pad1)*%
X125730000Y-94615000D03*
%TD*%
%TO.P,C3,2*%
%TO.N,Net-(C3-Pad2)*%
X130175000Y-83265000D03*
%TO.P,C3,1*%
%TO.N,Net-(C3-Pad1)*%
X130175000Y-88265000D03*
%TD*%
%TO.P,C2,2*%
%TO.N,GND*%
X125730000Y-76915000D03*
%TO.P,C2,1*%
%TO.N,Net-(C2-Pad1)*%
X125730000Y-81915000D03*
%TD*%
%TO.P,C1,2*%
%TO.N,Net-(C1-Pad2)*%
X121205000Y-98425000D03*
%TO.P,C1,1*%
%TO.N,+5V*%
X116205000Y-98425000D03*
%TD*%
D18*
%TO.P,CN3,2*%
%TO.N,GND*%
X111800000Y-48260000D03*
%TO.P,CN3,1*%
%TO.N,Net-(CN3-Pad1)*%
%TA.AperFunction,ComponentPad*%
G36*
G01*
X115150000Y-47510000D02*
X115150000Y-49010000D01*
G75*
G02*
X114900000Y-49260000I-250000J0D01*
G01*
X113700000Y-49260000D01*
G75*
G02*
X113450000Y-49010000I0J250000D01*
G01*
X113450000Y-47510000D01*
G75*
G02*
X113700000Y-47260000I250000J0D01*
G01*
X114900000Y-47260000D01*
G75*
G02*
X115150000Y-47510000I0J-250000D01*
G01*
G37*
%TD.AperFunction*%
%TD*%
D16*
%TO.P,Nano1,1*%
%TO.N,Net-(Nano1-Pad1)*%
X106045000Y-91440000D03*
D13*
%TO.P,Nano1,17*%
%TO.N,N/C*%
X90805000Y-58420000D03*
%TO.P,Nano1,2*%
%TO.N,Net-(Nano1-Pad2)*%
X106045000Y-88900000D03*
%TO.P,Nano1,18*%
%TO.N,N/C*%
X90805000Y-60960000D03*
%TO.P,Nano1,3*%
X106045000Y-86360000D03*
%TO.P,Nano1,19*%
X90805000Y-63500000D03*
%TO.P,Nano1,4*%
%TO.N,GND*%
X106045000Y-83820000D03*
%TO.P,Nano1,20*%
%TO.N,N/C*%
X90805000Y-66040000D03*
%TO.P,Nano1,5*%
X106045000Y-81280000D03*
%TO.P,Nano1,21*%
X90805000Y-68580000D03*
%TO.P,Nano1,6*%
X106045000Y-78740000D03*
%TO.P,Nano1,22*%
X90805000Y-71120000D03*
%TO.P,Nano1,7*%
X106045000Y-76200000D03*
%TO.P,Nano1,23*%
X90805000Y-73660000D03*
%TO.P,Nano1,8*%
X106045000Y-73660000D03*
%TO.P,Nano1,24*%
X90805000Y-76200000D03*
%TO.P,Nano1,9*%
X106045000Y-71120000D03*
%TO.P,Nano1,25*%
X90805000Y-78740000D03*
%TO.P,Nano1,10*%
X106045000Y-68580000D03*
%TO.P,Nano1,26*%
X90805000Y-81280000D03*
%TO.P,Nano1,11*%
X106045000Y-66040000D03*
%TO.P,Nano1,27*%
%TO.N,+5V*%
X90805000Y-83820000D03*
%TO.P,Nano1,12*%
%TO.N,Net-(CN3-Pad1)*%
X106045000Y-63500000D03*
%TO.P,Nano1,28*%
%TO.N,N/C*%
X90805000Y-86360000D03*
%TO.P,Nano1,13*%
X106045000Y-60960000D03*
%TO.P,Nano1,29*%
%TO.N,GND*%
X90805000Y-88900000D03*
%TO.P,Nano1,14*%
%TO.N,N/C*%
X106045000Y-58420000D03*
%TO.P,Nano1,30*%
X90805000Y-91440000D03*
%TO.P,Nano1,15*%
X106045000Y-55880000D03*
%TO.P,Nano1,16*%
X90805000Y-55880000D03*
%TD*%
%TO.P,CN1,3*%
%TO.N,N/C*%
%TA.AperFunction,ComponentPad*%
G36*
G01*
X75070000Y-53035000D02*
X76820000Y-53035000D01*
G75*
G02*
X77695000Y-53910000I0J-875000D01*
G01*
X77695000Y-55660000D01*
G75*
G02*
X76820000Y-56535000I-875000J0D01*
G01*
X75070000Y-56535000D01*
G75*
G02*
X74195000Y-55660000I0J875000D01*
G01*
X74195000Y-53910000D01*
G75*
G02*
X75070000Y-53035000I875000J0D01*
G01*
G37*
%TD.AperFunction*%
%TO.P,CN1,2*%
%TO.N,GND*%
%TA.AperFunction,ComponentPad*%
G36*
G01*
X79645000Y-50285000D02*
X81645000Y-50285000D01*
G75*
G02*
X82395000Y-51035000I0J-750000D01*
G01*
X82395000Y-52535000D01*
G75*
G02*
X81645000Y-53285000I-750000J0D01*
G01*
X79645000Y-53285000D01*
G75*
G02*
X78895000Y-52535000I0J750000D01*
G01*
X78895000Y-51035000D01*
G75*
G02*
X79645000Y-50285000I750000J0D01*
G01*
G37*
%TD.AperFunction*%
D19*
%TO.P,CN1,1*%
%TO.N,+5V*%
X80645000Y-57785000D03*
%TD*%
D17*
%TO.P,CN2,3*%
%TO.N,Net-(CN2-Pad3)*%
X125175000Y-48260000D03*
%TO.P,CN2,2*%
%TO.N,Net-(CN2-Pad2)*%
X127675000Y-48260000D03*
%TO.P,CN2,1*%
%TO.N,GND*%
%TA.AperFunction,ComponentPad*%
G36*
G01*
X131025000Y-47535000D02*
X131025000Y-48985000D01*
G75*
G02*
X130775000Y-49235000I-250000J0D01*
G01*
X129575000Y-49235000D01*
G75*
G02*
X129325000Y-48985000I0J250000D01*
G01*
X129325000Y-47535000D01*
G75*
G02*
X129575000Y-47285000I250000J0D01*
G01*
X130775000Y-47285000D01*
G75*
G02*
X131025000Y-47535000I0J-250000D01*
G01*
G37*
%TD.AperFunction*%
%TD*%
D20*
%TO.P,TEST1,4*%
%TO.N,GND*%
X77320000Y-91385000D03*
%TO.P,TEST1,3*%
%TO.N,Net-(CN3-Pad1)*%
X83820000Y-91385000D03*
%TO.P,TEST1,2*%
%TO.N,GND*%
X77320000Y-95885000D03*
%TO.P,TEST1,1*%
%TO.N,N/C*%
X83820000Y-95885000D03*
%TD*%
D16*
%TO.P,232 Driver,1*%
%TO.N,Net-(C4-Pad1)*%
X122645000Y-94615000D03*
D13*
%TO.P,232 Driver,9*%
%TO.N,Net-(Nano1-Pad2)*%
X115025000Y-76835000D03*
%TO.P,232 Driver,2*%
%TO.N,Net-(C1-Pad2)*%
X122645000Y-92075000D03*
%TO.P,232 Driver,10*%
%TO.N,Net-(Nano1-Pad1)*%
X115025000Y-79375000D03*
%TO.P,232 Driver,3*%
%TO.N,Net-(C4-Pad2)*%
X122645000Y-89535000D03*
%TO.P,232 Driver,11*%
%TO.N,Net-(OP_U2-Pad3)*%
X115025000Y-81915000D03*
%TO.P,232 Driver,4*%
%TO.N,Net-(C3-Pad1)*%
X122645000Y-86995000D03*
%TO.P,232 Driver,12*%
%TO.N,Net-(OP_U2-Pad2)*%
X115025000Y-84455000D03*
%TO.P,232 Driver,5*%
%TO.N,Net-(C3-Pad2)*%
X122645000Y-84455000D03*
%TO.P,232 Driver,13*%
%TO.N,Net-(OP_CN3-Pad2)*%
X115025000Y-86995000D03*
%TO.P,232 Driver,6*%
%TO.N,Net-(C2-Pad1)*%
X122645000Y-81915000D03*
%TO.P,232 Driver,14*%
%TO.N,Net-(OP_CN3-Pad3)*%
X115025000Y-89535000D03*
%TO.P,232 Driver,7*%
%TO.N,Net-(CN2-Pad3)*%
X122645000Y-79375000D03*
%TO.P,232 Driver,15*%
%TO.N,GND*%
X115025000Y-92075000D03*
%TO.P,232 Driver,8*%
%TO.N,Net-(CN2-Pad2)*%
X122645000Y-76835000D03*
%TO.P,232 Driver,16*%
%TO.N,+5V*%
X115025000Y-94615000D03*
%TD*%
D21*
%TO.N,GND*%
X154940000Y-60960000D03*
X154940000Y-68580000D03*
X154940000Y-91440000D03*
X113665000Y-109220000D03*
X113665000Y-106680000D03*
X114935000Y-106680000D03*
X116205000Y-109220000D03*
X113665000Y-105410000D03*
X116205000Y-107950000D03*
X113665000Y-107950000D03*
X114935000Y-109220000D03*
X114935000Y-107950000D03*
X116205000Y-105410000D03*
X114935000Y-105410000D03*
X116205000Y-106680000D03*
X83820000Y-77470000D03*
X83820000Y-74930000D03*
X85090000Y-74930000D03*
X86360000Y-77470000D03*
X83820000Y-73660000D03*
X86360000Y-76200000D03*
X83820000Y-76200000D03*
X85090000Y-77470000D03*
X85090000Y-76200000D03*
X86360000Y-73660000D03*
X85090000Y-73660000D03*
X86360000Y-74930000D03*
X71755000Y-104140000D03*
X71755000Y-101600000D03*
X73025000Y-101600000D03*
X74295000Y-104140000D03*
X71755000Y-100330000D03*
X74295000Y-102870000D03*
X71755000Y-102870000D03*
X73025000Y-104140000D03*
X73025000Y-102870000D03*
X74295000Y-100330000D03*
X73025000Y-100330000D03*
X74295000Y-101600000D03*
X154940000Y-49530000D03*
X154940000Y-53340000D03*
X154940000Y-57150000D03*
X154940000Y-64770000D03*
X154940000Y-72390000D03*
X154940000Y-76200000D03*
X154940000Y-80010000D03*
X154940000Y-83820000D03*
X154940000Y-87630000D03*
X151765000Y-106680000D03*
X149225000Y-107950000D03*
X150495000Y-105410000D03*
X150495000Y-107950000D03*
X149225000Y-104140000D03*
X150495000Y-104140000D03*
X150495000Y-106680000D03*
X151765000Y-107950000D03*
X151765000Y-105410000D03*
X151765000Y-104140000D03*
X149225000Y-105410000D03*
X149225000Y-106680000D03*
X67945000Y-58420000D03*
X67945000Y-62230000D03*
X67945000Y-66040000D03*
X67945000Y-50800000D03*
X67945000Y-54610000D03*
X117475000Y-111125000D03*
X125095000Y-111125000D03*
X121285000Y-111125000D03*
X132715000Y-111125000D03*
X144145000Y-111125000D03*
X140335000Y-111125000D03*
X136525000Y-111125000D03*
X113665000Y-111125000D03*
X128905000Y-111125000D03*
X109855000Y-111125000D03*
X151765000Y-111125000D03*
X147955000Y-111125000D03*
X146685000Y-55880000D03*
X146685000Y-54610000D03*
X145415000Y-54610000D03*
X147955000Y-55880000D03*
X146685000Y-58420000D03*
X147955000Y-58420000D03*
X147955000Y-54610000D03*
X146685000Y-57150000D03*
X147955000Y-57150000D03*
X145415000Y-55880000D03*
X145415000Y-58420000D03*
X145415000Y-57150000D03*
X154940000Y-95250000D03*
X154940000Y-99060000D03*
X154940000Y-102870000D03*
X154940000Y-107950000D03*
X106045000Y-111125000D03*
X102235000Y-111125000D03*
X98425000Y-111125000D03*
X94615000Y-111125000D03*
X90805000Y-111125000D03*
X86995000Y-111125000D03*
X83185000Y-111125000D03*
X79375000Y-111125000D03*
X75565000Y-111125000D03*
X71755000Y-111125000D03*
X67945000Y-107950000D03*
X67945000Y-104140000D03*
X67945000Y-100330000D03*
X67945000Y-96520000D03*
X67945000Y-92710000D03*
X67945000Y-88900000D03*
X67945000Y-85090000D03*
X67945000Y-81280000D03*
X67945000Y-77470000D03*
X67945000Y-73660000D03*
X67945000Y-69850000D03*
%TO.N,Net-(OP_CN3-Pad3)*%
X119380000Y-57150000D03*
%TO.N,Net-(OP_CN3-Pad2)*%
X119380000Y-58420000D03*
%TO.N,Net-(OP_U2-Pad3)*%
X119380000Y-67945000D03*
X128905000Y-67945000D03*
%TO.N,Net-(OP_U2-Pad2)*%
X128905000Y-65405000D03*
X119380000Y-65405000D03*
%TD*%
D22*
%TO.N,+5V*%
X80645000Y-79375000D02*
X80645000Y-63500000D01*
X85090000Y-83820000D02*
X80645000Y-79375000D01*
X90805000Y-83820000D02*
X85090000Y-83820000D01*
X114730000Y-94615000D02*
X115025000Y-94320000D01*
X95885000Y-85090000D02*
X95885000Y-96520000D01*
X94615000Y-83820000D02*
X95885000Y-85090000D01*
X90805000Y-83820000D02*
X94615000Y-83820000D01*
X111125000Y-94615000D02*
X115025000Y-94615000D01*
X116205000Y-98425000D02*
X116205000Y-101600000D01*
X116205000Y-101600000D02*
X117475000Y-102870000D01*
X117475000Y-102870000D02*
X126365000Y-102870000D01*
X120015000Y-61595000D02*
X127000000Y-61595000D01*
X144780000Y-81915000D02*
X142875000Y-81915000D01*
X146050000Y-83185000D02*
X144780000Y-81915000D01*
X145415000Y-106045000D02*
X146050000Y-105410000D01*
X127000000Y-106045000D02*
X145415000Y-106045000D01*
X146050000Y-105410000D02*
X146050000Y-83185000D01*
X126365000Y-105410000D02*
X127000000Y-106045000D01*
X126365000Y-102870000D02*
X126365000Y-105410000D01*
X142875000Y-81915000D02*
X142875000Y-79375000D01*
X142875000Y-79375000D02*
X140335000Y-79375000D01*
X140335000Y-79375000D02*
X137795000Y-76835000D01*
X137795000Y-76835000D02*
X135255000Y-76835000D01*
X95885000Y-96520000D02*
X97790000Y-98425000D01*
X97790000Y-98425000D02*
X116205000Y-98425000D01*
X115025000Y-94615000D02*
X115025000Y-96610000D01*
X116205000Y-97790000D02*
X116205000Y-98425000D01*
X115025000Y-96610000D02*
X116205000Y-97790000D01*
X117475000Y-97790000D02*
X117475000Y-62230000D01*
X118110000Y-61595000D02*
X120015000Y-61595000D01*
X117475000Y-62230000D02*
X118110000Y-61595000D01*
X116840000Y-98425000D02*
X117475000Y-97790000D01*
X116205000Y-98425000D02*
X116840000Y-98425000D01*
X80645000Y-63500000D02*
X80645000Y-57785000D01*
D23*
X85090000Y-57785000D02*
X80645000Y-57785000D01*
X87630000Y-60325000D02*
X85090000Y-57785000D01*
X87630000Y-67310000D02*
X87630000Y-60325000D01*
%TO.N,Net-(C1-Pad2)*%
X121205000Y-98425000D02*
X120650000Y-98425000D01*
X120650000Y-98425000D02*
X120015000Y-97790000D01*
X120015000Y-97790000D02*
X120015000Y-92710000D01*
X120015000Y-92710000D02*
X120650000Y-92075000D01*
X120650000Y-92075000D02*
X122645000Y-92075000D01*
%TO.N,Net-(C3-Pad1)*%
X122645000Y-86700000D02*
X122895000Y-86700000D01*
X122645000Y-86995000D02*
X125730000Y-86995000D01*
X125730000Y-86995000D02*
X127000000Y-88265000D01*
X127000000Y-88265000D02*
X130175000Y-88265000D01*
%TO.N,Net-(C3-Pad2)*%
X126920000Y-83265000D02*
X130175000Y-83265000D01*
X125730000Y-84455000D02*
X126920000Y-83265000D01*
X122645000Y-84455000D02*
X125730000Y-84455000D01*
%TO.N,Net-(C4-Pad2)*%
X122725000Y-89615000D02*
X122645000Y-89535000D01*
X125730000Y-89615000D02*
X122725000Y-89615000D01*
%TO.N,Net-(C4-Pad1)*%
X122645000Y-94615000D02*
X125730000Y-94615000D01*
%TO.N,Net-(Nano1-Pad1)*%
X109855000Y-88265000D02*
X109855000Y-80010000D01*
X108585000Y-89535000D02*
X109855000Y-88265000D01*
X108585000Y-90805000D02*
X108585000Y-89535000D01*
X107950000Y-91440000D02*
X108585000Y-90805000D01*
X106045000Y-91440000D02*
X107950000Y-91440000D01*
X109855000Y-80010000D02*
X110490000Y-79375000D01*
X110490000Y-79375000D02*
X115025000Y-79375000D01*
%TO.N,Net-(Nano1-Pad2)*%
X106045000Y-88900000D02*
X107950000Y-88900000D01*
X107950000Y-88900000D02*
X108585000Y-88265000D01*
X108585000Y-88265000D02*
X108585000Y-77470000D01*
X108585000Y-77470000D02*
X109220000Y-76835000D01*
X109220000Y-76835000D02*
X115025000Y-76835000D01*
%TO.N,Net-(CN3-Pad1)*%
X114300000Y-62230000D02*
X114300000Y-53975000D01*
X113030000Y-63500000D02*
X114300000Y-62230000D01*
X106045000Y-63500000D02*
X113030000Y-63500000D01*
X114300000Y-53975000D02*
X114300000Y-48260000D01*
%TO.N,Net-(C2-Pad1)*%
X122645000Y-81915000D02*
X125730000Y-81915000D01*
%TO.N,Net-(OP_CN3-Pad3)*%
X138510000Y-56435000D02*
X138510000Y-48260000D01*
X137795000Y-57150000D02*
X138510000Y-56435000D01*
X119380000Y-57150000D02*
X137795000Y-57150000D01*
%TO.N,Net-(OP_CN3-Pad2)*%
X141010000Y-57745000D02*
X141010000Y-48260000D01*
X140335000Y-58420000D02*
X141010000Y-57745000D01*
X119380000Y-58420000D02*
X140335000Y-58420000D01*
%TO.N,Net-(OP_ISP1-Pad5)*%
X128905000Y-97790000D02*
X132080000Y-97790000D01*
X132080000Y-97790000D02*
X132715000Y-97155000D01*
X132715000Y-97155000D02*
X132715000Y-81915000D01*
X132715000Y-81915000D02*
X132080000Y-81280000D01*
X132080000Y-81280000D02*
X128270000Y-81280000D01*
X128270000Y-81280000D02*
X127635000Y-80645000D01*
X127635000Y-80645000D02*
X127635000Y-74295000D01*
X127635000Y-74295000D02*
X127000000Y-73660000D01*
X127000000Y-73660000D02*
X127000000Y-71755000D01*
%TO.N,Net-(OP_ISP1-Pad3)*%
X128905000Y-100330000D02*
X135255000Y-100330000D01*
X135255000Y-100330000D02*
X137160000Y-98425000D01*
X137160000Y-98425000D02*
X140335000Y-98425000D01*
X140335000Y-98425000D02*
X140970000Y-97790000D01*
X140970000Y-97790000D02*
X140970000Y-85090000D01*
X140970000Y-85090000D02*
X141605000Y-84455000D01*
X141605000Y-84455000D02*
X142875000Y-84455000D01*
%TO.N,Net-(OP_ISP1-Pad1)*%
X128905000Y-102870000D02*
X144145000Y-102870000D01*
X144145000Y-102870000D02*
X144780000Y-102235000D01*
X144780000Y-102235000D02*
X144780000Y-87630000D01*
X144780000Y-87630000D02*
X144145000Y-86995000D01*
X144145000Y-86995000D02*
X142875000Y-86995000D01*
%TO.N,Net-(OP_R2-Pad2)*%
X132080000Y-61595000D02*
X130810000Y-61595000D01*
X133350000Y-62865000D02*
X132080000Y-61595000D01*
X133350000Y-68580000D02*
X133350000Y-62865000D01*
X133985000Y-69215000D02*
X133350000Y-68580000D01*
X135255000Y-69215000D02*
X133985000Y-69215000D01*
%TO.N,Net-(OP_U2-Pad3)*%
X119380000Y-67945000D02*
X128270000Y-67945000D01*
X128270000Y-67945000D02*
X128905000Y-67945000D01*
%TO.N,Net-(OP_U2-Pad2)*%
X128905000Y-65405000D02*
X119380000Y-65405000D01*
%TO.N,Net-(PWR_LED1-Pad2)*%
X77470000Y-67310000D02*
X75565000Y-67310000D01*
X74295000Y-68580000D02*
X74295000Y-73025000D01*
X75565000Y-67310000D02*
X74295000Y-68580000D01*
%TD*%
D24*
%TO.N,GND*%
X153519369Y-44241331D02*
X153350890Y-44648075D01*
X153265000Y-45079872D01*
X153265000Y-45520128D01*
X153350890Y-45951925D01*
X153519369Y-46358669D01*
X153763962Y-46724729D01*
X154075271Y-47036038D01*
X154441331Y-47280631D01*
X154848075Y-47449110D01*
X155279872Y-47535000D01*
X155720128Y-47535000D01*
X156151925Y-47449110D01*
X156558669Y-47280631D01*
X156718000Y-47174170D01*
X156718000Y-109425830D01*
X156558669Y-109319369D01*
X156151925Y-109150890D01*
X155720128Y-109065000D01*
X155279872Y-109065000D01*
X154848075Y-109150890D01*
X154441331Y-109319369D01*
X154075271Y-109563962D01*
X153763962Y-109875271D01*
X153519369Y-110241331D01*
X153350890Y-110648075D01*
X153265000Y-111079872D01*
X153265000Y-111520128D01*
X153350890Y-111951925D01*
X153519369Y-112358669D01*
X153763962Y-112724729D01*
X153942233Y-112903000D01*
X68057767Y-112903000D01*
X68236038Y-112724729D01*
X68480631Y-112358669D01*
X68649110Y-111951925D01*
X68735000Y-111520128D01*
X68735000Y-111079872D01*
X68649110Y-110648075D01*
X68480631Y-110241331D01*
X68236038Y-109875271D01*
X67924729Y-109563962D01*
X67558669Y-109319369D01*
X67151925Y-109150890D01*
X66720128Y-109065000D01*
X66279872Y-109065000D01*
X65848075Y-109150890D01*
X65441331Y-109319369D01*
X65075271Y-109563962D01*
X64897000Y-109742233D01*
X64897000Y-96913397D01*
X76471208Y-96913397D01*
X76548843Y-97162472D01*
X76812883Y-97288371D01*
X77096411Y-97360339D01*
X77388531Y-97375611D01*
X77678019Y-97333599D01*
X77953747Y-97235919D01*
X78091157Y-97162472D01*
X78168792Y-96913397D01*
X77320000Y-96064605D01*
X76471208Y-96913397D01*
X64897000Y-96913397D01*
X64897000Y-95953531D01*
X75829389Y-95953531D01*
X75871401Y-96243019D01*
X75969081Y-96518747D01*
X76042528Y-96656157D01*
X76291603Y-96733792D01*
X77140395Y-95885000D01*
X77499605Y-95885000D01*
X78348397Y-96733792D01*
X78597472Y-96656157D01*
X78723371Y-96392117D01*
X78795339Y-96108589D01*
X78810611Y-95816469D01*
X78799331Y-95738740D01*
X82335000Y-95738740D01*
X82335000Y-96031260D01*
X82392068Y-96318158D01*
X82504010Y-96588411D01*
X82666525Y-96831632D01*
X82873368Y-97038475D01*
X83116589Y-97200990D01*
X83386842Y-97312932D01*
X83673740Y-97370000D01*
X83966260Y-97370000D01*
X84253158Y-97312932D01*
X84523411Y-97200990D01*
X84766632Y-97038475D01*
X84973475Y-96831632D01*
X85135990Y-96588411D01*
X85247932Y-96318158D01*
X85305000Y-96031260D01*
X85305000Y-95738740D01*
X85247932Y-95451842D01*
X85135990Y-95181589D01*
X84973475Y-94938368D01*
X84766632Y-94731525D01*
X84523411Y-94569010D01*
X84253158Y-94457068D01*
X83966260Y-94400000D01*
X83673740Y-94400000D01*
X83386842Y-94457068D01*
X83116589Y-94569010D01*
X82873368Y-94731525D01*
X82666525Y-94938368D01*
X82504010Y-95181589D01*
X82392068Y-95451842D01*
X82335000Y-95738740D01*
X78799331Y-95738740D01*
X78768599Y-95526981D01*
X78670919Y-95251253D01*
X78597472Y-95113843D01*
X78348397Y-95036208D01*
X77499605Y-95885000D01*
X77140395Y-95885000D01*
X76291603Y-95036208D01*
X76042528Y-95113843D01*
X75916629Y-95377883D01*
X75844661Y-95661411D01*
X75829389Y-95953531D01*
X64897000Y-95953531D01*
X64897000Y-94856603D01*
X76471208Y-94856603D01*
X77320000Y-95705395D01*
X78168792Y-94856603D01*
X78091157Y-94607528D01*
X77827117Y-94481629D01*
X77543589Y-94409661D01*
X77251469Y-94394389D01*
X76961981Y-94436401D01*
X76686253Y-94534081D01*
X76548843Y-94607528D01*
X76471208Y-94856603D01*
X64897000Y-94856603D01*
X64897000Y-92413397D01*
X76471208Y-92413397D01*
X76548843Y-92662472D01*
X76812883Y-92788371D01*
X77096411Y-92860339D01*
X77388531Y-92875611D01*
X77678019Y-92833599D01*
X77953747Y-92735919D01*
X78091157Y-92662472D01*
X78168792Y-92413397D01*
X77320000Y-91564605D01*
X76471208Y-92413397D01*
X64897000Y-92413397D01*
X64897000Y-91453531D01*
X75829389Y-91453531D01*
X75871401Y-91743019D01*
X75969081Y-92018747D01*
X76042528Y-92156157D01*
X76291603Y-92233792D01*
X77140395Y-91385000D01*
X77499605Y-91385000D01*
X78348397Y-92233792D01*
X78597472Y-92156157D01*
X78723371Y-91892117D01*
X78795339Y-91608589D01*
X78810611Y-91316469D01*
X78799331Y-91238740D01*
X82335000Y-91238740D01*
X82335000Y-91531260D01*
X82392068Y-91818158D01*
X82504010Y-92088411D01*
X82666525Y-92331632D01*
X82873368Y-92538475D01*
X83116589Y-92700990D01*
X83386842Y-92812932D01*
X83673740Y-92870000D01*
X83966260Y-92870000D01*
X84253158Y-92812932D01*
X84523411Y-92700990D01*
X84766632Y-92538475D01*
X84973475Y-92331632D01*
X85135990Y-92088411D01*
X85247932Y-91818158D01*
X85305000Y-91531260D01*
X85305000Y-91298665D01*
X89370000Y-91298665D01*
X89370000Y-91581335D01*
X89425147Y-91858574D01*
X89533320Y-92119727D01*
X89690363Y-92354759D01*
X89890241Y-92554637D01*
X90125273Y-92711680D01*
X90386426Y-92819853D01*
X90663665Y-92875000D01*
X90946335Y-92875000D01*
X91223574Y-92819853D01*
X91484727Y-92711680D01*
X91719759Y-92554637D01*
X91919637Y-92354759D01*
X92076680Y-92119727D01*
X92184853Y-91858574D01*
X92240000Y-91581335D01*
X92240000Y-91298665D01*
X92184853Y-91021426D01*
X92076680Y-90760273D01*
X91919637Y-90525241D01*
X91719759Y-90325363D01*
X91484727Y-90168320D01*
X91474135Y-90163933D01*
X91660131Y-90052385D01*
X91868519Y-89863414D01*
X92036037Y-89637420D01*
X92156246Y-89383087D01*
X92196904Y-89249039D01*
X92074915Y-89027000D01*
X90932000Y-89027000D01*
X90932000Y-89047000D01*
X90678000Y-89047000D01*
X90678000Y-89027000D01*
X89535085Y-89027000D01*
X89413096Y-89249039D01*
X89453754Y-89383087D01*
X89573963Y-89637420D01*
X89741481Y-89863414D01*
X89949869Y-90052385D01*
X90135865Y-90163933D01*
X90125273Y-90168320D01*
X89890241Y-90325363D01*
X89690363Y-90525241D01*
X89533320Y-90760273D01*
X89425147Y-91021426D01*
X89370000Y-91298665D01*
X85305000Y-91298665D01*
X85305000Y-91238740D01*
X85247932Y-90951842D01*
X85135990Y-90681589D01*
X84973475Y-90438368D01*
X84766632Y-90231525D01*
X84523411Y-90069010D01*
X84253158Y-89957068D01*
X83966260Y-89900000D01*
X83673740Y-89900000D01*
X83386842Y-89957068D01*
X83116589Y-90069010D01*
X82873368Y-90231525D01*
X82666525Y-90438368D01*
X82504010Y-90681589D01*
X82392068Y-90951842D01*
X82335000Y-91238740D01*
X78799331Y-91238740D01*
X78768599Y-91026981D01*
X78670919Y-90751253D01*
X78597472Y-90613843D01*
X78348397Y-90536208D01*
X77499605Y-91385000D01*
X77140395Y-91385000D01*
X76291603Y-90536208D01*
X76042528Y-90613843D01*
X75916629Y-90877883D01*
X75844661Y-91161411D01*
X75829389Y-91453531D01*
X64897000Y-91453531D01*
X64897000Y-90356603D01*
X76471208Y-90356603D01*
X77320000Y-91205395D01*
X78168792Y-90356603D01*
X78091157Y-90107528D01*
X77827117Y-89981629D01*
X77543589Y-89909661D01*
X77251469Y-89894389D01*
X76961981Y-89936401D01*
X76686253Y-90034081D01*
X76548843Y-90107528D01*
X76471208Y-90356603D01*
X64897000Y-90356603D01*
X64897000Y-76465000D01*
X72756928Y-76465000D01*
X72769188Y-76589482D01*
X72805498Y-76709180D01*
X72864463Y-76819494D01*
X72943815Y-76916185D01*
X73040506Y-76995537D01*
X73150820Y-77054502D01*
X73270518Y-77090812D01*
X73395000Y-77103072D01*
X74009250Y-77100000D01*
X74168000Y-76941250D01*
X74168000Y-75692000D01*
X74422000Y-75692000D01*
X74422000Y-76941250D01*
X74580750Y-77100000D01*
X75195000Y-77103072D01*
X75319482Y-77090812D01*
X75439180Y-77054502D01*
X75549494Y-76995537D01*
X75646185Y-76916185D01*
X75725537Y-76819494D01*
X75784502Y-76709180D01*
X75820812Y-76589482D01*
X75833072Y-76465000D01*
X75830000Y-75850750D01*
X75671250Y-75692000D01*
X74422000Y-75692000D01*
X74168000Y-75692000D01*
X72918750Y-75692000D01*
X72760000Y-75850750D01*
X72756928Y-76465000D01*
X64897000Y-76465000D01*
X64897000Y-74665000D01*
X72756928Y-74665000D01*
X72760000Y-75279250D01*
X72918750Y-75438000D01*
X74168000Y-75438000D01*
X74168000Y-75418000D01*
X74422000Y-75418000D01*
X74422000Y-75438000D01*
X75671250Y-75438000D01*
X75830000Y-75279250D01*
X75833072Y-74665000D01*
X75820812Y-74540518D01*
X75784502Y-74420820D01*
X75725537Y-74310506D01*
X75646185Y-74213815D01*
X75549494Y-74134463D01*
X75439180Y-74075498D01*
X75420873Y-74069944D01*
X75487312Y-74003505D01*
X75655299Y-73752095D01*
X75771011Y-73472743D01*
X75830000Y-73176184D01*
X75830000Y-72873816D01*
X75771011Y-72577257D01*
X75655299Y-72297905D01*
X75487312Y-72046495D01*
X75273505Y-71832688D01*
X75055000Y-71686687D01*
X75055000Y-68894801D01*
X75879802Y-68070000D01*
X76251957Y-68070000D01*
X76355363Y-68224759D01*
X76555241Y-68424637D01*
X76790273Y-68581680D01*
X77051426Y-68689853D01*
X77328665Y-68745000D01*
X77611335Y-68745000D01*
X77888574Y-68689853D01*
X78149727Y-68581680D01*
X78384759Y-68424637D01*
X78584637Y-68224759D01*
X78741680Y-67989727D01*
X78849853Y-67728574D01*
X78905000Y-67451335D01*
X78905000Y-67168665D01*
X78849853Y-66891426D01*
X78741680Y-66630273D01*
X78584637Y-66395241D01*
X78384759Y-66195363D01*
X78149727Y-66038320D01*
X77888574Y-65930147D01*
X77611335Y-65875000D01*
X77328665Y-65875000D01*
X77051426Y-65930147D01*
X76790273Y-66038320D01*
X76555241Y-66195363D01*
X76355363Y-66395241D01*
X76251957Y-66550000D01*
X75602322Y-66550000D01*
X75564999Y-66546324D01*
X75527676Y-66550000D01*
X75527667Y-66550000D01*
X75416014Y-66560997D01*
X75272753Y-66604454D01*
X75140724Y-66675026D01*
X75024999Y-66769999D01*
X75001201Y-66798997D01*
X73784003Y-68016196D01*
X73754999Y-68039999D01*
X73705460Y-68100363D01*
X73660026Y-68155724D01*
X73623126Y-68224759D01*
X73589454Y-68287754D01*
X73545997Y-68431015D01*
X73535000Y-68542668D01*
X73535000Y-68542678D01*
X73531324Y-68580000D01*
X73535000Y-68617323D01*
X73535001Y-71686687D01*
X73316495Y-71832688D01*
X73102688Y-72046495D01*
X72934701Y-72297905D01*
X72818989Y-72577257D01*
X72760000Y-72873816D01*
X72760000Y-73176184D01*
X72818989Y-73472743D01*
X72934701Y-73752095D01*
X73102688Y-74003505D01*
X73169127Y-74069944D01*
X73150820Y-74075498D01*
X73040506Y-74134463D01*
X72943815Y-74213815D01*
X72864463Y-74310506D01*
X72805498Y-74420820D01*
X72769188Y-74540518D01*
X72756928Y-74665000D01*
X64897000Y-74665000D01*
X64897000Y-53910000D01*
X73556928Y-53910000D01*
X73556928Y-55660000D01*
X73586001Y-55955186D01*
X73672104Y-56239028D01*
X73811927Y-56500618D01*
X74000097Y-56729903D01*
X74229382Y-56918073D01*
X74490972Y-57057896D01*
X74774814Y-57143999D01*
X75070000Y-57173072D01*
X76820000Y-57173072D01*
X77115186Y-57143999D01*
X77399028Y-57057896D01*
X77660618Y-56918073D01*
X77889903Y-56729903D01*
X78006928Y-56587308D01*
X78006928Y-59535000D01*
X78019188Y-59659482D01*
X78055498Y-59779180D01*
X78114463Y-59889494D01*
X78193815Y-59986185D01*
X78290506Y-60065537D01*
X78400820Y-60124502D01*
X78520518Y-60160812D01*
X78645000Y-60173072D01*
X79760001Y-60173072D01*
X79760000Y-63543476D01*
X79760001Y-63543486D01*
X79760000Y-79331531D01*
X79755719Y-79375000D01*
X79760000Y-79418469D01*
X79760000Y-79418476D01*
X79772805Y-79548489D01*
X79823411Y-79715312D01*
X79905589Y-79869058D01*
X80016183Y-80003817D01*
X80049954Y-80031532D01*
X84433470Y-84415049D01*
X84461183Y-84448817D01*
X84494951Y-84476530D01*
X84494953Y-84476532D01*
X84517399Y-84494953D01*
X84595941Y-84559411D01*
X84749687Y-84641589D01*
X84916510Y-84692195D01*
X85046523Y-84705000D01*
X85046533Y-84705000D01*
X85089999Y-84709281D01*
X85133465Y-84705000D01*
X89670479Y-84705000D01*
X89690363Y-84734759D01*
X89890241Y-84934637D01*
X90122759Y-85090000D01*
X89890241Y-85245363D01*
X89690363Y-85445241D01*
X89533320Y-85680273D01*
X89425147Y-85941426D01*
X89370000Y-86218665D01*
X89370000Y-86501335D01*
X89425147Y-86778574D01*
X89533320Y-87039727D01*
X89690363Y-87274759D01*
X89890241Y-87474637D01*
X90125273Y-87631680D01*
X90135865Y-87636067D01*
X89949869Y-87747615D01*
X89741481Y-87936586D01*
X89573963Y-88162580D01*
X89453754Y-88416913D01*
X89413096Y-88550961D01*
X89535085Y-88773000D01*
X90678000Y-88773000D01*
X90678000Y-88753000D01*
X90932000Y-88753000D01*
X90932000Y-88773000D01*
X92074915Y-88773000D01*
X92196904Y-88550961D01*
X92156246Y-88416913D01*
X92036037Y-88162580D01*
X91868519Y-87936586D01*
X91660131Y-87747615D01*
X91474135Y-87636067D01*
X91484727Y-87631680D01*
X91719759Y-87474637D01*
X91919637Y-87274759D01*
X92076680Y-87039727D01*
X92184853Y-86778574D01*
X92240000Y-86501335D01*
X92240000Y-86218665D01*
X92184853Y-85941426D01*
X92076680Y-85680273D01*
X91919637Y-85445241D01*
X91719759Y-85245363D01*
X91487241Y-85090000D01*
X91719759Y-84934637D01*
X91919637Y-84734759D01*
X91939521Y-84705000D01*
X94248422Y-84705000D01*
X95000000Y-85456579D01*
X95000001Y-96476521D01*
X94995719Y-96520000D01*
X95012805Y-96693490D01*
X95063412Y-96860313D01*
X95145590Y-97014059D01*
X95228468Y-97115046D01*
X95228471Y-97115049D01*
X95256184Y-97148817D01*
X95289951Y-97176529D01*
X97133470Y-99020049D01*
X97161183Y-99053817D01*
X97194951Y-99081530D01*
X97194953Y-99081532D01*
X97223216Y-99104727D01*
X97295941Y-99164411D01*
X97449687Y-99246589D01*
X97616510Y-99297195D01*
X97746523Y-99310000D01*
X97746531Y-99310000D01*
X97790000Y-99314281D01*
X97833469Y-99310000D01*
X115070479Y-99310000D01*
X115090363Y-99339759D01*
X115290241Y-99539637D01*
X115320000Y-99559522D01*
X115320001Y-101556521D01*
X115315719Y-101600000D01*
X115332805Y-101773490D01*
X115383412Y-101940313D01*
X115465590Y-102094059D01*
X115548468Y-102195046D01*
X115548471Y-102195049D01*
X115576184Y-102228817D01*
X115609951Y-102256529D01*
X116818470Y-103465049D01*
X116846183Y-103498817D01*
X116879951Y-103526530D01*
X116879953Y-103526532D01*
X116937075Y-103573411D01*
X116980941Y-103609411D01*
X117134687Y-103691589D01*
X117301510Y-103742195D01*
X117431523Y-103755000D01*
X117431533Y-103755000D01*
X117474999Y-103759281D01*
X117518465Y-103755000D01*
X125170344Y-103755000D01*
X125211525Y-103816632D01*
X125418368Y-104023475D01*
X125480000Y-104064656D01*
X125480001Y-105366521D01*
X125475719Y-105410000D01*
X125492805Y-105583490D01*
X125543412Y-105750313D01*
X125625590Y-105904059D01*
X125708468Y-106005046D01*
X125708469Y-106005047D01*
X125736184Y-106038817D01*
X125769951Y-106066529D01*
X126343470Y-106640049D01*
X126371183Y-106673817D01*
X126404951Y-106701530D01*
X126404953Y-106701532D01*
X126505941Y-106784411D01*
X126659686Y-106866589D01*
X126826510Y-106917195D01*
X126956523Y-106930000D01*
X126956531Y-106930000D01*
X127000000Y-106934281D01*
X127043469Y-106930000D01*
X145371531Y-106930000D01*
X145415000Y-106934281D01*
X145458469Y-106930000D01*
X145458477Y-106930000D01*
X145588490Y-106917195D01*
X145755313Y-106866589D01*
X145909059Y-106784411D01*
X146043817Y-106673817D01*
X146071534Y-106640044D01*
X146645050Y-106066529D01*
X146678817Y-106038817D01*
X146706533Y-106005046D01*
X146789411Y-105904059D01*
X146871589Y-105750314D01*
X146922195Y-105583490D01*
X146925401Y-105550941D01*
X146935000Y-105453477D01*
X146935000Y-105453469D01*
X146939281Y-105410000D01*
X146935000Y-105366531D01*
X146935000Y-83228465D01*
X146939281Y-83184999D01*
X146935000Y-83141533D01*
X146935000Y-83141523D01*
X146922195Y-83011510D01*
X146871589Y-82844687D01*
X146789411Y-82690941D01*
X146678817Y-82556183D01*
X146645049Y-82528470D01*
X145436534Y-81319956D01*
X145408817Y-81286183D01*
X145274059Y-81175589D01*
X145120313Y-81093411D01*
X144953490Y-81042805D01*
X144823477Y-81030000D01*
X144823469Y-81030000D01*
X144780000Y-81025719D01*
X144736531Y-81030000D01*
X144009521Y-81030000D01*
X143989637Y-81000241D01*
X143789759Y-80800363D01*
X143760000Y-80780479D01*
X143760000Y-80509521D01*
X143789759Y-80489637D01*
X143989637Y-80289759D01*
X144146680Y-80054727D01*
X144254853Y-79793574D01*
X144310000Y-79516335D01*
X144310000Y-79233665D01*
X144254853Y-78956426D01*
X144146680Y-78695273D01*
X143989637Y-78460241D01*
X143789759Y-78260363D01*
X143554727Y-78103320D01*
X143544135Y-78098933D01*
X143730131Y-77987385D01*
X143938519Y-77798414D01*
X144106037Y-77572420D01*
X144226246Y-77318087D01*
X144266904Y-77184039D01*
X144144915Y-76962000D01*
X143002000Y-76962000D01*
X143002000Y-76982000D01*
X142748000Y-76982000D01*
X142748000Y-76962000D01*
X141605085Y-76962000D01*
X141483096Y-77184039D01*
X141523754Y-77318087D01*
X141643963Y-77572420D01*
X141811481Y-77798414D01*
X142019869Y-77987385D01*
X142205865Y-78098933D01*
X142195273Y-78103320D01*
X141960241Y-78260363D01*
X141760363Y-78460241D01*
X141740479Y-78490000D01*
X140701579Y-78490000D01*
X138451534Y-76239956D01*
X138423817Y-76206183D01*
X138289059Y-76095589D01*
X138135313Y-76013411D01*
X137968490Y-75962805D01*
X137838477Y-75950000D01*
X137838469Y-75950000D01*
X137795000Y-75945719D01*
X137751531Y-75950000D01*
X136389521Y-75950000D01*
X136369637Y-75920241D01*
X136169759Y-75720363D01*
X135937241Y-75565000D01*
X136169759Y-75409637D01*
X136369637Y-75209759D01*
X136526680Y-74974727D01*
X136634853Y-74713574D01*
X136690000Y-74436335D01*
X136690000Y-74153665D01*
X136634853Y-73876426D01*
X136526680Y-73615273D01*
X136369637Y-73380241D01*
X136169759Y-73180363D01*
X135937241Y-73025000D01*
X136169759Y-72869637D01*
X136369637Y-72669759D01*
X136526680Y-72434727D01*
X136634853Y-72173574D01*
X136690000Y-71896335D01*
X136690000Y-71613665D01*
X136634853Y-71336426D01*
X136526680Y-71075273D01*
X136369637Y-70840241D01*
X136169759Y-70640363D01*
X135937241Y-70485000D01*
X136169759Y-70329637D01*
X136369637Y-70129759D01*
X136526680Y-69894727D01*
X136634853Y-69633574D01*
X136690000Y-69356335D01*
X136690000Y-69073665D01*
X136634853Y-68796426D01*
X136526680Y-68535273D01*
X136369637Y-68300241D01*
X136169759Y-68100363D01*
X135937241Y-67945000D01*
X136169759Y-67789637D01*
X136369637Y-67589759D01*
X136526680Y-67354727D01*
X136634853Y-67093574D01*
X136690000Y-66816335D01*
X136690000Y-66533665D01*
X136634853Y-66256426D01*
X136526680Y-65995273D01*
X136369637Y-65760241D01*
X136169759Y-65560363D01*
X135937241Y-65405000D01*
X136169759Y-65249637D01*
X136369637Y-65049759D01*
X136526680Y-64814727D01*
X136634853Y-64553574D01*
X136690000Y-64276335D01*
X136690000Y-63993665D01*
X136634853Y-63716426D01*
X136526680Y-63455273D01*
X136369637Y-63220241D01*
X136171039Y-63021643D01*
X136179482Y-63020812D01*
X136299180Y-62984502D01*
X136409494Y-62925537D01*
X136506185Y-62846185D01*
X136585537Y-62749494D01*
X136644502Y-62639180D01*
X136680812Y-62519482D01*
X136693072Y-62395000D01*
X136693072Y-61453665D01*
X141440000Y-61453665D01*
X141440000Y-61736335D01*
X141495147Y-62013574D01*
X141603320Y-62274727D01*
X141760363Y-62509759D01*
X141960241Y-62709637D01*
X142192759Y-62865000D01*
X141960241Y-63020363D01*
X141760363Y-63220241D01*
X141603320Y-63455273D01*
X141495147Y-63716426D01*
X141440000Y-63993665D01*
X141440000Y-64276335D01*
X141495147Y-64553574D01*
X141603320Y-64814727D01*
X141760363Y-65049759D01*
X141960241Y-65249637D01*
X142192759Y-65405000D01*
X141960241Y-65560363D01*
X141760363Y-65760241D01*
X141603320Y-65995273D01*
X141495147Y-66256426D01*
X141440000Y-66533665D01*
X141440000Y-66816335D01*
X141495147Y-67093574D01*
X141603320Y-67354727D01*
X141760363Y-67589759D01*
X141960241Y-67789637D01*
X142192759Y-67945000D01*
X141960241Y-68100363D01*
X141760363Y-68300241D01*
X141603320Y-68535273D01*
X141495147Y-68796426D01*
X141440000Y-69073665D01*
X141440000Y-69356335D01*
X141495147Y-69633574D01*
X141603320Y-69894727D01*
X141760363Y-70129759D01*
X141960241Y-70329637D01*
X142192759Y-70485000D01*
X141960241Y-70640363D01*
X141760363Y-70840241D01*
X141603320Y-71075273D01*
X141495147Y-71336426D01*
X141440000Y-71613665D01*
X141440000Y-71896335D01*
X141495147Y-72173574D01*
X141603320Y-72434727D01*
X141760363Y-72669759D01*
X141960241Y-72869637D01*
X142192759Y-73025000D01*
X141960241Y-73180363D01*
X141760363Y-73380241D01*
X141603320Y-73615273D01*
X141495147Y-73876426D01*
X141440000Y-74153665D01*
X141440000Y-74436335D01*
X141495147Y-74713574D01*
X141603320Y-74974727D01*
X141760363Y-75209759D01*
X141960241Y-75409637D01*
X142195273Y-75566680D01*
X142205865Y-75571067D01*
X142019869Y-75682615D01*
X141811481Y-75871586D01*
X141643963Y-76097580D01*
X141523754Y-76351913D01*
X141483096Y-76485961D01*
X141605085Y-76708000D01*
X142748000Y-76708000D01*
X142748000Y-76688000D01*
X143002000Y-76688000D01*
X143002000Y-76708000D01*
X144144915Y-76708000D01*
X144266904Y-76485961D01*
X144226246Y-76351913D01*
X144106037Y-76097580D01*
X143938519Y-75871586D01*
X143730131Y-75682615D01*
X143544135Y-75571067D01*
X143554727Y-75566680D01*
X143789759Y-75409637D01*
X143989637Y-75209759D01*
X144146680Y-74974727D01*
X144254853Y-74713574D01*
X144310000Y-74436335D01*
X144310000Y-74153665D01*
X144254853Y-73876426D01*
X144146680Y-73615273D01*
X143989637Y-73380241D01*
X143789759Y-73180363D01*
X143557241Y-73025000D01*
X143789759Y-72869637D01*
X143989637Y-72669759D01*
X144146680Y-72434727D01*
X144254853Y-72173574D01*
X144310000Y-71896335D01*
X144310000Y-71613665D01*
X144254853Y-71336426D01*
X144146680Y-71075273D01*
X143989637Y-70840241D01*
X143789759Y-70640363D01*
X143557241Y-70485000D01*
X143789759Y-70329637D01*
X143989637Y-70129759D01*
X144146680Y-69894727D01*
X144254853Y-69633574D01*
X144310000Y-69356335D01*
X144310000Y-69073665D01*
X144254853Y-68796426D01*
X144146680Y-68535273D01*
X143989637Y-68300241D01*
X143789759Y-68100363D01*
X143557241Y-67945000D01*
X143789759Y-67789637D01*
X143989637Y-67589759D01*
X144146680Y-67354727D01*
X144254853Y-67093574D01*
X144310000Y-66816335D01*
X144310000Y-66533665D01*
X144254853Y-66256426D01*
X144146680Y-65995273D01*
X143989637Y-65760241D01*
X143789759Y-65560363D01*
X143557241Y-65405000D01*
X143789759Y-65249637D01*
X143989637Y-65049759D01*
X144146680Y-64814727D01*
X144254853Y-64553574D01*
X144310000Y-64276335D01*
X144310000Y-63993665D01*
X144254853Y-63716426D01*
X144146680Y-63455273D01*
X143989637Y-63220241D01*
X143789759Y-63020363D01*
X143557241Y-62865000D01*
X143789759Y-62709637D01*
X143989637Y-62509759D01*
X144146680Y-62274727D01*
X144254853Y-62013574D01*
X144310000Y-61736335D01*
X144310000Y-61453665D01*
X144254853Y-61176426D01*
X144146680Y-60915273D01*
X143989637Y-60680241D01*
X143789759Y-60480363D01*
X143554727Y-60323320D01*
X143293574Y-60215147D01*
X143016335Y-60160000D01*
X142733665Y-60160000D01*
X142456426Y-60215147D01*
X142195273Y-60323320D01*
X141960241Y-60480363D01*
X141760363Y-60680241D01*
X141603320Y-60915273D01*
X141495147Y-61176426D01*
X141440000Y-61453665D01*
X136693072Y-61453665D01*
X136693072Y-60795000D01*
X136680812Y-60670518D01*
X136644502Y-60550820D01*
X136585537Y-60440506D01*
X136506185Y-60343815D01*
X136409494Y-60264463D01*
X136299180Y-60205498D01*
X136179482Y-60169188D01*
X136055000Y-60156928D01*
X134455000Y-60156928D01*
X134330518Y-60169188D01*
X134210820Y-60205498D01*
X134100506Y-60264463D01*
X134003815Y-60343815D01*
X133924463Y-60440506D01*
X133865498Y-60550820D01*
X133829188Y-60670518D01*
X133816928Y-60795000D01*
X133816928Y-62257126D01*
X132643804Y-61084003D01*
X132620001Y-61054999D01*
X132504276Y-60960026D01*
X132372247Y-60889454D01*
X132228986Y-60845997D01*
X132117333Y-60835000D01*
X132117322Y-60835000D01*
X132080000Y-60831324D01*
X132042678Y-60835000D01*
X132028043Y-60835000D01*
X131924637Y-60680241D01*
X131724759Y-60480363D01*
X131489727Y-60323320D01*
X131228574Y-60215147D01*
X130951335Y-60160000D01*
X130668665Y-60160000D01*
X130391426Y-60215147D01*
X130130273Y-60323320D01*
X129895241Y-60480363D01*
X129695363Y-60680241D01*
X129538320Y-60915273D01*
X129430147Y-61176426D01*
X129375000Y-61453665D01*
X129375000Y-61736335D01*
X129430147Y-62013574D01*
X129538320Y-62274727D01*
X129695363Y-62509759D01*
X129895241Y-62709637D01*
X130130273Y-62866680D01*
X130391426Y-62974853D01*
X130668665Y-63030000D01*
X130951335Y-63030000D01*
X131228574Y-62974853D01*
X131489727Y-62866680D01*
X131724759Y-62709637D01*
X131922297Y-62512099D01*
X132590001Y-63179803D01*
X132590000Y-68542677D01*
X132586324Y-68580000D01*
X132590000Y-68617322D01*
X132590000Y-68617332D01*
X132600997Y-68728985D01*
X132621455Y-68796426D01*
X132644454Y-68872246D01*
X132715026Y-69004276D01*
X132754871Y-69052826D01*
X132809999Y-69120001D01*
X132839002Y-69143803D01*
X133421200Y-69726002D01*
X133444999Y-69755001D01*
X133473997Y-69778799D01*
X133560724Y-69849974D01*
X133692753Y-69920546D01*
X133836014Y-69964003D01*
X133985000Y-69978677D01*
X134022333Y-69975000D01*
X134036957Y-69975000D01*
X134140363Y-70129759D01*
X134340241Y-70329637D01*
X134572759Y-70485000D01*
X134340241Y-70640363D01*
X134140363Y-70840241D01*
X133983320Y-71075273D01*
X133875147Y-71336426D01*
X133820000Y-71613665D01*
X133820000Y-71896335D01*
X133875147Y-72173574D01*
X133983320Y-72434727D01*
X134140363Y-72669759D01*
X134340241Y-72869637D01*
X134572759Y-73025000D01*
X134340241Y-73180363D01*
X134140363Y-73380241D01*
X133983320Y-73615273D01*
X133875147Y-73876426D01*
X133820000Y-74153665D01*
X133820000Y-74436335D01*
X133875147Y-74713574D01*
X133983320Y-74974727D01*
X134140363Y-75209759D01*
X134340241Y-75409637D01*
X134572759Y-75565000D01*
X134340241Y-75720363D01*
X134140363Y-75920241D01*
X133983320Y-76155273D01*
X133875147Y-76416426D01*
X133820000Y-76693665D01*
X133820000Y-76976335D01*
X133875147Y-77253574D01*
X133983320Y-77514727D01*
X134140363Y-77749759D01*
X134340241Y-77949637D01*
X134575273Y-78106680D01*
X134585865Y-78111067D01*
X134399869Y-78222615D01*
X134191481Y-78411586D01*
X134023963Y-78637580D01*
X133903754Y-78891913D01*
X133863096Y-79025961D01*
X133985085Y-79248000D01*
X135128000Y-79248000D01*
X135128000Y-79228000D01*
X135382000Y-79228000D01*
X135382000Y-79248000D01*
X136524915Y-79248000D01*
X136646904Y-79025961D01*
X136606246Y-78891913D01*
X136486037Y-78637580D01*
X136318519Y-78411586D01*
X136110131Y-78222615D01*
X135924135Y-78111067D01*
X135934727Y-78106680D01*
X136169759Y-77949637D01*
X136369637Y-77749759D01*
X136389521Y-77720000D01*
X137428422Y-77720000D01*
X139678470Y-79970049D01*
X139706183Y-80003817D01*
X139739951Y-80031530D01*
X139739953Y-80031532D01*
X139768216Y-80054727D01*
X139840941Y-80114411D01*
X139994687Y-80196589D01*
X140161510Y-80247195D01*
X140291523Y-80260000D01*
X140291533Y-80260000D01*
X140334999Y-80264281D01*
X140378465Y-80260000D01*
X141740479Y-80260000D01*
X141760363Y-80289759D01*
X141960241Y-80489637D01*
X141990001Y-80509522D01*
X141990000Y-80780478D01*
X141960241Y-80800363D01*
X141760363Y-81000241D01*
X141603320Y-81235273D01*
X141495147Y-81496426D01*
X141440000Y-81773665D01*
X141440000Y-82056335D01*
X141495147Y-82333574D01*
X141603320Y-82594727D01*
X141760363Y-82829759D01*
X141960241Y-83029637D01*
X142192759Y-83185000D01*
X141960241Y-83340363D01*
X141760363Y-83540241D01*
X141656957Y-83695000D01*
X141642333Y-83695000D01*
X141605000Y-83691323D01*
X141567667Y-83695000D01*
X141456014Y-83705997D01*
X141312753Y-83749454D01*
X141180724Y-83820026D01*
X141064999Y-83914999D01*
X141041200Y-83943998D01*
X140458998Y-84526201D01*
X140430000Y-84549999D01*
X140406202Y-84578997D01*
X140406201Y-84578998D01*
X140335026Y-84665724D01*
X140264454Y-84797754D01*
X140241455Y-84873574D01*
X140222933Y-84934637D01*
X140220998Y-84941015D01*
X140206324Y-85090000D01*
X140210001Y-85127332D01*
X140210000Y-97475198D01*
X140020199Y-97665000D01*
X137197323Y-97665000D01*
X137160000Y-97661324D01*
X137122677Y-97665000D01*
X137122667Y-97665000D01*
X137011014Y-97675997D01*
X136867753Y-97719454D01*
X136735724Y-97790026D01*
X136619999Y-97884999D01*
X136596201Y-97913997D01*
X134940199Y-99570000D01*
X130183178Y-99570000D01*
X130058475Y-99383368D01*
X129851632Y-99176525D01*
X129677240Y-99060000D01*
X129851632Y-98943475D01*
X130058475Y-98736632D01*
X130183178Y-98550000D01*
X132042678Y-98550000D01*
X132080000Y-98553676D01*
X132117322Y-98550000D01*
X132117333Y-98550000D01*
X132228986Y-98539003D01*
X132372247Y-98495546D01*
X132504276Y-98424974D01*
X132620001Y-98330001D01*
X132643803Y-98300998D01*
X133226004Y-97718798D01*
X133255001Y-97695001D01*
X133349974Y-97579276D01*
X133420546Y-97447247D01*
X133464003Y-97303986D01*
X133475000Y-97192333D01*
X133475000Y-97192332D01*
X133478677Y-97155000D01*
X133475000Y-97117667D01*
X133475000Y-81952333D01*
X133478677Y-81915000D01*
X133464757Y-81773665D01*
X133820000Y-81773665D01*
X133820000Y-82056335D01*
X133875147Y-82333574D01*
X133983320Y-82594727D01*
X134140363Y-82829759D01*
X134340241Y-83029637D01*
X134572759Y-83185000D01*
X134340241Y-83340363D01*
X134140363Y-83540241D01*
X133983320Y-83775273D01*
X133875147Y-84036426D01*
X133820000Y-84313665D01*
X133820000Y-84596335D01*
X133875147Y-84873574D01*
X133983320Y-85134727D01*
X134140363Y-85369759D01*
X134340241Y-85569637D01*
X134572759Y-85725000D01*
X134340241Y-85880363D01*
X134140363Y-86080241D01*
X133983320Y-86315273D01*
X133875147Y-86576426D01*
X133820000Y-86853665D01*
X133820000Y-87136335D01*
X133875147Y-87413574D01*
X133983320Y-87674727D01*
X134140363Y-87909759D01*
X134340241Y-88109637D01*
X134572759Y-88265000D01*
X134340241Y-88420363D01*
X134140363Y-88620241D01*
X133983320Y-88855273D01*
X133875147Y-89116426D01*
X133820000Y-89393665D01*
X133820000Y-89676335D01*
X133875147Y-89953574D01*
X133983320Y-90214727D01*
X134140363Y-90449759D01*
X134340241Y-90649637D01*
X134572759Y-90805000D01*
X134340241Y-90960363D01*
X134140363Y-91160241D01*
X133983320Y-91395273D01*
X133875147Y-91656426D01*
X133820000Y-91933665D01*
X133820000Y-92216335D01*
X133875147Y-92493574D01*
X133983320Y-92754727D01*
X134140363Y-92989759D01*
X134340241Y-93189637D01*
X134572759Y-93345000D01*
X134340241Y-93500363D01*
X134140363Y-93700241D01*
X133983320Y-93935273D01*
X133875147Y-94196426D01*
X133820000Y-94473665D01*
X133820000Y-94756335D01*
X133875147Y-95033574D01*
X133983320Y-95294727D01*
X134140363Y-95529759D01*
X134340241Y-95729637D01*
X134575273Y-95886680D01*
X134836426Y-95994853D01*
X135113665Y-96050000D01*
X135396335Y-96050000D01*
X135673574Y-95994853D01*
X135934727Y-95886680D01*
X136169759Y-95729637D01*
X136369637Y-95529759D01*
X136526680Y-95294727D01*
X136634853Y-95033574D01*
X136690000Y-94756335D01*
X136690000Y-94473665D01*
X136634853Y-94196426D01*
X136526680Y-93935273D01*
X136369637Y-93700241D01*
X136169759Y-93500363D01*
X135937241Y-93345000D01*
X136169759Y-93189637D01*
X136369637Y-92989759D01*
X136526680Y-92754727D01*
X136634853Y-92493574D01*
X136690000Y-92216335D01*
X136690000Y-91933665D01*
X136634853Y-91656426D01*
X136526680Y-91395273D01*
X136369637Y-91160241D01*
X136169759Y-90960363D01*
X135937241Y-90805000D01*
X136169759Y-90649637D01*
X136369637Y-90449759D01*
X136526680Y-90214727D01*
X136634853Y-89953574D01*
X136690000Y-89676335D01*
X136690000Y-89393665D01*
X136634853Y-89116426D01*
X136526680Y-88855273D01*
X136369637Y-88620241D01*
X136169759Y-88420363D01*
X135937241Y-88265000D01*
X136169759Y-88109637D01*
X136369637Y-87909759D01*
X136526680Y-87674727D01*
X136634853Y-87413574D01*
X136690000Y-87136335D01*
X136690000Y-86853665D01*
X136634853Y-86576426D01*
X136526680Y-86315273D01*
X136369637Y-86080241D01*
X136169759Y-85880363D01*
X135937241Y-85725000D01*
X136169759Y-85569637D01*
X136369637Y-85369759D01*
X136526680Y-85134727D01*
X136634853Y-84873574D01*
X136690000Y-84596335D01*
X136690000Y-84313665D01*
X136634853Y-84036426D01*
X136526680Y-83775273D01*
X136369637Y-83540241D01*
X136169759Y-83340363D01*
X135937241Y-83185000D01*
X136169759Y-83029637D01*
X136369637Y-82829759D01*
X136526680Y-82594727D01*
X136634853Y-82333574D01*
X136690000Y-82056335D01*
X136690000Y-81773665D01*
X136634853Y-81496426D01*
X136526680Y-81235273D01*
X136369637Y-81000241D01*
X136169759Y-80800363D01*
X135934727Y-80643320D01*
X135924135Y-80638933D01*
X136110131Y-80527385D01*
X136318519Y-80338414D01*
X136486037Y-80112420D01*
X136606246Y-79858087D01*
X136646904Y-79724039D01*
X136524915Y-79502000D01*
X135382000Y-79502000D01*
X135382000Y-79522000D01*
X135128000Y-79522000D01*
X135128000Y-79502000D01*
X133985085Y-79502000D01*
X133863096Y-79724039D01*
X133903754Y-79858087D01*
X134023963Y-80112420D01*
X134191481Y-80338414D01*
X134399869Y-80527385D01*
X134585865Y-80638933D01*
X134575273Y-80643320D01*
X134340241Y-80800363D01*
X134140363Y-81000241D01*
X133983320Y-81235273D01*
X133875147Y-81496426D01*
X133820000Y-81773665D01*
X133464757Y-81773665D01*
X133464003Y-81766014D01*
X133420546Y-81622753D01*
X133349974Y-81490724D01*
X133278799Y-81403997D01*
X133255001Y-81374999D01*
X133226002Y-81351200D01*
X132643803Y-80769002D01*
X132620001Y-80739999D01*
X132504276Y-80645026D01*
X132372247Y-80574454D01*
X132228986Y-80530997D01*
X132117333Y-80520000D01*
X132117322Y-80520000D01*
X132080000Y-80516324D01*
X132042678Y-80520000D01*
X128584802Y-80520000D01*
X128395000Y-80330199D01*
X128395000Y-74332333D01*
X128398677Y-74295000D01*
X128384003Y-74146014D01*
X128340546Y-74002753D01*
X128269974Y-73870724D01*
X128198799Y-73783997D01*
X128175001Y-73754999D01*
X128146002Y-73731200D01*
X127760000Y-73345199D01*
X127760000Y-72973043D01*
X127914759Y-72869637D01*
X128114637Y-72669759D01*
X128271680Y-72434727D01*
X128379853Y-72173574D01*
X128435000Y-71896335D01*
X128435000Y-71613665D01*
X129375000Y-71613665D01*
X129375000Y-71896335D01*
X129430147Y-72173574D01*
X129538320Y-72434727D01*
X129695363Y-72669759D01*
X129895241Y-72869637D01*
X130130273Y-73026680D01*
X130391426Y-73134853D01*
X130668665Y-73190000D01*
X130951335Y-73190000D01*
X131228574Y-73134853D01*
X131489727Y-73026680D01*
X131724759Y-72869637D01*
X131924637Y-72669759D01*
X132081680Y-72434727D01*
X132189853Y-72173574D01*
X132245000Y-71896335D01*
X132245000Y-71613665D01*
X132189853Y-71336426D01*
X132081680Y-71075273D01*
X131924637Y-70840241D01*
X131724759Y-70640363D01*
X131489727Y-70483320D01*
X131228574Y-70375147D01*
X130951335Y-70320000D01*
X130668665Y-70320000D01*
X130391426Y-70375147D01*
X130130273Y-70483320D01*
X129895241Y-70640363D01*
X129695363Y-70840241D01*
X129538320Y-71075273D01*
X129430147Y-71336426D01*
X129375000Y-71613665D01*
X128435000Y-71613665D01*
X128379853Y-71336426D01*
X128271680Y-71075273D01*
X128114637Y-70840241D01*
X127914759Y-70640363D01*
X127679727Y-70483320D01*
X127418574Y-70375147D01*
X127141335Y-70320000D01*
X126858665Y-70320000D01*
X126581426Y-70375147D01*
X126320273Y-70483320D01*
X126085241Y-70640363D01*
X125885363Y-70840241D01*
X125728320Y-71075273D01*
X125620147Y-71336426D01*
X125565000Y-71613665D01*
X125565000Y-71896335D01*
X125620147Y-72173574D01*
X125728320Y-72434727D01*
X125885363Y-72669759D01*
X126085241Y-72869637D01*
X126240000Y-72973044D01*
X126240000Y-73622677D01*
X126236324Y-73660000D01*
X126240000Y-73697322D01*
X126240000Y-73697332D01*
X126250997Y-73808985D01*
X126271455Y-73876426D01*
X126294454Y-73952246D01*
X126365026Y-74084276D01*
X126404871Y-74132826D01*
X126459999Y-74200001D01*
X126489002Y-74223803D01*
X126875001Y-74609803D01*
X126875001Y-76146589D01*
X126722702Y-76101903D01*
X125909605Y-76915000D01*
X126722702Y-77728097D01*
X126875000Y-77683411D01*
X126875000Y-80607677D01*
X126871324Y-80645000D01*
X126875000Y-80682322D01*
X126875000Y-80682332D01*
X126885997Y-80793985D01*
X126906455Y-80861426D01*
X126929454Y-80937246D01*
X127000026Y-81069276D01*
X127039871Y-81117826D01*
X127094999Y-81185001D01*
X127124002Y-81208803D01*
X127706200Y-81791002D01*
X127729999Y-81820001D01*
X127758997Y-81843799D01*
X127845724Y-81914974D01*
X127977753Y-81985546D01*
X128121014Y-82029003D01*
X128270000Y-82043677D01*
X128307333Y-82040000D01*
X129425411Y-82040000D01*
X129260241Y-82150363D01*
X129060363Y-82350241D01*
X128956957Y-82505000D01*
X127038846Y-82505000D01*
X127109853Y-82333574D01*
X127165000Y-82056335D01*
X127165000Y-81773665D01*
X127109853Y-81496426D01*
X127001680Y-81235273D01*
X126844637Y-81000241D01*
X126644759Y-80800363D01*
X126409727Y-80643320D01*
X126148574Y-80535147D01*
X125871335Y-80480000D01*
X125588665Y-80480000D01*
X125311426Y-80535147D01*
X125050273Y-80643320D01*
X124815241Y-80800363D01*
X124615363Y-81000241D01*
X124511957Y-81155000D01*
X123863043Y-81155000D01*
X123759637Y-81000241D01*
X123559759Y-80800363D01*
X123327241Y-80645000D01*
X123559759Y-80489637D01*
X123759637Y-80289759D01*
X123916680Y-80054727D01*
X124024853Y-79793574D01*
X124080000Y-79516335D01*
X124080000Y-79233665D01*
X124024853Y-78956426D01*
X123916680Y-78695273D01*
X123759637Y-78460241D01*
X123559759Y-78260363D01*
X123327241Y-78105000D01*
X123559759Y-77949637D01*
X123601694Y-77907702D01*
X124916903Y-77907702D01*
X124988486Y-78151671D01*
X125243996Y-78272571D01*
X125518184Y-78341300D01*
X125800512Y-78355217D01*
X126080130Y-78313787D01*
X126346292Y-78218603D01*
X126471514Y-78151671D01*
X126543097Y-77907702D01*
X125730000Y-77094605D01*
X124916903Y-77907702D01*
X123601694Y-77907702D01*
X123759637Y-77749759D01*
X123916680Y-77514727D01*
X124024853Y-77253574D01*
X124078174Y-76985512D01*
X124289783Y-76985512D01*
X124331213Y-77265130D01*
X124426397Y-77531292D01*
X124493329Y-77656514D01*
X124737298Y-77728097D01*
X125550395Y-76915000D01*
X124737298Y-76101903D01*
X124493329Y-76173486D01*
X124372429Y-76428996D01*
X124303700Y-76703184D01*
X124289783Y-76985512D01*
X124078174Y-76985512D01*
X124080000Y-76976335D01*
X124080000Y-76693665D01*
X124024853Y-76416426D01*
X123916680Y-76155273D01*
X123761012Y-75922298D01*
X124916903Y-75922298D01*
X125730000Y-76735395D01*
X126543097Y-75922298D01*
X126471514Y-75678329D01*
X126216004Y-75557429D01*
X125941816Y-75488700D01*
X125659488Y-75474783D01*
X125379870Y-75516213D01*
X125113708Y-75611397D01*
X124988486Y-75678329D01*
X124916903Y-75922298D01*
X123761012Y-75922298D01*
X123759637Y-75920241D01*
X123559759Y-75720363D01*
X123324727Y-75563320D01*
X123063574Y-75455147D01*
X122786335Y-75400000D01*
X122503665Y-75400000D01*
X122226426Y-75455147D01*
X121965273Y-75563320D01*
X121730241Y-75720363D01*
X121530363Y-75920241D01*
X121373320Y-76155273D01*
X121265147Y-76416426D01*
X121210000Y-76693665D01*
X121210000Y-76976335D01*
X121265147Y-77253574D01*
X121373320Y-77514727D01*
X121530363Y-77749759D01*
X121730241Y-77949637D01*
X121962759Y-78105000D01*
X121730241Y-78260363D01*
X121530363Y-78460241D01*
X121373320Y-78695273D01*
X121265147Y-78956426D01*
X121210000Y-79233665D01*
X121210000Y-79516335D01*
X121265147Y-79793574D01*
X121373320Y-80054727D01*
X121530363Y-80289759D01*
X121730241Y-80489637D01*
X121962759Y-80645000D01*
X121730241Y-80800363D01*
X121530363Y-81000241D01*
X121373320Y-81235273D01*
X121265147Y-81496426D01*
X121210000Y-81773665D01*
X121210000Y-82056335D01*
X121265147Y-82333574D01*
X121373320Y-82594727D01*
X121530363Y-82829759D01*
X121730241Y-83029637D01*
X121962759Y-83185000D01*
X121730241Y-83340363D01*
X121530363Y-83540241D01*
X121373320Y-83775273D01*
X121265147Y-84036426D01*
X121210000Y-84313665D01*
X121210000Y-84596335D01*
X121265147Y-84873574D01*
X121373320Y-85134727D01*
X121530363Y-85369759D01*
X121730241Y-85569637D01*
X121962759Y-85725000D01*
X121730241Y-85880363D01*
X121530363Y-86080241D01*
X121373320Y-86315273D01*
X121265147Y-86576426D01*
X121210000Y-86853665D01*
X121210000Y-87136335D01*
X121265147Y-87413574D01*
X121373320Y-87674727D01*
X121530363Y-87909759D01*
X121730241Y-88109637D01*
X121962759Y-88265000D01*
X121730241Y-88420363D01*
X121530363Y-88620241D01*
X121373320Y-88855273D01*
X121265147Y-89116426D01*
X121210000Y-89393665D01*
X121210000Y-89676335D01*
X121265147Y-89953574D01*
X121373320Y-90214727D01*
X121530363Y-90449759D01*
X121730241Y-90649637D01*
X121962759Y-90805000D01*
X121730241Y-90960363D01*
X121530363Y-91160241D01*
X121426957Y-91315000D01*
X120687333Y-91315000D01*
X120650000Y-91311323D01*
X120612667Y-91315000D01*
X120501014Y-91325997D01*
X120357753Y-91369454D01*
X120225724Y-91440026D01*
X120109999Y-91534999D01*
X120086200Y-91563998D01*
X119503998Y-92146201D01*
X119475000Y-92169999D01*
X119451202Y-92198997D01*
X119451201Y-92198998D01*
X119380026Y-92285724D01*
X119309454Y-92417754D01*
X119307548Y-92424039D01*
X119265998Y-92561014D01*
X119260681Y-92615001D01*
X119251324Y-92710000D01*
X119255001Y-92747332D01*
X119255000Y-97752677D01*
X119251324Y-97790000D01*
X119255000Y-97827322D01*
X119255000Y-97827332D01*
X119265997Y-97938985D01*
X119286455Y-98006426D01*
X119309454Y-98082246D01*
X119380026Y-98214276D01*
X119419871Y-98262826D01*
X119474999Y-98330001D01*
X119504002Y-98353803D01*
X119783276Y-98633078D01*
X119825147Y-98843574D01*
X119933320Y-99104727D01*
X120090363Y-99339759D01*
X120290241Y-99539637D01*
X120525273Y-99696680D01*
X120786426Y-99804853D01*
X121063665Y-99860000D01*
X121346335Y-99860000D01*
X121623574Y-99804853D01*
X121884727Y-99696680D01*
X122119759Y-99539637D01*
X122319637Y-99339759D01*
X122476680Y-99104727D01*
X122584853Y-98843574D01*
X122640000Y-98566335D01*
X122640000Y-98283665D01*
X122584853Y-98006426D01*
X122476680Y-97745273D01*
X122319637Y-97510241D01*
X122242506Y-97433110D01*
X124923524Y-97433110D01*
X125044845Y-97663000D01*
X126238000Y-97663000D01*
X126238000Y-96469186D01*
X126008109Y-96348519D01*
X125733748Y-96445843D01*
X125483645Y-96594822D01*
X125267412Y-96789731D01*
X125093359Y-97023080D01*
X124968175Y-97285901D01*
X124923524Y-97433110D01*
X122242506Y-97433110D01*
X122119759Y-97310363D01*
X121884727Y-97153320D01*
X121623574Y-97045147D01*
X121346335Y-96990000D01*
X121063665Y-96990000D01*
X120786426Y-97045147D01*
X120775000Y-97049880D01*
X120775000Y-93024801D01*
X120964802Y-92835000D01*
X121426957Y-92835000D01*
X121530363Y-92989759D01*
X121728961Y-93188357D01*
X121720518Y-93189188D01*
X121600820Y-93225498D01*
X121490506Y-93284463D01*
X121393815Y-93363815D01*
X121314463Y-93460506D01*
X121255498Y-93570820D01*
X121219188Y-93690518D01*
X121206928Y-93815000D01*
X121206928Y-95415000D01*
X121219188Y-95539482D01*
X121255498Y-95659180D01*
X121314463Y-95769494D01*
X121393815Y-95866185D01*
X121490506Y-95945537D01*
X121600820Y-96004502D01*
X121720518Y-96040812D01*
X121845000Y-96053072D01*
X123445000Y-96053072D01*
X123569482Y-96040812D01*
X123689180Y-96004502D01*
X123799494Y-95945537D01*
X123896185Y-95866185D01*
X123975537Y-95769494D01*
X124034502Y-95659180D01*
X124070812Y-95539482D01*
X124083072Y-95415000D01*
X124083072Y-95375000D01*
X124511957Y-95375000D01*
X124615363Y-95529759D01*
X124815241Y-95729637D01*
X125050273Y-95886680D01*
X125311426Y-95994853D01*
X125588665Y-96050000D01*
X125871335Y-96050000D01*
X126148574Y-95994853D01*
X126409727Y-95886680D01*
X126644759Y-95729637D01*
X126844637Y-95529759D01*
X127001680Y-95294727D01*
X127109853Y-95033574D01*
X127165000Y-94756335D01*
X127165000Y-94473665D01*
X127109853Y-94196426D01*
X127001680Y-93935273D01*
X126844637Y-93700241D01*
X126644759Y-93500363D01*
X126409727Y-93343320D01*
X126148574Y-93235147D01*
X125871335Y-93180000D01*
X125588665Y-93180000D01*
X125311426Y-93235147D01*
X125050273Y-93343320D01*
X124815241Y-93500363D01*
X124615363Y-93700241D01*
X124511957Y-93855000D01*
X124083072Y-93855000D01*
X124083072Y-93815000D01*
X124070812Y-93690518D01*
X124034502Y-93570820D01*
X123975537Y-93460506D01*
X123896185Y-93363815D01*
X123799494Y-93284463D01*
X123689180Y-93225498D01*
X123569482Y-93189188D01*
X123561039Y-93188357D01*
X123759637Y-92989759D01*
X123916680Y-92754727D01*
X124024853Y-92493574D01*
X124080000Y-92216335D01*
X124080000Y-91933665D01*
X124024853Y-91656426D01*
X123916680Y-91395273D01*
X123759637Y-91160241D01*
X123559759Y-90960363D01*
X123327241Y-90805000D01*
X123559759Y-90649637D01*
X123759637Y-90449759D01*
X123809589Y-90375000D01*
X124511957Y-90375000D01*
X124615363Y-90529759D01*
X124815241Y-90729637D01*
X125050273Y-90886680D01*
X125311426Y-90994853D01*
X125588665Y-91050000D01*
X125871335Y-91050000D01*
X126148574Y-90994853D01*
X126409727Y-90886680D01*
X126644759Y-90729637D01*
X126844637Y-90529759D01*
X127001680Y-90294727D01*
X127109853Y-90033574D01*
X127165000Y-89756335D01*
X127165000Y-89473665D01*
X127109853Y-89196426D01*
X127038846Y-89025000D01*
X128956957Y-89025000D01*
X129060363Y-89179759D01*
X129260241Y-89379637D01*
X129495273Y-89536680D01*
X129756426Y-89644853D01*
X130033665Y-89700000D01*
X130316335Y-89700000D01*
X130593574Y-89644853D01*
X130854727Y-89536680D01*
X131089759Y-89379637D01*
X131289637Y-89179759D01*
X131446680Y-88944727D01*
X131554853Y-88683574D01*
X131610000Y-88406335D01*
X131610000Y-88123665D01*
X131554853Y-87846426D01*
X131446680Y-87585273D01*
X131289637Y-87350241D01*
X131089759Y-87150363D01*
X130854727Y-86993320D01*
X130593574Y-86885147D01*
X130316335Y-86830000D01*
X130033665Y-86830000D01*
X129756426Y-86885147D01*
X129495273Y-86993320D01*
X129260241Y-87150363D01*
X129060363Y-87350241D01*
X128956957Y-87505000D01*
X127314802Y-87505000D01*
X126293804Y-86484003D01*
X126270001Y-86454999D01*
X126154276Y-86360026D01*
X126022247Y-86289454D01*
X125878986Y-86245997D01*
X125767333Y-86235000D01*
X125767322Y-86235000D01*
X125730000Y-86231324D01*
X125692678Y-86235000D01*
X123863043Y-86235000D01*
X123759637Y-86080241D01*
X123559759Y-85880363D01*
X123327241Y-85725000D01*
X123559759Y-85569637D01*
X123759637Y-85369759D01*
X123863043Y-85215000D01*
X125692678Y-85215000D01*
X125730000Y-85218676D01*
X125767322Y-85215000D01*
X125767333Y-85215000D01*
X125878986Y-85204003D01*
X126022247Y-85160546D01*
X126154276Y-85089974D01*
X126270001Y-84995001D01*
X126293804Y-84965997D01*
X127234802Y-84025000D01*
X128956957Y-84025000D01*
X129060363Y-84179759D01*
X129260241Y-84379637D01*
X129495273Y-84536680D01*
X129756426Y-84644853D01*
X130033665Y-84700000D01*
X130316335Y-84700000D01*
X130593574Y-84644853D01*
X130854727Y-84536680D01*
X131089759Y-84379637D01*
X131289637Y-84179759D01*
X131446680Y-83944727D01*
X131554853Y-83683574D01*
X131610000Y-83406335D01*
X131610000Y-83123665D01*
X131554853Y-82846426D01*
X131446680Y-82585273D01*
X131289637Y-82350241D01*
X131089759Y-82150363D01*
X130924589Y-82040000D01*
X131765199Y-82040000D01*
X131955001Y-82229803D01*
X131955000Y-96840198D01*
X131765199Y-97030000D01*
X130183178Y-97030000D01*
X130058475Y-96843368D01*
X129851632Y-96636525D01*
X129608411Y-96474010D01*
X129338158Y-96362068D01*
X129051260Y-96305000D01*
X128758740Y-96305000D01*
X128471842Y-96362068D01*
X128201589Y-96474010D01*
X127958368Y-96636525D01*
X127751525Y-96843368D01*
X127633900Y-97019406D01*
X127462588Y-96789731D01*
X127246355Y-96594822D01*
X126996252Y-96445843D01*
X126721891Y-96348519D01*
X126492000Y-96469186D01*
X126492000Y-97663000D01*
X126512000Y-97663000D01*
X126512000Y-97917000D01*
X126492000Y-97917000D01*
X126492000Y-97937000D01*
X126238000Y-97937000D01*
X126238000Y-97917000D01*
X125044845Y-97917000D01*
X124923524Y-98146890D01*
X124968175Y-98294099D01*
X125093359Y-98556920D01*
X125267412Y-98790269D01*
X125483645Y-98985178D01*
X125600534Y-99054805D01*
X125418368Y-99176525D01*
X125211525Y-99383368D01*
X125049010Y-99626589D01*
X124937068Y-99896842D01*
X124880000Y-100183740D01*
X124880000Y-100476260D01*
X124937068Y-100763158D01*
X125049010Y-101033411D01*
X125211525Y-101276632D01*
X125418368Y-101483475D01*
X125592760Y-101600000D01*
X125418368Y-101716525D01*
X125211525Y-101923368D01*
X125170344Y-101985000D01*
X117841579Y-101985000D01*
X117090000Y-101233422D01*
X117090000Y-99559521D01*
X117119759Y-99539637D01*
X117319637Y-99339759D01*
X117476680Y-99104727D01*
X117522521Y-98994057D01*
X118070050Y-98446529D01*
X118103817Y-98418817D01*
X118157177Y-98353799D01*
X118214411Y-98284059D01*
X118296589Y-98130314D01*
X118347195Y-97963490D01*
X118349608Y-97938986D01*
X118360000Y-97833477D01*
X118360000Y-97833469D01*
X118364281Y-97790000D01*
X118360000Y-97746531D01*
X118360000Y-68122350D01*
X118384774Y-68246898D01*
X118462795Y-68435256D01*
X118576063Y-68604774D01*
X118720226Y-68748937D01*
X118889744Y-68862205D01*
X119078102Y-68940226D01*
X119278061Y-68980000D01*
X119481939Y-68980000D01*
X119681898Y-68940226D01*
X119870256Y-68862205D01*
X120039774Y-68748937D01*
X120083711Y-68705000D01*
X128201289Y-68705000D01*
X128245226Y-68748937D01*
X128414744Y-68862205D01*
X128603102Y-68940226D01*
X128803061Y-68980000D01*
X129006939Y-68980000D01*
X129206898Y-68940226D01*
X129395256Y-68862205D01*
X129564774Y-68748937D01*
X129708937Y-68604774D01*
X129822205Y-68435256D01*
X129900226Y-68246898D01*
X129940000Y-68046939D01*
X129940000Y-67843061D01*
X129900226Y-67643102D01*
X129822205Y-67454744D01*
X129708937Y-67285226D01*
X129564774Y-67141063D01*
X129395256Y-67027795D01*
X129206898Y-66949774D01*
X129006939Y-66910000D01*
X128803061Y-66910000D01*
X128603102Y-66949774D01*
X128414744Y-67027795D01*
X128245226Y-67141063D01*
X128201289Y-67185000D01*
X120083711Y-67185000D01*
X120039774Y-67141063D01*
X119870256Y-67027795D01*
X119681898Y-66949774D01*
X119481939Y-66910000D01*
X119278061Y-66910000D01*
X119078102Y-66949774D01*
X118889744Y-67027795D01*
X118720226Y-67141063D01*
X118576063Y-67285226D01*
X118462795Y-67454744D01*
X118384774Y-67643102D01*
X118360000Y-67767650D01*
X118360000Y-65582350D01*
X118384774Y-65706898D01*
X118462795Y-65895256D01*
X118576063Y-66064774D01*
X118720226Y-66208937D01*
X118889744Y-66322205D01*
X119078102Y-66400226D01*
X119278061Y-66440000D01*
X119481939Y-66440000D01*
X119681898Y-66400226D01*
X119870256Y-66322205D01*
X120039774Y-66208937D01*
X120083711Y-66165000D01*
X128201289Y-66165000D01*
X128245226Y-66208937D01*
X128414744Y-66322205D01*
X128603102Y-66400226D01*
X128803061Y-66440000D01*
X129006939Y-66440000D01*
X129206898Y-66400226D01*
X129395256Y-66322205D01*
X129564774Y-66208937D01*
X129708937Y-66064774D01*
X129822205Y-65895256D01*
X129900226Y-65706898D01*
X129940000Y-65506939D01*
X129940000Y-65303061D01*
X129900226Y-65103102D01*
X129822205Y-64914744D01*
X129708937Y-64745226D01*
X129564774Y-64601063D01*
X129395256Y-64487795D01*
X129206898Y-64409774D01*
X129006939Y-64370000D01*
X128803061Y-64370000D01*
X128603102Y-64409774D01*
X128414744Y-64487795D01*
X128245226Y-64601063D01*
X128201289Y-64645000D01*
X120083711Y-64645000D01*
X120039774Y-64601063D01*
X119870256Y-64487795D01*
X119681898Y-64409774D01*
X119481939Y-64370000D01*
X119278061Y-64370000D01*
X119078102Y-64409774D01*
X118889744Y-64487795D01*
X118720226Y-64601063D01*
X118576063Y-64745226D01*
X118462795Y-64914744D01*
X118384774Y-65103102D01*
X118360000Y-65227650D01*
X118360000Y-62596578D01*
X118476579Y-62480000D01*
X125865479Y-62480000D01*
X125885363Y-62509759D01*
X126085241Y-62709637D01*
X126320273Y-62866680D01*
X126581426Y-62974853D01*
X126858665Y-63030000D01*
X127141335Y-63030000D01*
X127418574Y-62974853D01*
X127679727Y-62866680D01*
X127914759Y-62709637D01*
X128114637Y-62509759D01*
X128271680Y-62274727D01*
X128379853Y-62013574D01*
X128435000Y-61736335D01*
X128435000Y-61453665D01*
X128379853Y-61176426D01*
X128271680Y-60915273D01*
X128114637Y-60680241D01*
X127914759Y-60480363D01*
X127679727Y-60323320D01*
X127418574Y-60215147D01*
X127141335Y-60160000D01*
X126858665Y-60160000D01*
X126581426Y-60215147D01*
X126320273Y-60323320D01*
X126085241Y-60480363D01*
X125885363Y-60680241D01*
X125865479Y-60710000D01*
X118153469Y-60710000D01*
X118110000Y-60705719D01*
X118066531Y-60710000D01*
X118066523Y-60710000D01*
X117936510Y-60722805D01*
X117769686Y-60773411D01*
X117615941Y-60855589D01*
X117514953Y-60938468D01*
X117514951Y-60938470D01*
X117481183Y-60966183D01*
X117453470Y-60999951D01*
X116879951Y-61573471D01*
X116846184Y-61601183D01*
X116818471Y-61634951D01*
X116818468Y-61634954D01*
X116735590Y-61735941D01*
X116653412Y-61889687D01*
X116602805Y-62056510D01*
X116585719Y-62230000D01*
X116590001Y-62273479D01*
X116590000Y-96923421D01*
X115910000Y-96243422D01*
X115910000Y-95749521D01*
X115939759Y-95729637D01*
X116139637Y-95529759D01*
X116296680Y-95294727D01*
X116404853Y-95033574D01*
X116460000Y-94756335D01*
X116460000Y-94473665D01*
X116404853Y-94196426D01*
X116296680Y-93935273D01*
X116139637Y-93700241D01*
X115939759Y-93500363D01*
X115704727Y-93343320D01*
X115694135Y-93338933D01*
X115880131Y-93227385D01*
X116088519Y-93038414D01*
X116256037Y-92812420D01*
X116376246Y-92558087D01*
X116416904Y-92424039D01*
X116294915Y-92202000D01*
X115152000Y-92202000D01*
X115152000Y-92222000D01*
X114898000Y-92222000D01*
X114898000Y-92202000D01*
X113755085Y-92202000D01*
X113633096Y-92424039D01*
X113673754Y-92558087D01*
X113793963Y-92812420D01*
X113961481Y-93038414D01*
X114169869Y-93227385D01*
X114355865Y-93338933D01*
X114345273Y-93343320D01*
X114110241Y-93500363D01*
X113910363Y-93700241D01*
X113890479Y-93730000D01*
X112259521Y-93730000D01*
X112239637Y-93700241D01*
X112039759Y-93500363D01*
X111804727Y-93343320D01*
X111543574Y-93235147D01*
X111266335Y-93180000D01*
X110983665Y-93180000D01*
X110706426Y-93235147D01*
X110445273Y-93343320D01*
X110210241Y-93500363D01*
X110010363Y-93700241D01*
X109853320Y-93935273D01*
X109745147Y-94196426D01*
X109690000Y-94473665D01*
X109690000Y-94756335D01*
X109745147Y-95033574D01*
X109853320Y-95294727D01*
X110010363Y-95529759D01*
X110210241Y-95729637D01*
X110445273Y-95886680D01*
X110706426Y-95994853D01*
X110983665Y-96050000D01*
X111266335Y-96050000D01*
X111543574Y-95994853D01*
X111804727Y-95886680D01*
X112039759Y-95729637D01*
X112239637Y-95529759D01*
X112259521Y-95500000D01*
X113890479Y-95500000D01*
X113910363Y-95529759D01*
X114110241Y-95729637D01*
X114140001Y-95749522D01*
X114140001Y-96566521D01*
X114135719Y-96610000D01*
X114152805Y-96783490D01*
X114203412Y-96950313D01*
X114285590Y-97104059D01*
X114368468Y-97205046D01*
X114368471Y-97205049D01*
X114396184Y-97238817D01*
X114429951Y-97266529D01*
X114703422Y-97540000D01*
X98156579Y-97540000D01*
X96770000Y-96153422D01*
X96770000Y-90640000D01*
X104606928Y-90640000D01*
X104606928Y-92240000D01*
X104619188Y-92364482D01*
X104655498Y-92484180D01*
X104714463Y-92594494D01*
X104793815Y-92691185D01*
X104890506Y-92770537D01*
X105000820Y-92829502D01*
X105120518Y-92865812D01*
X105245000Y-92878072D01*
X106845000Y-92878072D01*
X106969482Y-92865812D01*
X107089180Y-92829502D01*
X107199494Y-92770537D01*
X107296185Y-92691185D01*
X107375537Y-92594494D01*
X107434502Y-92484180D01*
X107470812Y-92364482D01*
X107483072Y-92240000D01*
X107483072Y-92200000D01*
X107912678Y-92200000D01*
X107950000Y-92203676D01*
X107987322Y-92200000D01*
X107987333Y-92200000D01*
X108098986Y-92189003D01*
X108242247Y-92145546D01*
X108374276Y-92074974D01*
X108490001Y-91980001D01*
X108513803Y-91950998D01*
X109096004Y-91368798D01*
X109125001Y-91345001D01*
X109219974Y-91229276D01*
X109290546Y-91097247D01*
X109334003Y-90953986D01*
X109345000Y-90842333D01*
X109345000Y-90842332D01*
X109348677Y-90805000D01*
X109345000Y-90767667D01*
X109345000Y-90607702D01*
X110311903Y-90607702D01*
X110383486Y-90851671D01*
X110638996Y-90972571D01*
X110913184Y-91041300D01*
X111195512Y-91055217D01*
X111475130Y-91013787D01*
X111741292Y-90918603D01*
X111866514Y-90851671D01*
X111938097Y-90607702D01*
X111125000Y-89794605D01*
X110311903Y-90607702D01*
X109345000Y-90607702D01*
X109345000Y-89849801D01*
X109693882Y-89500919D01*
X109684783Y-89685512D01*
X109726213Y-89965130D01*
X109821397Y-90231292D01*
X109888329Y-90356514D01*
X110132298Y-90428097D01*
X110945395Y-89615000D01*
X111304605Y-89615000D01*
X112117702Y-90428097D01*
X112361671Y-90356514D01*
X112482571Y-90101004D01*
X112551300Y-89826816D01*
X112565217Y-89544488D01*
X112523787Y-89264870D01*
X112428603Y-88998708D01*
X112361671Y-88873486D01*
X112117702Y-88801903D01*
X111304605Y-89615000D01*
X110945395Y-89615000D01*
X110931253Y-89600858D01*
X111110858Y-89421253D01*
X111125000Y-89435395D01*
X111938097Y-88622298D01*
X111866514Y-88378329D01*
X111611004Y-88257429D01*
X111336816Y-88188700D01*
X111054488Y-88174783D01*
X110774870Y-88216213D01*
X110617954Y-88272329D01*
X110618676Y-88265001D01*
X110615000Y-88227678D01*
X110615000Y-80324801D01*
X110804802Y-80135000D01*
X113806957Y-80135000D01*
X113910363Y-80289759D01*
X114110241Y-80489637D01*
X114342759Y-80645000D01*
X114110241Y-80800363D01*
X113910363Y-81000241D01*
X113753320Y-81235273D01*
X113645147Y-81496426D01*
X113590000Y-81773665D01*
X113590000Y-82056335D01*
X113645147Y-82333574D01*
X113753320Y-82594727D01*
X113910363Y-82829759D01*
X114110241Y-83029637D01*
X114342759Y-83185000D01*
X114110241Y-83340363D01*
X113910363Y-83540241D01*
X113753320Y-83775273D01*
X113645147Y-84036426D01*
X113590000Y-84313665D01*
X113590000Y-84596335D01*
X113645147Y-84873574D01*
X113753320Y-85134727D01*
X113910363Y-85369759D01*
X114110241Y-85569637D01*
X114342759Y-85725000D01*
X114110241Y-85880363D01*
X113910363Y-86080241D01*
X113753320Y-86315273D01*
X113645147Y-86576426D01*
X113590000Y-86853665D01*
X113590000Y-87136335D01*
X113645147Y-87413574D01*
X113753320Y-87674727D01*
X113910363Y-87909759D01*
X114110241Y-88109637D01*
X114342759Y-88265000D01*
X114110241Y-88420363D01*
X113910363Y-88620241D01*
X113753320Y-88855273D01*
X113645147Y-89116426D01*
X113590000Y-89393665D01*
X113590000Y-89676335D01*
X113645147Y-89953574D01*
X113753320Y-90214727D01*
X113910363Y-90449759D01*
X114110241Y-90649637D01*
X114345273Y-90806680D01*
X114355865Y-90811067D01*
X114169869Y-90922615D01*
X113961481Y-91111586D01*
X113793963Y-91337580D01*
X113673754Y-91591913D01*
X113633096Y-91725961D01*
X113755085Y-91948000D01*
X114898000Y-91948000D01*
X114898000Y-91928000D01*
X115152000Y-91928000D01*
X115152000Y-91948000D01*
X116294915Y-91948000D01*
X116416904Y-91725961D01*
X116376246Y-91591913D01*
X116256037Y-91337580D01*
X116088519Y-91111586D01*
X115880131Y-90922615D01*
X115694135Y-90811067D01*
X115704727Y-90806680D01*
X115939759Y-90649637D01*
X116139637Y-90449759D01*
X116296680Y-90214727D01*
X116404853Y-89953574D01*
X116460000Y-89676335D01*
X116460000Y-89393665D01*
X116404853Y-89116426D01*
X116296680Y-88855273D01*
X116139637Y-88620241D01*
X115939759Y-88420363D01*
X115707241Y-88265000D01*
X115939759Y-88109637D01*
X116139637Y-87909759D01*
X116296680Y-87674727D01*
X116404853Y-87413574D01*
X116460000Y-87136335D01*
X116460000Y-86853665D01*
X116404853Y-86576426D01*
X116296680Y-86315273D01*
X116139637Y-86080241D01*
X115939759Y-85880363D01*
X115707241Y-85725000D01*
X115939759Y-85569637D01*
X116139637Y-85369759D01*
X116296680Y-85134727D01*
X116404853Y-84873574D01*
X116460000Y-84596335D01*
X116460000Y-84313665D01*
X116404853Y-84036426D01*
X116296680Y-83775273D01*
X116139637Y-83540241D01*
X115939759Y-83340363D01*
X115707241Y-83185000D01*
X115939759Y-83029637D01*
X116139637Y-82829759D01*
X116296680Y-82594727D01*
X116404853Y-82333574D01*
X116460000Y-82056335D01*
X116460000Y-81773665D01*
X116404853Y-81496426D01*
X116296680Y-81235273D01*
X116139637Y-81000241D01*
X115939759Y-80800363D01*
X115707241Y-80645000D01*
X115939759Y-80489637D01*
X116139637Y-80289759D01*
X116296680Y-80054727D01*
X116404853Y-79793574D01*
X116460000Y-79516335D01*
X116460000Y-79233665D01*
X116404853Y-78956426D01*
X116296680Y-78695273D01*
X116139637Y-78460241D01*
X115939759Y-78260363D01*
X115707241Y-78105000D01*
X115939759Y-77949637D01*
X116139637Y-77749759D01*
X116296680Y-77514727D01*
X116404853Y-77253574D01*
X116460000Y-76976335D01*
X116460000Y-76693665D01*
X116404853Y-76416426D01*
X116296680Y-76155273D01*
X116139637Y-75920241D01*
X115939759Y-75720363D01*
X115704727Y-75563320D01*
X115443574Y-75455147D01*
X115166335Y-75400000D01*
X114883665Y-75400000D01*
X114606426Y-75455147D01*
X114345273Y-75563320D01*
X114110241Y-75720363D01*
X113910363Y-75920241D01*
X113806957Y-76075000D01*
X109257333Y-76075000D01*
X109220000Y-76071323D01*
X109182667Y-76075000D01*
X109071014Y-76085997D01*
X108927753Y-76129454D01*
X108795724Y-76200026D01*
X108679999Y-76294999D01*
X108656200Y-76323998D01*
X108073998Y-76906201D01*
X108045000Y-76929999D01*
X108021202Y-76958997D01*
X108021201Y-76958998D01*
X107950026Y-77045724D01*
X107879454Y-77177754D01*
X107877548Y-77184039D01*
X107837933Y-77314637D01*
X107835998Y-77321015D01*
X107821324Y-77470000D01*
X107825001Y-77507332D01*
X107825000Y-87950198D01*
X107635199Y-88140000D01*
X107263043Y-88140000D01*
X107159637Y-87985241D01*
X106959759Y-87785363D01*
X106727241Y-87630000D01*
X106959759Y-87474637D01*
X107159637Y-87274759D01*
X107316680Y-87039727D01*
X107424853Y-86778574D01*
X107480000Y-86501335D01*
X107480000Y-86218665D01*
X107424853Y-85941426D01*
X107316680Y-85680273D01*
X107159637Y-85445241D01*
X106959759Y-85245363D01*
X106724727Y-85088320D01*
X106714135Y-85083933D01*
X106900131Y-84972385D01*
X107108519Y-84783414D01*
X107276037Y-84557420D01*
X107396246Y-84303087D01*
X107436904Y-84169039D01*
X107314915Y-83947000D01*
X106172000Y-83947000D01*
X106172000Y-83967000D01*
X105918000Y-83967000D01*
X105918000Y-83947000D01*
X104775085Y-83947000D01*
X104653096Y-84169039D01*
X104693754Y-84303087D01*
X104813963Y-84557420D01*
X104981481Y-84783414D01*
X105189869Y-84972385D01*
X105375865Y-85083933D01*
X105365273Y-85088320D01*
X105130241Y-85245363D01*
X104930363Y-85445241D01*
X104773320Y-85680273D01*
X104665147Y-85941426D01*
X104610000Y-86218665D01*
X104610000Y-86501335D01*
X104665147Y-86778574D01*
X104773320Y-87039727D01*
X104930363Y-87274759D01*
X105130241Y-87474637D01*
X105362759Y-87630000D01*
X105130241Y-87785363D01*
X104930363Y-87985241D01*
X104773320Y-88220273D01*
X104665147Y-88481426D01*
X104610000Y-88758665D01*
X104610000Y-89041335D01*
X104665147Y-89318574D01*
X104773320Y-89579727D01*
X104930363Y-89814759D01*
X105128961Y-90013357D01*
X105120518Y-90014188D01*
X105000820Y-90050498D01*
X104890506Y-90109463D01*
X104793815Y-90188815D01*
X104714463Y-90285506D01*
X104655498Y-90395820D01*
X104619188Y-90515518D01*
X104606928Y-90640000D01*
X96770000Y-90640000D01*
X96770000Y-85133465D01*
X96774281Y-85089999D01*
X96770000Y-85046533D01*
X96770000Y-85046523D01*
X96757195Y-84916510D01*
X96706589Y-84749687D01*
X96624411Y-84595941D01*
X96586707Y-84549999D01*
X96541532Y-84494953D01*
X96541530Y-84494951D01*
X96513817Y-84461183D01*
X96480050Y-84433471D01*
X95271534Y-83224956D01*
X95243817Y-83191183D01*
X95109059Y-83080589D01*
X94955313Y-82998411D01*
X94788490Y-82947805D01*
X94658477Y-82935000D01*
X94658469Y-82935000D01*
X94615000Y-82930719D01*
X94571531Y-82935000D01*
X91939521Y-82935000D01*
X91919637Y-82905241D01*
X91719759Y-82705363D01*
X91487241Y-82550000D01*
X91719759Y-82394637D01*
X91919637Y-82194759D01*
X92076680Y-81959727D01*
X92184853Y-81698574D01*
X92240000Y-81421335D01*
X92240000Y-81138665D01*
X92184853Y-80861426D01*
X92076680Y-80600273D01*
X91919637Y-80365241D01*
X91719759Y-80165363D01*
X91487241Y-80010000D01*
X91719759Y-79854637D01*
X91919637Y-79654759D01*
X92076680Y-79419727D01*
X92184853Y-79158574D01*
X92240000Y-78881335D01*
X92240000Y-78598665D01*
X92184853Y-78321426D01*
X92076680Y-78060273D01*
X91919637Y-77825241D01*
X91719759Y-77625363D01*
X91487241Y-77470000D01*
X91719759Y-77314637D01*
X91919637Y-77114759D01*
X92076680Y-76879727D01*
X92184853Y-76618574D01*
X92240000Y-76341335D01*
X92240000Y-76058665D01*
X92184853Y-75781426D01*
X92076680Y-75520273D01*
X91919637Y-75285241D01*
X91719759Y-75085363D01*
X91487241Y-74930000D01*
X91719759Y-74774637D01*
X91919637Y-74574759D01*
X92076680Y-74339727D01*
X92184853Y-74078574D01*
X92240000Y-73801335D01*
X92240000Y-73518665D01*
X92184853Y-73241426D01*
X92076680Y-72980273D01*
X91919637Y-72745241D01*
X91719759Y-72545363D01*
X91487241Y-72390000D01*
X91719759Y-72234637D01*
X91919637Y-72034759D01*
X92076680Y-71799727D01*
X92184853Y-71538574D01*
X92240000Y-71261335D01*
X92240000Y-70978665D01*
X92184853Y-70701426D01*
X92076680Y-70440273D01*
X91919637Y-70205241D01*
X91719759Y-70005363D01*
X91487241Y-69850000D01*
X91719759Y-69694637D01*
X91919637Y-69494759D01*
X92076680Y-69259727D01*
X92184853Y-68998574D01*
X92240000Y-68721335D01*
X92240000Y-68438665D01*
X92184853Y-68161426D01*
X92076680Y-67900273D01*
X91919637Y-67665241D01*
X91719759Y-67465363D01*
X91487241Y-67310000D01*
X91719759Y-67154637D01*
X91919637Y-66954759D01*
X92076680Y-66719727D01*
X92184853Y-66458574D01*
X92240000Y-66181335D01*
X92240000Y-65898665D01*
X92184853Y-65621426D01*
X92076680Y-65360273D01*
X91919637Y-65125241D01*
X91719759Y-64925363D01*
X91487241Y-64770000D01*
X91719759Y-64614637D01*
X91919637Y-64414759D01*
X92076680Y-64179727D01*
X92184853Y-63918574D01*
X92240000Y-63641335D01*
X92240000Y-63358665D01*
X92184853Y-63081426D01*
X92076680Y-62820273D01*
X91919637Y-62585241D01*
X91719759Y-62385363D01*
X91487241Y-62230000D01*
X91719759Y-62074637D01*
X91919637Y-61874759D01*
X92076680Y-61639727D01*
X92184853Y-61378574D01*
X92240000Y-61101335D01*
X92240000Y-60818665D01*
X92184853Y-60541426D01*
X92076680Y-60280273D01*
X91919637Y-60045241D01*
X91719759Y-59845363D01*
X91487241Y-59690000D01*
X91719759Y-59534637D01*
X91919637Y-59334759D01*
X92076680Y-59099727D01*
X92184853Y-58838574D01*
X92240000Y-58561335D01*
X92240000Y-58278665D01*
X92184853Y-58001426D01*
X92076680Y-57740273D01*
X91919637Y-57505241D01*
X91719759Y-57305363D01*
X91487241Y-57150000D01*
X91719759Y-56994637D01*
X91919637Y-56794759D01*
X92076680Y-56559727D01*
X92184853Y-56298574D01*
X92240000Y-56021335D01*
X92240000Y-55738665D01*
X104610000Y-55738665D01*
X104610000Y-56021335D01*
X104665147Y-56298574D01*
X104773320Y-56559727D01*
X104930363Y-56794759D01*
X105130241Y-56994637D01*
X105362759Y-57150000D01*
X105130241Y-57305363D01*
X104930363Y-57505241D01*
X104773320Y-57740273D01*
X104665147Y-58001426D01*
X104610000Y-58278665D01*
X104610000Y-58561335D01*
X104665147Y-58838574D01*
X104773320Y-59099727D01*
X104930363Y-59334759D01*
X105130241Y-59534637D01*
X105362759Y-59690000D01*
X105130241Y-59845363D01*
X104930363Y-60045241D01*
X104773320Y-60280273D01*
X104665147Y-60541426D01*
X104610000Y-60818665D01*
X104610000Y-61101335D01*
X104665147Y-61378574D01*
X104773320Y-61639727D01*
X104930363Y-61874759D01*
X105130241Y-62074637D01*
X105362759Y-62230000D01*
X105130241Y-62385363D01*
X104930363Y-62585241D01*
X104773320Y-62820273D01*
X104665147Y-63081426D01*
X104610000Y-63358665D01*
X104610000Y-63641335D01*
X104665147Y-63918574D01*
X104773320Y-64179727D01*
X104930363Y-64414759D01*
X105130241Y-64614637D01*
X105362759Y-64770000D01*
X105130241Y-64925363D01*
X104930363Y-65125241D01*
X104773320Y-65360273D01*
X104665147Y-65621426D01*
X104610000Y-65898665D01*
X104610000Y-66181335D01*
X104665147Y-66458574D01*
X104773320Y-66719727D01*
X104930363Y-66954759D01*
X105130241Y-67154637D01*
X105362759Y-67310000D01*
X105130241Y-67465363D01*
X104930363Y-67665241D01*
X104773320Y-67900273D01*
X104665147Y-68161426D01*
X104610000Y-68438665D01*
X104610000Y-68721335D01*
X104665147Y-68998574D01*
X104773320Y-69259727D01*
X104930363Y-69494759D01*
X105130241Y-69694637D01*
X105362759Y-69850000D01*
X105130241Y-70005363D01*
X104930363Y-70205241D01*
X104773320Y-70440273D01*
X104665147Y-70701426D01*
X104610000Y-70978665D01*
X104610000Y-71261335D01*
X104665147Y-71538574D01*
X104773320Y-71799727D01*
X104930363Y-72034759D01*
X105130241Y-72234637D01*
X105362759Y-72390000D01*
X105130241Y-72545363D01*
X104930363Y-72745241D01*
X104773320Y-72980273D01*
X104665147Y-73241426D01*
X104610000Y-73518665D01*
X104610000Y-73801335D01*
X104665147Y-74078574D01*
X104773320Y-74339727D01*
X104930363Y-74574759D01*
X105130241Y-74774637D01*
X105362759Y-74930000D01*
X105130241Y-75085363D01*
X104930363Y-75285241D01*
X104773320Y-75520273D01*
X104665147Y-75781426D01*
X104610000Y-76058665D01*
X104610000Y-76341335D01*
X104665147Y-76618574D01*
X104773320Y-76879727D01*
X104930363Y-77114759D01*
X105130241Y-77314637D01*
X105362759Y-77470000D01*
X105130241Y-77625363D01*
X104930363Y-77825241D01*
X104773320Y-78060273D01*
X104665147Y-78321426D01*
X104610000Y-78598665D01*
X104610000Y-78881335D01*
X104665147Y-79158574D01*
X104773320Y-79419727D01*
X104930363Y-79654759D01*
X105130241Y-79854637D01*
X105362759Y-80010000D01*
X105130241Y-80165363D01*
X104930363Y-80365241D01*
X104773320Y-80600273D01*
X104665147Y-80861426D01*
X104610000Y-81138665D01*
X104610000Y-81421335D01*
X104665147Y-81698574D01*
X104773320Y-81959727D01*
X104930363Y-82194759D01*
X105130241Y-82394637D01*
X105365273Y-82551680D01*
X105375865Y-82556067D01*
X105189869Y-82667615D01*
X104981481Y-82856586D01*
X104813963Y-83082580D01*
X104693754Y-83336913D01*
X104653096Y-83470961D01*
X104775085Y-83693000D01*
X105918000Y-83693000D01*
X105918000Y-83673000D01*
X106172000Y-83673000D01*
X106172000Y-83693000D01*
X107314915Y-83693000D01*
X107436904Y-83470961D01*
X107396246Y-83336913D01*
X107276037Y-83082580D01*
X107108519Y-82856586D01*
X106900131Y-82667615D01*
X106714135Y-82556067D01*
X106724727Y-82551680D01*
X106959759Y-82394637D01*
X107159637Y-82194759D01*
X107316680Y-81959727D01*
X107424853Y-81698574D01*
X107480000Y-81421335D01*
X107480000Y-81138665D01*
X107424853Y-80861426D01*
X107316680Y-80600273D01*
X107159637Y-80365241D01*
X106959759Y-80165363D01*
X106727241Y-80010000D01*
X106959759Y-79854637D01*
X107159637Y-79654759D01*
X107316680Y-79419727D01*
X107424853Y-79158574D01*
X107480000Y-78881335D01*
X107480000Y-78598665D01*
X107424853Y-78321426D01*
X107316680Y-78060273D01*
X107159637Y-77825241D01*
X106959759Y-77625363D01*
X106727241Y-77470000D01*
X106959759Y-77314637D01*
X107159637Y-77114759D01*
X107316680Y-76879727D01*
X107424853Y-76618574D01*
X107480000Y-76341335D01*
X107480000Y-76058665D01*
X107424853Y-75781426D01*
X107316680Y-75520273D01*
X107159637Y-75285241D01*
X106959759Y-75085363D01*
X106727241Y-74930000D01*
X106959759Y-74774637D01*
X107159637Y-74574759D01*
X107316680Y-74339727D01*
X107424853Y-74078574D01*
X107480000Y-73801335D01*
X107480000Y-73518665D01*
X107424853Y-73241426D01*
X107316680Y-72980273D01*
X107159637Y-72745241D01*
X106959759Y-72545363D01*
X106727241Y-72390000D01*
X106959759Y-72234637D01*
X107159637Y-72034759D01*
X107316680Y-71799727D01*
X107424853Y-71538574D01*
X107480000Y-71261335D01*
X107480000Y-70978665D01*
X107424853Y-70701426D01*
X107316680Y-70440273D01*
X107159637Y-70205241D01*
X106959759Y-70005363D01*
X106727241Y-69850000D01*
X106959759Y-69694637D01*
X107159637Y-69494759D01*
X107316680Y-69259727D01*
X107424853Y-68998574D01*
X107480000Y-68721335D01*
X107480000Y-68438665D01*
X107424853Y-68161426D01*
X107316680Y-67900273D01*
X107159637Y-67665241D01*
X106959759Y-67465363D01*
X106727241Y-67310000D01*
X106959759Y-67154637D01*
X107159637Y-66954759D01*
X107316680Y-66719727D01*
X107424853Y-66458574D01*
X107480000Y-66181335D01*
X107480000Y-65898665D01*
X107424853Y-65621426D01*
X107316680Y-65360273D01*
X107159637Y-65125241D01*
X106959759Y-64925363D01*
X106727241Y-64770000D01*
X106959759Y-64614637D01*
X107159637Y-64414759D01*
X107263043Y-64260000D01*
X112992678Y-64260000D01*
X113030000Y-64263676D01*
X113067322Y-64260000D01*
X113067333Y-64260000D01*
X113178986Y-64249003D01*
X113322247Y-64205546D01*
X113454276Y-64134974D01*
X113570001Y-64040001D01*
X113593804Y-64010997D01*
X114811004Y-62793798D01*
X114840001Y-62770001D01*
X114934974Y-62654276D01*
X115005546Y-62522247D01*
X115049003Y-62378986D01*
X115060000Y-62267333D01*
X115060000Y-62267324D01*
X115063676Y-62230001D01*
X115060000Y-62192678D01*
X115060000Y-57048061D01*
X118345000Y-57048061D01*
X118345000Y-57251939D01*
X118384774Y-57451898D01*
X118462795Y-57640256D01*
X118559510Y-57785000D01*
X118462795Y-57929744D01*
X118384774Y-58118102D01*
X118345000Y-58318061D01*
X118345000Y-58521939D01*
X118384774Y-58721898D01*
X118462795Y-58910256D01*
X118576063Y-59079774D01*
X118720226Y-59223937D01*
X118889744Y-59337205D01*
X119078102Y-59415226D01*
X119278061Y-59455000D01*
X119481939Y-59455000D01*
X119681898Y-59415226D01*
X119870256Y-59337205D01*
X120039774Y-59223937D01*
X120083711Y-59180000D01*
X140297678Y-59180000D01*
X140335000Y-59183676D01*
X140372322Y-59180000D01*
X140372333Y-59180000D01*
X140483986Y-59169003D01*
X140627247Y-59125546D01*
X140759276Y-59054974D01*
X140875001Y-58960001D01*
X140898803Y-58930998D01*
X141521004Y-58308798D01*
X141550001Y-58285001D01*
X141632070Y-58185000D01*
X141644974Y-58169277D01*
X141715546Y-58037247D01*
X141726412Y-58001426D01*
X141759003Y-57893986D01*
X141770000Y-57782333D01*
X141770000Y-57782324D01*
X141773676Y-57745001D01*
X141770000Y-57707678D01*
X141770000Y-49662594D01*
X141839013Y-49625706D01*
X142059945Y-49444392D01*
X142070498Y-49479180D01*
X142129463Y-49589494D01*
X142208815Y-49686185D01*
X142305506Y-49765537D01*
X142415820Y-49824502D01*
X142535518Y-49860812D01*
X142660000Y-49873072D01*
X143224250Y-49870000D01*
X143383000Y-49711250D01*
X143383000Y-48387000D01*
X143637000Y-48387000D01*
X143637000Y-49711250D01*
X143795750Y-49870000D01*
X144360000Y-49873072D01*
X144484482Y-49860812D01*
X144604180Y-49824502D01*
X144714494Y-49765537D01*
X144811185Y-49686185D01*
X144890537Y-49589494D01*
X144949502Y-49479180D01*
X144985812Y-49359482D01*
X144998072Y-49235000D01*
X144995000Y-48545750D01*
X144836250Y-48387000D01*
X143637000Y-48387000D01*
X143383000Y-48387000D01*
X143363000Y-48387000D01*
X143363000Y-48133000D01*
X143383000Y-48133000D01*
X143383000Y-46808750D01*
X143637000Y-46808750D01*
X143637000Y-48133000D01*
X144836250Y-48133000D01*
X144995000Y-47974250D01*
X144998072Y-47285000D01*
X144985812Y-47160518D01*
X144949502Y-47040820D01*
X144890537Y-46930506D01*
X144811185Y-46833815D01*
X144714494Y-46754463D01*
X144604180Y-46695498D01*
X144484482Y-46659188D01*
X144360000Y-46646928D01*
X143795750Y-46650000D01*
X143637000Y-46808750D01*
X143383000Y-46808750D01*
X143224250Y-46650000D01*
X142660000Y-46646928D01*
X142535518Y-46659188D01*
X142415820Y-46695498D01*
X142305506Y-46754463D01*
X142208815Y-46833815D01*
X142129463Y-46930506D01*
X142070498Y-47040820D01*
X142059945Y-47075608D01*
X141839014Y-46894294D01*
X141581034Y-46756401D01*
X141301111Y-46671487D01*
X141010000Y-46642815D01*
X140718890Y-46671487D01*
X140438967Y-46756401D01*
X140180987Y-46894294D01*
X139954866Y-47079866D01*
X139769294Y-47305986D01*
X139760000Y-47323374D01*
X139750706Y-47305986D01*
X139565134Y-47079866D01*
X139339014Y-46894294D01*
X139081034Y-46756401D01*
X138801111Y-46671487D01*
X138510000Y-46642815D01*
X138218890Y-46671487D01*
X137938967Y-46756401D01*
X137680987Y-46894294D01*
X137454866Y-47079866D01*
X137269294Y-47305986D01*
X137131401Y-47563966D01*
X137046487Y-47843889D01*
X137025000Y-48062050D01*
X137025000Y-48457949D01*
X137046487Y-48676110D01*
X137131401Y-48956033D01*
X137269294Y-49214013D01*
X137454866Y-49440134D01*
X137680986Y-49625706D01*
X137750001Y-49662595D01*
X137750000Y-56120198D01*
X137480199Y-56390000D01*
X120083711Y-56390000D01*
X120039774Y-56346063D01*
X119870256Y-56232795D01*
X119681898Y-56154774D01*
X119481939Y-56115000D01*
X119278061Y-56115000D01*
X119078102Y-56154774D01*
X118889744Y-56232795D01*
X118720226Y-56346063D01*
X118576063Y-56490226D01*
X118462795Y-56659744D01*
X118384774Y-56848102D01*
X118345000Y-57048061D01*
X115060000Y-57048061D01*
X115060000Y-49882313D01*
X115073254Y-49881008D01*
X115239850Y-49830472D01*
X115393386Y-49748405D01*
X115527962Y-49637962D01*
X115638405Y-49503386D01*
X115720472Y-49349850D01*
X115771008Y-49183254D01*
X115788072Y-49010000D01*
X115788072Y-48062050D01*
X123690000Y-48062050D01*
X123690000Y-48457949D01*
X123711487Y-48676110D01*
X123796401Y-48956033D01*
X123934294Y-49214013D01*
X124119866Y-49440134D01*
X124345986Y-49625706D01*
X124603966Y-49763599D01*
X124883889Y-49848513D01*
X125175000Y-49877185D01*
X125466110Y-49848513D01*
X125746033Y-49763599D01*
X126004013Y-49625706D01*
X126230134Y-49440134D01*
X126415706Y-49214014D01*
X126425000Y-49196626D01*
X126434294Y-49214013D01*
X126619866Y-49440134D01*
X126845986Y-49625706D01*
X127103966Y-49763599D01*
X127383889Y-49848513D01*
X127675000Y-49877185D01*
X127966110Y-49848513D01*
X128246033Y-49763599D01*
X128504013Y-49625706D01*
X128724945Y-49444392D01*
X128735498Y-49479180D01*
X128794463Y-49589494D01*
X128873815Y-49686185D01*
X128970506Y-49765537D01*
X129080820Y-49824502D01*
X129200518Y-49860812D01*
X129325000Y-49873072D01*
X129889250Y-49870000D01*
X130048000Y-49711250D01*
X130048000Y-48387000D01*
X130302000Y-48387000D01*
X130302000Y-49711250D01*
X130460750Y-49870000D01*
X131025000Y-49873072D01*
X131149482Y-49860812D01*
X131269180Y-49824502D01*
X131379494Y-49765537D01*
X131476185Y-49686185D01*
X131555537Y-49589494D01*
X131614502Y-49479180D01*
X131650812Y-49359482D01*
X131663072Y-49235000D01*
X131660000Y-48545750D01*
X131501250Y-48387000D01*
X130302000Y-48387000D01*
X130048000Y-48387000D01*
X130028000Y-48387000D01*
X130028000Y-48133000D01*
X130048000Y-48133000D01*
X130048000Y-46808750D01*
X130302000Y-46808750D01*
X130302000Y-48133000D01*
X131501250Y-48133000D01*
X131660000Y-47974250D01*
X131663072Y-47285000D01*
X131650812Y-47160518D01*
X131614502Y-47040820D01*
X131555537Y-46930506D01*
X131476185Y-46833815D01*
X131379494Y-46754463D01*
X131269180Y-46695498D01*
X131149482Y-46659188D01*
X131025000Y-46646928D01*
X130460750Y-46650000D01*
X130302000Y-46808750D01*
X130048000Y-46808750D01*
X129889250Y-46650000D01*
X129325000Y-46646928D01*
X129200518Y-46659188D01*
X129080820Y-46695498D01*
X128970506Y-46754463D01*
X128873815Y-46833815D01*
X128794463Y-46930506D01*
X128735498Y-47040820D01*
X128724945Y-47075608D01*
X128504014Y-46894294D01*
X128246034Y-46756401D01*
X127966111Y-46671487D01*
X127675000Y-46642815D01*
X127383890Y-46671487D01*
X127103967Y-46756401D01*
X126845987Y-46894294D01*
X126619866Y-47079866D01*
X126434294Y-47305986D01*
X126425000Y-47323374D01*
X126415706Y-47305986D01*
X126230134Y-47079866D01*
X126004014Y-46894294D01*
X125746034Y-46756401D01*
X125466111Y-46671487D01*
X125175000Y-46642815D01*
X124883890Y-46671487D01*
X124603967Y-46756401D01*
X124345987Y-46894294D01*
X124119866Y-47079866D01*
X123934294Y-47305986D01*
X123796401Y-47563966D01*
X123711487Y-47843889D01*
X123690000Y-48062050D01*
X115788072Y-48062050D01*
X115788072Y-47510000D01*
X115771008Y-47336746D01*
X115720472Y-47170150D01*
X115638405Y-47016614D01*
X115527962Y-46882038D01*
X115393386Y-46771595D01*
X115239850Y-46689528D01*
X115073254Y-46638992D01*
X114900000Y-46621928D01*
X113700000Y-46621928D01*
X113526746Y-46638992D01*
X113360150Y-46689528D01*
X113206614Y-46771595D01*
X113072038Y-46882038D01*
X112961595Y-47016614D01*
X112907086Y-47118593D01*
X112906802Y-47118205D01*
X112692046Y-46921336D01*
X112443009Y-46770146D01*
X112169261Y-46670446D01*
X112156890Y-46668524D01*
X111927000Y-46789845D01*
X111927000Y-48133000D01*
X111947000Y-48133000D01*
X111947000Y-48387000D01*
X111927000Y-48387000D01*
X111927000Y-49730155D01*
X112156890Y-49851476D01*
X112169261Y-49849554D01*
X112443009Y-49749854D01*
X112692046Y-49598664D01*
X112906802Y-49401795D01*
X112907086Y-49401407D01*
X112961595Y-49503386D01*
X113072038Y-49637962D01*
X113206614Y-49748405D01*
X113360150Y-49830472D01*
X113526746Y-49881008D01*
X113540001Y-49882313D01*
X113540000Y-54012332D01*
X113540001Y-54012342D01*
X113540000Y-61915198D01*
X112715199Y-62740000D01*
X107263043Y-62740000D01*
X107159637Y-62585241D01*
X106959759Y-62385363D01*
X106727241Y-62230000D01*
X106959759Y-62074637D01*
X107159637Y-61874759D01*
X107316680Y-61639727D01*
X107424853Y-61378574D01*
X107480000Y-61101335D01*
X107480000Y-60818665D01*
X107424853Y-60541426D01*
X107316680Y-60280273D01*
X107159637Y-60045241D01*
X106959759Y-59845363D01*
X106727241Y-59690000D01*
X106959759Y-59534637D01*
X107159637Y-59334759D01*
X107316680Y-59099727D01*
X107424853Y-58838574D01*
X107480000Y-58561335D01*
X107480000Y-58278665D01*
X107424853Y-58001426D01*
X107316680Y-57740273D01*
X107159637Y-57505241D01*
X106959759Y-57305363D01*
X106727241Y-57150000D01*
X106959759Y-56994637D01*
X107159637Y-56794759D01*
X107316680Y-56559727D01*
X107424853Y-56298574D01*
X107480000Y-56021335D01*
X107480000Y-55738665D01*
X107424853Y-55461426D01*
X107316680Y-55200273D01*
X107159637Y-54965241D01*
X106959759Y-54765363D01*
X106724727Y-54608320D01*
X106463574Y-54500147D01*
X106186335Y-54445000D01*
X105903665Y-54445000D01*
X105626426Y-54500147D01*
X105365273Y-54608320D01*
X105130241Y-54765363D01*
X104930363Y-54965241D01*
X104773320Y-55200273D01*
X104665147Y-55461426D01*
X104610000Y-55738665D01*
X92240000Y-55738665D01*
X92184853Y-55461426D01*
X92076680Y-55200273D01*
X91919637Y-54965241D01*
X91719759Y-54765363D01*
X91484727Y-54608320D01*
X91223574Y-54500147D01*
X90946335Y-54445000D01*
X90663665Y-54445000D01*
X90386426Y-54500147D01*
X90125273Y-54608320D01*
X89890241Y-54765363D01*
X89690363Y-54965241D01*
X89533320Y-55200273D01*
X89425147Y-55461426D01*
X89370000Y-55738665D01*
X89370000Y-56021335D01*
X89425147Y-56298574D01*
X89533320Y-56559727D01*
X89690363Y-56794759D01*
X89890241Y-56994637D01*
X90122759Y-57150000D01*
X89890241Y-57305363D01*
X89690363Y-57505241D01*
X89533320Y-57740273D01*
X89425147Y-58001426D01*
X89370000Y-58278665D01*
X89370000Y-58561335D01*
X89425147Y-58838574D01*
X89533320Y-59099727D01*
X89690363Y-59334759D01*
X89890241Y-59534637D01*
X90122759Y-59690000D01*
X89890241Y-59845363D01*
X89690363Y-60045241D01*
X89533320Y-60280273D01*
X89425147Y-60541426D01*
X89370000Y-60818665D01*
X89370000Y-61101335D01*
X89425147Y-61378574D01*
X89533320Y-61639727D01*
X89690363Y-61874759D01*
X89890241Y-62074637D01*
X90122759Y-62230000D01*
X89890241Y-62385363D01*
X89690363Y-62585241D01*
X89533320Y-62820273D01*
X89425147Y-63081426D01*
X89370000Y-63358665D01*
X89370000Y-63641335D01*
X89425147Y-63918574D01*
X89533320Y-64179727D01*
X89690363Y-64414759D01*
X89890241Y-64614637D01*
X90122759Y-64770000D01*
X89890241Y-64925363D01*
X89690363Y-65125241D01*
X89533320Y-65360273D01*
X89425147Y-65621426D01*
X89370000Y-65898665D01*
X89370000Y-66181335D01*
X89425147Y-66458574D01*
X89533320Y-66719727D01*
X89690363Y-66954759D01*
X89890241Y-67154637D01*
X90122759Y-67310000D01*
X89890241Y-67465363D01*
X89690363Y-67665241D01*
X89533320Y-67900273D01*
X89425147Y-68161426D01*
X89370000Y-68438665D01*
X89370000Y-68721335D01*
X89425147Y-68998574D01*
X89533320Y-69259727D01*
X89690363Y-69494759D01*
X89890241Y-69694637D01*
X90122759Y-69850000D01*
X89890241Y-70005363D01*
X89690363Y-70205241D01*
X89533320Y-70440273D01*
X89425147Y-70701426D01*
X89370000Y-70978665D01*
X89370000Y-71261335D01*
X89425147Y-71538574D01*
X89533320Y-71799727D01*
X89690363Y-72034759D01*
X89890241Y-72234637D01*
X90122759Y-72390000D01*
X89890241Y-72545363D01*
X89690363Y-72745241D01*
X89533320Y-72980273D01*
X89425147Y-73241426D01*
X89370000Y-73518665D01*
X89370000Y-73801335D01*
X89425147Y-74078574D01*
X89533320Y-74339727D01*
X89690363Y-74574759D01*
X89890241Y-74774637D01*
X90122759Y-74930000D01*
X89890241Y-75085363D01*
X89690363Y-75285241D01*
X89533320Y-75520273D01*
X89425147Y-75781426D01*
X89370000Y-76058665D01*
X89370000Y-76341335D01*
X89425147Y-76618574D01*
X89533320Y-76879727D01*
X89690363Y-77114759D01*
X89890241Y-77314637D01*
X90122759Y-77470000D01*
X89890241Y-77625363D01*
X89690363Y-77825241D01*
X89533320Y-78060273D01*
X89425147Y-78321426D01*
X89370000Y-78598665D01*
X89370000Y-78881335D01*
X89425147Y-79158574D01*
X89533320Y-79419727D01*
X89690363Y-79654759D01*
X89890241Y-79854637D01*
X90122759Y-80010000D01*
X89890241Y-80165363D01*
X89690363Y-80365241D01*
X89533320Y-80600273D01*
X89425147Y-80861426D01*
X89370000Y-81138665D01*
X89370000Y-81421335D01*
X89425147Y-81698574D01*
X89533320Y-81959727D01*
X89690363Y-82194759D01*
X89890241Y-82394637D01*
X90122759Y-82550000D01*
X89890241Y-82705363D01*
X89690363Y-82905241D01*
X89670479Y-82935000D01*
X85456579Y-82935000D01*
X81530000Y-79008422D01*
X81530000Y-60173072D01*
X82645000Y-60173072D01*
X82769482Y-60160812D01*
X82889180Y-60124502D01*
X82999494Y-60065537D01*
X83096185Y-59986185D01*
X83175537Y-59889494D01*
X83234502Y-59779180D01*
X83270812Y-59659482D01*
X83283072Y-59535000D01*
X83283072Y-58545000D01*
X84775199Y-58545000D01*
X86870001Y-60639804D01*
X86870000Y-66091956D01*
X86715241Y-66195363D01*
X86515363Y-66395241D01*
X86358320Y-66630273D01*
X86250147Y-66891426D01*
X86195000Y-67168665D01*
X86195000Y-67451335D01*
X86250147Y-67728574D01*
X86358320Y-67989727D01*
X86515363Y-68224759D01*
X86715241Y-68424637D01*
X86950273Y-68581680D01*
X87211426Y-68689853D01*
X87488665Y-68745000D01*
X87771335Y-68745000D01*
X88048574Y-68689853D01*
X88309727Y-68581680D01*
X88544759Y-68424637D01*
X88744637Y-68224759D01*
X88901680Y-67989727D01*
X89009853Y-67728574D01*
X89065000Y-67451335D01*
X89065000Y-67168665D01*
X89009853Y-66891426D01*
X88901680Y-66630273D01*
X88744637Y-66395241D01*
X88544759Y-66195363D01*
X88390000Y-66091957D01*
X88390000Y-60362322D01*
X88393676Y-60324999D01*
X88390000Y-60287676D01*
X88390000Y-60287667D01*
X88379003Y-60176014D01*
X88335546Y-60032753D01*
X88264974Y-59900724D01*
X88251811Y-59884685D01*
X88193799Y-59813996D01*
X88193795Y-59813992D01*
X88170001Y-59784999D01*
X88141008Y-59761205D01*
X85653804Y-57274003D01*
X85630001Y-57244999D01*
X85514276Y-57150026D01*
X85382247Y-57079454D01*
X85238986Y-57035997D01*
X85127333Y-57025000D01*
X85127322Y-57025000D01*
X85090000Y-57021324D01*
X85052678Y-57025000D01*
X83283072Y-57025000D01*
X83283072Y-56035000D01*
X83270812Y-55910518D01*
X83234502Y-55790820D01*
X83175537Y-55680506D01*
X83096185Y-55583815D01*
X82999494Y-55504463D01*
X82889180Y-55445498D01*
X82769482Y-55409188D01*
X82645000Y-55396928D01*
X78645000Y-55396928D01*
X78520518Y-55409188D01*
X78400820Y-55445498D01*
X78333072Y-55481711D01*
X78333072Y-53910000D01*
X78303999Y-53614814D01*
X78217896Y-53330972D01*
X78193324Y-53285000D01*
X78256928Y-53285000D01*
X78269188Y-53409482D01*
X78305498Y-53529180D01*
X78364463Y-53639494D01*
X78443815Y-53736185D01*
X78540506Y-53815537D01*
X78650820Y-53874502D01*
X78770518Y-53910812D01*
X78895000Y-53923072D01*
X80359250Y-53920000D01*
X80518000Y-53761250D01*
X80518000Y-51912000D01*
X80772000Y-51912000D01*
X80772000Y-53761250D01*
X80930750Y-53920000D01*
X82395000Y-53923072D01*
X82519482Y-53910812D01*
X82639180Y-53874502D01*
X82749494Y-53815537D01*
X82846185Y-53736185D01*
X82925537Y-53639494D01*
X82984502Y-53529180D01*
X83020812Y-53409482D01*
X83033072Y-53285000D01*
X83030000Y-52070750D01*
X82871250Y-51912000D01*
X80772000Y-51912000D01*
X80518000Y-51912000D01*
X78418750Y-51912000D01*
X78260000Y-52070750D01*
X78256928Y-53285000D01*
X78193324Y-53285000D01*
X78078073Y-53069382D01*
X77889903Y-52840097D01*
X77660618Y-52651927D01*
X77399028Y-52512104D01*
X77115186Y-52426001D01*
X76820000Y-52396928D01*
X75070000Y-52396928D01*
X74774814Y-52426001D01*
X74490972Y-52512104D01*
X74229382Y-52651927D01*
X74000097Y-52840097D01*
X73811927Y-53069382D01*
X73672104Y-53330972D01*
X73586001Y-53614814D01*
X73556928Y-53910000D01*
X64897000Y-53910000D01*
X64897000Y-50285000D01*
X78256928Y-50285000D01*
X78260000Y-51499250D01*
X78418750Y-51658000D01*
X80518000Y-51658000D01*
X80518000Y-49808750D01*
X80772000Y-49808750D01*
X80772000Y-51658000D01*
X82871250Y-51658000D01*
X83030000Y-51499250D01*
X83033072Y-50285000D01*
X83020812Y-50160518D01*
X82984502Y-50040820D01*
X82925537Y-49930506D01*
X82846185Y-49833815D01*
X82749494Y-49754463D01*
X82639180Y-49695498D01*
X82519482Y-49659188D01*
X82395000Y-49646928D01*
X80930750Y-49650000D01*
X80772000Y-49808750D01*
X80518000Y-49808750D01*
X80359250Y-49650000D01*
X78895000Y-49646928D01*
X78770518Y-49659188D01*
X78650820Y-49695498D01*
X78540506Y-49754463D01*
X78443815Y-49833815D01*
X78364463Y-49930506D01*
X78305498Y-50040820D01*
X78269188Y-50160518D01*
X78256928Y-50285000D01*
X64897000Y-50285000D01*
X64897000Y-48619742D01*
X110328715Y-48619742D01*
X110397904Y-48902745D01*
X110520975Y-49166812D01*
X110693198Y-49401795D01*
X110907954Y-49598664D01*
X111156991Y-49749854D01*
X111430739Y-49849554D01*
X111443110Y-49851476D01*
X111673000Y-49730155D01*
X111673000Y-48387000D01*
X110472768Y-48387000D01*
X110328715Y-48619742D01*
X64897000Y-48619742D01*
X64897000Y-47900258D01*
X110328715Y-47900258D01*
X110472768Y-48133000D01*
X111673000Y-48133000D01*
X111673000Y-46789845D01*
X111443110Y-46668524D01*
X111430739Y-46670446D01*
X111156991Y-46770146D01*
X110907954Y-46921336D01*
X110693198Y-47118205D01*
X110520975Y-47353188D01*
X110397904Y-47617255D01*
X110328715Y-47900258D01*
X64897000Y-47900258D01*
X64897000Y-46857767D01*
X65075271Y-47036038D01*
X65441331Y-47280631D01*
X65848075Y-47449110D01*
X66279872Y-47535000D01*
X66720128Y-47535000D01*
X67151925Y-47449110D01*
X67558669Y-47280631D01*
X67924729Y-47036038D01*
X68236038Y-46724729D01*
X68480631Y-46358669D01*
X68649110Y-45951925D01*
X68735000Y-45520128D01*
X68735000Y-45079872D01*
X68649110Y-44648075D01*
X68480631Y-44241331D01*
X68280625Y-43942000D01*
X153719375Y-43942000D01*
X153519369Y-44241331D01*
%TA.AperFunction,Conductor*%
D25*
G36*
X153519369Y-44241331D02*
G01*
X153350890Y-44648075D01*
X153265000Y-45079872D01*
X153265000Y-45520128D01*
X153350890Y-45951925D01*
X153519369Y-46358669D01*
X153763962Y-46724729D01*
X154075271Y-47036038D01*
X154441331Y-47280631D01*
X154848075Y-47449110D01*
X155279872Y-47535000D01*
X155720128Y-47535000D01*
X156151925Y-47449110D01*
X156558669Y-47280631D01*
X156718000Y-47174170D01*
X156718000Y-109425830D01*
X156558669Y-109319369D01*
X156151925Y-109150890D01*
X155720128Y-109065000D01*
X155279872Y-109065000D01*
X154848075Y-109150890D01*
X154441331Y-109319369D01*
X154075271Y-109563962D01*
X153763962Y-109875271D01*
X153519369Y-110241331D01*
X153350890Y-110648075D01*
X153265000Y-111079872D01*
X153265000Y-111520128D01*
X153350890Y-111951925D01*
X153519369Y-112358669D01*
X153763962Y-112724729D01*
X153942233Y-112903000D01*
X68057767Y-112903000D01*
X68236038Y-112724729D01*
X68480631Y-112358669D01*
X68649110Y-111951925D01*
X68735000Y-111520128D01*
X68735000Y-111079872D01*
X68649110Y-110648075D01*
X68480631Y-110241331D01*
X68236038Y-109875271D01*
X67924729Y-109563962D01*
X67558669Y-109319369D01*
X67151925Y-109150890D01*
X66720128Y-109065000D01*
X66279872Y-109065000D01*
X65848075Y-109150890D01*
X65441331Y-109319369D01*
X65075271Y-109563962D01*
X64897000Y-109742233D01*
X64897000Y-96913397D01*
X76471208Y-96913397D01*
X76548843Y-97162472D01*
X76812883Y-97288371D01*
X77096411Y-97360339D01*
X77388531Y-97375611D01*
X77678019Y-97333599D01*
X77953747Y-97235919D01*
X78091157Y-97162472D01*
X78168792Y-96913397D01*
X77320000Y-96064605D01*
X76471208Y-96913397D01*
X64897000Y-96913397D01*
X64897000Y-95953531D01*
X75829389Y-95953531D01*
X75871401Y-96243019D01*
X75969081Y-96518747D01*
X76042528Y-96656157D01*
X76291603Y-96733792D01*
X77140395Y-95885000D01*
X77499605Y-95885000D01*
X78348397Y-96733792D01*
X78597472Y-96656157D01*
X78723371Y-96392117D01*
X78795339Y-96108589D01*
X78810611Y-95816469D01*
X78799331Y-95738740D01*
X82335000Y-95738740D01*
X82335000Y-96031260D01*
X82392068Y-96318158D01*
X82504010Y-96588411D01*
X82666525Y-96831632D01*
X82873368Y-97038475D01*
X83116589Y-97200990D01*
X83386842Y-97312932D01*
X83673740Y-97370000D01*
X83966260Y-97370000D01*
X84253158Y-97312932D01*
X84523411Y-97200990D01*
X84766632Y-97038475D01*
X84973475Y-96831632D01*
X85135990Y-96588411D01*
X85247932Y-96318158D01*
X85305000Y-96031260D01*
X85305000Y-95738740D01*
X85247932Y-95451842D01*
X85135990Y-95181589D01*
X84973475Y-94938368D01*
X84766632Y-94731525D01*
X84523411Y-94569010D01*
X84253158Y-94457068D01*
X83966260Y-94400000D01*
X83673740Y-94400000D01*
X83386842Y-94457068D01*
X83116589Y-94569010D01*
X82873368Y-94731525D01*
X82666525Y-94938368D01*
X82504010Y-95181589D01*
X82392068Y-95451842D01*
X82335000Y-95738740D01*
X78799331Y-95738740D01*
X78768599Y-95526981D01*
X78670919Y-95251253D01*
X78597472Y-95113843D01*
X78348397Y-95036208D01*
X77499605Y-95885000D01*
X77140395Y-95885000D01*
X76291603Y-95036208D01*
X76042528Y-95113843D01*
X75916629Y-95377883D01*
X75844661Y-95661411D01*
X75829389Y-95953531D01*
X64897000Y-95953531D01*
X64897000Y-94856603D01*
X76471208Y-94856603D01*
X77320000Y-95705395D01*
X78168792Y-94856603D01*
X78091157Y-94607528D01*
X77827117Y-94481629D01*
X77543589Y-94409661D01*
X77251469Y-94394389D01*
X76961981Y-94436401D01*
X76686253Y-94534081D01*
X76548843Y-94607528D01*
X76471208Y-94856603D01*
X64897000Y-94856603D01*
X64897000Y-92413397D01*
X76471208Y-92413397D01*
X76548843Y-92662472D01*
X76812883Y-92788371D01*
X77096411Y-92860339D01*
X77388531Y-92875611D01*
X77678019Y-92833599D01*
X77953747Y-92735919D01*
X78091157Y-92662472D01*
X78168792Y-92413397D01*
X77320000Y-91564605D01*
X76471208Y-92413397D01*
X64897000Y-92413397D01*
X64897000Y-91453531D01*
X75829389Y-91453531D01*
X75871401Y-91743019D01*
X75969081Y-92018747D01*
X76042528Y-92156157D01*
X76291603Y-92233792D01*
X77140395Y-91385000D01*
X77499605Y-91385000D01*
X78348397Y-92233792D01*
X78597472Y-92156157D01*
X78723371Y-91892117D01*
X78795339Y-91608589D01*
X78810611Y-91316469D01*
X78799331Y-91238740D01*
X82335000Y-91238740D01*
X82335000Y-91531260D01*
X82392068Y-91818158D01*
X82504010Y-92088411D01*
X82666525Y-92331632D01*
X82873368Y-92538475D01*
X83116589Y-92700990D01*
X83386842Y-92812932D01*
X83673740Y-92870000D01*
X83966260Y-92870000D01*
X84253158Y-92812932D01*
X84523411Y-92700990D01*
X84766632Y-92538475D01*
X84973475Y-92331632D01*
X85135990Y-92088411D01*
X85247932Y-91818158D01*
X85305000Y-91531260D01*
X85305000Y-91298665D01*
X89370000Y-91298665D01*
X89370000Y-91581335D01*
X89425147Y-91858574D01*
X89533320Y-92119727D01*
X89690363Y-92354759D01*
X89890241Y-92554637D01*
X90125273Y-92711680D01*
X90386426Y-92819853D01*
X90663665Y-92875000D01*
X90946335Y-92875000D01*
X91223574Y-92819853D01*
X91484727Y-92711680D01*
X91719759Y-92554637D01*
X91919637Y-92354759D01*
X92076680Y-92119727D01*
X92184853Y-91858574D01*
X92240000Y-91581335D01*
X92240000Y-91298665D01*
X92184853Y-91021426D01*
X92076680Y-90760273D01*
X91919637Y-90525241D01*
X91719759Y-90325363D01*
X91484727Y-90168320D01*
X91474135Y-90163933D01*
X91660131Y-90052385D01*
X91868519Y-89863414D01*
X92036037Y-89637420D01*
X92156246Y-89383087D01*
X92196904Y-89249039D01*
X92074915Y-89027000D01*
X90932000Y-89027000D01*
X90932000Y-89047000D01*
X90678000Y-89047000D01*
X90678000Y-89027000D01*
X89535085Y-89027000D01*
X89413096Y-89249039D01*
X89453754Y-89383087D01*
X89573963Y-89637420D01*
X89741481Y-89863414D01*
X89949869Y-90052385D01*
X90135865Y-90163933D01*
X90125273Y-90168320D01*
X89890241Y-90325363D01*
X89690363Y-90525241D01*
X89533320Y-90760273D01*
X89425147Y-91021426D01*
X89370000Y-91298665D01*
X85305000Y-91298665D01*
X85305000Y-91238740D01*
X85247932Y-90951842D01*
X85135990Y-90681589D01*
X84973475Y-90438368D01*
X84766632Y-90231525D01*
X84523411Y-90069010D01*
X84253158Y-89957068D01*
X83966260Y-89900000D01*
X83673740Y-89900000D01*
X83386842Y-89957068D01*
X83116589Y-90069010D01*
X82873368Y-90231525D01*
X82666525Y-90438368D01*
X82504010Y-90681589D01*
X82392068Y-90951842D01*
X82335000Y-91238740D01*
X78799331Y-91238740D01*
X78768599Y-91026981D01*
X78670919Y-90751253D01*
X78597472Y-90613843D01*
X78348397Y-90536208D01*
X77499605Y-91385000D01*
X77140395Y-91385000D01*
X76291603Y-90536208D01*
X76042528Y-90613843D01*
X75916629Y-90877883D01*
X75844661Y-91161411D01*
X75829389Y-91453531D01*
X64897000Y-91453531D01*
X64897000Y-90356603D01*
X76471208Y-90356603D01*
X77320000Y-91205395D01*
X78168792Y-90356603D01*
X78091157Y-90107528D01*
X77827117Y-89981629D01*
X77543589Y-89909661D01*
X77251469Y-89894389D01*
X76961981Y-89936401D01*
X76686253Y-90034081D01*
X76548843Y-90107528D01*
X76471208Y-90356603D01*
X64897000Y-90356603D01*
X64897000Y-76465000D01*
X72756928Y-76465000D01*
X72769188Y-76589482D01*
X72805498Y-76709180D01*
X72864463Y-76819494D01*
X72943815Y-76916185D01*
X73040506Y-76995537D01*
X73150820Y-77054502D01*
X73270518Y-77090812D01*
X73395000Y-77103072D01*
X74009250Y-77100000D01*
X74168000Y-76941250D01*
X74168000Y-75692000D01*
X74422000Y-75692000D01*
X74422000Y-76941250D01*
X74580750Y-77100000D01*
X75195000Y-77103072D01*
X75319482Y-77090812D01*
X75439180Y-77054502D01*
X75549494Y-76995537D01*
X75646185Y-76916185D01*
X75725537Y-76819494D01*
X75784502Y-76709180D01*
X75820812Y-76589482D01*
X75833072Y-76465000D01*
X75830000Y-75850750D01*
X75671250Y-75692000D01*
X74422000Y-75692000D01*
X74168000Y-75692000D01*
X72918750Y-75692000D01*
X72760000Y-75850750D01*
X72756928Y-76465000D01*
X64897000Y-76465000D01*
X64897000Y-74665000D01*
X72756928Y-74665000D01*
X72760000Y-75279250D01*
X72918750Y-75438000D01*
X74168000Y-75438000D01*
X74168000Y-75418000D01*
X74422000Y-75418000D01*
X74422000Y-75438000D01*
X75671250Y-75438000D01*
X75830000Y-75279250D01*
X75833072Y-74665000D01*
X75820812Y-74540518D01*
X75784502Y-74420820D01*
X75725537Y-74310506D01*
X75646185Y-74213815D01*
X75549494Y-74134463D01*
X75439180Y-74075498D01*
X75420873Y-74069944D01*
X75487312Y-74003505D01*
X75655299Y-73752095D01*
X75771011Y-73472743D01*
X75830000Y-73176184D01*
X75830000Y-72873816D01*
X75771011Y-72577257D01*
X75655299Y-72297905D01*
X75487312Y-72046495D01*
X75273505Y-71832688D01*
X75055000Y-71686687D01*
X75055000Y-68894801D01*
X75879802Y-68070000D01*
X76251957Y-68070000D01*
X76355363Y-68224759D01*
X76555241Y-68424637D01*
X76790273Y-68581680D01*
X77051426Y-68689853D01*
X77328665Y-68745000D01*
X77611335Y-68745000D01*
X77888574Y-68689853D01*
X78149727Y-68581680D01*
X78384759Y-68424637D01*
X78584637Y-68224759D01*
X78741680Y-67989727D01*
X78849853Y-67728574D01*
X78905000Y-67451335D01*
X78905000Y-67168665D01*
X78849853Y-66891426D01*
X78741680Y-66630273D01*
X78584637Y-66395241D01*
X78384759Y-66195363D01*
X78149727Y-66038320D01*
X77888574Y-65930147D01*
X77611335Y-65875000D01*
X77328665Y-65875000D01*
X77051426Y-65930147D01*
X76790273Y-66038320D01*
X76555241Y-66195363D01*
X76355363Y-66395241D01*
X76251957Y-66550000D01*
X75602322Y-66550000D01*
X75564999Y-66546324D01*
X75527676Y-66550000D01*
X75527667Y-66550000D01*
X75416014Y-66560997D01*
X75272753Y-66604454D01*
X75140724Y-66675026D01*
X75024999Y-66769999D01*
X75001201Y-66798997D01*
X73784003Y-68016196D01*
X73754999Y-68039999D01*
X73705460Y-68100363D01*
X73660026Y-68155724D01*
X73623126Y-68224759D01*
X73589454Y-68287754D01*
X73545997Y-68431015D01*
X73535000Y-68542668D01*
X73535000Y-68542678D01*
X73531324Y-68580000D01*
X73535000Y-68617323D01*
X73535001Y-71686687D01*
X73316495Y-71832688D01*
X73102688Y-72046495D01*
X72934701Y-72297905D01*
X72818989Y-72577257D01*
X72760000Y-72873816D01*
X72760000Y-73176184D01*
X72818989Y-73472743D01*
X72934701Y-73752095D01*
X73102688Y-74003505D01*
X73169127Y-74069944D01*
X73150820Y-74075498D01*
X73040506Y-74134463D01*
X72943815Y-74213815D01*
X72864463Y-74310506D01*
X72805498Y-74420820D01*
X72769188Y-74540518D01*
X72756928Y-74665000D01*
X64897000Y-74665000D01*
X64897000Y-53910000D01*
X73556928Y-53910000D01*
X73556928Y-55660000D01*
X73586001Y-55955186D01*
X73672104Y-56239028D01*
X73811927Y-56500618D01*
X74000097Y-56729903D01*
X74229382Y-56918073D01*
X74490972Y-57057896D01*
X74774814Y-57143999D01*
X75070000Y-57173072D01*
X76820000Y-57173072D01*
X77115186Y-57143999D01*
X77399028Y-57057896D01*
X77660618Y-56918073D01*
X77889903Y-56729903D01*
X78006928Y-56587308D01*
X78006928Y-59535000D01*
X78019188Y-59659482D01*
X78055498Y-59779180D01*
X78114463Y-59889494D01*
X78193815Y-59986185D01*
X78290506Y-60065537D01*
X78400820Y-60124502D01*
X78520518Y-60160812D01*
X78645000Y-60173072D01*
X79760001Y-60173072D01*
X79760000Y-63543476D01*
X79760001Y-63543486D01*
X79760000Y-79331531D01*
X79755719Y-79375000D01*
X79760000Y-79418469D01*
X79760000Y-79418476D01*
X79772805Y-79548489D01*
X79823411Y-79715312D01*
X79905589Y-79869058D01*
X80016183Y-80003817D01*
X80049954Y-80031532D01*
X84433470Y-84415049D01*
X84461183Y-84448817D01*
X84494951Y-84476530D01*
X84494953Y-84476532D01*
X84517399Y-84494953D01*
X84595941Y-84559411D01*
X84749687Y-84641589D01*
X84916510Y-84692195D01*
X85046523Y-84705000D01*
X85046533Y-84705000D01*
X85089999Y-84709281D01*
X85133465Y-84705000D01*
X89670479Y-84705000D01*
X89690363Y-84734759D01*
X89890241Y-84934637D01*
X90122759Y-85090000D01*
X89890241Y-85245363D01*
X89690363Y-85445241D01*
X89533320Y-85680273D01*
X89425147Y-85941426D01*
X89370000Y-86218665D01*
X89370000Y-86501335D01*
X89425147Y-86778574D01*
X89533320Y-87039727D01*
X89690363Y-87274759D01*
X89890241Y-87474637D01*
X90125273Y-87631680D01*
X90135865Y-87636067D01*
X89949869Y-87747615D01*
X89741481Y-87936586D01*
X89573963Y-88162580D01*
X89453754Y-88416913D01*
X89413096Y-88550961D01*
X89535085Y-88773000D01*
X90678000Y-88773000D01*
X90678000Y-88753000D01*
X90932000Y-88753000D01*
X90932000Y-88773000D01*
X92074915Y-88773000D01*
X92196904Y-88550961D01*
X92156246Y-88416913D01*
X92036037Y-88162580D01*
X91868519Y-87936586D01*
X91660131Y-87747615D01*
X91474135Y-87636067D01*
X91484727Y-87631680D01*
X91719759Y-87474637D01*
X91919637Y-87274759D01*
X92076680Y-87039727D01*
X92184853Y-86778574D01*
X92240000Y-86501335D01*
X92240000Y-86218665D01*
X92184853Y-85941426D01*
X92076680Y-85680273D01*
X91919637Y-85445241D01*
X91719759Y-85245363D01*
X91487241Y-85090000D01*
X91719759Y-84934637D01*
X91919637Y-84734759D01*
X91939521Y-84705000D01*
X94248422Y-84705000D01*
X95000000Y-85456579D01*
X95000001Y-96476521D01*
X94995719Y-96520000D01*
X95012805Y-96693490D01*
X95063412Y-96860313D01*
X95145590Y-97014059D01*
X95228468Y-97115046D01*
X95228471Y-97115049D01*
X95256184Y-97148817D01*
X95289951Y-97176529D01*
X97133470Y-99020049D01*
X97161183Y-99053817D01*
X97194951Y-99081530D01*
X97194953Y-99081532D01*
X97223216Y-99104727D01*
X97295941Y-99164411D01*
X97449687Y-99246589D01*
X97616510Y-99297195D01*
X97746523Y-99310000D01*
X97746531Y-99310000D01*
X97790000Y-99314281D01*
X97833469Y-99310000D01*
X115070479Y-99310000D01*
X115090363Y-99339759D01*
X115290241Y-99539637D01*
X115320000Y-99559522D01*
X115320001Y-101556521D01*
X115315719Y-101600000D01*
X115332805Y-101773490D01*
X115383412Y-101940313D01*
X115465590Y-102094059D01*
X115548468Y-102195046D01*
X115548471Y-102195049D01*
X115576184Y-102228817D01*
X115609951Y-102256529D01*
X116818470Y-103465049D01*
X116846183Y-103498817D01*
X116879951Y-103526530D01*
X116879953Y-103526532D01*
X116937075Y-103573411D01*
X116980941Y-103609411D01*
X117134687Y-103691589D01*
X117301510Y-103742195D01*
X117431523Y-103755000D01*
X117431533Y-103755000D01*
X117474999Y-103759281D01*
X117518465Y-103755000D01*
X125170344Y-103755000D01*
X125211525Y-103816632D01*
X125418368Y-104023475D01*
X125480000Y-104064656D01*
X125480001Y-105366521D01*
X125475719Y-105410000D01*
X125492805Y-105583490D01*
X125543412Y-105750313D01*
X125625590Y-105904059D01*
X125708468Y-106005046D01*
X125708469Y-106005047D01*
X125736184Y-106038817D01*
X125769951Y-106066529D01*
X126343470Y-106640049D01*
X126371183Y-106673817D01*
X126404951Y-106701530D01*
X126404953Y-106701532D01*
X126505941Y-106784411D01*
X126659686Y-106866589D01*
X126826510Y-106917195D01*
X126956523Y-106930000D01*
X126956531Y-106930000D01*
X127000000Y-106934281D01*
X127043469Y-106930000D01*
X145371531Y-106930000D01*
X145415000Y-106934281D01*
X145458469Y-106930000D01*
X145458477Y-106930000D01*
X145588490Y-106917195D01*
X145755313Y-106866589D01*
X145909059Y-106784411D01*
X146043817Y-106673817D01*
X146071534Y-106640044D01*
X146645050Y-106066529D01*
X146678817Y-106038817D01*
X146706533Y-106005046D01*
X146789411Y-105904059D01*
X146871589Y-105750314D01*
X146922195Y-105583490D01*
X146925401Y-105550941D01*
X146935000Y-105453477D01*
X146935000Y-105453469D01*
X146939281Y-105410000D01*
X146935000Y-105366531D01*
X146935000Y-83228465D01*
X146939281Y-83184999D01*
X146935000Y-83141533D01*
X146935000Y-83141523D01*
X146922195Y-83011510D01*
X146871589Y-82844687D01*
X146789411Y-82690941D01*
X146678817Y-82556183D01*
X146645049Y-82528470D01*
X145436534Y-81319956D01*
X145408817Y-81286183D01*
X145274059Y-81175589D01*
X145120313Y-81093411D01*
X144953490Y-81042805D01*
X144823477Y-81030000D01*
X144823469Y-81030000D01*
X144780000Y-81025719D01*
X144736531Y-81030000D01*
X144009521Y-81030000D01*
X143989637Y-81000241D01*
X143789759Y-80800363D01*
X143760000Y-80780479D01*
X143760000Y-80509521D01*
X143789759Y-80489637D01*
X143989637Y-80289759D01*
X144146680Y-80054727D01*
X144254853Y-79793574D01*
X144310000Y-79516335D01*
X144310000Y-79233665D01*
X144254853Y-78956426D01*
X144146680Y-78695273D01*
X143989637Y-78460241D01*
X143789759Y-78260363D01*
X143554727Y-78103320D01*
X143544135Y-78098933D01*
X143730131Y-77987385D01*
X143938519Y-77798414D01*
X144106037Y-77572420D01*
X144226246Y-77318087D01*
X144266904Y-77184039D01*
X144144915Y-76962000D01*
X143002000Y-76962000D01*
X143002000Y-76982000D01*
X142748000Y-76982000D01*
X142748000Y-76962000D01*
X141605085Y-76962000D01*
X141483096Y-77184039D01*
X141523754Y-77318087D01*
X141643963Y-77572420D01*
X141811481Y-77798414D01*
X142019869Y-77987385D01*
X142205865Y-78098933D01*
X142195273Y-78103320D01*
X141960241Y-78260363D01*
X141760363Y-78460241D01*
X141740479Y-78490000D01*
X140701579Y-78490000D01*
X138451534Y-76239956D01*
X138423817Y-76206183D01*
X138289059Y-76095589D01*
X138135313Y-76013411D01*
X137968490Y-75962805D01*
X137838477Y-75950000D01*
X137838469Y-75950000D01*
X137795000Y-75945719D01*
X137751531Y-75950000D01*
X136389521Y-75950000D01*
X136369637Y-75920241D01*
X136169759Y-75720363D01*
X135937241Y-75565000D01*
X136169759Y-75409637D01*
X136369637Y-75209759D01*
X136526680Y-74974727D01*
X136634853Y-74713574D01*
X136690000Y-74436335D01*
X136690000Y-74153665D01*
X136634853Y-73876426D01*
X136526680Y-73615273D01*
X136369637Y-73380241D01*
X136169759Y-73180363D01*
X135937241Y-73025000D01*
X136169759Y-72869637D01*
X136369637Y-72669759D01*
X136526680Y-72434727D01*
X136634853Y-72173574D01*
X136690000Y-71896335D01*
X136690000Y-71613665D01*
X136634853Y-71336426D01*
X136526680Y-71075273D01*
X136369637Y-70840241D01*
X136169759Y-70640363D01*
X135937241Y-70485000D01*
X136169759Y-70329637D01*
X136369637Y-70129759D01*
X136526680Y-69894727D01*
X136634853Y-69633574D01*
X136690000Y-69356335D01*
X136690000Y-69073665D01*
X136634853Y-68796426D01*
X136526680Y-68535273D01*
X136369637Y-68300241D01*
X136169759Y-68100363D01*
X135937241Y-67945000D01*
X136169759Y-67789637D01*
X136369637Y-67589759D01*
X136526680Y-67354727D01*
X136634853Y-67093574D01*
X136690000Y-66816335D01*
X136690000Y-66533665D01*
X136634853Y-66256426D01*
X136526680Y-65995273D01*
X136369637Y-65760241D01*
X136169759Y-65560363D01*
X135937241Y-65405000D01*
X136169759Y-65249637D01*
X136369637Y-65049759D01*
X136526680Y-64814727D01*
X136634853Y-64553574D01*
X136690000Y-64276335D01*
X136690000Y-63993665D01*
X136634853Y-63716426D01*
X136526680Y-63455273D01*
X136369637Y-63220241D01*
X136171039Y-63021643D01*
X136179482Y-63020812D01*
X136299180Y-62984502D01*
X136409494Y-62925537D01*
X136506185Y-62846185D01*
X136585537Y-62749494D01*
X136644502Y-62639180D01*
X136680812Y-62519482D01*
X136693072Y-62395000D01*
X136693072Y-61453665D01*
X141440000Y-61453665D01*
X141440000Y-61736335D01*
X141495147Y-62013574D01*
X141603320Y-62274727D01*
X141760363Y-62509759D01*
X141960241Y-62709637D01*
X142192759Y-62865000D01*
X141960241Y-63020363D01*
X141760363Y-63220241D01*
X141603320Y-63455273D01*
X141495147Y-63716426D01*
X141440000Y-63993665D01*
X141440000Y-64276335D01*
X141495147Y-64553574D01*
X141603320Y-64814727D01*
X141760363Y-65049759D01*
X141960241Y-65249637D01*
X142192759Y-65405000D01*
X141960241Y-65560363D01*
X141760363Y-65760241D01*
X141603320Y-65995273D01*
X141495147Y-66256426D01*
X141440000Y-66533665D01*
X141440000Y-66816335D01*
X141495147Y-67093574D01*
X141603320Y-67354727D01*
X141760363Y-67589759D01*
X141960241Y-67789637D01*
X142192759Y-67945000D01*
X141960241Y-68100363D01*
X141760363Y-68300241D01*
X141603320Y-68535273D01*
X141495147Y-68796426D01*
X141440000Y-69073665D01*
X141440000Y-69356335D01*
X141495147Y-69633574D01*
X141603320Y-69894727D01*
X141760363Y-70129759D01*
X141960241Y-70329637D01*
X142192759Y-70485000D01*
X141960241Y-70640363D01*
X141760363Y-70840241D01*
X141603320Y-71075273D01*
X141495147Y-71336426D01*
X141440000Y-71613665D01*
X141440000Y-71896335D01*
X141495147Y-72173574D01*
X141603320Y-72434727D01*
X141760363Y-72669759D01*
X141960241Y-72869637D01*
X142192759Y-73025000D01*
X141960241Y-73180363D01*
X141760363Y-73380241D01*
X141603320Y-73615273D01*
X141495147Y-73876426D01*
X141440000Y-74153665D01*
X141440000Y-74436335D01*
X141495147Y-74713574D01*
X141603320Y-74974727D01*
X141760363Y-75209759D01*
X141960241Y-75409637D01*
X142195273Y-75566680D01*
X142205865Y-75571067D01*
X142019869Y-75682615D01*
X141811481Y-75871586D01*
X141643963Y-76097580D01*
X141523754Y-76351913D01*
X141483096Y-76485961D01*
X141605085Y-76708000D01*
X142748000Y-76708000D01*
X142748000Y-76688000D01*
X143002000Y-76688000D01*
X143002000Y-76708000D01*
X144144915Y-76708000D01*
X144266904Y-76485961D01*
X144226246Y-76351913D01*
X144106037Y-76097580D01*
X143938519Y-75871586D01*
X143730131Y-75682615D01*
X143544135Y-75571067D01*
X143554727Y-75566680D01*
X143789759Y-75409637D01*
X143989637Y-75209759D01*
X144146680Y-74974727D01*
X144254853Y-74713574D01*
X144310000Y-74436335D01*
X144310000Y-74153665D01*
X144254853Y-73876426D01*
X144146680Y-73615273D01*
X143989637Y-73380241D01*
X143789759Y-73180363D01*
X143557241Y-73025000D01*
X143789759Y-72869637D01*
X143989637Y-72669759D01*
X144146680Y-72434727D01*
X144254853Y-72173574D01*
X144310000Y-71896335D01*
X144310000Y-71613665D01*
X144254853Y-71336426D01*
X144146680Y-71075273D01*
X143989637Y-70840241D01*
X143789759Y-70640363D01*
X143557241Y-70485000D01*
X143789759Y-70329637D01*
X143989637Y-70129759D01*
X144146680Y-69894727D01*
X144254853Y-69633574D01*
X144310000Y-69356335D01*
X144310000Y-69073665D01*
X144254853Y-68796426D01*
X144146680Y-68535273D01*
X143989637Y-68300241D01*
X143789759Y-68100363D01*
X143557241Y-67945000D01*
X143789759Y-67789637D01*
X143989637Y-67589759D01*
X144146680Y-67354727D01*
X144254853Y-67093574D01*
X144310000Y-66816335D01*
X144310000Y-66533665D01*
X144254853Y-66256426D01*
X144146680Y-65995273D01*
X143989637Y-65760241D01*
X143789759Y-65560363D01*
X143557241Y-65405000D01*
X143789759Y-65249637D01*
X143989637Y-65049759D01*
X144146680Y-64814727D01*
X144254853Y-64553574D01*
X144310000Y-64276335D01*
X144310000Y-63993665D01*
X144254853Y-63716426D01*
X144146680Y-63455273D01*
X143989637Y-63220241D01*
X143789759Y-63020363D01*
X143557241Y-62865000D01*
X143789759Y-62709637D01*
X143989637Y-62509759D01*
X144146680Y-62274727D01*
X144254853Y-62013574D01*
X144310000Y-61736335D01*
X144310000Y-61453665D01*
X144254853Y-61176426D01*
X144146680Y-60915273D01*
X143989637Y-60680241D01*
X143789759Y-60480363D01*
X143554727Y-60323320D01*
X143293574Y-60215147D01*
X143016335Y-60160000D01*
X142733665Y-60160000D01*
X142456426Y-60215147D01*
X142195273Y-60323320D01*
X141960241Y-60480363D01*
X141760363Y-60680241D01*
X141603320Y-60915273D01*
X141495147Y-61176426D01*
X141440000Y-61453665D01*
X136693072Y-61453665D01*
X136693072Y-60795000D01*
X136680812Y-60670518D01*
X136644502Y-60550820D01*
X136585537Y-60440506D01*
X136506185Y-60343815D01*
X136409494Y-60264463D01*
X136299180Y-60205498D01*
X136179482Y-60169188D01*
X136055000Y-60156928D01*
X134455000Y-60156928D01*
X134330518Y-60169188D01*
X134210820Y-60205498D01*
X134100506Y-60264463D01*
X134003815Y-60343815D01*
X133924463Y-60440506D01*
X133865498Y-60550820D01*
X133829188Y-60670518D01*
X133816928Y-60795000D01*
X133816928Y-62257126D01*
X132643804Y-61084003D01*
X132620001Y-61054999D01*
X132504276Y-60960026D01*
X132372247Y-60889454D01*
X132228986Y-60845997D01*
X132117333Y-60835000D01*
X132117322Y-60835000D01*
X132080000Y-60831324D01*
X132042678Y-60835000D01*
X132028043Y-60835000D01*
X131924637Y-60680241D01*
X131724759Y-60480363D01*
X131489727Y-60323320D01*
X131228574Y-60215147D01*
X130951335Y-60160000D01*
X130668665Y-60160000D01*
X130391426Y-60215147D01*
X130130273Y-60323320D01*
X129895241Y-60480363D01*
X129695363Y-60680241D01*
X129538320Y-60915273D01*
X129430147Y-61176426D01*
X129375000Y-61453665D01*
X129375000Y-61736335D01*
X129430147Y-62013574D01*
X129538320Y-62274727D01*
X129695363Y-62509759D01*
X129895241Y-62709637D01*
X130130273Y-62866680D01*
X130391426Y-62974853D01*
X130668665Y-63030000D01*
X130951335Y-63030000D01*
X131228574Y-62974853D01*
X131489727Y-62866680D01*
X131724759Y-62709637D01*
X131922297Y-62512099D01*
X132590001Y-63179803D01*
X132590000Y-68542677D01*
X132586324Y-68580000D01*
X132590000Y-68617322D01*
X132590000Y-68617332D01*
X132600997Y-68728985D01*
X132621455Y-68796426D01*
X132644454Y-68872246D01*
X132715026Y-69004276D01*
X132754871Y-69052826D01*
X132809999Y-69120001D01*
X132839002Y-69143803D01*
X133421200Y-69726002D01*
X133444999Y-69755001D01*
X133473997Y-69778799D01*
X133560724Y-69849974D01*
X133692753Y-69920546D01*
X133836014Y-69964003D01*
X133985000Y-69978677D01*
X134022333Y-69975000D01*
X134036957Y-69975000D01*
X134140363Y-70129759D01*
X134340241Y-70329637D01*
X134572759Y-70485000D01*
X134340241Y-70640363D01*
X134140363Y-70840241D01*
X133983320Y-71075273D01*
X133875147Y-71336426D01*
X133820000Y-71613665D01*
X133820000Y-71896335D01*
X133875147Y-72173574D01*
X133983320Y-72434727D01*
X134140363Y-72669759D01*
X134340241Y-72869637D01*
X134572759Y-73025000D01*
X134340241Y-73180363D01*
X134140363Y-73380241D01*
X133983320Y-73615273D01*
X133875147Y-73876426D01*
X133820000Y-74153665D01*
X133820000Y-74436335D01*
X133875147Y-74713574D01*
X133983320Y-74974727D01*
X134140363Y-75209759D01*
X134340241Y-75409637D01*
X134572759Y-75565000D01*
X134340241Y-75720363D01*
X134140363Y-75920241D01*
X133983320Y-76155273D01*
X133875147Y-76416426D01*
X133820000Y-76693665D01*
X133820000Y-76976335D01*
X133875147Y-77253574D01*
X133983320Y-77514727D01*
X134140363Y-77749759D01*
X134340241Y-77949637D01*
X134575273Y-78106680D01*
X134585865Y-78111067D01*
X134399869Y-78222615D01*
X134191481Y-78411586D01*
X134023963Y-78637580D01*
X133903754Y-78891913D01*
X133863096Y-79025961D01*
X133985085Y-79248000D01*
X135128000Y-79248000D01*
X135128000Y-79228000D01*
X135382000Y-79228000D01*
X135382000Y-79248000D01*
X136524915Y-79248000D01*
X136646904Y-79025961D01*
X136606246Y-78891913D01*
X136486037Y-78637580D01*
X136318519Y-78411586D01*
X136110131Y-78222615D01*
X135924135Y-78111067D01*
X135934727Y-78106680D01*
X136169759Y-77949637D01*
X136369637Y-77749759D01*
X136389521Y-77720000D01*
X137428422Y-77720000D01*
X139678470Y-79970049D01*
X139706183Y-80003817D01*
X139739951Y-80031530D01*
X139739953Y-80031532D01*
X139768216Y-80054727D01*
X139840941Y-80114411D01*
X139994687Y-80196589D01*
X140161510Y-80247195D01*
X140291523Y-80260000D01*
X140291533Y-80260000D01*
X140334999Y-80264281D01*
X140378465Y-80260000D01*
X141740479Y-80260000D01*
X141760363Y-80289759D01*
X141960241Y-80489637D01*
X141990001Y-80509522D01*
X141990000Y-80780478D01*
X141960241Y-80800363D01*
X141760363Y-81000241D01*
X141603320Y-81235273D01*
X141495147Y-81496426D01*
X141440000Y-81773665D01*
X141440000Y-82056335D01*
X141495147Y-82333574D01*
X141603320Y-82594727D01*
X141760363Y-82829759D01*
X141960241Y-83029637D01*
X142192759Y-83185000D01*
X141960241Y-83340363D01*
X141760363Y-83540241D01*
X141656957Y-83695000D01*
X141642333Y-83695000D01*
X141605000Y-83691323D01*
X141567667Y-83695000D01*
X141456014Y-83705997D01*
X141312753Y-83749454D01*
X141180724Y-83820026D01*
X141064999Y-83914999D01*
X141041200Y-83943998D01*
X140458998Y-84526201D01*
X140430000Y-84549999D01*
X140406202Y-84578997D01*
X140406201Y-84578998D01*
X140335026Y-84665724D01*
X140264454Y-84797754D01*
X140241455Y-84873574D01*
X140222933Y-84934637D01*
X140220998Y-84941015D01*
X140206324Y-85090000D01*
X140210001Y-85127332D01*
X140210000Y-97475198D01*
X140020199Y-97665000D01*
X137197323Y-97665000D01*
X137160000Y-97661324D01*
X137122677Y-97665000D01*
X137122667Y-97665000D01*
X137011014Y-97675997D01*
X136867753Y-97719454D01*
X136735724Y-97790026D01*
X136619999Y-97884999D01*
X136596201Y-97913997D01*
X134940199Y-99570000D01*
X130183178Y-99570000D01*
X130058475Y-99383368D01*
X129851632Y-99176525D01*
X129677240Y-99060000D01*
X129851632Y-98943475D01*
X130058475Y-98736632D01*
X130183178Y-98550000D01*
X132042678Y-98550000D01*
X132080000Y-98553676D01*
X132117322Y-98550000D01*
X132117333Y-98550000D01*
X132228986Y-98539003D01*
X132372247Y-98495546D01*
X132504276Y-98424974D01*
X132620001Y-98330001D01*
X132643803Y-98300998D01*
X133226004Y-97718798D01*
X133255001Y-97695001D01*
X133349974Y-97579276D01*
X133420546Y-97447247D01*
X133464003Y-97303986D01*
X133475000Y-97192333D01*
X133475000Y-97192332D01*
X133478677Y-97155000D01*
X133475000Y-97117667D01*
X133475000Y-81952333D01*
X133478677Y-81915000D01*
X133464757Y-81773665D01*
X133820000Y-81773665D01*
X133820000Y-82056335D01*
X133875147Y-82333574D01*
X133983320Y-82594727D01*
X134140363Y-82829759D01*
X134340241Y-83029637D01*
X134572759Y-83185000D01*
X134340241Y-83340363D01*
X134140363Y-83540241D01*
X133983320Y-83775273D01*
X133875147Y-84036426D01*
X133820000Y-84313665D01*
X133820000Y-84596335D01*
X133875147Y-84873574D01*
X133983320Y-85134727D01*
X134140363Y-85369759D01*
X134340241Y-85569637D01*
X134572759Y-85725000D01*
X134340241Y-85880363D01*
X134140363Y-86080241D01*
X133983320Y-86315273D01*
X133875147Y-86576426D01*
X133820000Y-86853665D01*
X133820000Y-87136335D01*
X133875147Y-87413574D01*
X133983320Y-87674727D01*
X134140363Y-87909759D01*
X134340241Y-88109637D01*
X134572759Y-88265000D01*
X134340241Y-88420363D01*
X134140363Y-88620241D01*
X133983320Y-88855273D01*
X133875147Y-89116426D01*
X133820000Y-89393665D01*
X133820000Y-89676335D01*
X133875147Y-89953574D01*
X133983320Y-90214727D01*
X134140363Y-90449759D01*
X134340241Y-90649637D01*
X134572759Y-90805000D01*
X134340241Y-90960363D01*
X134140363Y-91160241D01*
X133983320Y-91395273D01*
X133875147Y-91656426D01*
X133820000Y-91933665D01*
X133820000Y-92216335D01*
X133875147Y-92493574D01*
X133983320Y-92754727D01*
X134140363Y-92989759D01*
X134340241Y-93189637D01*
X134572759Y-93345000D01*
X134340241Y-93500363D01*
X134140363Y-93700241D01*
X133983320Y-93935273D01*
X133875147Y-94196426D01*
X133820000Y-94473665D01*
X133820000Y-94756335D01*
X133875147Y-95033574D01*
X133983320Y-95294727D01*
X134140363Y-95529759D01*
X134340241Y-95729637D01*
X134575273Y-95886680D01*
X134836426Y-95994853D01*
X135113665Y-96050000D01*
X135396335Y-96050000D01*
X135673574Y-95994853D01*
X135934727Y-95886680D01*
X136169759Y-95729637D01*
X136369637Y-95529759D01*
X136526680Y-95294727D01*
X136634853Y-95033574D01*
X136690000Y-94756335D01*
X136690000Y-94473665D01*
X136634853Y-94196426D01*
X136526680Y-93935273D01*
X136369637Y-93700241D01*
X136169759Y-93500363D01*
X135937241Y-93345000D01*
X136169759Y-93189637D01*
X136369637Y-92989759D01*
X136526680Y-92754727D01*
X136634853Y-92493574D01*
X136690000Y-92216335D01*
X136690000Y-91933665D01*
X136634853Y-91656426D01*
X136526680Y-91395273D01*
X136369637Y-91160241D01*
X136169759Y-90960363D01*
X135937241Y-90805000D01*
X136169759Y-90649637D01*
X136369637Y-90449759D01*
X136526680Y-90214727D01*
X136634853Y-89953574D01*
X136690000Y-89676335D01*
X136690000Y-89393665D01*
X136634853Y-89116426D01*
X136526680Y-88855273D01*
X136369637Y-88620241D01*
X136169759Y-88420363D01*
X135937241Y-88265000D01*
X136169759Y-88109637D01*
X136369637Y-87909759D01*
X136526680Y-87674727D01*
X136634853Y-87413574D01*
X136690000Y-87136335D01*
X136690000Y-86853665D01*
X136634853Y-86576426D01*
X136526680Y-86315273D01*
X136369637Y-86080241D01*
X136169759Y-85880363D01*
X135937241Y-85725000D01*
X136169759Y-85569637D01*
X136369637Y-85369759D01*
X136526680Y-85134727D01*
X136634853Y-84873574D01*
X136690000Y-84596335D01*
X136690000Y-84313665D01*
X136634853Y-84036426D01*
X136526680Y-83775273D01*
X136369637Y-83540241D01*
X136169759Y-83340363D01*
X135937241Y-83185000D01*
X136169759Y-83029637D01*
X136369637Y-82829759D01*
X136526680Y-82594727D01*
X136634853Y-82333574D01*
X136690000Y-82056335D01*
X136690000Y-81773665D01*
X136634853Y-81496426D01*
X136526680Y-81235273D01*
X136369637Y-81000241D01*
X136169759Y-80800363D01*
X135934727Y-80643320D01*
X135924135Y-80638933D01*
X136110131Y-80527385D01*
X136318519Y-80338414D01*
X136486037Y-80112420D01*
X136606246Y-79858087D01*
X136646904Y-79724039D01*
X136524915Y-79502000D01*
X135382000Y-79502000D01*
X135382000Y-79522000D01*
X135128000Y-79522000D01*
X135128000Y-79502000D01*
X133985085Y-79502000D01*
X133863096Y-79724039D01*
X133903754Y-79858087D01*
X134023963Y-80112420D01*
X134191481Y-80338414D01*
X134399869Y-80527385D01*
X134585865Y-80638933D01*
X134575273Y-80643320D01*
X134340241Y-80800363D01*
X134140363Y-81000241D01*
X133983320Y-81235273D01*
X133875147Y-81496426D01*
X133820000Y-81773665D01*
X133464757Y-81773665D01*
X133464003Y-81766014D01*
X133420546Y-81622753D01*
X133349974Y-81490724D01*
X133278799Y-81403997D01*
X133255001Y-81374999D01*
X133226002Y-81351200D01*
X132643803Y-80769002D01*
X132620001Y-80739999D01*
X132504276Y-80645026D01*
X132372247Y-80574454D01*
X132228986Y-80530997D01*
X132117333Y-80520000D01*
X132117322Y-80520000D01*
X132080000Y-80516324D01*
X132042678Y-80520000D01*
X128584802Y-80520000D01*
X128395000Y-80330199D01*
X128395000Y-74332333D01*
X128398677Y-74295000D01*
X128384003Y-74146014D01*
X128340546Y-74002753D01*
X128269974Y-73870724D01*
X128198799Y-73783997D01*
X128175001Y-73754999D01*
X128146002Y-73731200D01*
X127760000Y-73345199D01*
X127760000Y-72973043D01*
X127914759Y-72869637D01*
X128114637Y-72669759D01*
X128271680Y-72434727D01*
X128379853Y-72173574D01*
X128435000Y-71896335D01*
X128435000Y-71613665D01*
X129375000Y-71613665D01*
X129375000Y-71896335D01*
X129430147Y-72173574D01*
X129538320Y-72434727D01*
X129695363Y-72669759D01*
X129895241Y-72869637D01*
X130130273Y-73026680D01*
X130391426Y-73134853D01*
X130668665Y-73190000D01*
X130951335Y-73190000D01*
X131228574Y-73134853D01*
X131489727Y-73026680D01*
X131724759Y-72869637D01*
X131924637Y-72669759D01*
X132081680Y-72434727D01*
X132189853Y-72173574D01*
X132245000Y-71896335D01*
X132245000Y-71613665D01*
X132189853Y-71336426D01*
X132081680Y-71075273D01*
X131924637Y-70840241D01*
X131724759Y-70640363D01*
X131489727Y-70483320D01*
X131228574Y-70375147D01*
X130951335Y-70320000D01*
X130668665Y-70320000D01*
X130391426Y-70375147D01*
X130130273Y-70483320D01*
X129895241Y-70640363D01*
X129695363Y-70840241D01*
X129538320Y-71075273D01*
X129430147Y-71336426D01*
X129375000Y-71613665D01*
X128435000Y-71613665D01*
X128379853Y-71336426D01*
X128271680Y-71075273D01*
X128114637Y-70840241D01*
X127914759Y-70640363D01*
X127679727Y-70483320D01*
X127418574Y-70375147D01*
X127141335Y-70320000D01*
X126858665Y-70320000D01*
X126581426Y-70375147D01*
X126320273Y-70483320D01*
X126085241Y-70640363D01*
X125885363Y-70840241D01*
X125728320Y-71075273D01*
X125620147Y-71336426D01*
X125565000Y-71613665D01*
X125565000Y-71896335D01*
X125620147Y-72173574D01*
X125728320Y-72434727D01*
X125885363Y-72669759D01*
X126085241Y-72869637D01*
X126240000Y-72973044D01*
X126240000Y-73622677D01*
X126236324Y-73660000D01*
X126240000Y-73697322D01*
X126240000Y-73697332D01*
X126250997Y-73808985D01*
X126271455Y-73876426D01*
X126294454Y-73952246D01*
X126365026Y-74084276D01*
X126404871Y-74132826D01*
X126459999Y-74200001D01*
X126489002Y-74223803D01*
X126875001Y-74609803D01*
X126875001Y-76146589D01*
X126722702Y-76101903D01*
X125909605Y-76915000D01*
X126722702Y-77728097D01*
X126875000Y-77683411D01*
X126875000Y-80607677D01*
X126871324Y-80645000D01*
X126875000Y-80682322D01*
X126875000Y-80682332D01*
X126885997Y-80793985D01*
X126906455Y-80861426D01*
X126929454Y-80937246D01*
X127000026Y-81069276D01*
X127039871Y-81117826D01*
X127094999Y-81185001D01*
X127124002Y-81208803D01*
X127706200Y-81791002D01*
X127729999Y-81820001D01*
X127758997Y-81843799D01*
X127845724Y-81914974D01*
X127977753Y-81985546D01*
X128121014Y-82029003D01*
X128270000Y-82043677D01*
X128307333Y-82040000D01*
X129425411Y-82040000D01*
X129260241Y-82150363D01*
X129060363Y-82350241D01*
X128956957Y-82505000D01*
X127038846Y-82505000D01*
X127109853Y-82333574D01*
X127165000Y-82056335D01*
X127165000Y-81773665D01*
X127109853Y-81496426D01*
X127001680Y-81235273D01*
X126844637Y-81000241D01*
X126644759Y-80800363D01*
X126409727Y-80643320D01*
X126148574Y-80535147D01*
X125871335Y-80480000D01*
X125588665Y-80480000D01*
X125311426Y-80535147D01*
X125050273Y-80643320D01*
X124815241Y-80800363D01*
X124615363Y-81000241D01*
X124511957Y-81155000D01*
X123863043Y-81155000D01*
X123759637Y-81000241D01*
X123559759Y-80800363D01*
X123327241Y-80645000D01*
X123559759Y-80489637D01*
X123759637Y-80289759D01*
X123916680Y-80054727D01*
X124024853Y-79793574D01*
X124080000Y-79516335D01*
X124080000Y-79233665D01*
X124024853Y-78956426D01*
X123916680Y-78695273D01*
X123759637Y-78460241D01*
X123559759Y-78260363D01*
X123327241Y-78105000D01*
X123559759Y-77949637D01*
X123601694Y-77907702D01*
X124916903Y-77907702D01*
X124988486Y-78151671D01*
X125243996Y-78272571D01*
X125518184Y-78341300D01*
X125800512Y-78355217D01*
X126080130Y-78313787D01*
X126346292Y-78218603D01*
X126471514Y-78151671D01*
X126543097Y-77907702D01*
X125730000Y-77094605D01*
X124916903Y-77907702D01*
X123601694Y-77907702D01*
X123759637Y-77749759D01*
X123916680Y-77514727D01*
X124024853Y-77253574D01*
X124078174Y-76985512D01*
X124289783Y-76985512D01*
X124331213Y-77265130D01*
X124426397Y-77531292D01*
X124493329Y-77656514D01*
X124737298Y-77728097D01*
X125550395Y-76915000D01*
X124737298Y-76101903D01*
X124493329Y-76173486D01*
X124372429Y-76428996D01*
X124303700Y-76703184D01*
X124289783Y-76985512D01*
X124078174Y-76985512D01*
X124080000Y-76976335D01*
X124080000Y-76693665D01*
X124024853Y-76416426D01*
X123916680Y-76155273D01*
X123761012Y-75922298D01*
X124916903Y-75922298D01*
X125730000Y-76735395D01*
X126543097Y-75922298D01*
X126471514Y-75678329D01*
X126216004Y-75557429D01*
X125941816Y-75488700D01*
X125659488Y-75474783D01*
X125379870Y-75516213D01*
X125113708Y-75611397D01*
X124988486Y-75678329D01*
X124916903Y-75922298D01*
X123761012Y-75922298D01*
X123759637Y-75920241D01*
X123559759Y-75720363D01*
X123324727Y-75563320D01*
X123063574Y-75455147D01*
X122786335Y-75400000D01*
X122503665Y-75400000D01*
X122226426Y-75455147D01*
X121965273Y-75563320D01*
X121730241Y-75720363D01*
X121530363Y-75920241D01*
X121373320Y-76155273D01*
X121265147Y-76416426D01*
X121210000Y-76693665D01*
X121210000Y-76976335D01*
X121265147Y-77253574D01*
X121373320Y-77514727D01*
X121530363Y-77749759D01*
X121730241Y-77949637D01*
X121962759Y-78105000D01*
X121730241Y-78260363D01*
X121530363Y-78460241D01*
X121373320Y-78695273D01*
X121265147Y-78956426D01*
X121210000Y-79233665D01*
X121210000Y-79516335D01*
X121265147Y-79793574D01*
X121373320Y-80054727D01*
X121530363Y-80289759D01*
X121730241Y-80489637D01*
X121962759Y-80645000D01*
X121730241Y-80800363D01*
X121530363Y-81000241D01*
X121373320Y-81235273D01*
X121265147Y-81496426D01*
X121210000Y-81773665D01*
X121210000Y-82056335D01*
X121265147Y-82333574D01*
X121373320Y-82594727D01*
X121530363Y-82829759D01*
X121730241Y-83029637D01*
X121962759Y-83185000D01*
X121730241Y-83340363D01*
X121530363Y-83540241D01*
X121373320Y-83775273D01*
X121265147Y-84036426D01*
X121210000Y-84313665D01*
X121210000Y-84596335D01*
X121265147Y-84873574D01*
X121373320Y-85134727D01*
X121530363Y-85369759D01*
X121730241Y-85569637D01*
X121962759Y-85725000D01*
X121730241Y-85880363D01*
X121530363Y-86080241D01*
X121373320Y-86315273D01*
X121265147Y-86576426D01*
X121210000Y-86853665D01*
X121210000Y-87136335D01*
X121265147Y-87413574D01*
X121373320Y-87674727D01*
X121530363Y-87909759D01*
X121730241Y-88109637D01*
X121962759Y-88265000D01*
X121730241Y-88420363D01*
X121530363Y-88620241D01*
X121373320Y-88855273D01*
X121265147Y-89116426D01*
X121210000Y-89393665D01*
X121210000Y-89676335D01*
X121265147Y-89953574D01*
X121373320Y-90214727D01*
X121530363Y-90449759D01*
X121730241Y-90649637D01*
X121962759Y-90805000D01*
X121730241Y-90960363D01*
X121530363Y-91160241D01*
X121426957Y-91315000D01*
X120687333Y-91315000D01*
X120650000Y-91311323D01*
X120612667Y-91315000D01*
X120501014Y-91325997D01*
X120357753Y-91369454D01*
X120225724Y-91440026D01*
X120109999Y-91534999D01*
X120086200Y-91563998D01*
X119503998Y-92146201D01*
X119475000Y-92169999D01*
X119451202Y-92198997D01*
X119451201Y-92198998D01*
X119380026Y-92285724D01*
X119309454Y-92417754D01*
X119307548Y-92424039D01*
X119265998Y-92561014D01*
X119260681Y-92615001D01*
X119251324Y-92710000D01*
X119255001Y-92747332D01*
X119255000Y-97752677D01*
X119251324Y-97790000D01*
X119255000Y-97827322D01*
X119255000Y-97827332D01*
X119265997Y-97938985D01*
X119286455Y-98006426D01*
X119309454Y-98082246D01*
X119380026Y-98214276D01*
X119419871Y-98262826D01*
X119474999Y-98330001D01*
X119504002Y-98353803D01*
X119783276Y-98633078D01*
X119825147Y-98843574D01*
X119933320Y-99104727D01*
X120090363Y-99339759D01*
X120290241Y-99539637D01*
X120525273Y-99696680D01*
X120786426Y-99804853D01*
X121063665Y-99860000D01*
X121346335Y-99860000D01*
X121623574Y-99804853D01*
X121884727Y-99696680D01*
X122119759Y-99539637D01*
X122319637Y-99339759D01*
X122476680Y-99104727D01*
X122584853Y-98843574D01*
X122640000Y-98566335D01*
X122640000Y-98283665D01*
X122584853Y-98006426D01*
X122476680Y-97745273D01*
X122319637Y-97510241D01*
X122242506Y-97433110D01*
X124923524Y-97433110D01*
X125044845Y-97663000D01*
X126238000Y-97663000D01*
X126238000Y-96469186D01*
X126008109Y-96348519D01*
X125733748Y-96445843D01*
X125483645Y-96594822D01*
X125267412Y-96789731D01*
X125093359Y-97023080D01*
X124968175Y-97285901D01*
X124923524Y-97433110D01*
X122242506Y-97433110D01*
X122119759Y-97310363D01*
X121884727Y-97153320D01*
X121623574Y-97045147D01*
X121346335Y-96990000D01*
X121063665Y-96990000D01*
X120786426Y-97045147D01*
X120775000Y-97049880D01*
X120775000Y-93024801D01*
X120964802Y-92835000D01*
X121426957Y-92835000D01*
X121530363Y-92989759D01*
X121728961Y-93188357D01*
X121720518Y-93189188D01*
X121600820Y-93225498D01*
X121490506Y-93284463D01*
X121393815Y-93363815D01*
X121314463Y-93460506D01*
X121255498Y-93570820D01*
X121219188Y-93690518D01*
X121206928Y-93815000D01*
X121206928Y-95415000D01*
X121219188Y-95539482D01*
X121255498Y-95659180D01*
X121314463Y-95769494D01*
X121393815Y-95866185D01*
X121490506Y-95945537D01*
X121600820Y-96004502D01*
X121720518Y-96040812D01*
X121845000Y-96053072D01*
X123445000Y-96053072D01*
X123569482Y-96040812D01*
X123689180Y-96004502D01*
X123799494Y-95945537D01*
X123896185Y-95866185D01*
X123975537Y-95769494D01*
X124034502Y-95659180D01*
X124070812Y-95539482D01*
X124083072Y-95415000D01*
X124083072Y-95375000D01*
X124511957Y-95375000D01*
X124615363Y-95529759D01*
X124815241Y-95729637D01*
X125050273Y-95886680D01*
X125311426Y-95994853D01*
X125588665Y-96050000D01*
X125871335Y-96050000D01*
X126148574Y-95994853D01*
X126409727Y-95886680D01*
X126644759Y-95729637D01*
X126844637Y-95529759D01*
X127001680Y-95294727D01*
X127109853Y-95033574D01*
X127165000Y-94756335D01*
X127165000Y-94473665D01*
X127109853Y-94196426D01*
X127001680Y-93935273D01*
X126844637Y-93700241D01*
X126644759Y-93500363D01*
X126409727Y-93343320D01*
X126148574Y-93235147D01*
X125871335Y-93180000D01*
X125588665Y-93180000D01*
X125311426Y-93235147D01*
X125050273Y-93343320D01*
X124815241Y-93500363D01*
X124615363Y-93700241D01*
X124511957Y-93855000D01*
X124083072Y-93855000D01*
X124083072Y-93815000D01*
X124070812Y-93690518D01*
X124034502Y-93570820D01*
X123975537Y-93460506D01*
X123896185Y-93363815D01*
X123799494Y-93284463D01*
X123689180Y-93225498D01*
X123569482Y-93189188D01*
X123561039Y-93188357D01*
X123759637Y-92989759D01*
X123916680Y-92754727D01*
X124024853Y-92493574D01*
X124080000Y-92216335D01*
X124080000Y-91933665D01*
X124024853Y-91656426D01*
X123916680Y-91395273D01*
X123759637Y-91160241D01*
X123559759Y-90960363D01*
X123327241Y-90805000D01*
X123559759Y-90649637D01*
X123759637Y-90449759D01*
X123809589Y-90375000D01*
X124511957Y-90375000D01*
X124615363Y-90529759D01*
X124815241Y-90729637D01*
X125050273Y-90886680D01*
X125311426Y-90994853D01*
X125588665Y-91050000D01*
X125871335Y-91050000D01*
X126148574Y-90994853D01*
X126409727Y-90886680D01*
X126644759Y-90729637D01*
X126844637Y-90529759D01*
X127001680Y-90294727D01*
X127109853Y-90033574D01*
X127165000Y-89756335D01*
X127165000Y-89473665D01*
X127109853Y-89196426D01*
X127038846Y-89025000D01*
X128956957Y-89025000D01*
X129060363Y-89179759D01*
X129260241Y-89379637D01*
X129495273Y-89536680D01*
X129756426Y-89644853D01*
X130033665Y-89700000D01*
X130316335Y-89700000D01*
X130593574Y-89644853D01*
X130854727Y-89536680D01*
X131089759Y-89379637D01*
X131289637Y-89179759D01*
X131446680Y-88944727D01*
X131554853Y-88683574D01*
X131610000Y-88406335D01*
X131610000Y-88123665D01*
X131554853Y-87846426D01*
X131446680Y-87585273D01*
X131289637Y-87350241D01*
X131089759Y-87150363D01*
X130854727Y-86993320D01*
X130593574Y-86885147D01*
X130316335Y-86830000D01*
X130033665Y-86830000D01*
X129756426Y-86885147D01*
X129495273Y-86993320D01*
X129260241Y-87150363D01*
X129060363Y-87350241D01*
X128956957Y-87505000D01*
X127314802Y-87505000D01*
X126293804Y-86484003D01*
X126270001Y-86454999D01*
X126154276Y-86360026D01*
X126022247Y-86289454D01*
X125878986Y-86245997D01*
X125767333Y-86235000D01*
X125767322Y-86235000D01*
X125730000Y-86231324D01*
X125692678Y-86235000D01*
X123863043Y-86235000D01*
X123759637Y-86080241D01*
X123559759Y-85880363D01*
X123327241Y-85725000D01*
X123559759Y-85569637D01*
X123759637Y-85369759D01*
X123863043Y-85215000D01*
X125692678Y-85215000D01*
X125730000Y-85218676D01*
X125767322Y-85215000D01*
X125767333Y-85215000D01*
X125878986Y-85204003D01*
X126022247Y-85160546D01*
X126154276Y-85089974D01*
X126270001Y-84995001D01*
X126293804Y-84965997D01*
X127234802Y-84025000D01*
X128956957Y-84025000D01*
X129060363Y-84179759D01*
X129260241Y-84379637D01*
X129495273Y-84536680D01*
X129756426Y-84644853D01*
X130033665Y-84700000D01*
X130316335Y-84700000D01*
X130593574Y-84644853D01*
X130854727Y-84536680D01*
X131089759Y-84379637D01*
X131289637Y-84179759D01*
X131446680Y-83944727D01*
X131554853Y-83683574D01*
X131610000Y-83406335D01*
X131610000Y-83123665D01*
X131554853Y-82846426D01*
X131446680Y-82585273D01*
X131289637Y-82350241D01*
X131089759Y-82150363D01*
X130924589Y-82040000D01*
X131765199Y-82040000D01*
X131955001Y-82229803D01*
X131955000Y-96840198D01*
X131765199Y-97030000D01*
X130183178Y-97030000D01*
X130058475Y-96843368D01*
X129851632Y-96636525D01*
X129608411Y-96474010D01*
X129338158Y-96362068D01*
X129051260Y-96305000D01*
X128758740Y-96305000D01*
X128471842Y-96362068D01*
X128201589Y-96474010D01*
X127958368Y-96636525D01*
X127751525Y-96843368D01*
X127633900Y-97019406D01*
X127462588Y-96789731D01*
X127246355Y-96594822D01*
X126996252Y-96445843D01*
X126721891Y-96348519D01*
X126492000Y-96469186D01*
X126492000Y-97663000D01*
X126512000Y-97663000D01*
X126512000Y-97917000D01*
X126492000Y-97917000D01*
X126492000Y-97937000D01*
X126238000Y-97937000D01*
X126238000Y-97917000D01*
X125044845Y-97917000D01*
X124923524Y-98146890D01*
X124968175Y-98294099D01*
X125093359Y-98556920D01*
X125267412Y-98790269D01*
X125483645Y-98985178D01*
X125600534Y-99054805D01*
X125418368Y-99176525D01*
X125211525Y-99383368D01*
X125049010Y-99626589D01*
X124937068Y-99896842D01*
X124880000Y-100183740D01*
X124880000Y-100476260D01*
X124937068Y-100763158D01*
X125049010Y-101033411D01*
X125211525Y-101276632D01*
X125418368Y-101483475D01*
X125592760Y-101600000D01*
X125418368Y-101716525D01*
X125211525Y-101923368D01*
X125170344Y-101985000D01*
X117841579Y-101985000D01*
X117090000Y-101233422D01*
X117090000Y-99559521D01*
X117119759Y-99539637D01*
X117319637Y-99339759D01*
X117476680Y-99104727D01*
X117522521Y-98994057D01*
X118070050Y-98446529D01*
X118103817Y-98418817D01*
X118157177Y-98353799D01*
X118214411Y-98284059D01*
X118296589Y-98130314D01*
X118347195Y-97963490D01*
X118349608Y-97938986D01*
X118360000Y-97833477D01*
X118360000Y-97833469D01*
X118364281Y-97790000D01*
X118360000Y-97746531D01*
X118360000Y-68122350D01*
X118384774Y-68246898D01*
X118462795Y-68435256D01*
X118576063Y-68604774D01*
X118720226Y-68748937D01*
X118889744Y-68862205D01*
X119078102Y-68940226D01*
X119278061Y-68980000D01*
X119481939Y-68980000D01*
X119681898Y-68940226D01*
X119870256Y-68862205D01*
X120039774Y-68748937D01*
X120083711Y-68705000D01*
X128201289Y-68705000D01*
X128245226Y-68748937D01*
X128414744Y-68862205D01*
X128603102Y-68940226D01*
X128803061Y-68980000D01*
X129006939Y-68980000D01*
X129206898Y-68940226D01*
X129395256Y-68862205D01*
X129564774Y-68748937D01*
X129708937Y-68604774D01*
X129822205Y-68435256D01*
X129900226Y-68246898D01*
X129940000Y-68046939D01*
X129940000Y-67843061D01*
X129900226Y-67643102D01*
X129822205Y-67454744D01*
X129708937Y-67285226D01*
X129564774Y-67141063D01*
X129395256Y-67027795D01*
X129206898Y-66949774D01*
X129006939Y-66910000D01*
X128803061Y-66910000D01*
X128603102Y-66949774D01*
X128414744Y-67027795D01*
X128245226Y-67141063D01*
X128201289Y-67185000D01*
X120083711Y-67185000D01*
X120039774Y-67141063D01*
X119870256Y-67027795D01*
X119681898Y-66949774D01*
X119481939Y-66910000D01*
X119278061Y-66910000D01*
X119078102Y-66949774D01*
X118889744Y-67027795D01*
X118720226Y-67141063D01*
X118576063Y-67285226D01*
X118462795Y-67454744D01*
X118384774Y-67643102D01*
X118360000Y-67767650D01*
X118360000Y-65582350D01*
X118384774Y-65706898D01*
X118462795Y-65895256D01*
X118576063Y-66064774D01*
X118720226Y-66208937D01*
X118889744Y-66322205D01*
X119078102Y-66400226D01*
X119278061Y-66440000D01*
X119481939Y-66440000D01*
X119681898Y-66400226D01*
X119870256Y-66322205D01*
X120039774Y-66208937D01*
X120083711Y-66165000D01*
X128201289Y-66165000D01*
X128245226Y-66208937D01*
X128414744Y-66322205D01*
X128603102Y-66400226D01*
X128803061Y-66440000D01*
X129006939Y-66440000D01*
X129206898Y-66400226D01*
X129395256Y-66322205D01*
X129564774Y-66208937D01*
X129708937Y-66064774D01*
X129822205Y-65895256D01*
X129900226Y-65706898D01*
X129940000Y-65506939D01*
X129940000Y-65303061D01*
X129900226Y-65103102D01*
X129822205Y-64914744D01*
X129708937Y-64745226D01*
X129564774Y-64601063D01*
X129395256Y-64487795D01*
X129206898Y-64409774D01*
X129006939Y-64370000D01*
X128803061Y-64370000D01*
X128603102Y-64409774D01*
X128414744Y-64487795D01*
X128245226Y-64601063D01*
X128201289Y-64645000D01*
X120083711Y-64645000D01*
X120039774Y-64601063D01*
X119870256Y-64487795D01*
X119681898Y-64409774D01*
X119481939Y-64370000D01*
X119278061Y-64370000D01*
X119078102Y-64409774D01*
X118889744Y-64487795D01*
X118720226Y-64601063D01*
X118576063Y-64745226D01*
X118462795Y-64914744D01*
X118384774Y-65103102D01*
X118360000Y-65227650D01*
X118360000Y-62596578D01*
X118476579Y-62480000D01*
X125865479Y-62480000D01*
X125885363Y-62509759D01*
X126085241Y-62709637D01*
X126320273Y-62866680D01*
X126581426Y-62974853D01*
X126858665Y-63030000D01*
X127141335Y-63030000D01*
X127418574Y-62974853D01*
X127679727Y-62866680D01*
X127914759Y-62709637D01*
X128114637Y-62509759D01*
X128271680Y-62274727D01*
X128379853Y-62013574D01*
X128435000Y-61736335D01*
X128435000Y-61453665D01*
X128379853Y-61176426D01*
X128271680Y-60915273D01*
X128114637Y-60680241D01*
X127914759Y-60480363D01*
X127679727Y-60323320D01*
X127418574Y-60215147D01*
X127141335Y-60160000D01*
X126858665Y-60160000D01*
X126581426Y-60215147D01*
X126320273Y-60323320D01*
X126085241Y-60480363D01*
X125885363Y-60680241D01*
X125865479Y-60710000D01*
X118153469Y-60710000D01*
X118110000Y-60705719D01*
X118066531Y-60710000D01*
X118066523Y-60710000D01*
X117936510Y-60722805D01*
X117769686Y-60773411D01*
X117615941Y-60855589D01*
X117514953Y-60938468D01*
X117514951Y-60938470D01*
X117481183Y-60966183D01*
X117453470Y-60999951D01*
X116879951Y-61573471D01*
X116846184Y-61601183D01*
X116818471Y-61634951D01*
X116818468Y-61634954D01*
X116735590Y-61735941D01*
X116653412Y-61889687D01*
X116602805Y-62056510D01*
X116585719Y-62230000D01*
X116590001Y-62273479D01*
X116590000Y-96923421D01*
X115910000Y-96243422D01*
X115910000Y-95749521D01*
X115939759Y-95729637D01*
X116139637Y-95529759D01*
X116296680Y-95294727D01*
X116404853Y-95033574D01*
X116460000Y-94756335D01*
X116460000Y-94473665D01*
X116404853Y-94196426D01*
X116296680Y-93935273D01*
X116139637Y-93700241D01*
X115939759Y-93500363D01*
X115704727Y-93343320D01*
X115694135Y-93338933D01*
X115880131Y-93227385D01*
X116088519Y-93038414D01*
X116256037Y-92812420D01*
X116376246Y-92558087D01*
X116416904Y-92424039D01*
X116294915Y-92202000D01*
X115152000Y-92202000D01*
X115152000Y-92222000D01*
X114898000Y-92222000D01*
X114898000Y-92202000D01*
X113755085Y-92202000D01*
X113633096Y-92424039D01*
X113673754Y-92558087D01*
X113793963Y-92812420D01*
X113961481Y-93038414D01*
X114169869Y-93227385D01*
X114355865Y-93338933D01*
X114345273Y-93343320D01*
X114110241Y-93500363D01*
X113910363Y-93700241D01*
X113890479Y-93730000D01*
X112259521Y-93730000D01*
X112239637Y-93700241D01*
X112039759Y-93500363D01*
X111804727Y-93343320D01*
X111543574Y-93235147D01*
X111266335Y-93180000D01*
X110983665Y-93180000D01*
X110706426Y-93235147D01*
X110445273Y-93343320D01*
X110210241Y-93500363D01*
X110010363Y-93700241D01*
X109853320Y-93935273D01*
X109745147Y-94196426D01*
X109690000Y-94473665D01*
X109690000Y-94756335D01*
X109745147Y-95033574D01*
X109853320Y-95294727D01*
X110010363Y-95529759D01*
X110210241Y-95729637D01*
X110445273Y-95886680D01*
X110706426Y-95994853D01*
X110983665Y-96050000D01*
X111266335Y-96050000D01*
X111543574Y-95994853D01*
X111804727Y-95886680D01*
X112039759Y-95729637D01*
X112239637Y-95529759D01*
X112259521Y-95500000D01*
X113890479Y-95500000D01*
X113910363Y-95529759D01*
X114110241Y-95729637D01*
X114140001Y-95749522D01*
X114140001Y-96566521D01*
X114135719Y-96610000D01*
X114152805Y-96783490D01*
X114203412Y-96950313D01*
X114285590Y-97104059D01*
X114368468Y-97205046D01*
X114368471Y-97205049D01*
X114396184Y-97238817D01*
X114429951Y-97266529D01*
X114703422Y-97540000D01*
X98156579Y-97540000D01*
X96770000Y-96153422D01*
X96770000Y-90640000D01*
X104606928Y-90640000D01*
X104606928Y-92240000D01*
X104619188Y-92364482D01*
X104655498Y-92484180D01*
X104714463Y-92594494D01*
X104793815Y-92691185D01*
X104890506Y-92770537D01*
X105000820Y-92829502D01*
X105120518Y-92865812D01*
X105245000Y-92878072D01*
X106845000Y-92878072D01*
X106969482Y-92865812D01*
X107089180Y-92829502D01*
X107199494Y-92770537D01*
X107296185Y-92691185D01*
X107375537Y-92594494D01*
X107434502Y-92484180D01*
X107470812Y-92364482D01*
X107483072Y-92240000D01*
X107483072Y-92200000D01*
X107912678Y-92200000D01*
X107950000Y-92203676D01*
X107987322Y-92200000D01*
X107987333Y-92200000D01*
X108098986Y-92189003D01*
X108242247Y-92145546D01*
X108374276Y-92074974D01*
X108490001Y-91980001D01*
X108513803Y-91950998D01*
X109096004Y-91368798D01*
X109125001Y-91345001D01*
X109219974Y-91229276D01*
X109290546Y-91097247D01*
X109334003Y-90953986D01*
X109345000Y-90842333D01*
X109345000Y-90842332D01*
X109348677Y-90805000D01*
X109345000Y-90767667D01*
X109345000Y-90607702D01*
X110311903Y-90607702D01*
X110383486Y-90851671D01*
X110638996Y-90972571D01*
X110913184Y-91041300D01*
X111195512Y-91055217D01*
X111475130Y-91013787D01*
X111741292Y-90918603D01*
X111866514Y-90851671D01*
X111938097Y-90607702D01*
X111125000Y-89794605D01*
X110311903Y-90607702D01*
X109345000Y-90607702D01*
X109345000Y-89849801D01*
X109693882Y-89500919D01*
X109684783Y-89685512D01*
X109726213Y-89965130D01*
X109821397Y-90231292D01*
X109888329Y-90356514D01*
X110132298Y-90428097D01*
X110945395Y-89615000D01*
X111304605Y-89615000D01*
X112117702Y-90428097D01*
X112361671Y-90356514D01*
X112482571Y-90101004D01*
X112551300Y-89826816D01*
X112565217Y-89544488D01*
X112523787Y-89264870D01*
X112428603Y-88998708D01*
X112361671Y-88873486D01*
X112117702Y-88801903D01*
X111304605Y-89615000D01*
X110945395Y-89615000D01*
X110931253Y-89600858D01*
X111110858Y-89421253D01*
X111125000Y-89435395D01*
X111938097Y-88622298D01*
X111866514Y-88378329D01*
X111611004Y-88257429D01*
X111336816Y-88188700D01*
X111054488Y-88174783D01*
X110774870Y-88216213D01*
X110617954Y-88272329D01*
X110618676Y-88265001D01*
X110615000Y-88227678D01*
X110615000Y-80324801D01*
X110804802Y-80135000D01*
X113806957Y-80135000D01*
X113910363Y-80289759D01*
X114110241Y-80489637D01*
X114342759Y-80645000D01*
X114110241Y-80800363D01*
X113910363Y-81000241D01*
X113753320Y-81235273D01*
X113645147Y-81496426D01*
X113590000Y-81773665D01*
X113590000Y-82056335D01*
X113645147Y-82333574D01*
X113753320Y-82594727D01*
X113910363Y-82829759D01*
X114110241Y-83029637D01*
X114342759Y-83185000D01*
X114110241Y-83340363D01*
X113910363Y-83540241D01*
X113753320Y-83775273D01*
X113645147Y-84036426D01*
X113590000Y-84313665D01*
X113590000Y-84596335D01*
X113645147Y-84873574D01*
X113753320Y-85134727D01*
X113910363Y-85369759D01*
X114110241Y-85569637D01*
X114342759Y-85725000D01*
X114110241Y-85880363D01*
X113910363Y-86080241D01*
X113753320Y-86315273D01*
X113645147Y-86576426D01*
X113590000Y-86853665D01*
X113590000Y-87136335D01*
X113645147Y-87413574D01*
X113753320Y-87674727D01*
X113910363Y-87909759D01*
X114110241Y-88109637D01*
X114342759Y-88265000D01*
X114110241Y-88420363D01*
X113910363Y-88620241D01*
X113753320Y-88855273D01*
X113645147Y-89116426D01*
X113590000Y-89393665D01*
X113590000Y-89676335D01*
X113645147Y-89953574D01*
X113753320Y-90214727D01*
X113910363Y-90449759D01*
X114110241Y-90649637D01*
X114345273Y-90806680D01*
X114355865Y-90811067D01*
X114169869Y-90922615D01*
X113961481Y-91111586D01*
X113793963Y-91337580D01*
X113673754Y-91591913D01*
X113633096Y-91725961D01*
X113755085Y-91948000D01*
X114898000Y-91948000D01*
X114898000Y-91928000D01*
X115152000Y-91928000D01*
X115152000Y-91948000D01*
X116294915Y-91948000D01*
X116416904Y-91725961D01*
X116376246Y-91591913D01*
X116256037Y-91337580D01*
X116088519Y-91111586D01*
X115880131Y-90922615D01*
X115694135Y-90811067D01*
X115704727Y-90806680D01*
X115939759Y-90649637D01*
X116139637Y-90449759D01*
X116296680Y-90214727D01*
X116404853Y-89953574D01*
X116460000Y-89676335D01*
X116460000Y-89393665D01*
X116404853Y-89116426D01*
X116296680Y-88855273D01*
X116139637Y-88620241D01*
X115939759Y-88420363D01*
X115707241Y-88265000D01*
X115939759Y-88109637D01*
X116139637Y-87909759D01*
X116296680Y-87674727D01*
X116404853Y-87413574D01*
X116460000Y-87136335D01*
X116460000Y-86853665D01*
X116404853Y-86576426D01*
X116296680Y-86315273D01*
X116139637Y-86080241D01*
X115939759Y-85880363D01*
X115707241Y-85725000D01*
X115939759Y-85569637D01*
X116139637Y-85369759D01*
X116296680Y-85134727D01*
X116404853Y-84873574D01*
X116460000Y-84596335D01*
X116460000Y-84313665D01*
X116404853Y-84036426D01*
X116296680Y-83775273D01*
X116139637Y-83540241D01*
X115939759Y-83340363D01*
X115707241Y-83185000D01*
X115939759Y-83029637D01*
X116139637Y-82829759D01*
X116296680Y-82594727D01*
X116404853Y-82333574D01*
X116460000Y-82056335D01*
X116460000Y-81773665D01*
X116404853Y-81496426D01*
X116296680Y-81235273D01*
X116139637Y-81000241D01*
X115939759Y-80800363D01*
X115707241Y-80645000D01*
X115939759Y-80489637D01*
X116139637Y-80289759D01*
X116296680Y-80054727D01*
X116404853Y-79793574D01*
X116460000Y-79516335D01*
X116460000Y-79233665D01*
X116404853Y-78956426D01*
X116296680Y-78695273D01*
X116139637Y-78460241D01*
X115939759Y-78260363D01*
X115707241Y-78105000D01*
X115939759Y-77949637D01*
X116139637Y-77749759D01*
X116296680Y-77514727D01*
X116404853Y-77253574D01*
X116460000Y-76976335D01*
X116460000Y-76693665D01*
X116404853Y-76416426D01*
X116296680Y-76155273D01*
X116139637Y-75920241D01*
X115939759Y-75720363D01*
X115704727Y-75563320D01*
X115443574Y-75455147D01*
X115166335Y-75400000D01*
X114883665Y-75400000D01*
X114606426Y-75455147D01*
X114345273Y-75563320D01*
X114110241Y-75720363D01*
X113910363Y-75920241D01*
X113806957Y-76075000D01*
X109257333Y-76075000D01*
X109220000Y-76071323D01*
X109182667Y-76075000D01*
X109071014Y-76085997D01*
X108927753Y-76129454D01*
X108795724Y-76200026D01*
X108679999Y-76294999D01*
X108656200Y-76323998D01*
X108073998Y-76906201D01*
X108045000Y-76929999D01*
X108021202Y-76958997D01*
X108021201Y-76958998D01*
X107950026Y-77045724D01*
X107879454Y-77177754D01*
X107877548Y-77184039D01*
X107837933Y-77314637D01*
X107835998Y-77321015D01*
X107821324Y-77470000D01*
X107825001Y-77507332D01*
X107825000Y-87950198D01*
X107635199Y-88140000D01*
X107263043Y-88140000D01*
X107159637Y-87985241D01*
X106959759Y-87785363D01*
X106727241Y-87630000D01*
X106959759Y-87474637D01*
X107159637Y-87274759D01*
X107316680Y-87039727D01*
X107424853Y-86778574D01*
X107480000Y-86501335D01*
X107480000Y-86218665D01*
X107424853Y-85941426D01*
X107316680Y-85680273D01*
X107159637Y-85445241D01*
X106959759Y-85245363D01*
X106724727Y-85088320D01*
X106714135Y-85083933D01*
X106900131Y-84972385D01*
X107108519Y-84783414D01*
X107276037Y-84557420D01*
X107396246Y-84303087D01*
X107436904Y-84169039D01*
X107314915Y-83947000D01*
X106172000Y-83947000D01*
X106172000Y-83967000D01*
X105918000Y-83967000D01*
X105918000Y-83947000D01*
X104775085Y-83947000D01*
X104653096Y-84169039D01*
X104693754Y-84303087D01*
X104813963Y-84557420D01*
X104981481Y-84783414D01*
X105189869Y-84972385D01*
X105375865Y-85083933D01*
X105365273Y-85088320D01*
X105130241Y-85245363D01*
X104930363Y-85445241D01*
X104773320Y-85680273D01*
X104665147Y-85941426D01*
X104610000Y-86218665D01*
X104610000Y-86501335D01*
X104665147Y-86778574D01*
X104773320Y-87039727D01*
X104930363Y-87274759D01*
X105130241Y-87474637D01*
X105362759Y-87630000D01*
X105130241Y-87785363D01*
X104930363Y-87985241D01*
X104773320Y-88220273D01*
X104665147Y-88481426D01*
X104610000Y-88758665D01*
X104610000Y-89041335D01*
X104665147Y-89318574D01*
X104773320Y-89579727D01*
X104930363Y-89814759D01*
X105128961Y-90013357D01*
X105120518Y-90014188D01*
X105000820Y-90050498D01*
X104890506Y-90109463D01*
X104793815Y-90188815D01*
X104714463Y-90285506D01*
X104655498Y-90395820D01*
X104619188Y-90515518D01*
X104606928Y-90640000D01*
X96770000Y-90640000D01*
X96770000Y-85133465D01*
X96774281Y-85089999D01*
X96770000Y-85046533D01*
X96770000Y-85046523D01*
X96757195Y-84916510D01*
X96706589Y-84749687D01*
X96624411Y-84595941D01*
X96586707Y-84549999D01*
X96541532Y-84494953D01*
X96541530Y-84494951D01*
X96513817Y-84461183D01*
X96480050Y-84433471D01*
X95271534Y-83224956D01*
X95243817Y-83191183D01*
X95109059Y-83080589D01*
X94955313Y-82998411D01*
X94788490Y-82947805D01*
X94658477Y-82935000D01*
X94658469Y-82935000D01*
X94615000Y-82930719D01*
X94571531Y-82935000D01*
X91939521Y-82935000D01*
X91919637Y-82905241D01*
X91719759Y-82705363D01*
X91487241Y-82550000D01*
X91719759Y-82394637D01*
X91919637Y-82194759D01*
X92076680Y-81959727D01*
X92184853Y-81698574D01*
X92240000Y-81421335D01*
X92240000Y-81138665D01*
X92184853Y-80861426D01*
X92076680Y-80600273D01*
X91919637Y-80365241D01*
X91719759Y-80165363D01*
X91487241Y-80010000D01*
X91719759Y-79854637D01*
X91919637Y-79654759D01*
X92076680Y-79419727D01*
X92184853Y-79158574D01*
X92240000Y-78881335D01*
X92240000Y-78598665D01*
X92184853Y-78321426D01*
X92076680Y-78060273D01*
X91919637Y-77825241D01*
X91719759Y-77625363D01*
X91487241Y-77470000D01*
X91719759Y-77314637D01*
X91919637Y-77114759D01*
X92076680Y-76879727D01*
X92184853Y-76618574D01*
X92240000Y-76341335D01*
X92240000Y-76058665D01*
X92184853Y-75781426D01*
X92076680Y-75520273D01*
X91919637Y-75285241D01*
X91719759Y-75085363D01*
X91487241Y-74930000D01*
X91719759Y-74774637D01*
X91919637Y-74574759D01*
X92076680Y-74339727D01*
X92184853Y-74078574D01*
X92240000Y-73801335D01*
X92240000Y-73518665D01*
X92184853Y-73241426D01*
X92076680Y-72980273D01*
X91919637Y-72745241D01*
X91719759Y-72545363D01*
X91487241Y-72390000D01*
X91719759Y-72234637D01*
X91919637Y-72034759D01*
X92076680Y-71799727D01*
X92184853Y-71538574D01*
X92240000Y-71261335D01*
X92240000Y-70978665D01*
X92184853Y-70701426D01*
X92076680Y-70440273D01*
X91919637Y-70205241D01*
X91719759Y-70005363D01*
X91487241Y-69850000D01*
X91719759Y-69694637D01*
X91919637Y-69494759D01*
X92076680Y-69259727D01*
X92184853Y-68998574D01*
X92240000Y-68721335D01*
X92240000Y-68438665D01*
X92184853Y-68161426D01*
X92076680Y-67900273D01*
X91919637Y-67665241D01*
X91719759Y-67465363D01*
X91487241Y-67310000D01*
X91719759Y-67154637D01*
X91919637Y-66954759D01*
X92076680Y-66719727D01*
X92184853Y-66458574D01*
X92240000Y-66181335D01*
X92240000Y-65898665D01*
X92184853Y-65621426D01*
X92076680Y-65360273D01*
X91919637Y-65125241D01*
X91719759Y-64925363D01*
X91487241Y-64770000D01*
X91719759Y-64614637D01*
X91919637Y-64414759D01*
X92076680Y-64179727D01*
X92184853Y-63918574D01*
X92240000Y-63641335D01*
X92240000Y-63358665D01*
X92184853Y-63081426D01*
X92076680Y-62820273D01*
X91919637Y-62585241D01*
X91719759Y-62385363D01*
X91487241Y-62230000D01*
X91719759Y-62074637D01*
X91919637Y-61874759D01*
X92076680Y-61639727D01*
X92184853Y-61378574D01*
X92240000Y-61101335D01*
X92240000Y-60818665D01*
X92184853Y-60541426D01*
X92076680Y-60280273D01*
X91919637Y-60045241D01*
X91719759Y-59845363D01*
X91487241Y-59690000D01*
X91719759Y-59534637D01*
X91919637Y-59334759D01*
X92076680Y-59099727D01*
X92184853Y-58838574D01*
X92240000Y-58561335D01*
X92240000Y-58278665D01*
X92184853Y-58001426D01*
X92076680Y-57740273D01*
X91919637Y-57505241D01*
X91719759Y-57305363D01*
X91487241Y-57150000D01*
X91719759Y-56994637D01*
X91919637Y-56794759D01*
X92076680Y-56559727D01*
X92184853Y-56298574D01*
X92240000Y-56021335D01*
X92240000Y-55738665D01*
X104610000Y-55738665D01*
X104610000Y-56021335D01*
X104665147Y-56298574D01*
X104773320Y-56559727D01*
X104930363Y-56794759D01*
X105130241Y-56994637D01*
X105362759Y-57150000D01*
X105130241Y-57305363D01*
X104930363Y-57505241D01*
X104773320Y-57740273D01*
X104665147Y-58001426D01*
X104610000Y-58278665D01*
X104610000Y-58561335D01*
X104665147Y-58838574D01*
X104773320Y-59099727D01*
X104930363Y-59334759D01*
X105130241Y-59534637D01*
X105362759Y-59690000D01*
X105130241Y-59845363D01*
X104930363Y-60045241D01*
X104773320Y-60280273D01*
X104665147Y-60541426D01*
X104610000Y-60818665D01*
X104610000Y-61101335D01*
X104665147Y-61378574D01*
X104773320Y-61639727D01*
X104930363Y-61874759D01*
X105130241Y-62074637D01*
X105362759Y-62230000D01*
X105130241Y-62385363D01*
X104930363Y-62585241D01*
X104773320Y-62820273D01*
X104665147Y-63081426D01*
X104610000Y-63358665D01*
X104610000Y-63641335D01*
X104665147Y-63918574D01*
X104773320Y-64179727D01*
X104930363Y-64414759D01*
X105130241Y-64614637D01*
X105362759Y-64770000D01*
X105130241Y-64925363D01*
X104930363Y-65125241D01*
X104773320Y-65360273D01*
X104665147Y-65621426D01*
X104610000Y-65898665D01*
X104610000Y-66181335D01*
X104665147Y-66458574D01*
X104773320Y-66719727D01*
X104930363Y-66954759D01*
X105130241Y-67154637D01*
X105362759Y-67310000D01*
X105130241Y-67465363D01*
X104930363Y-67665241D01*
X104773320Y-67900273D01*
X104665147Y-68161426D01*
X104610000Y-68438665D01*
X104610000Y-68721335D01*
X104665147Y-68998574D01*
X104773320Y-69259727D01*
X104930363Y-69494759D01*
X105130241Y-69694637D01*
X105362759Y-69850000D01*
X105130241Y-70005363D01*
X104930363Y-70205241D01*
X104773320Y-70440273D01*
X104665147Y-70701426D01*
X104610000Y-70978665D01*
X104610000Y-71261335D01*
X104665147Y-71538574D01*
X104773320Y-71799727D01*
X104930363Y-72034759D01*
X105130241Y-72234637D01*
X105362759Y-72390000D01*
X105130241Y-72545363D01*
X104930363Y-72745241D01*
X104773320Y-72980273D01*
X104665147Y-73241426D01*
X104610000Y-73518665D01*
X104610000Y-73801335D01*
X104665147Y-74078574D01*
X104773320Y-74339727D01*
X104930363Y-74574759D01*
X105130241Y-74774637D01*
X105362759Y-74930000D01*
X105130241Y-75085363D01*
X104930363Y-75285241D01*
X104773320Y-75520273D01*
X104665147Y-75781426D01*
X104610000Y-76058665D01*
X104610000Y-76341335D01*
X104665147Y-76618574D01*
X104773320Y-76879727D01*
X104930363Y-77114759D01*
X105130241Y-77314637D01*
X105362759Y-77470000D01*
X105130241Y-77625363D01*
X104930363Y-77825241D01*
X104773320Y-78060273D01*
X104665147Y-78321426D01*
X104610000Y-78598665D01*
X104610000Y-78881335D01*
X104665147Y-79158574D01*
X104773320Y-79419727D01*
X104930363Y-79654759D01*
X105130241Y-79854637D01*
X105362759Y-80010000D01*
X105130241Y-80165363D01*
X104930363Y-80365241D01*
X104773320Y-80600273D01*
X104665147Y-80861426D01*
X104610000Y-81138665D01*
X104610000Y-81421335D01*
X104665147Y-81698574D01*
X104773320Y-81959727D01*
X104930363Y-82194759D01*
X105130241Y-82394637D01*
X105365273Y-82551680D01*
X105375865Y-82556067D01*
X105189869Y-82667615D01*
X104981481Y-82856586D01*
X104813963Y-83082580D01*
X104693754Y-83336913D01*
X104653096Y-83470961D01*
X104775085Y-83693000D01*
X105918000Y-83693000D01*
X105918000Y-83673000D01*
X106172000Y-83673000D01*
X106172000Y-83693000D01*
X107314915Y-83693000D01*
X107436904Y-83470961D01*
X107396246Y-83336913D01*
X107276037Y-83082580D01*
X107108519Y-82856586D01*
X106900131Y-82667615D01*
X106714135Y-82556067D01*
X106724727Y-82551680D01*
X106959759Y-82394637D01*
X107159637Y-82194759D01*
X107316680Y-81959727D01*
X107424853Y-81698574D01*
X107480000Y-81421335D01*
X107480000Y-81138665D01*
X107424853Y-80861426D01*
X107316680Y-80600273D01*
X107159637Y-80365241D01*
X106959759Y-80165363D01*
X106727241Y-80010000D01*
X106959759Y-79854637D01*
X107159637Y-79654759D01*
X107316680Y-79419727D01*
X107424853Y-79158574D01*
X107480000Y-78881335D01*
X107480000Y-78598665D01*
X107424853Y-78321426D01*
X107316680Y-78060273D01*
X107159637Y-77825241D01*
X106959759Y-77625363D01*
X106727241Y-77470000D01*
X106959759Y-77314637D01*
X107159637Y-77114759D01*
X107316680Y-76879727D01*
X107424853Y-76618574D01*
X107480000Y-76341335D01*
X107480000Y-76058665D01*
X107424853Y-75781426D01*
X107316680Y-75520273D01*
X107159637Y-75285241D01*
X106959759Y-75085363D01*
X106727241Y-74930000D01*
X106959759Y-74774637D01*
X107159637Y-74574759D01*
X107316680Y-74339727D01*
X107424853Y-74078574D01*
X107480000Y-73801335D01*
X107480000Y-73518665D01*
X107424853Y-73241426D01*
X107316680Y-72980273D01*
X107159637Y-72745241D01*
X106959759Y-72545363D01*
X106727241Y-72390000D01*
X106959759Y-72234637D01*
X107159637Y-72034759D01*
X107316680Y-71799727D01*
X107424853Y-71538574D01*
X107480000Y-71261335D01*
X107480000Y-70978665D01*
X107424853Y-70701426D01*
X107316680Y-70440273D01*
X107159637Y-70205241D01*
X106959759Y-70005363D01*
X106727241Y-69850000D01*
X106959759Y-69694637D01*
X107159637Y-69494759D01*
X107316680Y-69259727D01*
X107424853Y-68998574D01*
X107480000Y-68721335D01*
X107480000Y-68438665D01*
X107424853Y-68161426D01*
X107316680Y-67900273D01*
X107159637Y-67665241D01*
X106959759Y-67465363D01*
X106727241Y-67310000D01*
X106959759Y-67154637D01*
X107159637Y-66954759D01*
X107316680Y-66719727D01*
X107424853Y-66458574D01*
X107480000Y-66181335D01*
X107480000Y-65898665D01*
X107424853Y-65621426D01*
X107316680Y-65360273D01*
X107159637Y-65125241D01*
X106959759Y-64925363D01*
X106727241Y-64770000D01*
X106959759Y-64614637D01*
X107159637Y-64414759D01*
X107263043Y-64260000D01*
X112992678Y-64260000D01*
X113030000Y-64263676D01*
X113067322Y-64260000D01*
X113067333Y-64260000D01*
X113178986Y-64249003D01*
X113322247Y-64205546D01*
X113454276Y-64134974D01*
X113570001Y-64040001D01*
X113593804Y-64010997D01*
X114811004Y-62793798D01*
X114840001Y-62770001D01*
X114934974Y-62654276D01*
X115005546Y-62522247D01*
X115049003Y-62378986D01*
X115060000Y-62267333D01*
X115060000Y-62267324D01*
X115063676Y-62230001D01*
X115060000Y-62192678D01*
X115060000Y-57048061D01*
X118345000Y-57048061D01*
X118345000Y-57251939D01*
X118384774Y-57451898D01*
X118462795Y-57640256D01*
X118559510Y-57785000D01*
X118462795Y-57929744D01*
X118384774Y-58118102D01*
X118345000Y-58318061D01*
X118345000Y-58521939D01*
X118384774Y-58721898D01*
X118462795Y-58910256D01*
X118576063Y-59079774D01*
X118720226Y-59223937D01*
X118889744Y-59337205D01*
X119078102Y-59415226D01*
X119278061Y-59455000D01*
X119481939Y-59455000D01*
X119681898Y-59415226D01*
X119870256Y-59337205D01*
X120039774Y-59223937D01*
X120083711Y-59180000D01*
X140297678Y-59180000D01*
X140335000Y-59183676D01*
X140372322Y-59180000D01*
X140372333Y-59180000D01*
X140483986Y-59169003D01*
X140627247Y-59125546D01*
X140759276Y-59054974D01*
X140875001Y-58960001D01*
X140898803Y-58930998D01*
X141521004Y-58308798D01*
X141550001Y-58285001D01*
X141632070Y-58185000D01*
X141644974Y-58169277D01*
X141715546Y-58037247D01*
X141726412Y-58001426D01*
X141759003Y-57893986D01*
X141770000Y-57782333D01*
X141770000Y-57782324D01*
X141773676Y-57745001D01*
X141770000Y-57707678D01*
X141770000Y-49662594D01*
X141839013Y-49625706D01*
X142059945Y-49444392D01*
X142070498Y-49479180D01*
X142129463Y-49589494D01*
X142208815Y-49686185D01*
X142305506Y-49765537D01*
X142415820Y-49824502D01*
X142535518Y-49860812D01*
X142660000Y-49873072D01*
X143224250Y-49870000D01*
X143383000Y-49711250D01*
X143383000Y-48387000D01*
X143637000Y-48387000D01*
X143637000Y-49711250D01*
X143795750Y-49870000D01*
X144360000Y-49873072D01*
X144484482Y-49860812D01*
X144604180Y-49824502D01*
X144714494Y-49765537D01*
X144811185Y-49686185D01*
X144890537Y-49589494D01*
X144949502Y-49479180D01*
X144985812Y-49359482D01*
X144998072Y-49235000D01*
X144995000Y-48545750D01*
X144836250Y-48387000D01*
X143637000Y-48387000D01*
X143383000Y-48387000D01*
X143363000Y-48387000D01*
X143363000Y-48133000D01*
X143383000Y-48133000D01*
X143383000Y-46808750D01*
X143637000Y-46808750D01*
X143637000Y-48133000D01*
X144836250Y-48133000D01*
X144995000Y-47974250D01*
X144998072Y-47285000D01*
X144985812Y-47160518D01*
X144949502Y-47040820D01*
X144890537Y-46930506D01*
X144811185Y-46833815D01*
X144714494Y-46754463D01*
X144604180Y-46695498D01*
X144484482Y-46659188D01*
X144360000Y-46646928D01*
X143795750Y-46650000D01*
X143637000Y-46808750D01*
X143383000Y-46808750D01*
X143224250Y-46650000D01*
X142660000Y-46646928D01*
X142535518Y-46659188D01*
X142415820Y-46695498D01*
X142305506Y-46754463D01*
X142208815Y-46833815D01*
X142129463Y-46930506D01*
X142070498Y-47040820D01*
X142059945Y-47075608D01*
X141839014Y-46894294D01*
X141581034Y-46756401D01*
X141301111Y-46671487D01*
X141010000Y-46642815D01*
X140718890Y-46671487D01*
X140438967Y-46756401D01*
X140180987Y-46894294D01*
X139954866Y-47079866D01*
X139769294Y-47305986D01*
X139760000Y-47323374D01*
X139750706Y-47305986D01*
X139565134Y-47079866D01*
X139339014Y-46894294D01*
X139081034Y-46756401D01*
X138801111Y-46671487D01*
X138510000Y-46642815D01*
X138218890Y-46671487D01*
X137938967Y-46756401D01*
X137680987Y-46894294D01*
X137454866Y-47079866D01*
X137269294Y-47305986D01*
X137131401Y-47563966D01*
X137046487Y-47843889D01*
X137025000Y-48062050D01*
X137025000Y-48457949D01*
X137046487Y-48676110D01*
X137131401Y-48956033D01*
X137269294Y-49214013D01*
X137454866Y-49440134D01*
X137680986Y-49625706D01*
X137750001Y-49662595D01*
X137750000Y-56120198D01*
X137480199Y-56390000D01*
X120083711Y-56390000D01*
X120039774Y-56346063D01*
X119870256Y-56232795D01*
X119681898Y-56154774D01*
X119481939Y-56115000D01*
X119278061Y-56115000D01*
X119078102Y-56154774D01*
X118889744Y-56232795D01*
X118720226Y-56346063D01*
X118576063Y-56490226D01*
X118462795Y-56659744D01*
X118384774Y-56848102D01*
X118345000Y-57048061D01*
X115060000Y-57048061D01*
X115060000Y-49882313D01*
X115073254Y-49881008D01*
X115239850Y-49830472D01*
X115393386Y-49748405D01*
X115527962Y-49637962D01*
X115638405Y-49503386D01*
X115720472Y-49349850D01*
X115771008Y-49183254D01*
X115788072Y-49010000D01*
X115788072Y-48062050D01*
X123690000Y-48062050D01*
X123690000Y-48457949D01*
X123711487Y-48676110D01*
X123796401Y-48956033D01*
X123934294Y-49214013D01*
X124119866Y-49440134D01*
X124345986Y-49625706D01*
X124603966Y-49763599D01*
X124883889Y-49848513D01*
X125175000Y-49877185D01*
X125466110Y-49848513D01*
X125746033Y-49763599D01*
X126004013Y-49625706D01*
X126230134Y-49440134D01*
X126415706Y-49214014D01*
X126425000Y-49196626D01*
X126434294Y-49214013D01*
X126619866Y-49440134D01*
X126845986Y-49625706D01*
X127103966Y-49763599D01*
X127383889Y-49848513D01*
X127675000Y-49877185D01*
X127966110Y-49848513D01*
X128246033Y-49763599D01*
X128504013Y-49625706D01*
X128724945Y-49444392D01*
X128735498Y-49479180D01*
X128794463Y-49589494D01*
X128873815Y-49686185D01*
X128970506Y-49765537D01*
X129080820Y-49824502D01*
X129200518Y-49860812D01*
X129325000Y-49873072D01*
X129889250Y-49870000D01*
X130048000Y-49711250D01*
X130048000Y-48387000D01*
X130302000Y-48387000D01*
X130302000Y-49711250D01*
X130460750Y-49870000D01*
X131025000Y-49873072D01*
X131149482Y-49860812D01*
X131269180Y-49824502D01*
X131379494Y-49765537D01*
X131476185Y-49686185D01*
X131555537Y-49589494D01*
X131614502Y-49479180D01*
X131650812Y-49359482D01*
X131663072Y-49235000D01*
X131660000Y-48545750D01*
X131501250Y-48387000D01*
X130302000Y-48387000D01*
X130048000Y-48387000D01*
X130028000Y-48387000D01*
X130028000Y-48133000D01*
X130048000Y-48133000D01*
X130048000Y-46808750D01*
X130302000Y-46808750D01*
X130302000Y-48133000D01*
X131501250Y-48133000D01*
X131660000Y-47974250D01*
X131663072Y-47285000D01*
X131650812Y-47160518D01*
X131614502Y-47040820D01*
X131555537Y-46930506D01*
X131476185Y-46833815D01*
X131379494Y-46754463D01*
X131269180Y-46695498D01*
X131149482Y-46659188D01*
X131025000Y-46646928D01*
X130460750Y-46650000D01*
X130302000Y-46808750D01*
X130048000Y-46808750D01*
X129889250Y-46650000D01*
X129325000Y-46646928D01*
X129200518Y-46659188D01*
X129080820Y-46695498D01*
X128970506Y-46754463D01*
X128873815Y-46833815D01*
X128794463Y-46930506D01*
X128735498Y-47040820D01*
X128724945Y-47075608D01*
X128504014Y-46894294D01*
X128246034Y-46756401D01*
X127966111Y-46671487D01*
X127675000Y-46642815D01*
X127383890Y-46671487D01*
X127103967Y-46756401D01*
X126845987Y-46894294D01*
X126619866Y-47079866D01*
X126434294Y-47305986D01*
X126425000Y-47323374D01*
X126415706Y-47305986D01*
X126230134Y-47079866D01*
X126004014Y-46894294D01*
X125746034Y-46756401D01*
X125466111Y-46671487D01*
X125175000Y-46642815D01*
X124883890Y-46671487D01*
X124603967Y-46756401D01*
X124345987Y-46894294D01*
X124119866Y-47079866D01*
X123934294Y-47305986D01*
X123796401Y-47563966D01*
X123711487Y-47843889D01*
X123690000Y-48062050D01*
X115788072Y-48062050D01*
X115788072Y-47510000D01*
X115771008Y-47336746D01*
X115720472Y-47170150D01*
X115638405Y-47016614D01*
X115527962Y-46882038D01*
X115393386Y-46771595D01*
X115239850Y-46689528D01*
X115073254Y-46638992D01*
X114900000Y-46621928D01*
X113700000Y-46621928D01*
X113526746Y-46638992D01*
X113360150Y-46689528D01*
X113206614Y-46771595D01*
X113072038Y-46882038D01*
X112961595Y-47016614D01*
X112907086Y-47118593D01*
X112906802Y-47118205D01*
X112692046Y-46921336D01*
X112443009Y-46770146D01*
X112169261Y-46670446D01*
X112156890Y-46668524D01*
X111927000Y-46789845D01*
X111927000Y-48133000D01*
X111947000Y-48133000D01*
X111947000Y-48387000D01*
X111927000Y-48387000D01*
X111927000Y-49730155D01*
X112156890Y-49851476D01*
X112169261Y-49849554D01*
X112443009Y-49749854D01*
X112692046Y-49598664D01*
X112906802Y-49401795D01*
X112907086Y-49401407D01*
X112961595Y-49503386D01*
X113072038Y-49637962D01*
X113206614Y-49748405D01*
X113360150Y-49830472D01*
X113526746Y-49881008D01*
X113540001Y-49882313D01*
X113540000Y-54012332D01*
X113540001Y-54012342D01*
X113540000Y-61915198D01*
X112715199Y-62740000D01*
X107263043Y-62740000D01*
X107159637Y-62585241D01*
X106959759Y-62385363D01*
X106727241Y-62230000D01*
X106959759Y-62074637D01*
X107159637Y-61874759D01*
X107316680Y-61639727D01*
X107424853Y-61378574D01*
X107480000Y-61101335D01*
X107480000Y-60818665D01*
X107424853Y-60541426D01*
X107316680Y-60280273D01*
X107159637Y-60045241D01*
X106959759Y-59845363D01*
X106727241Y-59690000D01*
X106959759Y-59534637D01*
X107159637Y-59334759D01*
X107316680Y-59099727D01*
X107424853Y-58838574D01*
X107480000Y-58561335D01*
X107480000Y-58278665D01*
X107424853Y-58001426D01*
X107316680Y-57740273D01*
X107159637Y-57505241D01*
X106959759Y-57305363D01*
X106727241Y-57150000D01*
X106959759Y-56994637D01*
X107159637Y-56794759D01*
X107316680Y-56559727D01*
X107424853Y-56298574D01*
X107480000Y-56021335D01*
X107480000Y-55738665D01*
X107424853Y-55461426D01*
X107316680Y-55200273D01*
X107159637Y-54965241D01*
X106959759Y-54765363D01*
X106724727Y-54608320D01*
X106463574Y-54500147D01*
X106186335Y-54445000D01*
X105903665Y-54445000D01*
X105626426Y-54500147D01*
X105365273Y-54608320D01*
X105130241Y-54765363D01*
X104930363Y-54965241D01*
X104773320Y-55200273D01*
X104665147Y-55461426D01*
X104610000Y-55738665D01*
X92240000Y-55738665D01*
X92184853Y-55461426D01*
X92076680Y-55200273D01*
X91919637Y-54965241D01*
X91719759Y-54765363D01*
X91484727Y-54608320D01*
X91223574Y-54500147D01*
X90946335Y-54445000D01*
X90663665Y-54445000D01*
X90386426Y-54500147D01*
X90125273Y-54608320D01*
X89890241Y-54765363D01*
X89690363Y-54965241D01*
X89533320Y-55200273D01*
X89425147Y-55461426D01*
X89370000Y-55738665D01*
X89370000Y-56021335D01*
X89425147Y-56298574D01*
X89533320Y-56559727D01*
X89690363Y-56794759D01*
X89890241Y-56994637D01*
X90122759Y-57150000D01*
X89890241Y-57305363D01*
X89690363Y-57505241D01*
X89533320Y-57740273D01*
X89425147Y-58001426D01*
X89370000Y-58278665D01*
X89370000Y-58561335D01*
X89425147Y-58838574D01*
X89533320Y-59099727D01*
X89690363Y-59334759D01*
X89890241Y-59534637D01*
X90122759Y-59690000D01*
X89890241Y-59845363D01*
X89690363Y-60045241D01*
X89533320Y-60280273D01*
X89425147Y-60541426D01*
X89370000Y-60818665D01*
X89370000Y-61101335D01*
X89425147Y-61378574D01*
X89533320Y-61639727D01*
X89690363Y-61874759D01*
X89890241Y-62074637D01*
X90122759Y-62230000D01*
X89890241Y-62385363D01*
X89690363Y-62585241D01*
X89533320Y-62820273D01*
X89425147Y-63081426D01*
X89370000Y-63358665D01*
X89370000Y-63641335D01*
X89425147Y-63918574D01*
X89533320Y-64179727D01*
X89690363Y-64414759D01*
X89890241Y-64614637D01*
X90122759Y-64770000D01*
X89890241Y-64925363D01*
X89690363Y-65125241D01*
X89533320Y-65360273D01*
X89425147Y-65621426D01*
X89370000Y-65898665D01*
X89370000Y-66181335D01*
X89425147Y-66458574D01*
X89533320Y-66719727D01*
X89690363Y-66954759D01*
X89890241Y-67154637D01*
X90122759Y-67310000D01*
X89890241Y-67465363D01*
X89690363Y-67665241D01*
X89533320Y-67900273D01*
X89425147Y-68161426D01*
X89370000Y-68438665D01*
X89370000Y-68721335D01*
X89425147Y-68998574D01*
X89533320Y-69259727D01*
X89690363Y-69494759D01*
X89890241Y-69694637D01*
X90122759Y-69850000D01*
X89890241Y-70005363D01*
X89690363Y-70205241D01*
X89533320Y-70440273D01*
X89425147Y-70701426D01*
X89370000Y-70978665D01*
X89370000Y-71261335D01*
X89425147Y-71538574D01*
X89533320Y-71799727D01*
X89690363Y-72034759D01*
X89890241Y-72234637D01*
X90122759Y-72390000D01*
X89890241Y-72545363D01*
X89690363Y-72745241D01*
X89533320Y-72980273D01*
X89425147Y-73241426D01*
X89370000Y-73518665D01*
X89370000Y-73801335D01*
X89425147Y-74078574D01*
X89533320Y-74339727D01*
X89690363Y-74574759D01*
X89890241Y-74774637D01*
X90122759Y-74930000D01*
X89890241Y-75085363D01*
X89690363Y-75285241D01*
X89533320Y-75520273D01*
X89425147Y-75781426D01*
X89370000Y-76058665D01*
X89370000Y-76341335D01*
X89425147Y-76618574D01*
X89533320Y-76879727D01*
X89690363Y-77114759D01*
X89890241Y-77314637D01*
X90122759Y-77470000D01*
X89890241Y-77625363D01*
X89690363Y-77825241D01*
X89533320Y-78060273D01*
X89425147Y-78321426D01*
X89370000Y-78598665D01*
X89370000Y-78881335D01*
X89425147Y-79158574D01*
X89533320Y-79419727D01*
X89690363Y-79654759D01*
X89890241Y-79854637D01*
X90122759Y-80010000D01*
X89890241Y-80165363D01*
X89690363Y-80365241D01*
X89533320Y-80600273D01*
X89425147Y-80861426D01*
X89370000Y-81138665D01*
X89370000Y-81421335D01*
X89425147Y-81698574D01*
X89533320Y-81959727D01*
X89690363Y-82194759D01*
X89890241Y-82394637D01*
X90122759Y-82550000D01*
X89890241Y-82705363D01*
X89690363Y-82905241D01*
X89670479Y-82935000D01*
X85456579Y-82935000D01*
X81530000Y-79008422D01*
X81530000Y-60173072D01*
X82645000Y-60173072D01*
X82769482Y-60160812D01*
X82889180Y-60124502D01*
X82999494Y-60065537D01*
X83096185Y-59986185D01*
X83175537Y-59889494D01*
X83234502Y-59779180D01*
X83270812Y-59659482D01*
X83283072Y-59535000D01*
X83283072Y-58545000D01*
X84775199Y-58545000D01*
X86870001Y-60639804D01*
X86870000Y-66091956D01*
X86715241Y-66195363D01*
X86515363Y-66395241D01*
X86358320Y-66630273D01*
X86250147Y-66891426D01*
X86195000Y-67168665D01*
X86195000Y-67451335D01*
X86250147Y-67728574D01*
X86358320Y-67989727D01*
X86515363Y-68224759D01*
X86715241Y-68424637D01*
X86950273Y-68581680D01*
X87211426Y-68689853D01*
X87488665Y-68745000D01*
X87771335Y-68745000D01*
X88048574Y-68689853D01*
X88309727Y-68581680D01*
X88544759Y-68424637D01*
X88744637Y-68224759D01*
X88901680Y-67989727D01*
X89009853Y-67728574D01*
X89065000Y-67451335D01*
X89065000Y-67168665D01*
X89009853Y-66891426D01*
X88901680Y-66630273D01*
X88744637Y-66395241D01*
X88544759Y-66195363D01*
X88390000Y-66091957D01*
X88390000Y-60362322D01*
X88393676Y-60324999D01*
X88390000Y-60287676D01*
X88390000Y-60287667D01*
X88379003Y-60176014D01*
X88335546Y-60032753D01*
X88264974Y-59900724D01*
X88251811Y-59884685D01*
X88193799Y-59813996D01*
X88193795Y-59813992D01*
X88170001Y-59784999D01*
X88141008Y-59761205D01*
X85653804Y-57274003D01*
X85630001Y-57244999D01*
X85514276Y-57150026D01*
X85382247Y-57079454D01*
X85238986Y-57035997D01*
X85127333Y-57025000D01*
X85127322Y-57025000D01*
X85090000Y-57021324D01*
X85052678Y-57025000D01*
X83283072Y-57025000D01*
X83283072Y-56035000D01*
X83270812Y-55910518D01*
X83234502Y-55790820D01*
X83175537Y-55680506D01*
X83096185Y-55583815D01*
X82999494Y-55504463D01*
X82889180Y-55445498D01*
X82769482Y-55409188D01*
X82645000Y-55396928D01*
X78645000Y-55396928D01*
X78520518Y-55409188D01*
X78400820Y-55445498D01*
X78333072Y-55481711D01*
X78333072Y-53910000D01*
X78303999Y-53614814D01*
X78217896Y-53330972D01*
X78193324Y-53285000D01*
X78256928Y-53285000D01*
X78269188Y-53409482D01*
X78305498Y-53529180D01*
X78364463Y-53639494D01*
X78443815Y-53736185D01*
X78540506Y-53815537D01*
X78650820Y-53874502D01*
X78770518Y-53910812D01*
X78895000Y-53923072D01*
X80359250Y-53920000D01*
X80518000Y-53761250D01*
X80518000Y-51912000D01*
X80772000Y-51912000D01*
X80772000Y-53761250D01*
X80930750Y-53920000D01*
X82395000Y-53923072D01*
X82519482Y-53910812D01*
X82639180Y-53874502D01*
X82749494Y-53815537D01*
X82846185Y-53736185D01*
X82925537Y-53639494D01*
X82984502Y-53529180D01*
X83020812Y-53409482D01*
X83033072Y-53285000D01*
X83030000Y-52070750D01*
X82871250Y-51912000D01*
X80772000Y-51912000D01*
X80518000Y-51912000D01*
X78418750Y-51912000D01*
X78260000Y-52070750D01*
X78256928Y-53285000D01*
X78193324Y-53285000D01*
X78078073Y-53069382D01*
X77889903Y-52840097D01*
X77660618Y-52651927D01*
X77399028Y-52512104D01*
X77115186Y-52426001D01*
X76820000Y-52396928D01*
X75070000Y-52396928D01*
X74774814Y-52426001D01*
X74490972Y-52512104D01*
X74229382Y-52651927D01*
X74000097Y-52840097D01*
X73811927Y-53069382D01*
X73672104Y-53330972D01*
X73586001Y-53614814D01*
X73556928Y-53910000D01*
X64897000Y-53910000D01*
X64897000Y-50285000D01*
X78256928Y-50285000D01*
X78260000Y-51499250D01*
X78418750Y-51658000D01*
X80518000Y-51658000D01*
X80518000Y-49808750D01*
X80772000Y-49808750D01*
X80772000Y-51658000D01*
X82871250Y-51658000D01*
X83030000Y-51499250D01*
X83033072Y-50285000D01*
X83020812Y-50160518D01*
X82984502Y-50040820D01*
X82925537Y-49930506D01*
X82846185Y-49833815D01*
X82749494Y-49754463D01*
X82639180Y-49695498D01*
X82519482Y-49659188D01*
X82395000Y-49646928D01*
X80930750Y-49650000D01*
X80772000Y-49808750D01*
X80518000Y-49808750D01*
X80359250Y-49650000D01*
X78895000Y-49646928D01*
X78770518Y-49659188D01*
X78650820Y-49695498D01*
X78540506Y-49754463D01*
X78443815Y-49833815D01*
X78364463Y-49930506D01*
X78305498Y-50040820D01*
X78269188Y-50160518D01*
X78256928Y-50285000D01*
X64897000Y-50285000D01*
X64897000Y-48619742D01*
X110328715Y-48619742D01*
X110397904Y-48902745D01*
X110520975Y-49166812D01*
X110693198Y-49401795D01*
X110907954Y-49598664D01*
X111156991Y-49749854D01*
X111430739Y-49849554D01*
X111443110Y-49851476D01*
X111673000Y-49730155D01*
X111673000Y-48387000D01*
X110472768Y-48387000D01*
X110328715Y-48619742D01*
X64897000Y-48619742D01*
X64897000Y-47900258D01*
X110328715Y-47900258D01*
X110472768Y-48133000D01*
X111673000Y-48133000D01*
X111673000Y-46789845D01*
X111443110Y-46668524D01*
X111430739Y-46670446D01*
X111156991Y-46770146D01*
X110907954Y-46921336D01*
X110693198Y-47118205D01*
X110520975Y-47353188D01*
X110397904Y-47617255D01*
X110328715Y-47900258D01*
X64897000Y-47900258D01*
X64897000Y-46857767D01*
X65075271Y-47036038D01*
X65441331Y-47280631D01*
X65848075Y-47449110D01*
X66279872Y-47535000D01*
X66720128Y-47535000D01*
X67151925Y-47449110D01*
X67558669Y-47280631D01*
X67924729Y-47036038D01*
X68236038Y-46724729D01*
X68480631Y-46358669D01*
X68649110Y-45951925D01*
X68735000Y-45520128D01*
X68735000Y-45079872D01*
X68649110Y-44648075D01*
X68480631Y-44241331D01*
X68280625Y-43942000D01*
X153719375Y-43942000D01*
X153519369Y-44241331D01*
G37*
%TD.AperFunction*%
D24*
X144020000Y-101920198D02*
X143830199Y-102110000D01*
X141824064Y-102110000D01*
X141824502Y-102109180D01*
X141860812Y-101989482D01*
X141873072Y-101865000D01*
X141870000Y-101250750D01*
X141711250Y-101092000D01*
X140462000Y-101092000D01*
X140462000Y-101112000D01*
X140208000Y-101112000D01*
X140208000Y-101092000D01*
X140188000Y-101092000D01*
X140188000Y-100838000D01*
X140208000Y-100838000D01*
X140208000Y-99588750D01*
X140462000Y-99588750D01*
X140462000Y-100838000D01*
X141711250Y-100838000D01*
X141870000Y-100679250D01*
X141873072Y-100065000D01*
X141860812Y-99940518D01*
X141824502Y-99820820D01*
X141765537Y-99710506D01*
X141686185Y-99613815D01*
X141589494Y-99534463D01*
X141479180Y-99475498D01*
X141359482Y-99439188D01*
X141235000Y-99426928D01*
X140620750Y-99430000D01*
X140462000Y-99588750D01*
X140208000Y-99588750D01*
X140049250Y-99430000D01*
X139435000Y-99426928D01*
X139310518Y-99439188D01*
X139190820Y-99475498D01*
X139080506Y-99534463D01*
X138983815Y-99613815D01*
X138904463Y-99710506D01*
X138845498Y-99820820D01*
X138839944Y-99839127D01*
X138773505Y-99772688D01*
X138522095Y-99604701D01*
X138242743Y-99488989D01*
X137946184Y-99430000D01*
X137643816Y-99430000D01*
X137347257Y-99488989D01*
X137067905Y-99604701D01*
X137029317Y-99630485D01*
X137474802Y-99185000D01*
X140297678Y-99185000D01*
X140335000Y-99188676D01*
X140372322Y-99185000D01*
X140372333Y-99185000D01*
X140483986Y-99174003D01*
X140627247Y-99130546D01*
X140759276Y-99059974D01*
X140875001Y-98965001D01*
X140898803Y-98935998D01*
X141481004Y-98353798D01*
X141510001Y-98330001D01*
X141604974Y-98214276D01*
X141675546Y-98082247D01*
X141719003Y-97938986D01*
X141730000Y-97827333D01*
X141730000Y-97827332D01*
X141733677Y-97790000D01*
X141730000Y-97752667D01*
X141730000Y-95484317D01*
X141760363Y-95529759D01*
X141960241Y-95729637D01*
X142195273Y-95886680D01*
X142456426Y-95994853D01*
X142733665Y-96050000D01*
X143016335Y-96050000D01*
X143293574Y-95994853D01*
X143554727Y-95886680D01*
X143789759Y-95729637D01*
X143989637Y-95529759D01*
X144020000Y-95484317D01*
X144020000Y-101920198D01*
%TA.AperFunction,Conductor*%
D25*
G36*
X144020000Y-101920198D02*
G01*
X143830199Y-102110000D01*
X141824064Y-102110000D01*
X141824502Y-102109180D01*
X141860812Y-101989482D01*
X141873072Y-101865000D01*
X141870000Y-101250750D01*
X141711250Y-101092000D01*
X140462000Y-101092000D01*
X140462000Y-101112000D01*
X140208000Y-101112000D01*
X140208000Y-101092000D01*
X140188000Y-101092000D01*
X140188000Y-100838000D01*
X140208000Y-100838000D01*
X140208000Y-99588750D01*
X140462000Y-99588750D01*
X140462000Y-100838000D01*
X141711250Y-100838000D01*
X141870000Y-100679250D01*
X141873072Y-100065000D01*
X141860812Y-99940518D01*
X141824502Y-99820820D01*
X141765537Y-99710506D01*
X141686185Y-99613815D01*
X141589494Y-99534463D01*
X141479180Y-99475498D01*
X141359482Y-99439188D01*
X141235000Y-99426928D01*
X140620750Y-99430000D01*
X140462000Y-99588750D01*
X140208000Y-99588750D01*
X140049250Y-99430000D01*
X139435000Y-99426928D01*
X139310518Y-99439188D01*
X139190820Y-99475498D01*
X139080506Y-99534463D01*
X138983815Y-99613815D01*
X138904463Y-99710506D01*
X138845498Y-99820820D01*
X138839944Y-99839127D01*
X138773505Y-99772688D01*
X138522095Y-99604701D01*
X138242743Y-99488989D01*
X137946184Y-99430000D01*
X137643816Y-99430000D01*
X137347257Y-99488989D01*
X137067905Y-99604701D01*
X137029317Y-99630485D01*
X137474802Y-99185000D01*
X140297678Y-99185000D01*
X140335000Y-99188676D01*
X140372322Y-99185000D01*
X140372333Y-99185000D01*
X140483986Y-99174003D01*
X140627247Y-99130546D01*
X140759276Y-99059974D01*
X140875001Y-98965001D01*
X140898803Y-98935998D01*
X141481004Y-98353798D01*
X141510001Y-98330001D01*
X141604974Y-98214276D01*
X141675546Y-98082247D01*
X141719003Y-97938986D01*
X141730000Y-97827333D01*
X141730000Y-97827332D01*
X141733677Y-97790000D01*
X141730000Y-97752667D01*
X141730000Y-95484317D01*
X141760363Y-95529759D01*
X141960241Y-95729637D01*
X142195273Y-95886680D01*
X142456426Y-95994853D01*
X142733665Y-96050000D01*
X143016335Y-96050000D01*
X143293574Y-95994853D01*
X143554727Y-95886680D01*
X143789759Y-95729637D01*
X143989637Y-95529759D01*
X144020000Y-95484317D01*
X144020000Y-101920198D01*
G37*
%TD.AperFunction*%
%TD*%
M02*
